<svg id="Capa_1" data-name="Capa 1" xmlns="http://www.w3.org/2000/svg" viewBox="0 0 300 100"><defs><style>.cls-1{fill:#fff;}</style></defs><title>Mesa de trabajo 1</title><path class="cls-1" d="M296.88,46.86c-2.29-2.47-5.4-3.68-9.39-3.68s-7.19,1.21-9.38,3.68A12.79,12.79,0,0,0,275,55.94,13,13,0,0,0,278.15,65c2.3,2.47,5.4,3.68,9.34,3.68s7-1.21,9.27-3.68A12.7,12.7,0,0,0,300,55.94a13.05,13.05,0,0,0-3.12-9.08Zm-7,14.79a2.46,2.46,0,0,1-2.39,1.93c-2.24,0-3.36-2.57-3.36-7.64s1.12-7.83,3.36-7.83c2,0,3.06,2.61,3.06,7.83a17.3,17.3,0,0,1-.67,5.71Z"/><polygon class="cls-1" points="272.45 40.84 272.45 36.61 263.99 36.61 263.99 40.84 272.45 40.84"/><polygon class="cls-1" points="272.45 67.62 272.45 43.66 263.99 43.66 263.99 67.62 272.45 67.62"/><path class="cls-1" d="M249.89,36.61v6.22c-6.63.8-11.52,2.56-14.75,5.29a10.32,10.32,0,0,0-4.07,8.47c0,3.89,1.54,6.72,4.4,8.48s7.45,2.55,13.69,2.55h10.6v-31Zm-5.58,25.53c-1.66-.9-2.47-2.57-2.47-5a8,8,0,0,1,2.34-5.67A7.65,7.65,0,0,1,249.89,49V63.08a12.42,12.42,0,0,1-5.58-.94Z"/><path class="cls-1" d="M149.78,43.66h-8.44V60.83a6.29,6.29,0,0,0,3.18,5.48c2.32,1.52,5.5,2.3,9.5,2.3a19.2,19.2,0,0,0,8.68-1.71l4,1.17V43.66h-9.87V59.49a3.51,3.51,0,0,1-3.19,3.44c-2.58.16-3.86-1-3.86-3.36V43.66Z"/><path class="cls-1" d="M136.39,44a27.45,27.45,0,0,0-6.39-.86c-3.73,0-6.69.68-8.81,2a5.31,5.31,0,0,0-2.92,4.31q-.06,3,3.64,5.17l6.16,3c1.4.8,2.07,1.71,2.07,2.74,0,2.11-1.74,3.18-5.21,3.18a20.35,20.35,0,0,1-6.66-.94l-.22,5a38.48,38.48,0,0,0,8.77,1c4,0,7.1-.72,9.22-2.11a6.67,6.67,0,0,0,3.28-6,5.83,5.83,0,0,0-1.66-4.32,11.12,11.12,0,0,0-3.74-2.3l-3.59-1.39C128.8,51.82,128,51,128,50c0-1.21,1.39-1.85,4.17-1.85l4.4.58L136.39,44Z"/><polygon class="cls-1" points="114.55 36.61 104.68 36.61 104.68 67.62 114.55 67.62 114.55 36.61"/><path class="cls-1" d="M99.94,46.86c-2.29-2.47-5.39-3.68-9.38-3.68s-7.19,1.21-9.39,3.68A12.79,12.79,0,0,0,78,55.94,13,13,0,0,0,81.21,65c2.3,2.47,5.4,3.68,9.35,3.68s7-1.21,9.26-3.68a12.66,12.66,0,0,0,3.28-9.07,13,13,0,0,0-3.16-9.08Zm-6.3,9.08a15.66,15.66,0,0,1-.72,5.71,2.45,2.45,0,0,1-2.38,1.93c-2.24,0-3.37-2.57-3.37-7.64s1.13-7.83,3.37-7.83q3.1,0,3.1,7.83Z"/><polygon class="cls-1" points="220.29 40.84 230.16 40.84 230.16 36.61 220.29 36.61 220.29 40.84"/><polygon class="cls-1" points="230.16 43.66 220.29 43.66 220.29 67.62 230.16 67.62 230.16 43.66"/><path class="cls-1" d="M209,43.16c-3.73,0-6.69.68-8.81,2a5.33,5.33,0,0,0-2.92,4.31q-.06,3,3.64,5.17l6.16,3c1.4.8,2.07,1.71,2.07,2.74,0,2.11-1.74,3.18-5.21,3.18a20.35,20.35,0,0,1-6.66-.94l-.22,5a38.48,38.48,0,0,0,8.77,1c4,0,7.1-.72,9.22-2.11a6.67,6.67,0,0,0,3.28-6,6,6,0,0,0-1.66-4.32,10.54,10.54,0,0,0-3.74-2.3l-3.59-1.39c-1.52-.72-2.3-1.58-2.3-2.57,0-1.21,1.4-1.85,4.13-1.85a16.1,16.1,0,0,1,4.46.58L215.37,44a28.78,28.78,0,0,0-6.35-.82Z"/><path class="cls-1" d="M179.4,42.84V36.61h-9.87v31h10.6q9.36,0,13.65-2.56c2.85-1.66,4.36-4.48,4.45-8.47a10.54,10.54,0,0,0-4.07-8.48c-3.25-2.72-8.14-4.47-14.76-5.27ZM178,63.08V49a7.42,7.42,0,0,1,5.63,2.47A7.89,7.89,0,0,1,186,57.11c0,2.46-.8,4.13-2.47,5a12.54,12.54,0,0,1-5.58.94Z"/><polygon class="cls-1" points="57.16 21.1 29.96 21.1 29.96 48.29 57.16 21.1"/><path class="cls-1" d="M76.48,42.36V36.61c-6.24.18-11.28,1.66-15.19,4.49C57.2,44,55.12,47.8,55.12,52.52c0,5.18,2.3,9.17,6.88,12.1a28,28,0,0,0,14.48,4v-6a18.39,18.39,0,0,1-7.14-2.61q-4.45-2.89-4.46-7.56a8.59,8.59,0,0,1,4-7.23,15.14,15.14,0,0,1,7.64-2.93Z"/><polygon class="cls-1" points="16.37 33.79 28.55 33.79 28.55 21.61 16.37 33.79"/><polygon class="cls-1" points="28.55 36.61 15.86 36.61 15.86 49.3 28.55 49.3 28.55 36.61"/><polygon class="cls-1" points="28.55 50.7 16.37 50.7 28.55 62.89 28.55 50.7"/><polygon class="cls-1" points="15.86 52.8 15.86 64.85 28.55 77.54 28.55 65.49 15.86 52.8"/><polygon class="cls-1" points="13.04 63.25 13.04 37.19 0 50.23 13.04 63.25"/><polygon class="cls-1" points="57.16 78.9 29.96 51.71 29.96 78.9 57.16 78.9"/></svg>