<?xml version="1.0" encoding="utf-8"?>
<!-- Generator: Adobe Illustrator 23.0.1, SVG Export Plug-In . SVG Version: 6.00 Build 0)  -->
<svg version="1.1" id="Capa_1" xmlns="http://www.w3.org/2000/svg" xmlns:xlink="http://www.w3.org/1999/xlink" x="0px" y="0px"
	 viewBox="0 0 212.54 41.32" style="enable-background:new 0 0 212.54 41.32;" xml:space="preserve">
<style type="text/css">
	.st0{fill:#136380;}
	.st1{fill:#00AFB7;}
	.st2{fill:none;stroke:#344154;stroke-width:3;stroke-linecap:round;stroke-miterlimit:10;}
	.st3{fill:#FF6D3B;}
	.st4{fill:url(#SVGID_1_);}
	.st5{fill:url(#SVGID_2_);}
	.st6{fill:url(#SVGID_3_);}
	.st7{fill:url(#SVGID_4_);}
	.st8{fill:url(#SVGID_5_);}
	.st9{opacity:0.5;fill:url(#SVGID_6_);}
	.st10{fill:url(#SVGID_7_);}
	.st11{fill:#FFFFFF;}
	.st12{clip-path:url(#SVGID_9_);fill:#FFFFFF;}
	.st13{fill-rule:evenodd;clip-rule:evenodd;fill:#FFFFFF;}
</style>
<g>
	<path class="st11" d="M210.34,18.27c-1.63-1.75-3.83-2.61-6.66-2.61c-2.87,0-5.1,0.86-6.66,2.61c-1.5,1.63-2.23,3.76-2.23,6.44
		c0,2.65,0.77,4.81,2.26,6.44c1.63,1.75,3.83,2.61,6.63,2.61c2.77,0,4.97-0.86,6.57-2.61c1.53-1.63,2.3-3.76,2.3-6.44
		C212.54,22.06,211.81,19.89,210.34,18.27L210.34,18.27z M205.37,28.76c-0.32,0.92-0.89,1.37-1.69,1.37c-1.59,0-2.39-1.82-2.39-5.42
		c0-3.7,0.8-5.55,2.39-5.55c1.43,0,2.17,1.85,2.17,5.55C205.85,26.59,205.69,27.93,205.37,28.76L205.37,28.76z"/>
	<polygon class="st11" points="192.78,13.9 192.78,11.32 186.3,11.32 186.3,13.9 192.78,13.9 	"/>
	<polygon class="st11" points="192.78,33.38 192.78,16.16 186.3,16.16 186.3,33.38 192.78,33.38 	"/>
	<path class="st11" d="M177.22,11.32v4.43c-4.37,0.57-7.59,1.82-9.72,3.76c-1.85,1.69-2.74,3.7-2.68,6.03
		c0.03,2.77,1.02,4.78,2.9,6.03c1.88,1.21,4.91,1.82,9.02,1.82h6.98V11.32H177.22L177.22,11.32z M173.27,29.11
		c-1.18-0.64-1.75-1.82-1.75-3.57c0-1.5,0.54-2.84,1.66-4.02c1.15-1.18,2.49-1.75,4.05-1.75v10.01
		C175.4,29.78,174.1,29.55,173.27,29.11L173.27,29.11z"/>
	<path class="st11" d="M106.67,16.07h-6.69v12.18c0,1.59,0.73,2.9,2.23,3.89c1.63,1.08,3.86,1.63,6.66,1.63
		c2.49,0,4.53-0.41,6.09-1.21l2.81,0.83V16.07h-6.5v11.29c0,1.59-0.8,2.39-2.39,2.39c-1.47,0-2.2-0.8-2.2-2.39V16.07L106.67,16.07z"
		/>
	<path class="st11" d="M96.5,16.26c-1.69-0.41-3.22-0.61-4.53-0.61c-2.65,0-4.75,0.48-6.25,1.4c-1.31,0.8-2.01,1.82-2.07,3.06
		c-0.03,1.43,0.83,2.65,2.58,3.67l4.37,2.14c0.99,0.57,1.47,1.21,1.47,1.94c0,1.5-1.24,2.26-3.7,2.26c-1.88,0-3.44-0.22-4.72-0.67
		l-0.16,3.57c2.07,0.48,4.14,0.73,6.22,0.73c2.84,0,5.04-0.51,6.54-1.5c1.56-0.99,2.33-2.39,2.33-4.27c0-1.24-0.38-2.26-1.18-3.06
		c-0.61-0.61-1.47-1.15-2.65-1.63l-2.55-0.99c-1.08-0.51-1.63-1.12-1.63-1.82c0-0.86,0.99-1.31,2.96-1.31l3.12,0.41L96.5,16.26
		L96.5,16.26z"/>
	<polygon class="st11" points="81.2,11.32 74.5,11.32 74.5,33.38 81.2,33.38 81.2,11.32 	"/>
	<path class="st11" d="M70.65,18.27c-1.63-1.75-3.83-2.61-6.66-2.61c-2.87,0-5.1,0.86-6.66,2.61c-1.5,1.63-2.23,3.76-2.23,6.44
		c0,2.65,0.77,4.81,2.26,6.44c1.63,1.75,3.83,2.61,6.63,2.61c2.77,0,4.97-0.86,6.57-2.61c1.56-1.66,2.33-3.79,2.33-6.44
		C72.88,22.06,72.14,19.92,70.65,18.27L70.65,18.27z M66.18,24.71c0,1.88-0.16,3.25-0.51,4.05c-0.32,0.92-0.89,1.37-1.69,1.37
		c-1.59,0-2.39-1.82-2.39-5.42c0-3.7,0.8-5.55,2.39-5.55C65.45,19.16,66.18,21.01,66.18,24.71L66.18,24.71z"/>
	<polygon class="st11" points="156.31,13.9 162.81,13.9 162.81,11.32 156.31,11.32 156.31,13.9 	"/>
	<polygon class="st11" points="162.81,16.16 156.31,16.16 156.31,33.38 162.81,33.38 162.81,16.16 	"/>
	<path class="st11" d="M148.02,15.65c-2.65,0-4.75,0.48-6.25,1.4c-1.31,0.8-2.01,1.82-2.07,3.06c-0.03,1.43,0.83,2.65,2.58,3.67
		l4.37,2.14c0.99,0.57,1.47,1.21,1.47,1.94c0,1.5-1.24,2.26-3.7,2.26c-1.88,0-3.44-0.22-4.72-0.67l-0.16,3.57
		c2.07,0.48,4.14,0.73,6.22,0.73c2.84,0,5.04-0.51,6.54-1.5c1.56-0.99,2.33-2.39,2.33-4.27c0-1.21-0.38-2.23-1.18-3.06
		c-0.57-0.61-1.47-1.15-2.65-1.63l-2.55-0.99c-1.08-0.51-1.63-1.12-1.63-1.82c0-0.86,0.99-1.31,2.93-1.31c1.15,0,2.2,0.13,3.16,0.41
		l-0.19-3.35C150.82,15.84,149.32,15.65,148.02,15.65L148.02,15.65z"/>
	<path class="st11" d="M126.28,15.75v-4.43h-6.5v22.06h6.98c4.11,0,7.11-0.61,8.99-1.82c1.88-1.18,2.87-3.19,2.93-6.03
		c0.03-2.36-0.86-4.37-2.68-6.03C133.86,17.57,130.64,16.32,126.28,15.75L126.28,15.75z M126.28,29.78V19.77
		c1.56,0,2.87,0.57,3.99,1.75c1.15,1.18,1.72,2.52,1.72,4.02c0,1.75-0.57,2.93-1.75,3.57C129.4,29.55,128.09,29.78,126.28,29.78
		L126.28,29.78z"/>
	<polygon class="st11" points="40.3,0 21.01,0 21.01,19.29 40.3,0 	"/>
	<path class="st11" d="M53.65,15.08V11c-4.43,0.13-8,1.18-10.78,3.19c-2.9,2.07-4.37,4.75-4.37,8.1c0,3.67,1.63,6.5,4.88,8.58
		c2.77,1.79,6.22,2.74,10.27,2.87v-4.24c-1.91-0.29-3.6-0.92-5.07-1.85c-2.1-1.37-3.16-3.16-3.16-5.36c0-2.07,0.92-3.76,2.81-5.13
		C49.76,16,51.58,15.3,53.65,15.08L53.65,15.08z"/>
	<polygon class="st11" points="11.22,9.44 19.86,9.44 19.86,0.8 11.22,9.44 	"/>
	<polygon class="st11" points="19.86,10.62 10.39,10.62 10.39,20.05 19.86,20.05 19.86,10.62 	"/>
	<polygon class="st11" points="19.86,21.2 11.22,21.2 19.86,29.84 19.86,21.2 	"/>
	<polygon class="st11" points="10.39,22.03 10.39,31.02 19.86,40.49 19.86,31.5 10.39,22.03 	"/>
	<polygon class="st11" points="9.25,29.9 9.25,11.41 0,20.66 9.25,29.9 	"/>
	<polygon class="st11" points="40.3,41.32 21.01,22.03 21.01,41.32 40.3,41.32 	"/>
</g>
</svg>
