<svg id="Capa_1" data-name="Capa 1" xmlns="http://www.w3.org/2000/svg" xmlns:xlink="http://www.w3.org/1999/xlink" viewBox="0 0 300 100"><defs><style>.cls-1{fill:none;}.cls-2{fill:#fff;}.cls-3{clip-path:url(#clip-path);}</style><clipPath id="clip-path"><path class="cls-1" d="M169.47,1.67s-38,38.48-41.33,41.88c.19-3.75,1-18,1-18a6.13,6.13,0,0,0-10.46-4.81S94.43,45,93.81,45.65L94.34,36A5.83,5.83,0,0,0,90.8,30.2a6.49,6.49,0,0,0-7.2,1.52s-3.5,3.63-5.86,6c.07-.84,1.34-24.55,1.34-24.55a6.15,6.15,0,0,0-3.53-6.06,6.08,6.08,0,0,0-6.88,1.23L8.81,68.68s-4.08,4.29,0,8.65c4.4,4,8.66,0,8.66,0l48.56-49c-.2,3.38-1.21,22.28-1.21,22.28a6.33,6.33,0,0,0,3.37,6c4.13,2,6.8-.85,8-2.09,0,0,2-2,4.41-4.43-.35,4.24-.49,9.45-.55,10.4v.11a6.12,6.12,0,0,0,10.45,4.79s25.77-26.22,25.75-25.94l-1,19.1a6.15,6.15,0,0,0,3.62,6.13,6.32,6.32,0,0,0,7.1-1.45l51.87-52.58a6.17,6.17,0,0,0-.23-9,6.1,6.1,0,0,0-8.21.16"/></clipPath></defs><title>Mesa de trabajo 1</title><path id="SVGID" class="cls-2" d="M169.61,1.85s-38.1,38.39-41.43,41.79c.19-3.75,1-18,1-18a6.13,6.13,0,0,0-10.44-4.84S94.47,45,93.85,45.65c.2-3.45.55-9.6.55-9.6a5.85,5.85,0,0,0-3.53-5.85,6.46,6.46,0,0,0-7.2,1.5s-3.51,3.62-5.87,6c.06-.84,1.39-24.55,1.39-24.55a6.11,6.11,0,0,0-10.4-4.86l-60,60.23s-4.08,4.28,0,8.65c4.39,4,8.65,0,8.65,0L66.14,28.21c-.2,3.38-1.26,22.27-1.26,22.27a6.33,6.33,0,0,0,3.36,6c4.13,2,6.8-.83,8-2.07,0,0,2-2,4.41-4.42-.35,4.24-.51,9.45-.57,10.4v.11a6.12,6.12,0,0,0,10.44,4.81s25.83-26.16,25.81-25.87l-1,19.1a6.13,6.13,0,0,0,3.6,6.13A6.32,6.32,0,0,0,126,63.2l52-52.45a6.16,6.16,0,0,0-.19-9,6.1,6.1,0,0,0-8.22.13"/><g class="cls-3"><rect class="cls-2" x="4.96" y="-0.55" width="176.8" height="82.11" transform="translate(-0.1 0.22) rotate(-0.14)"/></g><path class="cls-2" d="M286.64,13.64A6.39,6.39,0,1,0,293,20a6.39,6.39,0,0,0-6.38-6.4m-1.22,14.73H283.2a4.43,4.43,0,0,0-4.71,4c-1.35,7.76-3.18,18.08-4.85,28.27-.69,4.28-.11,5.29,2,5.29h5.52c3,0,3.51-1.37,3.78-3.15,1.85-11.27,3.66-20.15,5.23-29.37.63-3.72-1-5-3.74-5m-26.83,1.36a12.06,12.06,0,0,0-8.34,3.14c-2,1.74-3.93,4.54-5.85,8.43,0-.46.15-1.1.31-2V36.55c0-2.73-.68-4.76-2-6s-3.59-2-6.74-2a11.4,11.4,0,0,0-8.07,3.2,28.94,28.94,0,0,0-5.64,8.16c.68-3.41,1-5.14,1.38-7.76.18-1.35.07-3.78-3.09-3.78l-3.09,0c-1.12,0-3.72,0-4.32,3.38-.66,3.61-1.72,9.44-1.85,10.1l-3,17.87c-.68,4-.34,6.24,3,6.15h6a5.23,5.23,0,0,0,3.59-4.3l1.42-9q1.48-10.09,4.46-13.95a5.69,5.69,0,0,1,4.68-2.47,2.19,2.19,0,0,1,2.09,1.23,6.71,6.71,0,0,1,.67,3.23,12,12,0,0,1-.25,2.47L231.67,60.4a10.65,10.65,0,0,0,2.16,7.7h5.85s3.25-3.36,3.76-6.11l2.07-12.59A24.25,24.25,0,0,1,248.89,40c1.59-2.38,3.29-3.57,5.12-3.57a2.88,2.88,0,0,1,2.69,1.36,3,3,0,0,1,0,2.94v1.7c.6,0-2.31,17.06-2.47,18-.64,4.09,2.23,5.41,2.23,5.41h5.39c2.41,0,3-1.36,3.4-3.51.66-3.26,1.68-9,1.68-9h0L268.85,43a16.66,16.66,0,0,0,.28-3.16c0-3.44-1.06-6.09-3.22-8a10.26,10.26,0,0,0-7.22-2.52m-75.26,8.26a7.51,7.51,0,0,1,5.85-3,4.39,4.39,0,0,1,2.74.89,2.69,2.69,0,0,1,1.13,2.18c0,1.86-.93,3.49-2.78,5-2.41,1.95-6.1,3.25-11.09,3.93a23.85,23.85,0,0,1,4.15-9m16.36,8.87a8.56,8.56,0,0,0,4.46-7.86,7.21,7.21,0,0,0-3.68-6.44c-2.48-1.55-5.83-2.3-10.14-2.3a24.35,24.35,0,0,0-17.13,6.51,20.73,20.73,0,0,0-7.06,15.77q0,7,4.52,11.12c3,2.76,7,4.15,12.06,4.15a31.43,31.43,0,0,0,13.29-3.11c4.5-2.07,6.73-4.17,6.73-6.29a2.55,2.55,0,0,0-.44-1.35,1.59,1.59,0,0,0-1.44-.73,4.66,4.66,0,0,0-1.48.31l-4.37,2.87a18,18,0,0,1-8.43,2.32,7,7,0,0,1-5.92-2.63A8.6,8.6,0,0,1,179,53.27a12.55,12.55,0,0,1,.17-1.79c10.09-1.2,17-2.87,20.62-5"/><path class="cls-2" d="M77.73,93A7.14,7.14,0,0,1,76,96.25a4.71,4.71,0,0,1-3.42,1.37c-2.6,0-4-1.46-4-3.51a6,6,0,0,1,.25-1.7L70.27,87a.7.7,0,0,1,.66-.6c.38,0,.64.29.51.77L70,92.74A5.37,5.37,0,0,0,69.81,94c0,1.44.93,2.5,2.87,2.5a3.5,3.5,0,0,0,2.45-1,5.82,5.82,0,0,0,1.39-2.67L78.09,87a.7.7,0,0,1,.68-.6c.38,0,.66.29.51.78Z"/><path class="cls-2" d="M82.3,89.85l-.19.79a3.61,3.61,0,0,1,2.82-1.48,2.38,2.38,0,0,1,2.58,2.52,5.35,5.35,0,0,1-.19,1.26l-1.06,4a.69.69,0,0,1-.67.6c-.39,0-.61-.29-.48-.75l1-3.91a3.57,3.57,0,0,0,.13-.91,1.62,1.62,0,0,0-1.81-1.7,3.37,3.37,0,0,0-2.94,2.61l-1.08,4.06a.7.7,0,0,1-.66.6c-.38,0-.6-.29-.49-.75l1.86-6.91a.68.68,0,0,1,.68-.6A.45.45,0,0,1,82.3,89.85Z"/><path class="cls-2" d="M93.87,96.89l.2-.73a3.89,3.89,0,0,1-3,1.43,2.31,2.31,0,0,1-2.56-2.23c0-1.81,1.52-2.93,3.59-2.93a11,11,0,0,1,2.9.44l0-.2a2.9,2.9,0,0,0,.11-.75c0-1.06-.73-1.63-2.19-1.63a6.38,6.38,0,0,0-1.85.28.74.74,0,0,1-.24.05.48.48,0,0,1-.49-.51.53.53,0,0,1,.4-.51,7.66,7.66,0,0,1,2.38-.37c2,0,3.18,1,3.18,2.51a4,4,0,0,1-.17,1.11l-1.09,4.06a.7.7,0,0,1-.66.6A.49.49,0,0,1,93.87,96.89Zm.75-2.63.16-.57a9.94,9.94,0,0,0-2.63-.36c-1.44,0-2.43.78-2.43,1.9,0,.86.69,1.44,1.72,1.44A3.44,3.44,0,0,0,94.62,94.26Z"/><path class="cls-2" d="M108.07,96.62a.9.9,0,0,1,.39-.13A.47.47,0,0,1,109,97a.55.55,0,0,1-.24.44,4.48,4.48,0,0,1-2.92,1A3.32,3.32,0,0,1,102.22,95a5,5,0,0,1,4.72-5,3,3,0,0,1,3.14,3.09,5.69,5.69,0,0,1-.11,1,.62.62,0,0,1-.67.55h-5.87c0,.14,0,.27,0,.4a2.28,2.28,0,0,0,2.45,2.38A3.49,3.49,0,0,0,108.07,96.62Zm.75-4.26a2.19,2.19,0,0,0,.08-.61,1.9,1.9,0,0,0-2-2.08,3.53,3.53,0,0,0-3.26,2.72h5.19Z"/><path class="cls-2" d="M117.54,92.85a3.18,3.18,0,0,0,.13-.91,1.57,1.57,0,0,0-1.7-1.7,3.29,3.29,0,0,0-2.8,2.61l-1.09,4.06a.7.7,0,0,1-.68.6c-.38,0-.6-.29-.49-.76l1.86-6.9a.68.68,0,0,1,.66-.6.48.48,0,0,1,.51.6l-.2.79a3.46,3.46,0,0,1,2.69-1.48,2.24,2.24,0,0,1,2.3,1.83A3.8,3.8,0,0,1,122,89.16a2.36,2.36,0,0,1,2.47,2.52,6.82,6.82,0,0,1-.22,1.26l-1.06,4a.7.7,0,0,1-.66.6c-.38,0-.6-.29-.49-.75l1.06-3.91a4,4,0,0,0,.11-.91,1.55,1.55,0,0,0-1.68-1.7,3.27,3.27,0,0,0-2.8,2.61l-1.08,4.06a.68.68,0,0,1-.66.6c-.4,0-.62-.29-.49-.75Z"/><path class="cls-2" d="M128.62,89.85l-.24.88a4,4,0,0,1,3.07-1.57,3.18,3.18,0,0,1,3.2,3.42,4.86,4.86,0,0,1-4.55,5,3.16,3.16,0,0,1-3-2l-1,3.79a.71.71,0,0,1-.67.6c-.37,0-.59-.29-.48-.75l2.52-9.4a.67.67,0,0,1,.66-.6A.51.51,0,0,1,128.62,89.85ZM127.49,94A2.44,2.44,0,0,0,130,96.56a3.64,3.64,0,0,0,3.38-3.85,2.25,2.25,0,0,0-2.3-2.47A3.91,3.91,0,0,0,127.49,94Z"/><path class="cls-2" d="M138.29,91.41a4.22,4.22,0,0,1,3.18-2.18.53.53,0,0,1,.57.57c0,.35-.22.6-.68.66a4.8,4.8,0,0,0-3.82,3.78l-.73,2.67a.73.73,0,0,1-.68.6c-.4,0-.6-.29-.49-.76l1.85-6.9a.69.69,0,0,1,.67-.6c.39,0,.59.31.5.71Z"/><path class="cls-2" d="M147.8,96.62a.94.94,0,0,1,.4-.13.47.47,0,0,1,.49.49.54.54,0,0,1-.25.44,4.45,4.45,0,0,1-2.91,1,3.35,3.35,0,0,1-3.6-3.44,5,5,0,0,1,4.73-5,2.94,2.94,0,0,1,3.13,3.09,5.69,5.69,0,0,1-.11,1,.63.63,0,0,1-.66.55h-5.85c0,.14,0,.27,0,.4a2.28,2.28,0,0,0,2.45,2.38A3.43,3.43,0,0,0,147.8,96.62Zm.75-4.26a1.82,1.82,0,0,0,.09-.61,1.9,1.9,0,0,0-2-2.08,3.54,3.54,0,0,0-3.27,2.72h5.19Z"/><path class="cls-2" d="M155.51,95.25c0-.53-.36-.92-1.55-1.37-1.45-.57-2.29-1.1-2.29-2.22,0-1.37,1.19-2.5,3.07-2.5a4.72,4.72,0,0,1,2.6.84.52.52,0,0,1,.29.51.53.53,0,0,1-.53.53.7.7,0,0,1-.36-.14,3.82,3.82,0,0,0-2.14-.72c-1.15,0-1.74.61-1.74,1.28s.33.88,1.61,1.37c1.46.59,2.21,1.17,2.21,2.22,0,1.51-1.39,2.57-3.09,2.57a5.05,5.05,0,0,1-3.16-1.11.66.66,0,0,1-.24-.48.56.56,0,0,1,.51-.56.7.7,0,0,1,.41.18,3.88,3.88,0,0,0,2.57.95C154.65,96.6,155.51,96.07,155.51,95.25Z"/><path class="cls-2" d="M163.43,96.89l.2-.73a3.89,3.89,0,0,1-3,1.43,2.31,2.31,0,0,1-2.56-2.23c0-1.81,1.52-2.93,3.6-2.93a10.55,10.55,0,0,1,2.86.44l.05-.2a2.9,2.9,0,0,0,.11-.75c0-1.06-.73-1.63-2.19-1.63a6.38,6.38,0,0,0-1.85.28.86.86,0,0,1-.24.05.48.48,0,0,1-.49-.51.53.53,0,0,1,.4-.51,7.66,7.66,0,0,1,2.38-.37c2,0,3.18,1,3.18,2.51a4,4,0,0,1-.17,1.11l-1.09,4.06a.7.7,0,0,1-.68.6C163.52,97.51,163.39,97.22,163.43,96.89Zm.73-2.63.16-.57a9.94,9.94,0,0,0-2.63-.36c-1.44,0-2.43.78-2.43,1.9,0,.86.66,1.44,1.72,1.44A3.4,3.4,0,0,0,164.16,94.26Z"/><path class="cls-2" d="M177.85,96.91l.22-.86a4.05,4.05,0,0,1-3,1.57,3.19,3.19,0,0,1-3.2-3.43,4.85,4.85,0,0,1,4.55-5,3.14,3.14,0,0,1,3,2l1.23-4.66a.73.73,0,0,1,.69-.59c.39,0,.59.28.48.75l-2.71,10.24a.74.74,0,0,1-.69.6A.51.51,0,0,1,177.85,96.91Zm1.1-4.17a2.42,2.42,0,0,0-2.49-2.52,3.65,3.65,0,0,0-3.38,3.86,2.27,2.27,0,0,0,2.3,2.48A3.93,3.93,0,0,0,179,92.74Z"/><path class="cls-2" d="M187.72,96.62a.9.9,0,0,1,.39-.13.47.47,0,0,1,.49.49.55.55,0,0,1-.24.44,4.48,4.48,0,0,1-2.92,1A3.32,3.32,0,0,1,181.87,95a5,5,0,0,1,4.72-5,3,3,0,0,1,3.14,3.09,5.69,5.69,0,0,1-.11,1,.64.64,0,0,1-.67.55H183.1c0,.14,0,.27,0,.4a2.28,2.28,0,0,0,2.45,2.38A3.48,3.48,0,0,0,187.72,96.62Zm.57-4.26a2.13,2.13,0,0,0,.09-.61,1.9,1.9,0,0,0-2-2.08,3.54,3.54,0,0,0-3.27,2.72h5.19Z"/><path class="cls-2" d="M191.85,96.91a.74.74,0,0,1-.69.6c-.4,0-.6-.29-.48-.76l2.73-10.24a.72.72,0,0,1,.66-.59c.4,0,.62.28.49.75Z"/><path class="cls-2" d="M208.73,96a1.06,1.06,0,0,1-.55.73,6.67,6.67,0,0,1-3.46.91A4.55,4.55,0,0,1,199.86,93a6.83,6.83,0,0,1,6.73-6.69,4.61,4.61,0,0,1,3.75,1.52.7.7,0,0,1,.25.51.61.61,0,0,1-.6.62.65.65,0,0,1-.44-.2,3.71,3.71,0,0,0-3.07-1.3A5.53,5.53,0,0,0,201.16,93a3.37,3.37,0,0,0,3.62,3.57,5.22,5.22,0,0,0,2.83-.77l.86-5.58h-2.74c-.31,2.53-.57,2.29-.57,2s.24-.55.57.23h3.53c.4-.78.64-.45.53,0Z"/><path class="cls-2" d="M213.63,91.41a4.23,4.23,0,0,1,3.18-2.18.53.53,0,0,1,.58.57c0,.35-.22.6-.69.66a4.81,4.81,0,0,0-3.82,3.78l-.72,2.67a.74.74,0,0,1-.69.6c-.4,0-.6-.29-.48-.76l1.85-6.9a.68.68,0,0,1,.66-.6A.52.52,0,0,1,214,90Z"/><path class="cls-2" d="M222.73,96.91l.2-.8a3.65,3.65,0,0,1-2.83,1.48,2.37,2.37,0,0,1-2.56-2.49,5.31,5.31,0,0,1,.2-1.26l1.06-4a.71.71,0,0,1,.66-.6c.4,0,.6.31.49.75l-1.06,3.91a4,4,0,0,0-.11.9,1.62,1.62,0,0,0,1.81,1.7,3.32,3.32,0,0,0,2.93-2.63l1.09-4a.71.71,0,0,1,.68-.6c.4,0,.62.31.49.75l-1.84,6.91a.7.7,0,0,1-.68.6A.5.5,0,0,1,222.73,96.91Z"/><path class="cls-2" d="M229.51,89.85l-.25.88a4.08,4.08,0,0,1,3.07-1.57,3.18,3.18,0,0,1,3.2,3.42,4.85,4.85,0,0,1-4.54,5,3.15,3.15,0,0,1-3.05-2l-1,3.79a.69.69,0,0,1-.68.6c-.38,0-.6-.29-.49-.75l2.52-9.4a.68.68,0,0,1,.68-.6A.52.52,0,0,1,229.51,89.85ZM228.38,94a2.44,2.44,0,0,0,2.5,2.52,3.64,3.64,0,0,0,3.37-3.85A2.25,2.25,0,0,0,232,90.24,3.9,3.9,0,0,0,228.38,94Z"/><path class="cls-2" d="M236.88,94a4.94,4.94,0,0,1,4.75-4.84,3.48,3.48,0,0,1,3.68,3.62,4.93,4.93,0,0,1-4.77,4.84A3.47,3.47,0,0,1,236.88,94Zm7.2-1.17a2.41,2.41,0,0,0-2.54-2.61A3.77,3.77,0,0,0,238.07,94a2.39,2.39,0,0,0,2.54,2.58A3.73,3.73,0,0,0,244.08,92.83Z"/><path class="cls-2" d="M261,85.76c.3.71.57.95.57,1.28S261,88,261,88h-6.3l-1.06,2.21h5.28a14.06,14.06,0,0,1,.57,1.92c0,.31-.57.29-.57.29h-5.51l-1.2,4.5a.89.89,0,0,1-.78.66.56.56,0,0,1-.54-.78l2.78-10.35a.79.79,0,0,1,.75-.66Z"/><path class="cls-2" d="M265.45,96.89l.2-.73a3.93,3.93,0,0,1-3,1.43,2.31,2.31,0,0,1-2.56-2.23c0-1.81,1.52-2.93,3.6-2.93a10.62,10.62,0,0,1,2.87.44l0-.2a2.9,2.9,0,0,0,.11-.75c0-1.06-.73-1.63-2.18-1.63a6.4,6.4,0,0,0-1.86.28.64.64,0,0,1-.24.05.48.48,0,0,1-.49-.51.53.53,0,0,1,.42-.51,7.77,7.77,0,0,1,2.39-.37c2,0,3.18,1,3.18,2.51a4,4,0,0,1-.18,1.11l-1.08,4.06a.71.71,0,0,1-.69.6C265.53,97.51,265.4,97.22,265.45,96.89Zm.73-2.63.15-.57a9.88,9.88,0,0,0-2.63-.36c-1.43,0-2.43.78-2.43,1.9,0,.86.69,1.44,1.73,1.44A3.41,3.41,0,0,0,266.18,94.26Z"/><path class="cls-2" d="M270.28,96.91a.73.73,0,0,1-.68.6c-.4,0-.6-.29-.49-.76l2.76-10.24a.71.71,0,0,1,.66-.59c.4,0,.62.28.49.75Z"/><path class="cls-2" d="M276.82,97.62a3.45,3.45,0,0,1-3.58-3.54A4.92,4.92,0,0,1,278,89.16a3.38,3.38,0,0,1,2.91,1.44.73.73,0,0,1,.2.48.56.56,0,0,1-.57.55.55.55,0,0,1-.49-.24,2.41,2.41,0,0,0-2.14-1.15,3.76,3.76,0,0,0-3.44,3.82,2.36,2.36,0,0,0,2.4,2.5,3.2,3.2,0,0,0,2.12-.84.72.72,0,0,1,.4-.14.51.51,0,0,1,.51.51.55.55,0,0,1-.2.42A4.26,4.26,0,0,1,276.82,97.62Z"/><path class="cls-2" d="M283.5,93.82,289,89.47a.74.74,0,0,1,.48-.22.49.49,0,0,1,.51.51.55.55,0,0,1-.24.44l-3.4,2.67,1.85,3.64a.87.87,0,0,1,.14.44.58.58,0,0,1-.62.58.63.63,0,0,1-.62-.44l-1.77-3.45-2.18,1.72-.42,1.57a.7.7,0,0,1-.66.6c-.38,0-.6-.29-.49-.75l2.76-10.25a.68.68,0,0,1,.66-.59c.4,0,.62.28.49.75Z"/></svg>