<?xml version="1.0" encoding="utf-8"?>
<!-- Generator: Adobe Illustrator 23.0.1, SVG Export Plug-In . SVG Version: 6.00 Build 0)  -->
<svg version="1.1" id="Capa_1" xmlns="http://www.w3.org/2000/svg" xmlns:xlink="http://www.w3.org/1999/xlink" x="0px" y="0px"
	 viewBox="0 0 129.58 45.22" style="enable-background:new 0 0 129.58 45.22;" xml:space="preserve">
<style type="text/css">
	.st0{fill:#136380;}
	.st1{fill:#00AFB7;}
	.st2{fill:none;stroke:#344154;stroke-width:3;stroke-linecap:round;stroke-miterlimit:10;}
	.st3{fill:#FF6D3B;}
	.st4{fill:url(#SVGID_1_);}
	.st5{fill:url(#SVGID_2_);}
	.st6{fill:url(#SVGID_3_);}
	.st7{fill:url(#SVGID_4_);}
	.st8{fill:url(#SVGID_5_);}
	.st9{opacity:0.5;fill:url(#SVGID_6_);}
	.st10{fill:url(#SVGID_7_);}
	.st11{fill:#FFFFFF;}
	.st12{clip-path:url(#SVGID_9_);fill:#FFFFFF;}
	.st13{fill-rule:evenodd;clip-rule:evenodd;fill:#FFFFFF;}
</style>
<g>
	<g>
		<defs>
			<path id="SVGID_8_" d="M73.67,0.75c0,0-17.26,17.39-18.77,18.93c0.09-1.7,0.45-8.15,0.45-8.15c0.1-1.16-0.55-2.26-1.6-2.75
				c-1.05-0.49-2.31-0.27-3.13,0.56c0,0-10.99,10.96-11.27,11.25c0.09-1.56,0.25-4.35,0.25-4.35c0.1-1.15-0.55-2.17-1.6-2.65
				c-1.04-0.49-2.31-0.22-3.26,0.68c0,0-1.59,1.64-2.66,2.7c0.03-0.38,0.63-11.12,0.63-11.12c0.1-1.15-0.54-2.26-1.59-2.75
				C30.08,2.61,28.82,2.83,28,3.65L0.82,30.93c0,0-1.85,1.94,0.01,3.92c1.99,1.82,3.92,0,3.92,0S25.29,14.21,26.8,12.69
				c-0.09,1.53-0.57,10.09-0.57,10.09c-0.04,1.03,0.46,2.19,1.52,2.7c1.87,0.89,3.08-0.38,3.64-0.94c0,0,0.92-0.91,2-2
				c-0.16,1.92-0.23,4.28-0.26,4.71c0,0.04,0,0.05,0,0.05c-0.09,1.15,0.54,2.25,1.6,2.74c1.05,0.49,2.31,0.27,3.13-0.56
				c0,0,11.7-11.85,11.69-11.72l-0.47,8.65c-0.1,1.18,0.56,2.31,1.63,2.78c1.12,0.51,2.38,0.19,3.22-0.65L77.48,4.78
				c1.12-1.11,1.17-2.88-0.09-4.09C76.93,0.25,76.25,0,75.56,0C74.88,0,74.19,0.24,73.67,0.75"/>
		</defs>
		<use xlink:href="#SVGID_8_"  style="overflow:visible;fill:#FFFFFF;"/>
		<clipPath id="SVGID_1_">
			<use xlink:href="#SVGID_8_"  style="overflow:visible;"/>
		</clipPath>
		
			<rect x="-1.07" y="-0.1" transform="matrix(1 -2.395565e-03 2.395565e-03 1 -0.0438 0.093)" style="clip-path:url(#SVGID_1_);fill:#FFFFFF;" width="79.77" height="36.87"/>
	</g>
	<path class="st11" d="M126.69,6.09c-1.6,0-2.89,1.3-2.89,2.9c0,1.59,1.29,2.89,2.89,2.89c1.59,0,2.89-1.3,2.89-2.89
		C129.58,7.39,128.28,6.09,126.69,6.09 M126.54,13.3h-1.42c-0.8,0-1.84,0.33-2.09,1.76c-0.6,3.44-1.41,8.02-2.15,12.54
		c-0.31,1.9-0.05,2.35,0.87,2.35h2.45c1.34,0,1.56-0.61,1.68-1.4c0.82-5,1.62-8.94,2.32-13.03C128.48,13.87,127.77,13.3,126.54,13.3
		 M114.03,13.38c-1.46,0-2.72,0.47-3.78,1.42c-0.9,0.79-1.78,2.06-2.65,3.82c0.02-0.21,0.07-0.5,0.14-0.9v-0.8
		c0-1.21-0.3-2.11-0.9-2.68c-0.6-0.58-1.59-0.87-2.99-0.87c-1.37,0-2.56,0.47-3.58,1.42c-0.81,0.74-1.64,1.94-2.5,3.62
		c0.3-1.51,0.45-2.28,0.61-3.44c0.08-0.6,0.03-1.68-1.37-1.68c-0.36,0-0.73,0.01-1.37,0.01c-0.5,0-1.65,0.02-1.92,1.5
		c-0.29,1.6-0.76,4.19-0.82,4.48l-1.33,7.93c-0.3,1.77-0.15,2.77,1.33,2.73h2.8c0.91,0,1.33-0.5,1.63-2.13l0.64-4.08
		c0.45-3.05,1.12-5.15,2.02-6.32c0.58-0.75,1.28-1.12,2.12-1.12c0.44,0,0.76,0.19,0.95,0.56c0.2,0.37,0.3,0.86,0.3,1.46
		c0,0.36-0.03,0.73-0.11,1.12l-1.46,7.84c-0.31,1.93-0.04,2.65,0.98,2.66h2.65c1.1,0,1.47-0.69,1.7-1.94l0.94-5.7
		c0.3-1.75,0.81-3.15,1.53-4.24c0.72-1.08,1.49-1.62,2.32-1.62c0.56,0,0.97,0.2,1.22,0.62c0.19,0.3,0.28,0.75,0.28,1.33v0.77
		c0,0-1.32,7.73-1.39,8.16c-0.29,1.85-0.12,2.64,1.01,2.64h2.44c1.09,0,1.36-0.62,1.54-1.59c0.3-1.48,0.76-4.09,0.76-4.09h0
		l0.86-4.7c0.09-0.45,0.13-0.92,0.13-1.43c0-1.56-0.48-2.76-1.46-3.62C116.48,13.76,115.37,13.38,114.03,13.38 M79.94,16.93
		c0.77-0.92,1.66-1.37,2.65-1.37c0.48,0,0.9,0.14,1.24,0.4c0.34,0.27,0.51,0.6,0.51,0.99c0,0.84-0.42,1.58-1.26,2.26
		c-1.09,0.88-2.76,1.47-5.02,1.78C78.55,19.2,79.17,17.85,79.94,16.93 M87.35,20.95c1.34-0.79,2.02-1.98,2.02-3.56
		c0-1.25-0.56-2.23-1.67-2.92c-1.12-0.7-2.64-1.04-4.59-1.04c-3.04,0-5.63,0.98-7.76,2.95c-2.13,1.97-3.2,4.35-3.2,7.14
		c0,2.11,0.68,3.79,2.05,5.04c1.36,1.25,3.19,1.88,5.46,1.88c1.96,0,3.97-0.46,6.02-1.41c2.04-0.94,3.05-1.89,3.05-2.85
		c0-0.18-0.06-0.39-0.2-0.61c-0.14-0.22-0.35-0.33-0.65-0.33c-0.19,0-0.41,0.05-0.67,0.14c-0.14,0.09-0.79,0.52-1.98,1.3
		c-1.32,0.7-2.6,1.05-3.82,1.05c-1.16,0-2.06-0.39-2.68-1.19c-0.53-0.67-0.8-1.5-0.8-2.5c0-0.21,0.03-0.48,0.08-0.81
		C82.58,22.69,85.7,21.93,87.35,20.95"/>
	<g>
		<path class="st11" d="M32.06,42.04c-0.17,0.63-0.43,1.12-0.78,1.47c-0.4,0.4-0.93,0.62-1.55,0.62c-1.18,0-1.81-0.66-1.81-1.59
			c0-0.27,0.04-0.52,0.11-0.77l0.65-2.45c0.04-0.17,0.16-0.27,0.3-0.27c0.17,0,0.29,0.13,0.23,0.35l-0.67,2.52
			c-0.04,0.15-0.07,0.35-0.07,0.56c0,0.65,0.42,1.13,1.3,1.13c0.41,0,0.79-0.15,1.11-0.45c0.26-0.26,0.49-0.67,0.63-1.21l0.71-2.62
			c0.04-0.17,0.16-0.27,0.31-0.27c0.17,0,0.3,0.13,0.23,0.35L32.06,42.04z"/>
		<path class="st11" d="M34.13,40.61l-0.09,0.36c0.33-0.38,0.72-0.67,1.28-0.67c0.71,0,1.17,0.44,1.17,1.14
			c0,0.17-0.04,0.38-0.09,0.57l-0.48,1.81c-0.04,0.17-0.15,0.27-0.3,0.27c-0.18,0-0.28-0.13-0.22-0.34l0.47-1.77
			c0.04-0.12,0.06-0.29,0.06-0.41c0-0.48-0.31-0.77-0.82-0.77c-0.57,0-1.13,0.49-1.33,1.18l-0.49,1.84
			c-0.04,0.17-0.16,0.27-0.3,0.27c-0.17,0-0.27-0.13-0.22-0.34l0.84-3.13c0.04-0.17,0.15-0.27,0.31-0.27
			C34.06,40.34,34.16,40.46,34.13,40.61z"/>
		<path class="st11" d="M39.37,43.8l0.09-0.33c-0.34,0.39-0.79,0.65-1.37,0.65c-0.62,0-1.16-0.36-1.16-1.01
			c0-0.82,0.69-1.33,1.63-1.33c0.49,0,0.95,0.1,1.31,0.2l0.02-0.09c0.03-0.11,0.05-0.24,0.05-0.34c0-0.48-0.33-0.74-0.99-0.74
			c-0.33,0-0.62,0.06-0.84,0.13c-0.03,0.01-0.08,0.02-0.11,0.02c-0.13,0-0.22-0.1-0.22-0.23c0-0.11,0.07-0.2,0.18-0.23
			c0.35-0.11,0.68-0.17,1.08-0.17c0.92,0,1.44,0.43,1.44,1.14c0,0.16-0.03,0.33-0.08,0.5l-0.49,1.84c-0.04,0.17-0.16,0.27-0.3,0.27
			C39.41,44.08,39.35,43.95,39.37,43.8z M39.71,42.61l0.07-0.26c-0.32-0.09-0.74-0.16-1.19-0.16c-0.65,0-1.1,0.35-1.1,0.86
			c0,0.39,0.31,0.65,0.78,0.65C38.88,43.7,39.53,43.25,39.71,42.61z"/>
		<path class="st11" d="M45.8,43.32c0.05-0.03,0.12-0.06,0.18-0.06c0.13,0,0.22,0.09,0.22,0.22c0,0.08-0.04,0.15-0.11,0.2
			c-0.35,0.28-0.77,0.45-1.32,0.45c-0.97,0-1.62-0.63-1.62-1.56c0-1.12,0.91-2.27,2.14-2.27c0.93,0,1.42,0.64,1.42,1.4
			c0,0.18-0.03,0.34-0.05,0.45c-0.03,0.16-0.13,0.25-0.3,0.25H43.7c0,0.06-0.01,0.12-0.01,0.18c0.01,0.65,0.44,1.08,1.11,1.08
			C45.19,43.66,45.51,43.54,45.8,43.32z M46.14,41.99c0.02-0.06,0.04-0.16,0.04-0.28c0-0.5-0.28-0.94-0.91-0.94
			c-0.72,0-1.28,0.55-1.48,1.23H46.14z"/>
		<path class="st11" d="M50.09,41.97c0.04-0.12,0.06-0.29,0.06-0.41c0-0.48-0.29-0.77-0.77-0.77c-0.54,0-1.08,0.5-1.27,1.18
			l-0.49,1.84c-0.04,0.17-0.16,0.27-0.31,0.27c-0.17,0-0.27-0.13-0.22-0.34l0.84-3.13c0.04-0.17,0.15-0.27,0.3-0.27
			c0.16,0,0.26,0.12,0.23,0.27l-0.09,0.36c0.33-0.38,0.68-0.67,1.22-0.67c0.62,0,0.94,0.4,1.04,0.83c0.33-0.5,0.82-0.83,1.48-0.83
			c0.66,0,1.12,0.45,1.12,1.14c0,0.17-0.06,0.38-0.1,0.57l-0.48,1.81c-0.04,0.17-0.16,0.27-0.3,0.27c-0.17,0-0.27-0.13-0.22-0.34
			l0.48-1.77c0.03-0.12,0.05-0.29,0.05-0.41c0-0.48-0.28-0.77-0.76-0.77c-0.54,0-1.09,0.5-1.27,1.18l-0.49,1.84
			c-0.04,0.17-0.15,0.27-0.3,0.27c-0.18,0-0.28-0.13-0.22-0.34L50.09,41.97z"/>
		<path class="st11" d="M55.11,40.61L55,41.01c0.35-0.4,0.8-0.71,1.39-0.71c0.83,0,1.45,0.62,1.45,1.55c0,1.3-0.99,2.28-2.06,2.28
			c-0.75,0-1.17-0.43-1.38-0.91l-0.46,1.72c-0.04,0.17-0.16,0.27-0.3,0.27c-0.17,0-0.27-0.13-0.22-0.34l1.14-4.26
			c0.04-0.17,0.15-0.27,0.3-0.27C55.03,40.34,55.13,40.46,55.11,40.61z M54.6,42.51c0,0.64,0.46,1.14,1.14,1.14
			c0.87,0,1.53-0.81,1.53-1.74c0-0.68-0.42-1.12-1.04-1.12C55.42,40.78,54.6,41.61,54.6,42.51z"/>
		<path class="st11" d="M59.49,41.32c0.39-0.61,0.95-0.99,1.44-0.99c0.16,0,0.26,0.1,0.26,0.26c0,0.16-0.1,0.27-0.31,0.3
			c-0.74,0.11-1.45,0.67-1.73,1.71l-0.33,1.21c-0.05,0.17-0.16,0.27-0.31,0.27c-0.18,0-0.27-0.13-0.22-0.34l0.84-3.13
			c0.04-0.17,0.15-0.27,0.3-0.27c0.18,0,0.27,0.14,0.23,0.32L59.49,41.32z"/>
		<path class="st11" d="M63.8,43.32c0.05-0.03,0.12-0.06,0.18-0.06c0.13,0,0.22,0.09,0.22,0.22c0,0.08-0.04,0.15-0.11,0.2
			c-0.35,0.28-0.77,0.45-1.32,0.45c-0.97,0-1.63-0.63-1.63-1.56c0-1.12,0.91-2.27,2.14-2.27c0.93,0,1.42,0.64,1.42,1.4
			c0,0.18-0.03,0.34-0.05,0.45c-0.04,0.16-0.13,0.25-0.3,0.25h-2.65c0,0.06-0.01,0.12-0.01,0.18c0.01,0.65,0.44,1.08,1.11,1.08
			C63.2,43.66,63.51,43.54,63.8,43.32z M64.14,41.99c0.02-0.06,0.04-0.16,0.04-0.28c0-0.5-0.28-0.94-0.91-0.94
			c-0.72,0-1.28,0.55-1.48,1.23H64.14z"/>
		<path class="st11" d="M67.29,43.06c0-0.24-0.16-0.42-0.7-0.62c-0.66-0.26-1.04-0.5-1.04-1.01c0-0.62,0.54-1.13,1.39-1.13
			c0.45,0,0.93,0.19,1.18,0.38c0.09,0.05,0.13,0.12,0.13,0.23c0,0.14-0.11,0.24-0.24,0.24c-0.06,0-0.11-0.03-0.16-0.06
			c-0.3-0.2-0.62-0.33-0.97-0.33c-0.52,0-0.79,0.28-0.79,0.58c0,0.24,0.15,0.4,0.73,0.62c0.66,0.27,1,0.53,1,1.01
			c0,0.68-0.63,1.16-1.4,1.16c-0.52,0-1.01-0.17-1.43-0.5c-0.07-0.06-0.11-0.14-0.11-0.22c0-0.13,0.11-0.25,0.23-0.25
			c0.07,0,0.14,0.04,0.19,0.08c0.38,0.31,0.76,0.43,1.16,0.43C66.9,43.67,67.29,43.43,67.29,43.06z"/>
		<path class="st11" d="M70.88,43.8l0.09-0.33c-0.34,0.39-0.79,0.65-1.37,0.65c-0.62,0-1.16-0.36-1.16-1.01
			c0-0.82,0.69-1.33,1.63-1.33c0.49,0,0.95,0.1,1.3,0.2l0.02-0.09c0.03-0.11,0.05-0.24,0.05-0.34c0-0.48-0.33-0.74-0.99-0.74
			c-0.33,0-0.62,0.06-0.84,0.13c-0.04,0.01-0.08,0.02-0.11,0.02c-0.13,0-0.22-0.1-0.22-0.23c0-0.11,0.07-0.2,0.18-0.23
			c0.35-0.11,0.68-0.17,1.08-0.17c0.92,0,1.44,0.43,1.44,1.14c0,0.16-0.03,0.33-0.08,0.5l-0.49,1.84c-0.04,0.17-0.16,0.27-0.31,0.27
			C70.92,44.08,70.86,43.95,70.88,43.8z M71.21,42.61l0.07-0.26c-0.32-0.09-0.74-0.16-1.19-0.16c-0.65,0-1.1,0.35-1.1,0.86
			c0,0.39,0.3,0.65,0.78,0.65C70.39,43.7,71.04,43.25,71.21,42.61z"/>
		<path class="st11" d="M77.41,43.81l0.1-0.39c-0.35,0.4-0.8,0.71-1.38,0.71c-0.83,0-1.45-0.62-1.45-1.55c0-1.3,0.99-2.28,2.06-2.28
			c0.75,0,1.18,0.43,1.38,0.91l0.56-2.11c0.05-0.17,0.16-0.27,0.31-0.27c0.18,0,0.27,0.13,0.22,0.34l-1.23,4.64
			c-0.05,0.17-0.16,0.27-0.31,0.27C77.48,44.08,77.4,43.97,77.41,43.81z M77.91,41.92c0-0.64-0.46-1.14-1.13-1.14
			c-0.87,0-1.53,0.81-1.53,1.75c0,0.68,0.43,1.12,1.04,1.12C77.1,43.65,77.91,42.82,77.91,41.92z"/>
		<path class="st11" d="M81.88,43.32c0.05-0.03,0.12-0.06,0.18-0.06c0.13,0,0.22,0.09,0.22,0.22c0,0.08-0.04,0.15-0.11,0.2
			c-0.35,0.28-0.77,0.45-1.32,0.45c-0.97,0-1.62-0.63-1.62-1.56c0-1.12,0.91-2.27,2.14-2.27c0.93,0,1.42,0.64,1.42,1.4
			c0,0.18-0.03,0.34-0.05,0.45c-0.04,0.16-0.13,0.25-0.3,0.25h-2.65c0,0.06-0.01,0.12-0.01,0.18c0.01,0.65,0.44,1.08,1.11,1.08
			C81.27,43.66,81.59,43.54,81.88,43.32z M82.22,41.99c0.02-0.06,0.04-0.16,0.04-0.28c0-0.5-0.28-0.94-0.91-0.94
			c-0.72,0-1.28,0.55-1.48,1.23H82.22z"/>
		<path class="st11" d="M83.75,43.81c-0.05,0.17-0.16,0.27-0.31,0.27c-0.18,0-0.27-0.13-0.22-0.34l1.24-4.64
			c0.05-0.17,0.16-0.27,0.3-0.27c0.18,0,0.28,0.13,0.22,0.34L83.75,43.81z"/>
		<path class="st11" d="M91.4,43.4c-0.04,0.15-0.1,0.24-0.25,0.33c-0.43,0.25-0.93,0.41-1.57,0.41c-1.21,0-2.2-0.78-2.2-2.11
			c0-1.53,1.31-3.03,3.05-3.03c0.84,0,1.37,0.3,1.7,0.69c0.06,0.06,0.11,0.13,0.11,0.23c0,0.15-0.11,0.28-0.27,0.28
			c-0.08,0-0.15-0.04-0.2-0.09c-0.25-0.31-0.67-0.59-1.39-0.59c-1.38,0-2.41,1.24-2.41,2.5c0,1.02,0.68,1.62,1.64,1.62
			c0.54,0,0.97-0.15,1.28-0.35l0.39-1.38h-1.24c-0.14,0-0.26-0.11-0.26-0.25c0-0.14,0.11-0.25,0.26-0.25h1.6
			c0.18,0,0.29,0.15,0.24,0.33L91.4,43.4z"/>
		<path class="st11" d="M93.62,41.32c0.39-0.61,0.95-0.99,1.44-0.99c0.16,0,0.26,0.1,0.26,0.26c0,0.16-0.1,0.27-0.31,0.3
			c-0.74,0.11-1.45,0.67-1.73,1.71l-0.33,1.21c-0.05,0.17-0.16,0.27-0.31,0.27c-0.18,0-0.27-0.13-0.22-0.34l0.84-3.13
			c0.04-0.17,0.15-0.27,0.3-0.27c0.18,0,0.27,0.14,0.23,0.32L93.62,41.32z"/>
		<path class="st11" d="M97.74,43.81l0.09-0.36c-0.33,0.38-0.72,0.67-1.28,0.67c-0.7,0-1.16-0.44-1.16-1.13
			c0-0.17,0.04-0.38,0.09-0.57l0.48-1.81c0.05-0.17,0.16-0.27,0.3-0.27c0.18,0,0.27,0.14,0.22,0.34l-0.48,1.77
			c-0.03,0.12-0.05,0.29-0.05,0.41c0,0.48,0.31,0.77,0.82,0.77c0.57,0,1.14-0.49,1.33-1.19l0.49-1.83c0.05-0.17,0.16-0.27,0.31-0.27
			c0.18,0,0.28,0.14,0.22,0.34l-0.83,3.13c-0.04,0.17-0.16,0.27-0.31,0.27C97.81,44.08,97.72,43.96,97.74,43.81z"/>
		<path class="st11" d="M100.81,40.61l-0.11,0.4c0.35-0.4,0.8-0.71,1.39-0.71c0.83,0,1.45,0.62,1.45,1.55c0,1.3-0.99,2.28-2.06,2.28
			c-0.75,0-1.17-0.43-1.38-0.91l-0.46,1.72c-0.04,0.17-0.16,0.27-0.31,0.27c-0.17,0-0.27-0.13-0.22-0.34l1.14-4.26
			c0.04-0.17,0.15-0.27,0.31-0.27C100.73,40.34,100.83,40.46,100.81,40.61z M100.3,42.51c0,0.64,0.46,1.14,1.13,1.14
			c0.87,0,1.53-0.81,1.53-1.74c0-0.68-0.42-1.12-1.04-1.12C101.12,40.78,100.3,41.61,100.3,42.51z"/>
		<path class="st11" d="M104.15,42.49c0-1.14,0.99-2.19,2.15-2.19c1.01,0,1.67,0.69,1.67,1.64c0,1.17-1.01,2.19-2.16,2.19
			C104.8,44.13,104.15,43.44,104.15,42.49z M107.41,41.96c0-0.74-0.47-1.18-1.15-1.18c-0.84,0-1.57,0.84-1.57,1.69
			c0,0.74,0.47,1.17,1.15,1.17C106.67,43.64,107.41,42.83,107.41,41.96z"/>
		<path class="st11" d="M115.06,39.08c0.14,0,0.26,0.11,0.26,0.26c0,0.14-0.12,0.26-0.26,0.26h-2.85l-0.48,1.77h2.39
			c0.14,0,0.26,0.11,0.26,0.26c0,0.14-0.12,0.26-0.26,0.26h-2.52l-0.51,1.91c-0.05,0.16-0.18,0.28-0.33,0.28
			c-0.17,0-0.28-0.13-0.23-0.33l1.18-4.39c0.04-0.17,0.17-0.28,0.32-0.28H115.06z"/>
		<path class="st11" d="M117.09,43.8l0.09-0.33c-0.34,0.39-0.79,0.65-1.37,0.65c-0.62,0-1.16-0.36-1.16-1.01
			c0-0.82,0.69-1.33,1.63-1.33c0.49,0,0.95,0.1,1.3,0.2l0.02-0.09c0.03-0.11,0.05-0.24,0.05-0.34c0-0.48-0.33-0.74-0.99-0.74
			c-0.33,0-0.62,0.06-0.84,0.13c-0.03,0.01-0.08,0.02-0.11,0.02c-0.13,0-0.22-0.1-0.22-0.23c0-0.11,0.07-0.2,0.19-0.23
			c0.35-0.11,0.68-0.17,1.08-0.17c0.92,0,1.44,0.43,1.44,1.14c0,0.16-0.03,0.33-0.08,0.5l-0.49,1.84c-0.04,0.17-0.16,0.27-0.31,0.27
			C117.13,44.08,117.07,43.95,117.09,43.8z M117.42,42.61l0.07-0.26c-0.32-0.09-0.74-0.16-1.19-0.16c-0.65,0-1.1,0.35-1.1,0.86
			c0,0.39,0.31,0.65,0.78,0.65C116.6,43.7,117.25,43.25,117.42,42.61z"/>
		<path class="st11" d="M119.28,43.81c-0.05,0.17-0.16,0.27-0.31,0.27c-0.18,0-0.27-0.13-0.22-0.34L120,39.1
			c0.05-0.17,0.16-0.27,0.3-0.27c0.18,0,0.28,0.13,0.22,0.34L119.28,43.81z"/>
		<path class="st11" d="M122.24,44.13c-0.86,0-1.62-0.6-1.62-1.6c0-1.2,0.99-2.23,2.16-2.23c0.67,0,1.08,0.31,1.32,0.65
			c0.05,0.06,0.09,0.13,0.09,0.22c0,0.13-0.11,0.25-0.26,0.25c-0.09,0-0.16-0.03-0.22-0.11c-0.21-0.31-0.5-0.52-0.97-0.52
			c-0.83,0-1.56,0.82-1.56,1.73c0,0.72,0.52,1.13,1.09,1.13c0.35,0,0.67-0.13,0.96-0.38c0.06-0.04,0.12-0.06,0.18-0.06
			c0.13,0,0.23,0.1,0.23,0.23c0,0.08-0.03,0.13-0.09,0.19C123.19,43.94,122.77,44.13,122.24,44.13z"/>
		<path class="st11" d="M125.27,42.41l2.47-1.97c0.06-0.05,0.13-0.1,0.22-0.1c0.13,0,0.23,0.09,0.23,0.23c0,0.08-0.04,0.15-0.11,0.2
			l-1.54,1.21l0.84,1.65c0.04,0.07,0.06,0.13,0.06,0.2c0,0.16-0.13,0.26-0.28,0.26c-0.15,0-0.23-0.08-0.28-0.2l-0.8-1.56l-0.99,0.78
			l-0.19,0.71c-0.04,0.17-0.16,0.27-0.3,0.27c-0.17,0-0.27-0.13-0.22-0.34l1.25-4.64c0.04-0.17,0.15-0.27,0.3-0.27
			c0.18,0,0.28,0.13,0.22,0.34L125.27,42.41z"/>
	</g>
</g>
</svg>
