<svg id="Capa_1" data-name="Capa 1" xmlns="http://www.w3.org/2000/svg" viewBox="0 0 300 100"><defs><style>.cls-1{fill:#fff;}</style></defs><title>Mesa de trabajo 1</title><polygon class="cls-1" points="90.46 76.55 90.33 79.62 69.29 79.62 69.29 47.4 89.54 47.4 89.67 50.47 72.36 50.47 72.36 61.21 87.71 61.21 87.71 64.28 72.36 64.28 72.36 76.55 90.46 76.55"/><path class="cls-1" d="M107.2,50.47H100V64.28h7.22c4.89,0,7.38-1.68,7.38-7,0-5-2.37-6.84-7.38-6.84Zm-.44,15.34H100V79.62H96.92V47.4h9.84c7,0,10,2.72,10,9.18,0,6.22-3,9.23-10,9.23Z"/><path class="cls-1" d="M131.16,80.51A17.54,17.54,0,0,1,121.81,78l.52-2.72a15.4,15.4,0,0,0,8.83,2.55c5.22,0,7.9-2.55,7.9-6.8,0-8.82-16.89-4.95-16.89-15.8,0-5,3.16-8.73,10.23-8.73a19.82,19.82,0,0,1,8.43,1.76l-.53,2.59a19.29,19.29,0,0,0-7.76-1.67c-5.45,0-7.6,2.76-7.6,5.88,0,8.38,16.94,4.43,16.94,15.8,0,6-3.69,9.69-10.72,9.69Z"/><path class="cls-1" d="M150.65,77.91l.83-5.32a20,20,0,0,0,4.23,1.79,16.5,16.5,0,0,0,4.63.63,7,7,0,0,0,4.45-1.15,3.91,3.91,0,0,0,1.43-3.25,2.9,2.9,0,0,0-1.15-2.42,11.57,11.57,0,0,0-2.85-1.6c-1.14-.46-2.38-.91-3.73-1.37a15.74,15.74,0,0,1-3.7-1.75A9.63,9.63,0,0,1,152,60.71a7.73,7.73,0,0,1-1.14-4.42,10.52,10.52,0,0,1,.65-3.71,7.74,7.74,0,0,1,2-3A10.17,10.17,0,0,1,157,47.5a14.9,14.9,0,0,1,5-.75,23.59,23.59,0,0,1,4.71.46,19.07,19.07,0,0,1,4.11,1.29l-.78,5.12a25.35,25.35,0,0,0-3.9-1,21.62,21.62,0,0,0-3.85-.35,10.93,10.93,0,0,0-2.78.3,4.89,4.89,0,0,0-1.79.83,3,3,0,0,0-1,1.21,3.93,3.93,0,0,0-.27,1.45,2.78,2.78,0,0,0,1.13,2.33,12.91,12.91,0,0,0,2.86,1.53c1.13.45,2.38.91,3.73,1.34a16.15,16.15,0,0,1,3.7,1.75,9.86,9.86,0,0,1,2.82,2.79,8,8,0,0,1,1.13,4.47,9.41,9.41,0,0,1-3,7.41q-3,2.72-8.52,2.71a19.75,19.75,0,0,1-5.24-.66,20.47,20.47,0,0,1-4.45-1.78Z"/><path class="cls-1" d="M244.23,47.4l4.6-.06v6.2H255v4.6h-6.14V72.36a1.86,1.86,0,0,0,.27,2.47,3.83,3.83,0,0,0,2.52.75,9.23,9.23,0,0,0,1.13-.08,4.14,4.14,0,0,0,.95-.21l.36,4a7.41,7.41,0,0,1-1.75.48A14.38,14.38,0,0,1,250,80c-2.44,0-4.25-.66-5.45-2s-1.87-5.58-1.87-5.58l1.54-25.14Z"/><path class="cls-1" d="M201.26,79.62V53.75l4-.31.87,2.52a9.85,9.85,0,0,1,3.44-2.1,11.58,11.58,0,0,1,4.07-.71,9,9,0,0,1,6.67,2.44q2.43,2.44,2.43,7.18V79.62h-4.6V62.83a4.37,4.37,0,0,0-1.34-3.56,6.18,6.18,0,0,0-3.92-1.08,8.28,8.28,0,0,0-3.1.62,5.72,5.72,0,0,0-2.38,1.75V79.62Z"/><path class="cls-1" d="M228.88,79.62V53.81l6.14-.29v26.1h-6.14Zm.3-32c0-1.78,1.09-2.65,3.29-2.64s3.28.88,3.26,2.64-1.1,2.58-3.31,2.58A4.12,4.12,0,0,1,230,49.6a2.22,2.22,0,0,1-.82-2Z"/><path class="cls-1" d="M282.29,60.9a7.14,7.14,0,0,1,2.38-5.56c1.6-1.43,4-2.13,7.12-2.13A17.66,17.66,0,0,1,299,54.67l-.47,4.57a15.64,15.64,0,0,0-3.47-1,18.71,18.71,0,0,0-3.32-.33,5.47,5.47,0,0,0-3,.73,2.31,2.31,0,0,0-1.11,2,2.1,2.1,0,0,0,.92,1.78,9,9,0,0,0,2.3,1.13c.92.32,1.92.65,3,1a12.88,12.88,0,0,1,3,1.35,7.35,7.35,0,0,1,2.29,2.22,6.49,6.49,0,0,1,.92,3.63,10.37,10.37,0,0,1-.54,3.43,6.31,6.31,0,0,1-1.7,2.64,8.45,8.45,0,0,1-3,1.71,14.19,14.19,0,0,1-4.34.61,19.71,19.71,0,0,1-4.39-.46,12.08,12.08,0,0,1-3.69-1.47l.66-4.64a12,12,0,0,0,3.59,1.52,16.23,16.23,0,0,0,3.84.52,5.12,5.12,0,0,0,3.44-1A3.08,3.08,0,0,0,295,72.28a2.31,2.31,0,0,0-.94-2,8.88,8.88,0,0,0-2.35-1.21c-.95-.35-2-.69-3.05-1a14.37,14.37,0,0,1-3.05-1.35,7.09,7.09,0,0,1-2.35-2.24,6.25,6.25,0,0,1-.94-3.62Z"/><path class="cls-1" d="M195.71,58.79A6.78,6.78,0,0,0,191,53.85a15.26,15.26,0,0,0-4.59-.6,21.55,21.55,0,0,0-8.69,1.65l.5,4.49a19.63,19.63,0,0,1,3.46-1.1,18.32,18.32,0,0,1,3.76-.36,6.54,6.54,0,0,1,4.16,1c.83.69,1,3.5,1,3.5V72a2.32,2.32,0,0,1-.15,1.34,4.28,4.28,0,0,1-1.13,1.16,6.51,6.51,0,0,1-1.63.8,6.22,6.22,0,0,1-2,.31,5,5,0,0,1-3.13-.91,3.76,3.76,0,0,1-1.19-3.18,3.68,3.68,0,0,1,1.22-3,6,6,0,0,1,3.89-1,10.59,10.59,0,0,0,2.36-.1H189V64c-.24,0-.24-.09-.66-.17a17.35,17.35,0,0,0-2.87-.24c-3.06,0-5.4.72-7,2.16a7.49,7.49,0,0,0-2.38,5.82c0,2.87.74,5,2.21,6.36A8.25,8.25,0,0,0,184.16,80a10,10,0,0,0,4.22-.86,8,8,0,0,0,3.08-2.38l.14,0,.49,2.81h4.57V63.31c-.42-1.75-.59-3.26-.95-4.52Z"/><path class="cls-1" d="M277.2,58.79a6.81,6.81,0,0,0-4.76-4.94,15.17,15.17,0,0,0-4.59-.6,21.4,21.4,0,0,0-8.68,1.65l.49,4.49a19.46,19.46,0,0,1,3.47-1.1,18.24,18.24,0,0,1,3.76-.36A6.5,6.5,0,0,1,271,59c.83.69.81,3.5.81,3.5V72s.3.89,0,1.34a4.32,4.32,0,0,1-1.14,1.16,6.69,6.69,0,0,1-1.63.8,6.16,6.16,0,0,1-1.94.31,5,5,0,0,1-3.13-.91,4.51,4.51,0,0,1,0-6.18,5.93,5.93,0,0,1,3.88-1,10.71,10.71,0,0,0,2.37-.1h0V64a1.17,1.17,0,0,0-.51-.17,17.54,17.54,0,0,0-2.87-.24q-4.6,0-7,2.16a7.49,7.49,0,0,0-2.38,5.82c0,2.87.74,5,2.21,6.36A8.25,8.25,0,0,0,265.64,80a10,10,0,0,0,4.22-.86A8.08,8.08,0,0,0,273,76.76l.12,0,.51,2.81H278V63.31a40.36,40.36,0,0,0-.79-4.52Z"/><path class="cls-1" d="M7.08,61.85A2.57,2.57,0,0,0,7,63.34c2.1,6.4,4.21,12.69,8.75,18.24a8.78,8.78,0,0,0,1,1c3.7,3.25,6.14,3.19,7.06-1.64A54.43,54.43,0,0,0,24.13,73c-.83-.52-1.66-1-2.44-1.56-3.06-2.07-11.53-7.57-14.61-9.56Z"/><path class="cls-1" d="M10.71,59.65c8.54-2.44,17-5,25.55-7.42a4.59,4.59,0,0,1,2.6-.2c8.25,2.8,15.42,7.24,19.49,15.25,3.83,7.55,0,13.24-8.52,13.49a30.31,30.31,0,0,1-16-4.42c-2.64-1.49-6.12-3.5-9.1-5.49C20.93,68.31,9,60.57,9,60.57l1.76-.92Z"/><path class="cls-1" d="M12.85,37.05a52.54,52.54,0,0,0-5.51-7.23C4.7,27.34,1.26,27.47.22,32.89A9.45,9.45,0,0,0,0,34.4c-.22,8,1.35,14.37,4.5,22.46a3.76,3.76,0,0,0,.59.84C6.65,53.38,11,41.09,11.54,39.92s.91-2,1.31-2.87Z"/><path class="cls-1" d="M8.57,58.14C17.48,55.08,25.11,53,34,50.31A5,5,0,0,0,36.45,49C42.16,41.85,46,33.89,45.06,24.5c-.88-8.84-7.46-11.74-15.16-7.11-5.24,3.15-8.87,7.69-11.67,13-1.48,2.81-2.34,4.68-3.86,8.09-.63,1.41-7,19.29-7,18.15l1.17,1.54Z"/></svg>