<svg id="Capa_1" data-name="Capa 1" xmlns="http://www.w3.org/2000/svg" viewBox="0 0 300 100"><defs><style>.cls-1{fill:#fff;}</style></defs><title>Mesa de trabajo 1</title><path class="cls-1" d="M4.73,38.89H5l.71,2.71a5,5,0,0,0,2.15.48c1.69,0,3.21-.76,3.21-2.71,0-3-6.58-2.73-6.58-6.69,0-2.54,2.36-3.8,4.63-3.8a8.71,8.71,0,0,1,3.11.68l-.12,2.88H11.9l-.82-2.33A5.78,5.78,0,0,0,9,29.71,2.51,2.51,0,0,0,6.4,32.16C6.4,35.46,13,34.62,13,39c0,1.83-1.38,3.94-5.51,3.94a7.91,7.91,0,0,1-3.11-.6Z"/><path class="cls-1" d="M18.81,31.16c0-1-.07-1.14-.49-1.28l-1.56-.55v-.27c1.53.07,3,.15,4.53.15,1.87,0,3.73-.08,5.47-.15,0,.47-.05,1.19-.05,1.48s0,1,.05,1.9h-.27l-.51-2c-.2-.55-.37-.55-2.64-.55-1.14,0-2.05,0-2.78,0,0,.69.07,2.24.07,2.24v1.53h1.88c2.38.9,2.6.86,2.78.42l.52-1.71h.27s0,1.8,0,2.53,0,2.63,0,2.63h-.27l-.52-1.74c-.18-.44-2.78-.84-2.78-.84H20.63v3a11.22,11.22,0,0,0-.07,2.64c.93,0,1.86.08,2.75.08,2.11,0,2.41,0,2.6-.26a21.6,21.6,0,0,0,.81-2.93h.47c0,.57-.11,1.16-.11,1.74v1.5c-1-.08-4.1-.16-5.22-.16-1.76,0-3.67.08-5.1.16v.57l1.43-.52c.55-.18.63-.26,1.15-1.78V31.16Z"/><path class="cls-1" d="M40,37.32c.25-.31.17-.44-.71-.77l-1.87-.45v-.28S40,36,40.91,36s2.93-.16,2.93-.16v.28l-1.54.59c-.35.18-.41.37.25.78v3.05c-.66.19-.64.53-.63.89a14.81,14.81,0,0,1-3.71.55C33.71,42,31,39.33,31,35.63c0-4.52,4.22-6.81,7.73-6.81a12.93,12.93,0,0,1,2.79.29c0,.51,0,1,0,1.52s0,1.81,0,1.81h-.28a16.14,16.14,0,0,0-.94-2.4,4.31,4.31,0,0,0-2.16-.44c-2.78,0-5.13,1.92-5.13,5.86,0,3.39,2,5.75,4.95,5.75a6.85,6.85,0,0,0,2.27-.33c0-.3,0-.59-.21-.74Z"/><path class="cls-1" d="M60.6,30l-.79.3c-.47.2-.71.36-.73.73,0,1,0,2.45,0,5.63,0,3.45-1.72,4.73-4.38,4.73s-4.38-1.11-4.38-3.84V32.16s-.71-2-1.25-2.27l-1.32-.55v-.28c1,.09,2,.17,3.06.17s2.25-.08,3.38-.17v.28l-1.51.33c-1.08.42-1.24.49-1.28,1.19-.06,1.16-.06,2.86-.06,5.91,0,2.52.56,4.19,3.71,4.19,2.08,0,3.31-1.29,3.31-3.65s0-5.57-.18-6.93c0-.34-.33-.51-.86-.69l-1.84-.34v-.27c.9.08,1.8.16,2.72.16s1.61-.08,2.44-.16Z"/><path class="cls-1" d="M74.92,38.94,72.1,34.87c1.89-.3,3.36-1.24,3.36-3.24s-1.77-3-4.47-3c-1.46,0-2.63.16-3.7.16a26.31,26.31,0,0,1-2.82-.16v.71l2.34.56c.44.14.49.27.24,2.13v7.14c.25,1.52.17,1.6-.38,1.78l-2.2.51v.28c1-.08,2.26-.17,3.35-.17.75,0,2.17.09,3.09.17v-.28l-1.38-.53c-.52-.15-.57-.61-1.2-3.17V35H70a71.64,71.64,0,0,1,4.4,6.26c.51,0,1-.08,1.52-.08s1,0,1.43.08V41C76.21,40.8,76.11,40.66,74.92,38.94ZM69.74,35H68.33V29.87l1.9,0c1.94,0,3.19.78,3.19,2.6C73.42,34.71,71.65,35,69.74,35Z"/><path class="cls-1" d="M87.3,28.81c-4,0-6.46,2.76-6.46,6.69,0,3.2,2,6.45,6.13,6.45,3.94,0,6.28-3.1,6.28-7C93.25,31.35,90.93,28.81,87.3,28.81ZM87.18,41.3c-2.89,0-4.32-2.68-4.32-6.75,0-2.8,1.48-5.09,4.23-5.09,3.26,0,4.16,3.14,4.16,6.43C91.24,38.58,90.18,41.3,87.18,41.3Z"/><path class="cls-1" d="M97.71,38.89H98l.72,2.71a4.94,4.94,0,0,0,2.14.48c1.68,0,3.22-.76,3.22-2.71,0-3-6.59-2.73-6.59-6.69,0-2.54,2.36-3.8,4.64-3.8a8.66,8.66,0,0,1,3.1.68l-.12,2.88h-.23l-.83-2.33a5.7,5.7,0,0,0-2.13-.4,2.5,2.5,0,0,0-2.54,2.45c0,3.3,6.58,2.46,6.58,6.81,0,1.83-1.36,3.94-5.51,3.94a8,8,0,0,1-3.12-.6Z"/><path class="cls-1" d="M234.2,81.44h3.3s2.56-8.7,15-14.4C252.51,67,242.91,67.79,234.2,81.44Z"/><path class="cls-1" d="M266.91,59.6s7.51,12.3-9.45,20.55h3.3S279.66,71.46,266.91,59.6Z"/><path class="cls-1" d="M254.75,94.72S285.52,70.42,293.62,52c0,0,11.55-20.7-14.86-17,0,0,15-7,20.26,1.8,0,0,5.7,9.91-10.36,29.26C288.66,66.06,273.81,84.52,254.75,94.72Z"/><path class="cls-1" d="M272.77,21.35s-3.3,6.15,6.15,15.45C278.92,36.8,272.91,26.31,272.77,21.35Z"/><path class="cls-1" d="M262.56,16.55,266,17.9s4.66-1,8.1.61C274.11,18.51,273.81,14,262.56,16.55Z"/><path class="cls-1" d="M257.76,11.89,261.81,13s6.44-1.95,12.45.75C274.26,13.7,269.31,8,257.76,11.89Z"/><path class="cls-1" d="M231.35,59s5.86-3.91,5.11-15.6C236.45,43.41,233.45,55.41,231.35,59Z"/><path class="cls-1" d="M245.6,36.8c-23.71,5.11-14.71,16.06-14.71,16.06C227.9,42.5,245.6,36.8,245.6,36.8Z"/><path class="cls-1" d="M261.21,39.65a14.35,14.35,0,0,1-1.78-1.17,27.54,27.54,0,0,0,.29-6s-2.31-3.91-8.42-5a58,58,0,0,1-3.59-10l-4.2-1.5c4.8-13.65,27.92-6.89,27.92-6.89-4.05-5-15.31-3.6-15.31-3.6-16.05,1.94-15.3,10.94-15.3,10.94a11.84,11.84,0,0,0,4.5,2.71,42.56,42.56,0,0,0,3.17,8c-3.84-.11-8.82.83-15.16,3.83,0,0-23.3,9.8-8.8,28.06-8.18,4.38-18.67,12.66-5.15,21.9,0,0-12.46-12,12.45-25.2A58.55,58.55,0,0,0,225,58.79c-1.65-2.44-9.84-16.21,9.11-26,0,0,7.87-4.4,15.86-3.1a36.22,36.22,0,0,0,7.66,8.89c-.7,4.59-3.31,11.52-11.82,18.36,0,0-5-1.66-7.21-4,0,0,1.35,4.2,7.21,5.85,0,0,10.79-6.37,13.43-18.93a17.23,17.23,0,0,0,2.18,1.38,9.87,9.87,0,0,0,7.35-8.55A14.54,14.54,0,0,1,261.21,39.65Z"/><path class="cls-1" d="M252.83,30.41a15,15,0,0,1,4.77,2.78,14.16,14.16,0,0,1,.15,3.83A29.1,29.1,0,0,1,252.83,30.41Z"/><path class="cls-1" d="M257.91,65.76s-8.54-.45-6.44-8.55c0,0,2.69-9.6,13.2-7.8,0,0,8.25,4.36.15,12.3,0,0,6-8.09-1.05-10.5a9.84,9.84,0,0,0-10.81,7S251.16,63.07,257.91,65.76Z"/><path class="cls-1" d="M92.11,53.07h1.66l6-4s2.33-1.51,1-2.78-3.47,1.26-3.47,1.26Z"/><path class="cls-1" d="M14.18,67.43v-.08C18,67,21.63,65,21.63,61.64c0-4.85-4.37-6.77-8.7-6.77-2.31,0-5.4.33-7,.33S2.23,55,0,54.87v.76l3,1.12c.87.28,1,.55.88,4.31V75.5c.11,3.07-.05,3.22-1.17,3.58l-2.7,1v.75c1.82-.16,3.44-.33,5.34-.33,2.52,0,5.67.33,8.75.33,5.83,0,8.75-3.15,8.75-6.89C22.85,69.21,18.19,67.72,14.18,67.43ZM7.74,61.82c0-1.8,0-3,.11-4.79C9.21,57,10,57,11.32,57c3.39,0,6.19,1.4,6.19,5.32,0,4.55-4.08,5-6.71,5H7.74Zm3.15,18.1c-1,0-2-.08-3-.12-.09-1.24-.12-2.43-.12-3.67V68.55h2.83c4.48,0,8.14,1.43,8.14,5.79C18.71,79,14.76,79.92,10.89,79.92Z"/><path class="cls-1" d="M43.37,54.6c-8.06,0-13,5.58-13,13.52,0,6.46,4.11,13,12.4,13,8,0,12.69-6.27,12.69-14.17C55.42,59.74,50.72,54.6,43.37,54.6Zm-.23,25.26c-5.83,0-8.75-5.43-8.75-13.65,0-5.66,3-10.28,8.54-10.28,6.58,0,8.42,6.34,8.42,13C51.35,74.34,49.2,79.86,43.14,79.86Z"/><path class="cls-1" d="M67.72,60.81c0-3.75-.12-4-1-4.31l-3.5-1.12v-.55c2,.17,4,.32,6.17.32s4.17-.15,6.72-.32v.8l-4.45,1.12c-.88.28-1,.55-.71,4.63V78.86h7.45c2,0,2.27-.28,3-1.88l1.24-3.28h.48l-.33,7c-3.86-.15-9.21-.32-11.6-.32-2.72,0-5.47.17-8,.32v-.55l2.8-1c1.12-.36,1.28-.51,1.07-3.58V60.81Z"/><path class="cls-1" d="M89,79.68l3-1c1-.34,1.08-.49,1.12-3.45,0-2.31.11-4.66.11-7s-.07-4.66-.11-7c-.08-3.62-.11-3.89-.85-4.15L89,56.07v-.53c1.84.16,3.73.31,5.88.31,1.93,0,3.8-.15,5.73-.31v.53l-3.23,1.09c-.74.27-.77.53-.85,4.15,0,2.31-.11,4.65-.11,7s.08,4.66.11,7c0,3,.16,3.11,1.12,3.45l3,1v.53c-1.8-.14-4-.31-5.73-.31-1.93,0-4.15.17-5.88.31Z"/><path class="cls-1" d="M107,55.65c1.78.17,3.62.32,5.4.32a48,48,0,0,0,4.93-.32v.57l-1.31.37c-1.71.49-2,.68-2,1.09,0,.79,4.79,12.42,6.55,16.39,2.29-5.47,4.38-10.85,5.69-15a5.61,5.61,0,0,0,.37-1.5c0-.41-1.16-.82-2.8-1.34v-.86a38.51,38.51,0,0,0,4.3.32,24.29,24.29,0,0,0,3.43-.32v.55a3.36,3.36,0,0,0-2.75,2.23c-2.38,5.47-5.35,13.33-8.82,23.3h-.77c-2.52-7.18-6.48-17.12-8.93-22.84-.63-1.46-.89-1.57-2.13-2l-1.1-.39v-.54Z"/><path class="cls-1" d="M155.24,79.05c-3.38-8.09-7-16.4-10.13-24.69h-1.38c-2.84,7.19-7.09,16.37-10.52,24.54a24.26,24.26,0,0,1-3,1.31v.56a40.5,40.5,0,0,1,4.38-.32,44.63,44.63,0,0,1,4.65.32v-.41l-3.64-1.31A31.49,31.49,0,0,1,138,72c1.77,0,3.51-.08,5.29-.08s3.59,0,5.37.08c.59,1.27,1.94,5.25,2.45,7A36.61,36.61,0,0,1,147,80.36v.41c1.79-.16,3.53-.32,5.33-.32,2.11,0,4.17.16,6.28.32v-.56Zm-16.07-7.93,4.59-10.57,4.38,10.57Z"/><path class="cls-1" d="M181,76.5l-5.37-8.22c3.59-.6,6.38-2.52,6.38-6.54s-3.35-6.15-8.5-6.15c-2.77,0-5,.32-7,.32a45.83,45.83,0,0,1-5.37-.32v0l3.65,1.12c.88.28,1,.55.21,4.3V75.48c.79,3.07.63,3.23-.49,3.59l-3.37,1v.55c1.83-.15,4.07-.31,6-.31,1.34,0,3.92.16,5.57.31v-.55L170.33,79c-1-.32-1.16-1.24-1.43-6.42V68.55h2.78a143.69,143.69,0,0,1,8.37,12.64c1-.07,1.95-.15,2.88-.15s1.84.08,2.73.15v-.55C183.5,80.25,183.3,80,181,76.5Zm-9.34-9.24h-2.8V56.94c1.24,0,2.48,0,3.8,0,3.88,0,6.4,1.57,6.4,5.2C179.08,66.64,175.54,67.26,171.7,67.26Z"/></svg>