<svg id="Capa_1" data-name="Capa 1" xmlns="http://www.w3.org/2000/svg" viewBox="0 0 300 100"><defs><style>.cls-1,.cls-2{fill:#fff;}.cls-2{fill-rule:evenodd;}</style></defs><title>Mesa de trabajo 1</title><path class="cls-1" d="M177.51,24.89h0l-2.39,0c-12.68,0-24.57,9.31-25.09,27.49-.47,16.52,8.14,28.08,22.68,28.08,12,0,16.16-8.33,16.16-8.33.7,5.56,3.7,7.28,9.73,7.28V24.89Zm9.73,32.25c0,7.35-4.23,14.34-13.38,14.34-8.21,0-14.08-5.49-13.69-18.76.35-12.71,6.46-18.29,14.56-18.29.63,0,1.22,0,1.79-.06h10.7V57.14Z"/><path class="cls-1" d="M92.36,24.11,92.4,62c0,5.45-4.51,8.21-10.48,8.21-6.28,0-10.43-2.76-10.43-8.21l0-28.4c0-8-5-9.47-9.45-9.47V64.32c0,10,9,15,19.61,15,10.21,0,20.24-4.93,20.24-15l-.06-29.62c0-7.82-2.9-10.59-9.43-10.59Z"/><path class="cls-1" d="M115.13,45.1V78h9.48V44.76c0-7.66,3.85-12.28,11.17-12.28h2.81c8.29,0,9.63-4.57,9.63-9.49H135c-11.77,0-19.84,7.26-19.84,22.11Z"/><path class="cls-1" d="M37.06,47.93,25.4,44.73c-3.2-.88-6.12-2.28-6.12-6.2s2.44-6.05,7.63-6.05H37c4.87,0,10.66-1.57,10.66-9.49H28.52C16,23,8.91,29.32,8.91,38.35c0,8.39,5.32,13.17,14.84,15.69l10.57,2.78c4.35,1.16,5.91,3.9,5.91,6.72,0,4.24-2.66,6.78-9.22,6.88l-20.23.12V78H30.55c12,0,18.85-6.44,18.85-14.92S46,50.37,37.06,47.93Z"/><path class="cls-2" d="M251.52,90.94c.11,0,.21.09.17.28-1.37,3.24-2.92,5.69-5.94,7.23-5.29,2.65-8.08,1.14-8.46,1a.31.31,0,0,1-.17-.29.27.27,0,0,1,.24-.23c2.32-.72,9.26-3.28,14-7.91,0,0,.11,0,.15,0Zm.64-9.62a86.06,86.06,0,0,1-17.7,7.21c-7.8,2.22-14,3.28-18.25,2.67a10,10,0,0,1-6.05-2.88c-.08-.1-.17-.17-.15-.29a.32.32,0,0,1,.28-.26l1.42-.1c3.1-.21,8.69-.36,15.2-1.29,7.53-1.1,19.62-3.24,25.16-5.4.11,0,.19.11.09.34Zm.55,3.26c.1,0,.19.11.15.3a23.18,23.18,0,0,1-5.08,4.61A56,56,0,0,1,240.13,94,48.05,48.05,0,0,1,232,97.23a22,22,0,0,1-7.82.82,8.16,8.16,0,0,1-4.31-1.61.37.37,0,0,1-.07-.23.36.36,0,0,1,.26-.27,110.72,110.72,0,0,0,18.73-4.74,60,60,0,0,0,14-6.62Zm29.75-27.15c.11,0,.19.11.11.34-2.69,2.26-15,12.52-21.64,17.95l-.23.21c-1.92,1.44-3.23,1.78-3.43-1.39-.06-.77-.16-1.4-.16-1.4-.11-.66.08-.66.35-.82,2.16-1.32,6.29-3.64,9.6-5.61,5.88-3.51,12.76-7.67,15.4-9.28Zm-9.07,13.68c.12,0,.19.11.14.32C270.87,74.51,261,85.3,256.58,90c-.45.48-.7.27-.51-.22a28.12,28.12,0,0,0,1.2-3.74,3.93,3.93,0,0,1,1-2.24c5.77-4.86,11.31-9.68,15-12.67l.17-.06Zm12.16-19c.08,0,.23,0,.25.06s.13.15-.06.28c-1.25.82-28.8,12.18-29,12.28-1.52.51-3.21.77-4.42-1.29-.52-.88-1-1.58-1.16-1.9-.08-.13-.4-.46.42-.67,0,0,7.76-2.08,14.66-3.81,7.95-2,17-4.31,19.35-4.95Zm2.89-4.47a.23.23,0,0,1,.19.21.17.17,0,0,1-.17.16c-2.09.32-40.4,5.55-40.66,5.59a4.47,4.47,0,0,1-1.33,0,8.3,8.3,0,0,1-5.18-2.77,10.23,10.23,0,0,1-1.74-2.79.16.16,0,0,1,0-.24.37.37,0,0,1,.24-.16l20.95,0c6,0,12.48,0,17.72,0,4.57,0,8.19,0,10,0Zm2.48-2.87a.2.2,0,0,1,.17.21c0,.09-.09.15-.22.15-5.62-.42-56-3.93-56-3.93a5.06,5.06,0,0,1-1.29-.23,11,11,0,0,1-7.25-7.43.43.43,0,0,1,0-.35.32.32,0,0,1,.3-.13l64.26,11.71ZM280.51,35c0,.24-.06.32-.25.28-2.16-1.1-7-3.43-11.95-5.88C264.15,27.32,235.77,14,233.85,13l-3.39-1.74c-.49-.25-1-.54-1.41-.82a9.31,9.31,0,0,1-2.77-2.33,11.71,11.71,0,0,1-1.44-2.62,14,14,0,0,1-.72-5.2.23.23,0,0,1,.15-.21c.08-.06.17-.06.36,0l3.53,2.16,1.9,1.16,10.4,6.34c14.47,9,34.75,22,40,25.27Zm6.14,5.84a.2.2,0,0,1,.14.19.22.22,0,0,1-.27.15c-1.59-.45-4.95-1.4-9.2-2.56-9.73-2.67-46.5-12.52-47.11-12.69l-.17-.06a12.1,12.1,0,0,1-5.41-3.28,12.07,12.07,0,0,1-1.12-1.42A13,13,0,0,1,221.92,16a.31.31,0,0,1,.1-.23c.07-.08.17-.1.36-.06l6,2.35c14.25,5.52,52.12,20.25,58.26,22.75Z"/></svg>