<?xml version="1.0" encoding="utf-8"?>
<!-- Generator: Adobe Illustrator 23.0.1, SVG Export Plug-In . SVG Version: 6.00 Build 0)  -->
<svg version="1.1" id="Capa_1" xmlns="http://www.w3.org/2000/svg" xmlns:xlink="http://www.w3.org/1999/xlink" x="0px" y="0px"
	 viewBox="0 0 148.69 52.71" style="enable-background:new 0 0 148.69 52.71;" xml:space="preserve">
<style type="text/css">
	.st0{fill:#136380;}
	.st1{fill:#00AFB7;}
	.st2{fill:none;stroke:#344154;stroke-width:3;stroke-linecap:round;stroke-miterlimit:10;}
	.st3{fill:#FF6D3B;}
	.st4{fill:url(#SVGID_1_);}
	.st5{fill:url(#SVGID_2_);}
	.st6{fill:url(#SVGID_3_);}
	.st7{fill:url(#SVGID_4_);}
	.st8{fill:url(#SVGID_5_);}
	.st9{opacity:0.5;fill:url(#SVGID_6_);}
	.st10{fill:url(#SVGID_7_);}
	.st11{fill:#FFFFFF;}
	.st12{clip-path:url(#SVGID_9_);fill:#FFFFFF;}
	.st13{fill-rule:evenodd;clip-rule:evenodd;fill:#FFFFFF;}
</style>
<g>
	<path class="st11" d="M88.63,12.88L88.63,12.88l-1.26,0.01c-6.68,0.02-12.95,4.91-13.22,14.49c-0.25,8.71,4.29,14.8,11.95,14.8
		c6.31,0,8.52-4.39,8.52-4.39c0.37,2.93,1.95,3.84,5.13,3.84V16.97v-4.09H88.63z M94.34,29.82c0,3.98-2.29,7.76-7.24,7.76
		c-4.44,0-7.62-2.97-7.41-10.15c0.19-6.88,3.5-9.9,7.88-9.9c0.34,0,0.66-0.01,0.97-0.03h5.79V29.82z"/>
	<path class="st11" d="M43.96,12.67l0.02,19.96c0,2.9-2.4,4.37-5.58,4.37c-3.34,0-5.55-1.47-5.55-4.37l-0.02-14.93
		c-0.02-4.26-2.68-5.03-5.02-5.03v21.19c0,5.34,4.81,7.97,10.44,7.97c5.44,0,10.78-2.63,10.78-7.97L49,18.33
		C49,14.15,47.45,12.67,43.96,12.67L43.96,12.67z"/>
	<path class="st11" d="M56.25,23.66v17.78l5.03,0V23.49c0-3.81,2.04-6.11,5.92-6.11h1.49c4.4,0,5.11-2.27,5.11-4.72h-7.03
		C60.53,12.66,56.25,16.27,56.25,23.66L56.25,23.66z"/>
	<path class="st11" d="M14.83,25.55l-6.16-1.69c-1.69-0.46-3.23-1.2-3.23-3.27c0-2.15,1.29-3.2,4.03-3.2h5.47
		c2.42,0,5.3-0.78,5.3-4.72L9.95,12.67C3.62,12.68,0,15.88,0,20.46c0,4.26,2.7,6.68,7.53,7.96l5.36,1.41c2.21,0.59,3,1.98,3,3.41
		c0,2.15-1.35,3.44-4.68,3.49L0.95,36.79v4.65h10.44c6.33,0,9.96-3.4,9.96-7.88C21.34,29.05,19.57,26.84,14.83,25.55L14.83,25.55z"
		/>
	<path class="st13" d="M127.83,47.93c0.06,0,0.11,0.05,0.09,0.15c-0.72,1.71-1.54,3-3.13,3.81c-2.79,1.4-4.26,0.6-4.46,0.5
		c-0.05-0.03-0.1-0.09-0.09-0.15c0.01-0.06,0.06-0.12,0.13-0.12c1.22-0.38,4.88-1.73,7.38-4.17
		C127.77,47.93,127.81,47.93,127.83,47.93L127.83,47.93z M128.17,42.86c-1.93,1.15-5.88,2.83-9.33,3.8
		c-4.11,1.17-7.4,1.73-9.62,1.41c-1.93-0.29-2.9-1.19-3.19-1.52c-0.04-0.05-0.09-0.09-0.08-0.15c0.01-0.07,0.07-0.13,0.15-0.14
		l0.75-0.05c1.63-0.11,4.58-0.19,8.01-0.68c3.97-0.58,10.34-1.71,13.26-2.85C128.18,42.69,128.22,42.74,128.17,42.86L128.17,42.86z
		 M128.46,44.58c0.05,0.01,0.1,0.06,0.08,0.16c-0.56,0.74-1.48,1.58-2.68,2.43c-1.19,0.84-2.58,1.65-4.03,2.36
		c-1.54,0.73-2.89,1.34-4.31,1.72c-1.58,0.41-2.97,0.56-4.12,0.43c-0.92-0.1-1.69-0.38-2.27-0.85c-0.03-0.03-0.04-0.08-0.04-0.12
		c0.01-0.07,0.07-0.12,0.14-0.14c3.56-0.57,6.83-1.45,9.87-2.5C124.11,47.03,126.61,45.84,128.46,44.58L128.46,44.58z M144.14,30.27
		c0.06,0.01,0.1,0.06,0.06,0.18c-1.42,1.19-7.91,6.6-11.41,9.46l-0.12,0.11c-1.01,0.76-1.7,0.94-1.81-0.73
		c-0.03-0.41-0.08-0.74-0.08-0.74c-0.06-0.35,0.04-0.35,0.18-0.43c1.14-0.7,3.32-1.92,5.06-2.96
		C139.12,33.31,142.75,31.12,144.14,30.27L144.14,30.27z M139.36,37.48c0.06,0.01,0.1,0.06,0.07,0.17c-1.4,1.62-6.58,7.31-8.93,9.81
		c-0.24,0.25-0.37,0.14-0.27-0.12c0,0,0.45-1.11,0.63-1.97c0.12-0.53,0.24-0.95,0.52-1.18c3.04-2.56,5.96-5.1,7.89-6.68
		L139.36,37.48L139.36,37.48z M145.77,27.46c0.04-0.01,0.12-0.02,0.13,0.03c0.01,0.03,0.07,0.08-0.03,0.15
		c-0.66,0.43-15.18,6.42-15.31,6.47c-0.8,0.27-1.69,0.41-2.33-0.68c-0.27-0.46-0.51-0.83-0.61-1c-0.04-0.07-0.21-0.24,0.22-0.35
		c0,0,4.09-1.1,7.73-2.01C139.76,29.01,144.52,27.8,145.77,27.46L145.77,27.46z M147.29,25.38c0.06,0.01,0.1,0.06,0.1,0.11
		c0,0.04-0.04,0.08-0.09,0.08c-1.1,0.17-21.29,2.93-21.43,2.95c-0.11,0.02-0.23,0.03-0.36,0.03c-0.11,0-0.22,0-0.34-0.02
		c-0.96-0.1-1.89-0.57-2.73-1.46c-0.43-0.46-0.81-1.18-0.92-1.47c-0.03-0.04-0.03-0.09,0.01-0.13c0.03-0.05,0.09-0.07,0.13-0.08
		c0,0,6.78-0.01,11.04-0.01c3.18,0.01,6.58,0.01,9.34,0.01C144.45,25.4,146.36,25.4,147.29,25.38L147.29,25.38z M148.6,23.59
		c0.05,0.01,0.09,0.05,0.09,0.11c0,0.05-0.05,0.08-0.12,0.08c-2.96-0.22-29.5-2.07-29.5-2.07c-0.25-0.02-0.44-0.04-0.68-0.12
		c-2.1-0.67-3.33-2.29-3.82-3.92c-0.02-0.07-0.03-0.12,0-0.18c0.03-0.05,0.1-0.08,0.16-0.07C114.74,17.42,146.02,23.12,148.6,23.59
		L148.6,23.59z M143.11,18.44c0.02,0.13-0.03,0.17-0.13,0.15c-1.14-0.58-3.71-1.81-6.3-3.1c-2.19-1.09-17.15-8.14-18.16-8.66
		l-1.79-0.92c-0.26-0.13-0.5-0.28-0.74-0.43c-0.71-0.43-1.07-0.74-1.46-1.23c-0.32-0.4-0.56-0.91-0.76-1.38
		c-0.43-1.08-0.4-2.49-0.38-2.74c0-0.03,0.02-0.09,0.08-0.11c0.04-0.03,0.09-0.03,0.19,0.01l1.86,1.14l1,0.61l5.48,3.34
		C129.63,9.89,140.32,16.69,143.11,18.44L143.11,18.44z M146.35,21.52c0.05,0.02,0.07,0.06,0.07,0.1c-0.02,0.05-0.06,0.1-0.14,0.08
		c-0.84-0.24-2.61-0.74-4.85-1.35c-5.13-1.41-24.51-6.6-24.83-6.69l-0.09-0.03c-1.16-0.36-2.12-0.94-2.85-1.73
		c-0.22-0.23-0.41-0.48-0.59-0.75c-0.65-0.99-0.81-2.44-0.84-2.71c0-0.03,0.01-0.08,0.05-0.12c0.04-0.04,0.09-0.05,0.19-0.03
		l3.17,1.24C123.15,12.44,143.11,20.2,146.35,21.52L146.35,21.52z"/>
</g>
</svg>
