<?xml version="1.0" encoding="utf-8"?>
<!-- Generator: Adobe Illustrator 23.0.1, SVG Export Plug-In . SVG Version: 6.00 Build 0)  -->
<svg version="1.1" id="Capa_1" xmlns="http://www.w3.org/2000/svg" xmlns:xlink="http://www.w3.org/1999/xlink" x="0px" y="0px"
	 viewBox="0 0 200 200" style="enable-background:new 0 0 200 200;" xml:space="preserve">
<style type="text/css">
	.st0{fill:#FFFFFF;}
	.st1{fill:#FFFFFF;stroke:#344154;stroke-width:3;stroke-linecap:round;stroke-miterlimit:10;}
	.st2{fill:url(#SVGID_1_);}
	.st3{fill:url(#SVGID_2_);}
	.st4{fill:url(#SVGID_3_);}
	.st5{fill:url(#SVGID_4_);}
	.st6{fill:url(#SVGID_5_);}
	.st7{opacity:0.5;fill:url(#SVGID_6_);}
	.st8{fill:url(#SVGID_7_);}
	.st9{clip-path:url(#SVGID_9_);fill:#FFFFFF;}
	.st10{fill-rule:evenodd;clip-rule:evenodd;fill:#FFFFFF;}
	.st11{fill-rule:evenodd;clip-rule:evenodd;fill:#064627;}
	.st12{fill-rule:evenodd;clip-rule:evenodd;fill:#70AC54;}
	.st13{fill-rule:evenodd;clip-rule:evenodd;fill:#1F1A17;}
</style>
<g>
	<g>
		<path class="st0" d="M37.04,187.75c-0.01,0-0.02,0-0.03,0c-10.54-0.02-19.09-8.61-19.07-19.14c0.01-5.1,2-9.9,5.62-13.5
			c3.61-3.59,8.4-5.57,13.49-5.57c0.01,0,0.02,0,0.03,0c5.1,0.01,9.9,2.01,13.5,5.62c3.6,3.62,5.58,8.42,5.57,13.52
			c-0.01,5.1-2,9.9-5.62,13.5C46.92,185.77,42.13,187.75,37.04,187.75z M37.04,153.91c-3.92,0-7.62,1.53-10.4,4.3
			c-2.79,2.78-4.33,6.47-4.33,10.41c-0.01,3.93,1.52,7.64,4.3,10.42c2.78,2.79,6.47,4.33,10.41,4.33c0.01,0,0.02,0,0.03,0
			c3.92,0,7.62-1.53,10.4-4.3c2.79-2.78,4.33-6.47,4.33-10.41l0,0c0.01-3.93-1.52-7.64-4.3-10.42c-2.78-2.79-6.47-4.33-10.41-4.33
			C37.06,153.91,37.05,153.91,37.04,153.91z"/>
	</g>
	<g>
		<path class="st0" d="M43.91,168.65c0.01-3.79-3.06-6.87-6.86-6.88c-3.79-0.01-6.87,3.06-6.88,6.86c-0.01,3.79,3.06,6.87,6.86,6.88
			C40.83,175.51,43.91,172.44,43.91,168.65z"/>
	</g>
	<g>
		<path class="st0" d="M169.65,168.87c0.01-3.79-3.06-6.87-6.86-6.88c-3.79-0.01-6.87,3.06-6.88,6.86
			c-0.01,3.79,3.06,6.87,6.86,6.88C166.56,175.73,169.64,172.66,169.65,168.87z"/>
	</g>
	<g>
		<path class="st0" d="M14.35,170.79C14.34,170.79,14.34,170.79,14.35,170.79l-4.72-0.01c-5.32-0.01-9.63-4.34-9.62-9.65l0.05-25.56
			c0.01-3.74,1.33-7.32,3.73-10.07c3.51-4.03,6.54-6.37,12.02-10.62c2.43-1.88,5.42-4.2,9.17-7.22l5.77-27.83
			c1.87-9.03,9.35-15.76,18.19-16.36l24.62-0.05c0,0,0,0,0,0c1.21,0,2.19,0.98,2.19,2.18c0,1.21-0.98,2.19-2.18,2.19l-24.47,0.04
			c-6.74,0.46-12.58,5.76-14.05,12.88l-6.09,29.36l-0.61,0.49c-4.07,3.29-7.27,5.77-9.85,7.76c-5.27,4.08-8.17,6.32-11.4,10.03
			c-1.71,1.96-2.65,4.52-2.66,7.2l-0.05,25.56c-0.01,2.9,2.35,5.26,5.25,5.27l4.72,0.01c1.21,0,2.19,0.98,2.19,2.19
			C16.53,169.81,15.55,170.79,14.35,170.79z"/>
	</g>
	<g>
		<path class="st0" d="M185.47,170.87c-1.05,0-1.98-0.76-2.16-1.83c-0.2-1.19,0.61-2.32,1.8-2.52c6-0.99,10.37-6.12,10.38-12.2
			l0.13-62.84c0-1.21,0.98-2.18,2.19-2.18c0,0,0,0,0,0c1.21,0,2.19,0.98,2.18,2.19l-0.13,62.84c-0.01,8.23-5.92,15.18-14.04,16.51
			C185.71,170.86,185.59,170.87,185.47,170.87z"/>
	</g>
	<g>
		<path class="st0" d="M137,171C137,171,137,171,137,171l-74.18-0.13c-1.21,0-2.19-0.98-2.18-2.19c0-1.21,0.98-2.18,2.19-2.18
			c0,0,0,0,0,0l74.17,0.13c1.21,0,2.19,0.98,2.18,2.19C139.19,170.03,138.21,171,137,171z"/>
	</g>
	<g>
		<path class="st0" d="M162.78,187.97c-0.01,0-0.02,0-0.03,0c-10.54-0.02-19.09-8.61-19.07-19.14l0,0
			c0.02-10.52,8.59-19.07,19.11-19.07c0.01,0,0.02,0,0.03,0c5.1,0.01,9.9,2.01,13.5,5.62c3.6,3.62,5.58,8.42,5.57,13.52
			C181.87,179.42,173.3,187.97,162.78,187.97z M148.05,168.83c-0.01,8.12,6.58,14.74,14.71,14.76c0.01,0,0.02,0,0.02,0
			c8.11,0,14.72-6.59,14.73-14.71c0.01-3.93-1.52-7.64-4.3-10.42c-2.78-2.79-6.47-4.33-10.41-4.33c-0.01,0-0.02,0-0.02,0
			C154.67,154.13,148.06,160.72,148.05,168.83L148.05,168.83z"/>
	</g>
	<g>
		<g>
			<path class="st0" d="M135.66,138C135.65,138,135.65,138,135.66,138c-1.21,0-2.19-0.98-2.19-2.19l0.05-29.98
				c0-1.21,0.98-2.18,2.19-2.18c0,0,0,0,0,0c1.21,0,2.19,0.98,2.18,2.19l-0.05,29.98C137.84,137.03,136.86,138,135.66,138z"/>
		</g>
		<g>
			<path class="st0" d="M150.67,123.04C150.67,123.04,150.67,123.04,150.67,123.04l-29.99-0.05c-1.21,0-2.19-0.98-2.18-2.19
				c0-1.21,0.98-2.18,2.19-2.18c0,0,0,0,0,0l29.98,0.05c1.21,0,2.19,0.98,2.18,2.19C152.86,122.06,151.88,123.04,150.67,123.04z"/>
		</g>
	</g>
	<g>
		<path class="st0" d="M73.55,111.36c0,0-0.01,0-0.01,0l-46.6-0.3c-1.21-0.01-2.18-0.99-2.17-2.2c0.01-1.2,0.99-2.17,2.19-2.17
			c0,0,0.01,0,0.01,0l46.6,0.3c1.21,0.01,2.18,0.99,2.17,2.2C75.73,110.39,74.75,111.36,73.55,111.36z"/>
	</g>
	<g>
		<g>
			<path class="st0" d="M113.69,43.96l-20.36-0.04l0.01-7.24c0.01-5.37,4.38-9.73,9.75-9.73c0.01,0,0.01,0,0.02,0l0.85,0
				c5.38,0.01,9.74,4.39,9.74,9.77L113.69,43.96z M97.72,39.55l11.61,0.02l0.01-2.86c0-1.44-0.55-2.79-1.57-3.8
				c-1.01-1.02-2.36-1.58-3.8-1.58l-0.85,0c0,0-0.01,0-0.01,0c-2.96,0-5.37,2.4-5.38,5.37L97.72,39.55z"/>
		</g>
		<g>
			<path class="st0" d="M92.76,26.64c-0.56,0-1.12-0.22-1.55-0.64l-4.08-4.09c-0.85-0.86-0.85-2.24,0.01-3.09
				c0.86-0.85,2.24-0.85,3.09,0.01l4.08,4.09c0.85,0.86,0.85,2.24-0.01,3.09C93.88,26.43,93.32,26.64,92.76,26.64z"/>
		</g>
		<g>
			<path class="st0" d="M103.56,22.19C103.56,22.19,103.55,22.19,103.56,22.19c-1.21,0-2.19-0.98-2.19-2.19l0.01-5.78
				c0-1.21,0.98-2.18,2.19-2.18c0,0,0,0,0,0c1.21,0,2.19,0.98,2.18,2.19l-0.01,5.78C105.74,21.21,104.76,22.19,103.56,22.19z"/>
		</g>
		<g>
			<path class="st0" d="M114.34,26.68c-0.56,0-1.12-0.22-1.55-0.64c-0.85-0.86-0.85-2.24,0.01-3.09l4.09-4.08
				c0.86-0.85,2.24-0.85,3.09,0.01c0.85,0.86,0.85,2.24-0.01,3.09l-4.09,4.08C115.46,26.47,114.9,26.68,114.34,26.68z"/>
		</g>
	</g>
	<g>
		<path class="st0" d="M197.81,93.67c-1.21,0-2.19-0.98-2.19-2.19V53.45c0-4.77-3.88-8.64-8.64-8.64H84.38
			c-4.77,0-8.64,3.88-8.64,8.64v12.15c0,1.21-0.98,2.19-2.19,2.19c-1.21,0-2.19-0.98-2.19-2.19V53.45c0-7.18,5.84-13.02,13.02-13.02
			h102.6c7.18,0,13.02,5.84,13.02,13.02v38.04C200,92.69,199.02,93.67,197.81,93.67z"/>
	</g>
	<g>
		<path class="st0" d="M73.55,111.06c-1.21,0-2.19-0.98-2.19-2.19V65.61c0-1.21,0.98-2.19,2.19-2.19c1.21,0,2.19,0.98,2.19,2.19
			v43.26C75.74,110.08,74.76,111.06,73.55,111.06z"/>
	</g>
	<g>
		<path class="st0" d="M101.76,170.87c-0.82,0-1.6-0.46-1.98-1.25l-28.2-59.51c-0.52-1.09-0.05-2.4,1.04-2.91
			c1.1-0.52,2.4-0.05,2.91,1.04l28.2,59.51c0.52,1.09,0.05,2.4-1.04,2.91C102.39,170.8,102.07,170.87,101.76,170.87z"/>
	</g>
	<g>
		<g>
			<rect x="92.19" y="65.61" class="st0" width="22.73" height="22.73"/>
		</g>
		<g>
			<rect x="124.32" y="65.61" class="st0" width="22.73" height="22.73"/>
		</g>
		<g>
			<rect x="156.44" y="65.61" class="st0" width="22.73" height="22.73"/>
		</g>
	</g>
</g>
</svg>
