<?xml version="1.0" encoding="utf-8"?>
<!-- Generator: Adobe Illustrator 23.0.1, SVG Export Plug-In . SVG Version: 6.00 Build 0)  -->
<svg version="1.1" id="Capa_1" xmlns="http://www.w3.org/2000/svg" xmlns:xlink="http://www.w3.org/1999/xlink" x="0px" y="0px"
	 viewBox="0 0 206.83 181.94" style="enable-background:new 0 0 206.83 181.94;" xml:space="preserve">
<style type="text/css">
	.st0{fill:#136380;}
	.st1{fill:#00AFB7;}
	.st2{fill:none;stroke:#344154;stroke-width:3;stroke-linecap:round;stroke-miterlimit:10;}
	.st3{fill:#FF6D3B;}
	.st4{fill:url(#SVGID_1_);}
	.st5{fill:url(#SVGID_2_);}
	.st6{fill:url(#SVGID_3_);}
	.st7{fill:url(#SVGID_4_);}
	.st8{fill:url(#SVGID_5_);}
	.st9{opacity:0.5;fill:url(#SVGID_6_);}
	.st10{fill:url(#SVGID_7_);}
</style>
<g>
	<g>
		<path class="st0" d="M38.31,181.71c-0.01,0-0.02,0-0.04,0c-10.9-0.02-19.74-8.9-19.72-19.79c0.01-5.28,2.07-10.24,5.81-13.96
			c3.73-3.72,8.68-5.76,13.95-5.76c0.01,0,0.02,0,0.04,0c5.28,0.01,10.24,2.07,13.96,5.81c3.72,3.74,5.77,8.7,5.76,13.98
			c-0.01,5.28-2.07,10.24-5.81,13.96C48.53,179.67,43.57,181.71,38.31,181.71z M38.31,146.72c-4.06,0-7.88,1.58-10.75,4.44
			c-2.88,2.87-4.47,6.69-4.48,10.77c-0.01,4.07,1.57,7.9,4.44,10.78c2.87,2.88,6.7,4.47,10.76,4.48c0.01,0,0.02,0,0.03,0
			c4.06,0,7.88-1.58,10.75-4.44c2.88-2.87,4.47-6.7,4.48-10.77l0,0c0.01-4.07-1.57-7.9-4.44-10.78c-2.87-2.88-6.7-4.47-10.77-4.48
			C38.33,146.72,38.32,146.72,38.31,146.72z"/>
	</g>
	<g>
		<path class="st1" d="M45.41,161.96c0.01-3.92-3.17-7.11-7.09-7.11c-3.92-0.01-7.11,3.17-7.11,7.09c-0.01,3.92,3.17,7.11,7.09,7.11
			C42.22,169.06,45.4,165.89,45.41,161.96z"/>
	</g>
	<g>
		<path class="st1" d="M175.44,162.19c0.01-3.92-3.17-7.11-7.09-7.11c-3.92-0.01-7.11,3.17-7.11,7.09
			c-0.01,3.92,3.17,7.11,7.09,7.11C172.25,169.29,175.43,166.12,175.44,162.19z"/>
	</g>
	<g>
		<path class="st0" d="M14.84,164.17C14.83,164.17,14.83,164.17,14.84,164.17l-4.89-0.01c-5.5-0.01-9.96-4.49-9.95-9.98l0.05-26.43
			c0.01-3.87,1.38-7.57,3.86-10.41c3.63-4.17,6.76-6.59,12.43-10.98c2.51-1.94,5.6-4.34,9.48-7.46l5.97-28.78
			c1.94-9.34,9.67-16.3,18.81-16.92l25.46-0.05c0,0,0,0,0,0c1.25,0,2.26,1.01,2.26,2.26c0,1.25-1.01,2.27-2.26,2.27l-25.31,0.04
			c-6.97,0.48-13.01,5.96-14.53,13.32l-6.3,30.37l-0.63,0.51c-4.21,3.4-7.52,5.97-10.18,8.03c-5.45,4.22-8.45,6.54-11.79,10.37
			c-1.77,2.03-2.74,4.67-2.75,7.45l-0.05,26.43c-0.01,3,2.43,5.44,5.43,5.45l4.88,0.01c1.25,0,2.26,1.02,2.26,2.27
			C17.1,163.16,16.08,164.17,14.84,164.17z"/>
	</g>
	<g>
		<path class="st0" d="M191.8,164.26c-1.09,0-2.05-0.79-2.23-1.89c-0.2-1.23,0.63-2.4,1.87-2.6c6.21-1.02,10.72-6.33,10.73-12.62
			l0.13-64.98c0-1.25,1.01-2.26,2.26-2.26c0,0,0,0,0,0c1.25,0,2.26,1.02,2.26,2.27l-0.13,64.98c-0.01,8.51-6.12,15.69-14.52,17.08
			C192.05,164.25,191.92,164.26,191.8,164.26z"/>
	</g>
	<g>
		<path class="st0" d="M141.68,164.4C141.67,164.4,141.67,164.4,141.68,164.4l-76.71-0.14c-1.25,0-2.26-1.02-2.26-2.27
			c0-1.25,1.02-2.26,2.26-2.26c0,0,0,0,0,0l76.71,0.14c1.25,0,2.26,1.02,2.26,2.27C143.94,163.39,142.92,164.4,141.68,164.4z"/>
	</g>
	<g>
		<path class="st0" d="M168.34,181.94c-0.01,0-0.02,0-0.03,0c-10.89-0.02-19.74-8.9-19.73-19.79l0,0
			c0.02-10.88,8.88-19.73,19.76-19.73c0.01,0,0.02,0,0.03,0c5.28,0.01,10.24,2.07,13.96,5.81c3.73,3.74,5.77,8.7,5.76,13.98
			C188.08,173.1,179.22,181.94,168.34,181.94z M153.1,162.15c-0.01,8.4,6.81,15.25,15.21,15.26c0.01,0,0.02,0,0.03,0
			c8.39,0,15.22-6.82,15.24-15.21c0.01-4.07-1.57-7.9-4.44-10.78c-2.87-2.88-6.7-4.47-10.77-4.48c-0.01,0-0.02,0-0.03,0
			C159.95,146.95,153.12,153.76,153.1,162.15L153.1,162.15z"/>
	</g>
	<g>
		<g>
			<path class="st0" d="M140.29,130.27C140.29,130.27,140.28,130.27,140.29,130.27c-1.25,0-2.26-1.02-2.26-2.27L138.08,97
				c0-1.25,1.01-2.26,2.26-2.26c0,0,0,0,0,0c1.25,0,2.26,1.02,2.26,2.27l-0.05,31.01C142.55,129.26,141.53,130.27,140.29,130.27z"/>
		</g>
		<g>
			<path class="st0" d="M155.82,114.8C155.82,114.8,155.82,114.8,155.82,114.8l-31.01-0.05c-1.25,0-2.26-1.02-2.26-2.27
				c0-1.25,1.02-2.26,2.26-2.26c0,0,0,0,0,0l31.01,0.05c1.25,0,2.26,1.02,2.26,2.27C158.08,113.78,157.07,114.8,155.82,114.8z"/>
		</g>
	</g>
	<g>
		<path class="st0" d="M76.06,102.72c0,0-0.01,0-0.01,0l-48.19-0.31c-1.25-0.01-2.26-1.03-2.25-2.28c0.01-1.24,1.02-2.25,2.26-2.25
			c0,0,0.01,0,0.01,0l48.19,0.31c1.25,0.01,2.26,1.03,2.25,2.28C78.32,101.72,77.31,102.72,76.06,102.72z"/>
	</g>
	<g>
		<g>
			<path class="st0" d="M117.58,33.02l-21.06-0.04l0.01-7.48c0.01-5.55,4.53-10.07,10.09-10.07c0.01,0,0.01,0,0.02,0l0.88,0
				c5.56,0.01,10.08,4.54,10.07,10.1L117.58,33.02z M101.06,28.46l12,0.02l0.01-2.96c0-1.48-0.57-2.88-1.62-3.93
				c-1.05-1.05-2.44-1.63-3.93-1.64l-0.88,0c0,0-0.01,0-0.01,0c-3.06,0-5.55,2.49-5.56,5.55L101.06,28.46z"/>
		</g>
		<g>
			<path class="st0" d="M95.93,15.11c-0.58,0-1.16-0.22-1.6-0.67l-4.22-4.23c-0.88-0.89-0.88-2.32,0.01-3.2
				c0.89-0.88,2.32-0.88,3.2,0.01l4.22,4.23c0.88,0.89,0.88,2.32-0.01,3.2C97.08,14.89,96.5,15.11,95.93,15.11z"/>
		</g>
		<g>
			<path class="st0" d="M107.09,10.5C107.09,10.5,107.09,10.5,107.09,10.5c-1.25,0-2.26-1.02-2.26-2.27l0.01-5.98
				c0-1.25,1.01-2.26,2.26-2.26c0,0,0,0,0,0c1.25,0,2.26,1.02,2.26,2.27l-0.01,5.98C109.35,9.49,108.34,10.5,107.09,10.5z"/>
		</g>
		<g>
			<path class="st0" d="M118.25,15.15c-0.58,0-1.16-0.22-1.6-0.67c-0.88-0.89-0.88-2.32,0.01-3.2l4.23-4.22
				c0.89-0.88,2.32-0.88,3.2,0.01c0.88,0.89,0.88,2.32-0.01,3.2l-4.23,4.22C119.4,14.93,118.82,15.15,118.25,15.15z"/>
		</g>
	</g>
	<g>
		<path class="st0" d="M204.57,84.43c-1.25,0-2.26-1.01-2.26-2.26V42.83c0-4.93-4.01-8.94-8.94-8.94H87.26
			c-4.93,0-8.94,4.01-8.94,8.94v12.56c0,1.25-1.01,2.26-2.26,2.26c-1.25,0-2.26-1.01-2.26-2.26V42.83c0-7.42,6.04-13.46,13.46-13.46
			h106.11c7.42,0,13.46,6.04,13.46,13.46v39.34C206.83,83.41,205.81,84.43,204.57,84.43z"/>
	</g>
	<g>
		<path class="st0" d="M76.06,102.41c-1.25,0-2.26-1.01-2.26-2.26V55.41c0-1.25,1.01-2.26,2.26-2.26c1.25,0,2.26,1.01,2.26,2.26
			v44.74C78.32,101.39,77.31,102.41,76.06,102.41z"/>
	</g>
	<g>
		<path class="st0" d="M105.23,164.26c-0.85,0-1.66-0.48-2.05-1.29l-29.17-61.54c-0.53-1.13-0.05-2.48,1.08-3.01
			c1.14-0.53,2.48-0.05,3.01,1.08l29.17,61.54c0.53,1.13,0.05,2.48-1.08,3.01C105.88,164.19,105.55,164.26,105.23,164.26z"/>
	</g>
	<g>
		<g>
			<rect x="95.34" y="55.41" class="st1" width="23.51" height="23.51"/>
		</g>
		<g>
			<rect x="128.56" y="55.41" class="st1" width="23.51" height="23.51"/>
		</g>
		<g>
			<rect x="161.78" y="55.41" class="st1" width="23.51" height="23.51"/>
		</g>
	</g>
</g>
</svg>
