<?xml version="1.0" encoding="utf-8"?>
<!-- Generator: Adobe Illustrator 23.0.1, SVG Export Plug-In . SVG Version: 6.00 Build 0)  -->
<svg version="1.1" id="Capa_1" xmlns="http://www.w3.org/2000/svg" xmlns:xlink="http://www.w3.org/1999/xlink" x="0px" y="0px"
	 viewBox="0 0 200 200" style="enable-background:new 0 0 200 200;" xml:space="preserve">
<style type="text/css">
	.st0{fill:#136380;}
	.st1{fill:#00AFB7;}
	.st2{fill:none;stroke:#344154;stroke-width:3;stroke-linecap:round;stroke-miterlimit:10;}
	.st3{fill:#FF6D3B;}
	.st4{fill:url(#SVGID_1_);}
	.st5{fill:url(#SVGID_2_);}
	.st6{fill:url(#SVGID_3_);}
	.st7{fill:url(#SVGID_4_);}
	.st8{fill:url(#SVGID_5_);}
	.st9{opacity:0.5;fill:url(#SVGID_6_);}
	.st10{fill:url(#SVGID_7_);}
	.st11{fill:#FFFFFF;}
	.st12{clip-path:url(#SVGID_9_);fill:#FFFFFF;}
	.st13{fill-rule:evenodd;clip-rule:evenodd;fill:#FFFFFF;}
	.st14{fill-rule:evenodd;clip-rule:evenodd;fill:#064627;}
	.st15{fill-rule:evenodd;clip-rule:evenodd;fill:#70AC54;}
	.st16{fill-rule:evenodd;clip-rule:evenodd;fill:#1F1A17;}
	.st17{fill:#666666;}
	.st18{fill:#CCCCCC;}
	.st19{fill:none;stroke:#136380;stroke-width:5;stroke-miterlimit:10;}
	.st20{fill:#00247D;}
	.st21{fill:#EEEEEE;}
	.st22{fill:#CF1B2B;}
	.st23{fill:#D80027;}
	.st24{fill:#6DA544;}
	.st25{fill:#FFDA44;}
	.st26{fill:#F0F0F0;}
	.st27{fill:#0052B4;}
	.st28{fill:#F5F5F5;}
	.st29{fill:#FF4B55;}
	.st30{fill:#41479B;}
</style>
<g>
	<rect class="st24" width="200" height="200"/>
	<polygon class="st25" points="100,44.74 175,100 100,155.26 25,100 	"/>
	<circle class="st26" cx="100" cy="100" r="31.58"/>
	<g>
		<path class="st27" d="M84.21,98.03c-5.49,0-10.79,0.84-15.78,2.38c0.22,17.25,14.27,31.17,31.57,31.17
			c10.7,0,20.15-5.33,25.86-13.47C116.09,105.88,101.05,98.03,84.21,98.03z"/>
		<path class="st27" d="M130.99,106.05c0.38-1.96,0.59-3.98,0.59-6.05c0-17.44-14.14-31.58-31.58-31.58
			c-13.01,0-24.18,7.87-29.02,19.12c4.27-0.89,8.7-1.35,13.23-1.35C102.55,86.18,119.14,93.81,130.99,106.05z"/>
	</g>
</g>
</svg>
