<?xml version="1.0" encoding="utf-8"?>
<!-- Generator: Adobe Illustrator 23.0.1, SVG Export Plug-In . SVG Version: 6.00 Build 0)  -->
<svg version="1.1" id="Capa_1" xmlns="http://www.w3.org/2000/svg" xmlns:xlink="http://www.w3.org/1999/xlink" x="0px" y="0px"
	 viewBox="0 0 200 200" style="enable-background:new 0 0 200 200;" xml:space="preserve">
<style type="text/css">
	.st0{fill:#FFFFFF;stroke:#344154;stroke-width:3;stroke-linecap:round;stroke-miterlimit:10;}
	.st1{fill:#FFFFFF;}
	.st2{fill:url(#SVGID_1_);}
	.st3{fill:url(#SVGID_2_);}
	.st4{fill:url(#SVGID_3_);}
	.st5{fill:url(#SVGID_4_);}
	.st6{fill:url(#SVGID_5_);}
	.st7{opacity:0.5;fill:url(#SVGID_6_);}
	.st8{fill:url(#SVGID_7_);}
	.st9{clip-path:url(#SVGID_9_);fill:#FFFFFF;}
	.st10{fill-rule:evenodd;clip-rule:evenodd;fill:#FFFFFF;}
	.st11{fill-rule:evenodd;clip-rule:evenodd;fill:#064627;}
	.st12{fill-rule:evenodd;clip-rule:evenodd;fill:#70AC54;}
	.st13{fill-rule:evenodd;clip-rule:evenodd;fill:#1F1A17;}
</style>
<g>
	<path class="st1" d="M110.82,100.91c-4.35,0-7.89,3.54-7.89,7.89v4.75h-4.75c-4.35,0-7.89,3.54-7.89,7.89s3.54,7.89,7.89,7.89h4.75
		v4.75c0,4.35,3.54,7.89,7.89,7.89c4.35,0,7.89-3.54,7.89-7.89v-4.75h4.75c4.35,0,7.89-3.54,7.89-7.89s-3.54-7.89-7.89-7.89h-4.75
		v-4.75C118.71,104.45,115.17,100.91,110.82,100.91z M123.46,119.41c1.12,0,2.03,0.91,2.03,2.03s-0.91,2.03-2.03,2.03h-7.68
		c-1.62,0-2.93,1.31-2.93,2.93v7.68c0,1.12-0.91,2.03-2.03,2.03s-2.03-0.91-2.03-2.03v-7.68c0-1.62-1.31-2.93-2.93-2.93h-7.68
		c-1.12,0-2.03-0.91-2.03-2.03s0.91-2.03,2.03-2.03h7.68c1.62,0,2.93-1.31,2.93-2.93v-7.68c0-1.12,0.91-2.03,2.03-2.03
		s2.03,0.91,2.03,2.03v7.68c0,1.62,1.31,2.93,2.93,2.93H123.46z"/>
	<path class="st1" d="M103.43,83.47c-18.12,3.51-31.28,19.48-31.28,37.96c0,21.32,17.35,38.67,38.67,38.67s38.67-17.35,38.67-38.67
		c0-18.49-13.15-34.45-31.28-37.96c-1.59-0.31-3.13,0.73-3.43,2.32c-0.31,1.59,0.73,3.13,2.32,3.43
		c15.37,2.98,26.53,16.52,26.53,32.21c0,18.09-14.72,32.81-32.81,32.81s-32.81-14.72-32.81-32.81c0-15.69,11.16-29.23,26.53-32.21
		c1.59-0.31,2.63-1.85,2.32-3.43C106.55,84.21,105.02,83.17,103.43,83.47z"/>
	<path class="st1" d="M197.07,117.53c1.62,0,2.93-1.31,2.93-2.93V77.57c0-9.4-7.65-17.06-17.06-17.06h-24.25v-8.8
		c0-12.55-10.21-22.76-22.76-22.76h-5.62H91.33h-5.62c-12.55,0-22.76,10.21-22.76,22.76v8.8H43.64l-7.97-13.68
		c-1.06-1.81-2.95-2.99-5.03-3.15V20.57c0-1.62-1.31-2.93-2.93-2.93c-1.62,0-2.93,1.31-2.93,2.93v23.12
		c-2.1,0.19-4.01,1.39-5.08,3.22L4.2,73.53c-0.01,0.01-0.01,0.02-0.01,0.03C3.93,74,3.8,74.51,3.8,75c0,0,0,0,0,0v64.48H2.93
		c-1.62,0-2.93,1.31-2.93,2.93c0,1.62,1.31,2.93,2.93,2.93c5.91,0,6.71,0,15.7,0v17.93h-6.69c-4.49,0-8.14,3.65-8.14,8.14v2.8
		c0,4.49,3.65,8.14,8.14,8.14c2.34,0,167.53,0,171,0c9.41,0,17.06-7.65,17.06-17.06v-37.03c0-1.62-1.31-2.93-2.93-2.93
		c-1.62,0-2.93,1.31-2.93,2.93v37.03c0,6.17-5.02,11.2-11.2,11.2H51.3c0.21-0.72,0.33-1.49,0.33-2.28v-2.8
		c0-4.49-3.65-8.14-8.14-8.14h-1.4H36.8v-17.93c5.92,0,9.55,0,15.53,0c1.62,0,2.93-1.31,2.93-2.93c0-1.62-1.31-2.93-2.93-2.93h-0.71
		V75.01c0,0,0,0,0,0c0-0.01,0-0.02,0-0.03c-0.01-0.47-0.13-0.97-0.38-1.42c0-0.01-0.01-0.02-0.01-0.03l-4.17-7.16
		c4.93,0,131.61,0,135.89,0c6.17,0,11.2,5.02,11.2,11.2v37.03C194.14,116.22,195.45,117.53,197.07,117.53z M24.77,49.86
		c0.12-0.21,0.35-0.34,0.6-0.34h4.79c0.18,0,0.36,0.1,0.45,0.26c1.54,2.65,11.47,19.69,12.99,22.3H11.83L24.77,49.86z M42.09,169.14
		c2.03,0,3.68,1.65,3.68,3.68s-1.65,3.68-3.68,3.68H11.94c-1.26,0-2.28-1.02-2.28-2.28v-2.8c0-1.26,1.02-2.28,2.28-2.28
		C12.75,169.14,41.29,169.14,42.09,169.14z M30.94,163.28h-6.45v-17.93h6.45L30.94,163.28z M9.66,139.49v-12.05h7.98
		c1.62,0,2.93-1.31,2.93-2.93c0-1.62-1.31-2.93-2.93-2.93H9.66v-9.94h7.98c1.62,0,2.93-1.31,2.93-2.93c0-1.62-1.31-2.93-2.93-2.93
		H9.66v-9.94h7.98c1.62,0,2.93-1.31,2.93-2.93c0-1.62-1.31-2.93-2.93-2.93H9.66V77.94h36.11v61.55
		C41.91,139.49,13.44,139.49,9.66,139.49z M127.39,34.82v4.05H94.26v-4.05H127.39z M142.92,60.51h-64.2v-8.8
		c0-3.85,3.13-6.98,6.98-6.98h5.62h38.99h5.62c3.85,0,6.98,3.13,6.98,6.98L142.92,60.51L142.92,60.51z M68.81,60.51v-8.8
		c0-9.32,7.58-16.9,16.9-16.9h2.69v4.05h-2.69c-7.08,0-12.84,5.76-12.84,12.84v8.8H68.81z M148.78,60.51v-8.8
		c0-7.08-5.76-12.84-12.84-12.84h-2.69v-4.05h2.69c9.32,0,16.9,7.58,16.9,16.9v8.8H148.78z"/>
</g>
</svg>
