<?xml version="1.0" encoding="utf-8"?>
<!-- Generator: Adobe Illustrator 23.0.1, SVG Export Plug-In . SVG Version: 6.00 Build 0)  -->
<svg version="1.1" id="Capa_1" xmlns="http://www.w3.org/2000/svg" xmlns:xlink="http://www.w3.org/1999/xlink" x="0px" y="0px"
	 viewBox="0 0 200 200" style="enable-background:new 0 0 200 200;" xml:space="preserve">
<style type="text/css">
	.st0{fill:#FFFFFF;}
	.st1{fill:#FFFFFF;stroke:#344154;stroke-width:3;stroke-linecap:round;stroke-miterlimit:10;}
	.st2{fill:url(#SVGID_1_);}
	.st3{fill:url(#SVGID_2_);}
	.st4{fill:url(#SVGID_3_);}
	.st5{fill:url(#SVGID_4_);}
	.st6{fill:url(#SVGID_5_);}
	.st7{opacity:0.5;fill:url(#SVGID_6_);}
	.st8{fill:url(#SVGID_7_);}
	.st9{clip-path:url(#SVGID_9_);fill:#FFFFFF;}
	.st10{fill-rule:evenodd;clip-rule:evenodd;fill:#FFFFFF;}
	.st11{fill-rule:evenodd;clip-rule:evenodd;fill:#064627;}
	.st12{fill-rule:evenodd;clip-rule:evenodd;fill:#70AC54;}
	.st13{fill-rule:evenodd;clip-rule:evenodd;fill:#1F1A17;}
</style>
<g>
	<g>
		<path class="st0" d="M58.86,150.38c-5.42,5.42-6.57,13.79-2.81,20.34c2.9,5.04,1.67,11.36-2.91,15.03
			c-2.01,1.61-4.58,2.5-7.25,2.5c-1.22,0-2.41-0.21-3.55-0.56c3.62-3.63,4.54-9.17,2.08-13.78c-3.55-6.67-2.99-16.12,2.6-21.36
			l39.48-29.8L58.86,150.38z"/>
	</g>
	<g>
		<path class="st0" d="M120.26,105.56l-7.3-7.3l2.48-10.43l-5.21,1.24c-3.22,0.77-6.67-0.21-9.01-2.55
			c-1.81-1.81-2.81-4.22-2.81-6.79s1-4.97,2.81-6.79l31.62-31.63c1.69-1.69,2-4.29,0.78-6.48c-5.59-10.03-3.11-22.55,5.9-29.76
			c8.54-6.84,20.89-6.77,29.37,0.15c5.31,4.34,8.37,10.51,8.63,17.23c6.72,0.26,12.89,3.32,17.23,8.63
			c6.93,8.48,6.99,20.84,0.15,29.37c-7.21,9.01-19.72,11.49-29.76,5.9c-2.19-1.22-4.79-0.9-6.48,0.78L120.26,105.56z M118.14,96.8
			l2.12,2.12l35.09-35.09c3.19-3.19,8.04-3.81,12.08-1.56c8.02,4.47,18.03,2.48,23.81-4.73c5.46-6.82,5.41-16.69-0.12-23.47l0,0
			c-3.9-4.78-9.67-7.28-15.82-6.88l-2.67,0.18l0.18-2.67c0.41-6.15-2.1-11.91-6.88-15.82c-6.78-5.54-16.65-5.59-23.47-0.12
			c-7.21,5.78-9.2,15.79-4.73,23.81c2.25,4.04,1.62,8.9-1.56,12.08l-31.63,31.63c-0.93,0.93-1.44,2.16-1.44,3.47
			c0,1.31,0.51,2.54,1.44,3.47c1.19,1.19,2.96,1.69,4.6,1.3l12.63-3L118.14,96.8z"/>
	</g>
	<g>
		<path class="st0" d="M45.89,200c-5.26,0-10.52-1.75-14.79-5.24c-5.31-4.33-8.37-10.51-8.63-17.23
			c-6.72-0.26-12.89-3.32-17.23-8.63c-6.93-8.48-6.99-20.84-0.15-29.37c7.21-9.01,19.73-11.49,29.76-5.9
			c2.19,1.22,4.79,0.9,6.48-0.78l38.41-38.41l5.45,5.45l15.29-3.63l-2.52,10.59c-0.69,2.9,0.19,6,2.3,8.11
			c2.92,2.93,2.92,7.69,0,10.61l-33.11,33.11c-1.69,1.69-2,4.29-0.78,6.48c5.59,10.03,3.11,22.55-5.9,29.76
			C56.23,198.31,51.06,200,45.89,200z M27.36,172.63l-0.18,2.67c-0.41,6.15,2.1,11.91,6.88,15.81c6.78,5.54,16.65,5.59,23.47,0.13
			c7.21-5.78,9.2-15.79,4.73-23.81c-2.25-4.04-1.62-8.89,1.56-12.08l33.11-33.11c1.09-1.09,1.09-2.88,0-3.97
			c-3.25-3.25-4.61-8.04-3.54-12.51l0.75-3.18l-10.43,2.48l-3.98-3.99l-35.09,35.09c-3.18,3.19-8.04,3.82-12.08,1.57
			c-8.03-4.47-18.04-2.48-23.81,4.73c-5.46,6.82-5.41,16.69,0.13,23.47c3.9,4.78,9.7,7.29,15.81,6.88L27.36,172.63z"/>
	</g>
	<g>
		<g>
			<path class="st0" d="M53.21,80.44H32.35c-1.3,0-2.35-1.05-2.35-2.35c0-1.3,1.05-2.35,2.35-2.35h20.86c1.3,0,2.35,1.05,2.35,2.35
				C55.56,79.39,54.51,80.44,53.21,80.44z"/>
		</g>
		<g>
			<path class="st0" d="M60.78,62.72c-0.6,0-1.2-0.23-1.66-0.69L44.76,47.67c-0.92-0.92-0.92-2.4,0-3.32c0.92-0.92,2.4-0.92,3.32,0
				l14.36,14.36c0.92,0.92,0.92,2.4,0,3.32C61.98,62.49,61.38,62.72,60.78,62.72z"/>
		</g>
		<g>
			<path class="st0" d="M79.06,54.13c-1.3,0-2.35-1.05-2.35-2.35V33.31c0-1.3,1.05-2.35,2.35-2.35c1.3,0,2.35,1.05,2.35,2.35v18.47
				C81.41,53.08,80.35,54.13,79.06,54.13z"/>
		</g>
	</g>
</g>
</svg>
