<?xml version="1.0" encoding="utf-8"?>
<!-- Generator: Adobe Illustrator 24.1.1, SVG Export Plug-In . SVG Version: 6.00 Build 0)  -->
<svg version="1.1" xmlns="http://www.w3.org/2000/svg" xmlns:xlink="http://www.w3.org/1999/xlink" x="0px" y="0px"
	 viewBox="0 0 500 468.38" style="enable-background:new 0 0 500 468.38;" xml:space="preserve">
<style type="text/css">
	.st0{fill:#FFFFFF;}
	.st1{fill:#00AFB7;}
	.st2{fill:#093833;}
	.st3{fill:#36B6E9;}
	.st4{fill:#282828;}
	.st5{fill-rule:evenodd;clip-rule:evenodd;fill:#00AFB7;}
	.st6{fill:none;stroke:#13B7AB;stroke-miterlimit:10;}
	.st7{fill-rule:evenodd;clip-rule:evenodd;fill:none;stroke:#114477;stroke-miterlimit:10;}
	.st8{fill-rule:evenodd;clip-rule:evenodd;fill:none;stroke:#13B7AB;stroke-miterlimit:10;}
	.st9{fill:#336699;}
	.st10{fill:#114477;}
	.st11{clip-path:url(#SVGID_6_);}
	.st12{fill:none;stroke:#FFFFFF;stroke-width:2;stroke-miterlimit:10;}
	.st13{fill:#0A443E;}
	.st14{clip-path:url(#SVGID_16_);fill:#0A443E;}
	.st15{fill-rule:evenodd;clip-rule:evenodd;fill:#0A443E;}
	.st16{fill-rule:evenodd;clip-rule:evenodd;fill:#064627;}
	.st17{fill-rule:evenodd;clip-rule:evenodd;fill:#70AC54;}
	.st18{fill-rule:evenodd;clip-rule:evenodd;fill:#1F1A17;}
	.st19{fill:#136380;}
	.st20{fill:none;stroke:#344154;stroke-width:3;stroke-linecap:round;stroke-miterlimit:10;}
	.st21{fill:#FF6D3B;}
	.st22{fill:none;stroke:#344154;stroke-width:1.5;stroke-miterlimit:10;}
	.st23{opacity:0.75;}
	.st24{fill:none;stroke:#00AFB7;stroke-width:3;stroke-miterlimit:10;}
	.st25{fill:#10C626;}
	.st26{fill:#00CC33;}
</style>
<g id="guias">
</g>
<g id="Capa_2">
	<g>
		<path class="st1" d="M42.86,225.77c1.79-13.31,2.49-26.69,5.51-39.52C66.8,107.82,117.78,61.5,193.95,40.77
			c6.44-1.75,10.4-3.64,12.78-10.88C212.74,11.61,230.93-0.24,249.83,0c19.11,0.25,36.73,12.34,42.6,30.64
			c2.09,6.52,5.73,8.38,11.56,9.84c59.8,14.95,105.49,48.09,132.88,104.31c9.95,20.43,15.32,42.18,17.22,65.97
			c-3.24,0.17-6.3,0.47-9.36,0.47c-25.17,0-50.34-0.1-75.51-0.06c-3.21,0.01-6.96-0.25-9.48,1.25c-2.26,1.35-4.26,4.96-4.29,7.59
			c-0.02,1.81,3.46,5.13,5.51,5.24c14.74,0.81,29.51,1.15,44.28,1.3c25.36,0.26,50.76-0.42,76.05,1.02
			c4.89,0.28,11.09,7.65,13.63,13.16c7.14,15.49,6.61,31.64-0.6,47.27c-3.97,8.6-10.59,12.69-20.44,12.68
			c-149.25-0.14-298.5-0.14-447.75,0.01c-10.72,0.01-17.41-4.85-21.28-14.16c-6.17-14.85-6.57-29.9-0.5-44.94
			c5.02-12.46,9.98-15.77,23.58-15.83C32.89,225.75,37.85,225.77,42.86,225.77z"/>
		<path class="st1" d="M250.12,336.96c56.85,0,113.7-0.07,170.55,0.11c5.2,0.02,10.77,0.68,15.51,2.64
			c8.5,3.53,13.24,11.8,10.34,20.24c-7.29,21.16-14.61,42.46-24.31,62.55c-4.16,8.61-13.23,16.17-21.85,21.03
			c-25.81,14.53-53.94,22.56-83.62,24.51c-12.5,0.82-24.1-1.56-33.8-10.39c-3.93-3.57-8.31-6.69-12.71-9.68
			c-11.68-7.94-25.85-7.88-37.51-0.06c-0.49,0.33-1.03,0.63-1.43,1.05c-21.48,22.61-47.71,22.54-74.82,14.54
			c-18.36-5.42-36.34-12.3-54.15-19.39c-13.13-5.23-23-15.05-28.43-28.02c-7.4-17.67-14.23-35.64-19.98-53.91
			c-4.06-12.91,4.15-23.42,17.67-24.96c3.22-0.37,6.5-0.25,9.76-0.25C137.6,336.95,193.86,336.96,250.12,336.96z M155.34,378.61
			c-9.75,1.41-18.54,2.38-27.21,4.02c-7.17,1.36-10.63,6.84-7.74,13.12c3.19,6.92,7.44,14.68,13.48,18.68
			c15.96,10.58,34.31,12.96,52.78,7.89c6.12-1.68,12.46-6.02,16.55-10.94c10.12-12.17,6.88-22.77-8.36-26.57
			C181.74,381.55,168.08,380.53,155.34,378.61z M343.86,378.46c-13.01,2.22-27.74,3.74-41.9,7.45
			c-10.94,2.86-13.42,10.62-8.22,20.74c2.09,4.06,5.2,8.07,8.83,10.8c19.89,14.92,63.2,5.17,74.95-16.6
			c0.7-1.29,1.29-2.67,1.73-4.07c2.22-7.13,0.43-12.55-7.37-14.09C363.24,380.98,354.46,380.02,343.86,378.46z"/>
	</g>
</g>
</svg>
