<?xml version="1.0" encoding="utf-8"?>
<!-- Generator: Adobe Illustrator 23.0.1, SVG Export Plug-In . SVG Version: 6.00 Build 0)  -->
<svg version="1.1" id="Capa_1" xmlns="http://www.w3.org/2000/svg" xmlns:xlink="http://www.w3.org/1999/xlink" x="0px" y="0px"
	 viewBox="0 0 200 200" style="enable-background:new 0 0 200 200;" xml:space="preserve">
<style type="text/css">
	.st0{fill:#136380;}
	.st1{fill:#00AFB7;}
	.st2{fill:none;stroke:#344154;stroke-width:3;stroke-linecap:round;stroke-miterlimit:10;}
	.st3{fill:#FF6D3B;}
	.st4{fill:url(#SVGID_1_);}
	.st5{fill:url(#SVGID_2_);}
	.st6{fill:url(#SVGID_3_);}
	.st7{fill:url(#SVGID_4_);}
	.st8{fill:url(#SVGID_5_);}
	.st9{opacity:0.5;fill:url(#SVGID_6_);}
	.st10{fill:url(#SVGID_7_);}
	.st11{fill:#FFFFFF;}
	.st12{clip-path:url(#SVGID_9_);fill:#FFFFFF;}
	.st13{fill-rule:evenodd;clip-rule:evenodd;fill:#FFFFFF;}
	.st14{fill-rule:evenodd;clip-rule:evenodd;fill:#064627;}
	.st15{fill-rule:evenodd;clip-rule:evenodd;fill:#70AC54;}
	.st16{fill-rule:evenodd;clip-rule:evenodd;fill:#1F1A17;}
</style>
<g>
	<g>
		<g>
			<path class="st0" d="M143.87,92.49l-4.81-12.22h-6.73c-1.1,0-1.99-0.89-1.99-1.99c0-1.1,0.89-1.99,1.99-1.99h9.43l2.25,5.71
				l7.62-17.92l4.81,12.21h6.59c1.1,0,1.99,0.89,1.99,1.99c0,1.1-0.89,1.99-1.99,1.99h-9.3l-2.25-5.71L143.87,92.49z"/>
		</g>
		<g>
			<g id="XMLID_19_">
				<path class="st0" d="M179.58,114.31H115.8c-4.44,0-8.05-3.61-8.05-8.05v-3.95c0-1.1,0.89-1.99,1.99-1.99h75.91
					c1.1,0,1.99,0.89,1.99,1.99v3.95C187.63,110.7,184.02,114.31,179.58,114.31z M111.72,104.29v1.97c0,2.25,1.83,4.08,4.08,4.08
					h63.78c2.25,0,4.08-1.83,4.08-4.08v-1.97H111.72z"/>
			</g>
			<g id="XMLID_18_">
				<path class="st0" d="M180.7,104.29h-66.02c-1.1,0-1.99-0.89-1.99-1.99V62.94c0-4.25,3.46-7.71,7.71-7.71h54.58
					c4.25,0,7.71,3.46,7.71,7.71v39.37C182.68,103.4,181.79,104.29,180.7,104.29z M116.66,100.32h62.05V62.94
					c0-2.06-1.67-3.73-3.73-3.73H120.4c-2.06,0-3.73,1.67-3.73,3.73V100.32z"/>
			</g>
		</g>
	</g>
	<g>
		<g>
			<path class="st0" d="M117.48,166.28c-0.99,0-1.85-0.74-1.97-1.75l-2.79-23.22c-0.83-4.08-3.06-7.79-6.28-10.45
				c-2.05-1.68-4.07-2.76-6-3.18l-0.13-0.03l-17.64-5.12c-0.59-0.17-1.14-0.43-1.64-0.77c-1.41-0.95-2.33-2.46-2.53-4.15l-0.81-6.98
				c-0.13-1.09,0.65-2.08,1.74-2.2c1.11-0.13,2.08,0.65,2.2,1.74l0.81,6.98c0.06,0.54,0.36,1.02,0.81,1.32
				c0.16,0.11,0.33,0.19,0.52,0.24l17.57,5.1c2.53,0.57,5.08,1.91,7.6,3.98c3.94,3.26,6.66,7.81,7.66,12.81l0.02,0.15l2.8,23.3
				c0.13,1.09-0.65,2.08-1.74,2.21C117.64,166.27,117.56,166.28,117.48,166.28z"/>
		</g>
		<g>
			<path class="st0" d="M14.36,166.28c-0.08,0-0.16,0-0.24-0.01c-1.09-0.13-1.87-1.12-1.74-2.21l2.82-23.45
				c0.99-5,3.71-9.55,7.66-12.81c2.54-2.09,5.14-3.44,7.73-4.02l17.45-5.07c0.18-0.05,0.36-0.14,0.52-0.24
				c0.45-0.3,0.74-0.79,0.81-1.33l0.68-5.89c-4.53-3.83-7.98-9.24-9.84-15.42c-3.47-1.12-5.95-5.1-5.95-9.89
				c0-4.83,2.53-8.92,6.15-9.96c1.05-0.3,2.15,0.31,2.45,1.37c0.3,1.06-0.31,2.15-1.37,2.45c-1.89,0.54-3.27,3.12-3.27,6.14
				c0,3.3,1.64,6.03,3.74,6.22l1.38,0.13l0.35,1.35c1.64,6.24,5.07,11.63,9.65,15.2l0.88,0.69l-0.93,8.09
				c-0.2,1.69-1.12,3.21-2.53,4.16c-0.5,0.34-1.05,0.59-1.63,0.76l-17.58,5.1c-2.1,0.47-4.13,1.54-6.18,3.23
				c-3.23,2.67-5.45,6.37-6.28,10.45l-2.79,23.22C16.2,165.54,15.35,166.28,14.36,166.28z"/>
		</g>
	</g>
	<g>
		<path class="st0" d="M40.96,79.88c-1.03,0-1.91-0.8-1.98-1.85c-0.02-0.34-0.55-8.43,1.63-15.36c0.33-1.05,1.44-1.63,2.49-1.3
			c1.05,0.33,1.63,1.44,1.3,2.49c-1.96,6.22-1.46,13.82-1.46,13.9c0.08,1.09-0.75,2.04-1.85,2.12
			C41.05,79.88,41.01,79.88,40.96,79.88z"/>
	</g>
	<g>
		<g>
			<path class="st0" d="M117.48,166.28c-0.99,0-1.85-0.74-1.97-1.75l-2.79-23.22c-0.83-4.07-3.05-7.78-6.28-10.45
				c-2.05-1.69-4.08-2.76-6.05-3.2l-17.7-5.13c-0.58-0.17-1.13-0.43-1.63-0.76c-1.41-0.95-2.34-2.47-2.53-4.16l-0.93-8.09l0.88-0.69
				c4.58-3.56,8-8.96,9.65-15.2l0.35-1.34l1.38-0.13c2.1-0.19,3.74-2.92,3.74-6.22c0-3.02-1.37-5.6-3.27-6.14
				c-1.06-0.3-1.67-1.4-1.37-2.45c0.3-1.06,1.4-1.67,2.45-1.37c3.62,1.03,6.15,5.13,6.15,9.96c0,4.79-2.47,8.77-5.95,9.89
				c-1.86,6.18-5.31,11.59-9.84,15.42l0.68,5.9c0.06,0.54,0.35,1.02,0.8,1.32c0.16,0.11,0.33,0.19,0.52,0.24l17.57,5.1
				c2.46,0.54,5.07,1.89,7.6,3.98c3.95,3.27,6.68,7.81,7.67,12.81l0.02,0.15l2.8,23.3c0.13,1.09-0.65,2.08-1.74,2.21
				C117.64,166.27,117.56,166.28,117.48,166.28z"/>
		</g>
	</g>
	<g>
		<path class="st0" d="M90.88,79.88c-0.05,0-0.09,0-0.14-0.01c-1.09-0.08-1.92-1.02-1.85-2.12c0.01-0.08,0.49-7.7-1.46-13.9
			c-0.33-1.05,0.25-2.16,1.3-2.49c1.05-0.33,2.16,0.25,2.49,1.3c2.18,6.93,1.65,15.02,1.63,15.36
			C92.79,79.08,91.91,79.88,90.88,79.88z"/>
	</g>
	<g>
		<path class="st0" d="M65.92,133.47c-4.31,0-8.63-1.54-12.07-4.62l-6.84-6.12c-0.82-0.73-0.89-1.99-0.15-2.8
			c0.73-0.81,1.98-0.89,2.8-0.15l6.84,6.12c5.37,4.81,13.47,4.81,18.84,0l6.84-6.12c0.82-0.73,2.07-0.66,2.8,0.15
			c0.73,0.82,0.66,2.07-0.15,2.8l-6.84,6.12C74.55,131.93,70.23,133.47,65.92,133.47z"/>
	</g>
	<g>
		<path class="st0" d="M132.46,193.47H79.5c-9.49,0-17.21-7.72-17.21-17.21c0-1.1,0.89-1.99,1.99-1.99c1.1,0,1.99,0.89,1.99,1.99
			c0,7.3,5.94,13.24,13.24,13.24h52.96c7.3,0,13.24-5.94,13.24-13.24v-63.93c0-1.1,0.89-1.99,1.99-1.99c1.1,0,1.99,0.89,1.99,1.99
			v63.93C149.67,185.75,141.95,193.47,132.46,193.47z"/>
	</g>
	<g>
		<path class="st0" d="M41.66,159.53c-4.48,0-8.12-3.64-8.12-8.12c0-4.48,3.64-8.12,8.12-8.12c4.47,0,8.11,3.64,8.11,8.12
			C49.77,155.89,46.13,159.53,41.66,159.53z M41.66,147.27c-2.28,0-4.14,1.86-4.14,4.14c0,2.28,1.86,4.14,4.14,4.14
			c2.28,0,4.14-1.86,4.14-4.14C45.8,149.13,43.94,147.27,41.66,147.27z"/>
	</g>
	<g>
		<path class="st3" d="M41.66,152.69c-0.7,0-1.28-0.57-1.28-1.28c0-0.71,0.57-1.28,1.28-1.28s1.28,0.57,1.28,1.28
			C42.93,152.12,42.36,152.69,41.66,152.69z"/>
	</g>
	<g>
		<path class="st3" d="M64.27,152.69c-0.7,0-1.28-0.57-1.28-1.28c0-0.71,0.57-1.28,1.28-1.28c0.71,0,1.28,0.57,1.28,1.28
			C65.55,152.12,64.97,152.69,64.27,152.69z"/>
	</g>
	<g>
		<path class="st3" d="M86.88,152.69c-0.7,0-1.28-0.57-1.28-1.28c0-0.71,0.57-1.28,1.28-1.28c0.7,0,1.28,0.57,1.28,1.28
			C88.16,152.12,87.59,152.69,86.88,152.69z"/>
	</g>
	<g>
		<path class="st0" d="M64.27,159.53c-4.48,0-8.12-3.64-8.12-8.12c0-4.48,3.64-8.12,8.12-8.12s8.12,3.64,8.12,8.12
			C72.38,155.89,68.74,159.53,64.27,159.53z M64.27,147.27c-2.28,0-4.14,1.86-4.14,4.14c0,2.28,1.86,4.14,4.14,4.14
			c2.28,0,4.14-1.86,4.14-4.14C68.41,149.13,66.55,147.27,64.27,147.27z"/>
	</g>
	<g>
		<path class="st0" d="M86.88,159.53c-4.48,0-8.12-3.64-8.12-8.12c0-4.48,3.64-8.12,8.12-8.12c4.48,0,8.12,3.64,8.12,8.12
			C95,155.89,91.36,159.53,86.88,159.53z M86.88,147.27c-2.28,0-4.14,1.86-4.14,4.14c0,2.28,1.86,4.14,4.14,4.14
			c2.28,0,4.14-1.86,4.14-4.14C91.03,149.13,89.17,147.27,86.88,147.27z"/>
	</g>
	<g>
		<path class="st0" d="M64.27,178.25c-9.66,0-18.37-5.74-22.17-14.62l-2.27-5.3c-0.43-1.01,0.04-2.18,1.04-2.61
			c1.01-0.43,2.18,0.04,2.61,1.04l2.27,5.3c3.18,7.42,10.45,12.21,18.52,12.21c8.07,0,15.34-4.79,18.52-12.22l2.27-5.3
			c0.43-1.01,1.59-1.47,2.61-1.04c1.01,0.43,1.48,1.6,1.04,2.61l-2.27,5.3C82.64,172.51,73.93,178.25,64.27,178.25z"/>
	</g>
	<g>
		<path class="st0" d="M64.27,168.89c-1.1,0-1.99-0.89-1.99-1.99v-9.36c0-1.1,0.89-1.99,1.99-1.99c1.1,0,1.99,0.89,1.99,1.99v9.36
			C66.26,168,65.37,168.89,64.27,168.89z"/>
	</g>
	<g>
		<path class="st0" d="M89.33,65.25c-0.89,0-1.69-0.6-1.92-1.49c-0.19-0.75-4.74-17.49-21.49-17.49c-16.76,0-21.3,16.77-21.49,17.49
			c-0.28,1.06-1.36,1.7-2.42,1.43c-1.06-0.27-1.7-1.35-1.43-2.41c0.05-0.2,5.46-20.48,25.34-20.48s25.29,20.27,25.34,20.48
			c0.27,1.06-0.37,2.14-1.43,2.42C89.66,65.23,89.49,65.25,89.33,65.25z"/>
	</g>
	<g>
		<path class="st1" d="M65.92,50.9c-13.27,0-16.96,13.86-17,14c0,0-0.16,0.58-0.39,1.51c3.66,1.34,9.32,1.43,17.61-3.15
			c5.05-2.79,10.42-3.29,15.04-2.6C79.01,56.5,74.49,50.9,65.92,50.9z"/>
	</g>
	<g>
		<path class="st0" d="M200,157.43h-4.37V70.45c0-12.05-7.11-23-18.11-27.9l-65.08-29.01c-7.9-3.52-16.97-3.52-24.88,0L22.48,42.55
			c-11,4.91-18.11,15.86-18.11,27.9v86.97H0V70.45c0-13.77,8.13-26.29,20.7-31.9L85.78,9.55c9.04-4.03,19.4-4.03,28.44,0
			l65.08,29.01c12.58,5.61,20.7,18.13,20.7,31.9V157.43z"/>
	</g>
</g>
</svg>
