<?xml version="1.0" encoding="utf-8"?>
<!-- Generator: Adobe Illustrator 23.0.1, SVG Export Plug-In . SVG Version: 6.00 Build 0)  -->
<svg version="1.1" id="Capa_1" xmlns="http://www.w3.org/2000/svg" xmlns:xlink="http://www.w3.org/1999/xlink" x="0px" y="0px"
	 viewBox="0 0 223.29 208.72" style="enable-background:new 0 0 223.29 208.72;" xml:space="preserve">
<style type="text/css">
	.st0{fill:#136380;}
	.st1{fill:#00AFB7;}
	.st2{fill:none;stroke:#344154;stroke-width:3;stroke-linecap:round;stroke-miterlimit:10;}
	.st3{fill:#FF6D3B;}
	.st4{fill:url(#SVGID_1_);}
	.st5{fill:url(#SVGID_2_);}
	.st6{fill:url(#SVGID_3_);}
	.st7{fill:url(#SVGID_4_);}
	.st8{fill:url(#SVGID_5_);}
	.st9{opacity:0.5;fill:url(#SVGID_6_);}
	.st10{fill:url(#SVGID_7_);}
</style>
<g>
	<g>
		<g>
			<path class="st0" d="M160.63,95.98l-5.37-13.64h-7.51c-1.22,0-2.22-0.99-2.22-2.22s0.99-2.22,2.22-2.22h10.53l2.51,6.37
				l8.51-20.01l5.37,13.64h7.36c1.22,0,2.22,0.99,2.22,2.22s-0.99,2.22-2.22,2.22h-10.38l-2.51-6.37L160.63,95.98z"/>
		</g>
		<g>
			<g id="XMLID_19_">
				<path class="st0" d="M200.49,120.34h-71.2c-4.96,0-8.99-4.03-8.99-8.99v-4.41c0-1.22,0.99-2.22,2.22-2.22h84.75
					c1.22,0,2.22,0.99,2.22,2.22v4.41C209.48,116.31,205.45,120.34,200.49,120.34z M124.73,109.15v2.2c0,2.51,2.04,4.56,4.56,4.56
					h71.2c2.51,0,4.56-2.04,4.56-4.56v-2.2H124.73z"/>
			</g>
			<g id="XMLID_18_">
				<path class="st0" d="M201.74,109.15h-73.71c-1.22,0-2.22-0.99-2.22-2.22V62.98c0-4.74,3.86-8.6,8.6-8.6h60.94
					c4.74,0,8.6,3.86,8.6,8.6v43.95C203.96,108.16,202.96,109.15,201.74,109.15z M130.25,104.71h69.28V62.98
					c0-2.3-1.87-4.17-4.17-4.17h-60.94c-2.3,0-4.17,1.87-4.17,4.17V104.71z"/>
			</g>
		</g>
	</g>
	<g>
		<g>
			<path class="st0" d="M131.16,178.36c-1.11,0-2.06-0.83-2.2-1.95l-3.12-25.92c-0.93-4.56-3.42-8.7-7.01-11.67
				c-2.29-1.88-4.54-3.08-6.69-3.55l-0.14-0.04l-19.69-5.72c-0.66-0.19-1.27-0.48-1.83-0.86c-1.57-1.06-2.6-2.75-2.82-4.64
				l-0.91-7.79c-0.14-1.22,0.73-2.32,1.95-2.46c1.23-0.14,2.32,0.73,2.46,1.95l0.91,7.79c0.07,0.6,0.4,1.14,0.9,1.48
				c0.18,0.12,0.37,0.21,0.58,0.27l19.62,5.7c2.82,0.63,5.68,2.13,8.49,4.44c4.4,3.64,7.44,8.72,8.55,14.3l0.03,0.17l3.13,26.01
				c0.15,1.22-0.72,2.32-1.94,2.47C131.34,178.35,131.25,178.36,131.16,178.36z"/>
		</g>
		<g>
			<path class="st0" d="M16.03,178.36c-0.09,0-0.18,0-0.27-0.02c-1.22-0.15-2.08-1.25-1.94-2.47l3.15-26.18
				c1.11-5.58,4.15-10.66,8.56-14.3c2.83-2.34,5.74-3.85,8.63-4.48l19.48-5.66c0.21-0.06,0.4-0.15,0.58-0.27
				c0.5-0.34,0.83-0.88,0.9-1.48l0.76-6.58c-5.06-4.28-8.91-10.31-10.98-17.22c-3.88-1.25-6.64-5.69-6.64-11.04
				c0-5.39,2.82-9.96,6.86-11.12c1.17-0.33,2.41,0.35,2.74,1.52c0.34,1.18-0.35,2.4-1.52,2.74c-2.11,0.6-3.65,3.48-3.65,6.85
				c0,3.68,1.83,6.73,4.18,6.94l1.55,0.14l0.4,1.5c1.84,6.96,5.66,12.99,10.77,16.97l0.98,0.77l-1.04,9.03
				c-0.22,1.89-1.25,3.58-2.83,4.65c-0.56,0.38-1.17,0.66-1.82,0.85l-19.62,5.7c-2.34,0.52-4.62,1.72-6.9,3.61
				c-3.6,2.98-6.09,7.11-7.01,11.66l-3.12,25.93C18.09,177.53,17.13,178.36,16.03,178.36z"/>
		</g>
	</g>
	<g>
		<path class="st0" d="M45.73,81.9c-1.15,0-2.13-0.9-2.21-2.07c-0.03-0.38-0.61-9.42,1.82-17.15c0.37-1.17,1.61-1.82,2.78-1.45
			c1.17,0.37,1.82,1.61,1.45,2.78c-2.18,6.95-1.63,15.43-1.63,15.52c0.09,1.22-0.84,2.28-2.06,2.36
			C45.83,81.89,45.78,81.9,45.73,81.9z"/>
	</g>
	<g>
		<g>
			<path class="st0" d="M131.16,178.36c-1.11,0-2.06-0.83-2.2-1.95l-3.12-25.93c-0.92-4.55-3.41-8.69-7.01-11.67
				c-2.29-1.88-4.56-3.09-6.76-3.57l-19.76-5.73c-0.65-0.19-1.26-0.48-1.82-0.85c-1.58-1.06-2.61-2.76-2.82-4.65l-1.04-9.03
				l0.98-0.77c5.11-3.97,8.93-10,10.77-16.97l0.4-1.5l1.55-0.14c2.34-0.21,4.18-3.26,4.18-6.94c0-3.37-1.53-6.25-3.65-6.85
				c-1.18-0.33-1.86-1.56-1.52-2.74c0.33-1.18,1.56-1.86,2.74-1.52c4.04,1.15,6.86,5.72,6.86,11.12c0,5.35-2.76,9.79-6.64,11.04
				c-2.08,6.9-5.93,12.94-10.98,17.22l0.76,6.58c0.07,0.6,0.4,1.14,0.9,1.48c0.18,0.12,0.37,0.21,0.58,0.27l19.62,5.7
				c2.75,0.6,5.66,2.11,8.49,4.45c4.41,3.65,7.45,8.72,8.56,14.3l0.03,0.17l3.13,26.01c0.15,1.22-0.72,2.32-1.94,2.47
				C131.34,178.35,131.25,178.36,131.16,178.36z"/>
		</g>
	</g>
	<g>
		<path class="st0" d="M101.46,81.9c-0.05,0-0.1,0-0.15-0.01c-1.22-0.08-2.14-1.14-2.06-2.36c0.01-0.09,0.55-8.6-1.63-15.52
			c-0.37-1.17,0.28-2.41,1.45-2.78c1.17-0.37,2.41,0.28,2.78,1.45c2.43,7.74,1.85,16.77,1.82,17.15
			C103.59,81,102.62,81.9,101.46,81.9z"/>
	</g>
	<g>
		<path class="st0" d="M73.6,141.72c-4.82,0-9.64-1.72-13.48-5.16l-7.64-6.84c-0.91-0.82-0.99-2.22-0.17-3.13
			c0.82-0.91,2.21-0.99,3.13-0.17l7.64,6.84c6,5.37,15.04,5.37,21.03,0l7.64-6.84c0.92-0.82,2.32-0.74,3.13,0.17
			c0.82,0.91,0.74,2.32-0.17,3.13l-7.64,6.84C83.23,140,78.41,141.72,73.6,141.72z"/>
	</g>
	<g>
		<path class="st0" d="M147.88,208.72H88.75c-10.6,0-19.22-8.62-19.22-19.22c0-1.22,0.99-2.22,2.22-2.22s2.22,0.99,2.22,2.22
			c0,8.15,6.63,14.78,14.78,14.78h59.13c8.15,0,14.78-6.63,14.78-14.78v-71.38c0-1.22,0.99-2.22,2.22-2.22s2.22,0.99,2.22,2.22
			v71.38C167.1,200.09,158.48,208.72,147.88,208.72z"/>
	</g>
	<g>
		<path class="st0" d="M46.51,170.82c-5,0-9.06-4.06-9.06-9.06c0-5,4.06-9.06,9.06-9.06c5,0,9.06,4.06,9.06,9.06
			C55.57,166.76,51.5,170.82,46.51,170.82z M46.51,157.13c-2.55,0-4.63,2.07-4.63,4.63c0,2.55,2.07,4.63,4.63,4.63
			c2.55,0,4.62-2.07,4.62-4.63C51.13,159.21,49.06,157.13,46.51,157.13z"/>
	</g>
	<g>
		<path class="st3" d="M46.51,163.19c-0.79,0-1.43-0.64-1.43-1.43c0-0.79,0.64-1.43,1.43-1.43c0.79,0,1.43,0.64,1.43,1.43
			C47.93,162.55,47.29,163.19,46.51,163.19z"/>
	</g>
	<g>
		<path class="st3" d="M71.75,163.19c-0.79,0-1.43-0.64-1.43-1.43c0-0.79,0.64-1.43,1.43-1.43c0.79,0,1.43,0.64,1.43,1.43
			C73.18,162.55,72.54,163.19,71.75,163.19z"/>
	</g>
	<g>
		<path class="st3" d="M97,163.19c-0.79,0-1.43-0.64-1.43-1.43c0-0.79,0.64-1.43,1.43-1.43c0.79,0,1.43,0.64,1.43,1.43
			C98.43,162.55,97.79,163.19,97,163.19z"/>
	</g>
	<g>
		<path class="st0" d="M71.75,170.82c-5,0-9.06-4.06-9.06-9.06c0-5,4.06-9.06,9.06-9.06c5,0,9.06,4.06,9.06,9.06
			C80.81,166.76,76.75,170.82,71.75,170.82z M71.75,157.13c-2.55,0-4.63,2.07-4.63,4.63c0,2.55,2.07,4.63,4.63,4.63
			c2.55,0,4.63-2.07,4.63-4.63C76.38,159.21,74.3,157.13,71.75,157.13z"/>
	</g>
	<g>
		<path class="st0" d="M97,170.82c-5,0-9.06-4.06-9.06-9.06c0-5,4.06-9.06,9.06-9.06c5,0,9.06,4.06,9.06,9.06
			C106.06,166.76,102,170.82,97,170.82z M97,157.13c-2.55,0-4.63,2.07-4.63,4.63c0,2.55,2.07,4.63,4.63,4.63
			c2.55,0,4.63-2.07,4.63-4.63C101.63,159.21,99.55,157.13,97,157.13z"/>
	</g>
	<g>
		<path class="st0" d="M71.75,191.72c-10.79,0-20.51-6.41-24.75-16.33l-2.53-5.91c-0.48-1.13,0.04-2.43,1.17-2.91
			c1.13-0.48,2.43,0.04,2.91,1.17l2.53,5.91c3.55,8.28,11.66,13.64,20.68,13.64c9.01,0,17.13-5.35,20.68-13.64l2.53-5.91
			c0.48-1.12,1.78-1.64,2.91-1.17c1.12,0.48,1.65,1.79,1.17,2.91l-2.53,5.91C92.26,185.31,82.54,191.72,71.75,191.72z"/>
	</g>
	<g>
		<path class="st0" d="M71.75,181.27c-1.22,0-2.22-0.99-2.22-2.22V168.6c0-1.22,0.99-2.22,2.22-2.22s2.22,0.99,2.22,2.22v10.45
			C73.97,180.27,72.98,181.27,71.75,181.27z"/>
	</g>
	<g>
		<path class="st0" d="M99.73,65.56c-0.99,0-1.89-0.67-2.15-1.67c-0.22-0.84-5.3-19.52-23.99-19.52
			c-18.71,0-23.78,18.73-23.99,19.53c-0.31,1.19-1.52,1.9-2.7,1.59c-1.19-0.3-1.9-1.51-1.6-2.69c0.06-0.23,6.09-22.86,28.29-22.86
			s28.23,22.63,28.29,22.86c0.3,1.19-0.41,2.39-1.6,2.7C100.1,65.54,99.92,65.56,99.73,65.56z"/>
	</g>
	<g>
		<path class="st1" d="M73.59,49.55c-14.81,0-18.94,15.47-18.98,15.63c0,0-0.18,0.65-0.43,1.69c4.09,1.5,10.41,1.59,19.67-3.52
			c5.64-3.12,11.63-3.67,16.8-2.9C88.21,55.8,83.17,49.55,73.59,49.55z"/>
	</g>
	<g>
		<path class="st0" d="M223.29,168.47h-4.88v-97.1c0-13.45-7.94-25.68-20.22-31.15L125.53,7.83c-8.82-3.93-18.95-3.93-27.77,0
			L25.1,40.22C12.81,45.7,4.88,57.92,4.88,71.37v97.1H0v-97.1C0,56,9.07,42.02,23.11,35.76L95.77,3.37c10.09-4.49,21.66-4.5,31.75,0
			l72.66,32.39c14.04,6.26,23.11,20.24,23.11,35.61V168.47z"/>
	</g>
</g>
</svg>
