<?xml version="1.0" encoding="utf-8"?>
<!-- Generator: Adobe Illustrator 23.0.1, SVG Export Plug-In . SVG Version: 6.00 Build 0)  -->
<svg version="1.1" id="Capa_1" xmlns="http://www.w3.org/2000/svg" xmlns:xlink="http://www.w3.org/1999/xlink" x="0px" y="0px"
	 viewBox="0 0 200 200" style="enable-background:new 0 0 200 200;" xml:space="preserve">
<style type="text/css">
	.st0{fill:#FFFFFF;}
	.st1{fill:#FFFFFF;stroke:#344154;stroke-width:3;stroke-linecap:round;stroke-miterlimit:10;}
	.st2{fill:url(#SVGID_1_);}
	.st3{fill:url(#SVGID_2_);}
	.st4{fill:url(#SVGID_3_);}
	.st5{fill:url(#SVGID_4_);}
	.st6{fill:url(#SVGID_5_);}
	.st7{opacity:0.5;fill:url(#SVGID_6_);}
	.st8{fill:url(#SVGID_7_);}
	.st9{clip-path:url(#SVGID_9_);fill:#FFFFFF;}
	.st10{fill-rule:evenodd;clip-rule:evenodd;fill:#FFFFFF;}
	.st11{fill-rule:evenodd;clip-rule:evenodd;fill:#064627;}
	.st12{fill-rule:evenodd;clip-rule:evenodd;fill:#70AC54;}
	.st13{fill-rule:evenodd;clip-rule:evenodd;fill:#1F1A17;}
</style>
<g>
	<path class="st0" d="M93.59,150.14v-2.07l-0.53,0.19l-2.91-10.29c-3.18-11.26-11.1-20.54-21.71-25.46l-8.4-3.9
		c-4.54-2.11-7.93-6.08-9.3-10.89L46.76,83.7l0.28-2.08c0.68-5.14-1.58-10.21-5.77-13.19l0.05-0.27c1.08-5.76-1.25-11.7-5.93-15.21
		c-0.77-8.12-7.57-10.79-7.66-10.82l-1.58-0.58l-2.86,8.81c-1.64-1.55-3.31-2.03-3.47-2.08l-1.46-0.37L5.61,87.07l-0.13,0.42
		l3.83,17.52c-4.94,0.19-7.95,3.11-8.32,3.48L0,109.54l0.92,1.11c0.1,0.12,10.09,12.13,16.88,23.92
		c5.28,9.17,13.84,15.82,23.51,18.23c0.61,0.15,1.24,0.29,1.88,0.43c5.11,1.05,9.53,4.12,12.39,8.52l-6.39,2.3l8.91,22.24
		l30.92-9.52l-0.95-3.09L60,182.31l-3.21-8.01l36.47-12.89l-0.16-0.46h0.49v-10.21l0.16-0.05L93.59,150.14z M43.85,150.05
		c-0.6-0.12-1.18-0.26-1.76-0.4c-8.81-2.2-16.64-8.28-21.48-16.7C14.94,123.11,6.99,113,4.44,109.84c1.21-0.82,3.2-1.79,5.73-1.63
		c4.05,0.2,8.21,2.99,12.36,8.31c6.48,8.29,16.39,12.69,26.46,11.82c0.6-0.05,1.22-0.12,1.85-0.2l0.79-0.11l-0.44-3.21l-0.79,0.11
		c-0.57,0.08-1.13,0.14-1.69,0.19c-9.03,0.78-17.84-3.17-23.63-10.59c-4.01-5.13-8.17-8.2-12.39-9.19L8.83,87.66L20.4,52.12
		c0.56,0.39,1.19,1,1.72,1.87l-0.03,0.1l0.13,0.04c0.92,1.59,1.51,4.07,0.87,7.89l-5.61,24.72l-0.04,0.18l4.08,16.66l3.15-0.78
		l-3.9-15.91l5.5-24.25c0.66-3.92,0.23-6.79-0.66-8.9l2.51-7.77c2.2,1.5,5.47,5.13,3.51,12.86l-5.14,26.83l-0.04,0.18l4.4,15.54
		l3.12-0.88l-4.19-14.81l5.01-26.17c0.2-0.81,0.35-1.58,0.46-2.32c2.45,2.79,3.58,6.6,2.89,10.33l-2.99,15.96l-0.04,0.19l4.55,15.81
		l3.11-0.89l-4.33-15.07l2.16-11.51c2.44,2.34,3.69,5.72,3.24,9.15l-0.36,2.75l4.16,14.66c1.62,5.72,5.65,10.44,11.05,12.94l8.4,3.9
		c9.76,4.53,17.03,13.06,19.96,23.41L90,149.36l-31.31,11.27C55.39,155.17,50.06,151.33,43.85,150.05z M90.35,159l-34.76,12.29
		l-2.14-5.34l36.9-13.28V159z"/>
	<path class="st0" d="M199,108.48c-0.35-0.36-3.38-3.31-8.31-3.48l3.83-17.51l-12.89-39.57l-1.49,0.37
		c-0.15,0.04-1.81,0.53-3.44,2.09l-2.86-8.84l-1.58,0.58c-0.08,0.03-6.93,2.71-7.67,10.84c-4.66,3.51-6.98,9.44-5.91,15.19
		l0.05,0.27c-4.19,2.98-6.45,8.05-5.77,13.19l0.28,2.08l-3.97,14.02c-1.37,4.82-4.76,8.78-9.3,10.89l-8.4,3.9
		c-10.62,4.92-18.53,14.21-21.71,25.46l-2.91,10.29l-0.53-0.19v2.08l-0.16,0.55l0.16,0.04v10.21h0.49l-0.16,0.46l36.47,12.89
		l-3.21,8.01l-28.07-8.63l-0.95,3.09l30.92,9.52l8.91-22.24l-6.39-2.3c2.85-4.4,7.27-7.47,12.39-8.52c0.64-0.13,1.27-0.28,1.88-0.43
		c9.66-2.41,18.22-9.05,23.51-18.22c6.78-11.79,16.78-23.8,16.88-23.93l0.92-1.11L199,108.48z M109.65,152.67l36.9,13.28l-2.14,5.34
		l-34.76-12.29V152.67z M110,149.36l2.97-10.51c2.93-10.35,10.2-18.88,19.96-23.41l8.4-3.9c5.39-2.5,9.42-7.21,11.05-12.94
		l4.11-14.5l0.05-0.16l-0.36-2.75c-0.45-3.43,0.8-6.81,3.24-9.15l2.16,11.51l-4.33,15.07l3.11,0.89l4.55-15.81l-3.03-16.15
		c-0.7-3.73,0.43-7.54,2.88-10.33c0.11,0.71,0.25,1.45,0.44,2.23l5.04,26.26l-4.19,14.81l3.12,0.88l4.4-15.54l-5.21-27.11
		c-1.93-7.61,1.34-11.24,3.54-12.76l2.53,7.8c-0.89,2.12-1.32,5.01-0.65,8.95l5.49,24.16l-3.9,15.91l3.14,0.78l4.04-16.48l0.04-0.18
		l-5.64-24.82c-0.66-3.88-0.06-6.38,0.86-7.98l0.11-0.04l-0.03-0.09c0.53-0.88,1.16-1.49,1.72-1.89l11.58,35.54l-3.87,17.68
		c-4.22,0.99-8.38,4.05-12.39,9.19c-5.8,7.42-14.63,11.38-23.64,10.59c-0.55-0.05-1.11-0.11-1.68-0.19l-0.79-0.11l-0.44,3.21
		l0.79,0.11c0.62,0.08,1.24,0.15,1.84,0.2c10.1,0.91,19.98-3.52,26.47-11.82c4.14-5.3,8.29-8.1,12.33-8.3
		c2.58-0.12,4.53,0.81,5.75,1.63c-2.93,3.64-10.6,13.44-16.16,23.11c-4.85,8.42-12.68,14.5-21.49,16.7
		c-0.57,0.14-1.15,0.27-1.75,0.4c-6.21,1.28-11.54,5.12-14.83,10.58L110,149.36z"/>
	<path class="st0" d="M111.49,65.97l12.06,3.5c1.28,0.28,2.62,0.99,4,2.12c2.17,1.79,3.66,4.29,4.22,7.05l2.97,14.91l3.17-0.63
		L134.94,78c-0.7-3.48-2.59-6.65-5.33-8.91c-1.77-1.45-3.55-2.39-5.25-2.76l-12.05-3.5c-0.1-0.03-0.2-0.07-0.29-0.13
		c-0.25-0.17-0.41-0.43-0.44-0.72l-0.45-3.89c3.05-2.61,5.39-6.29,6.66-10.45c2.46-0.86,4.13-3.65,4.13-6.97
		c0-2.93-1.32-5.44-3.31-6.58c-0.05-2.83-0.66-10.31-5.6-15.48c-3.2-3.37-7.57-5.07-13-5.07c-5.42,0-9.8,1.7-13.02,5.07
		c-2.12,2.21-3.44,4.86-4.27,7.38l-0.3,0.61l0.08,0.04c-0.95,3.15-1.15,6.02-1.18,7.52c-1.94,1.17-3.22,3.65-3.22,6.52
		c0,3.32,1.67,6.11,4.12,6.97c1.27,4.16,3.62,7.84,6.66,10.45l-0.45,3.89c-0.03,0.29-0.2,0.56-0.44,0.72
		c-0.08,0.06-0.18,0.1-0.28,0.13L75.79,66.3c-1.81,0.4-3.63,1.34-5.4,2.8c-2.75,2.27-4.64,5.43-5.33,8.91l-2.98,14.91l3.17,0.63
		l2.98-14.91c0.54-2.75,2.04-5.25,4.22-7.04c1.36-1.12,2.74-1.85,4.13-2.16l11.92-3.46l9.87,10.23v7.73h3.24V76.2L111.49,65.97z
		 M83.38,36.73l0.77-0.22l-0.17-0.59l0.6-0.03l-0.03-0.79c-0.01-0.23-0.1-3.9,1.17-7.89c0.5-0.95,1.46-1.77,2.62-2.19
		c1.63-0.61,3.76-0.31,6.29,0.85c0.7,0.32,1.39,0.65,2.07,0.98c2.74,1.33,5.33,2.59,8.62,2.95c0.92,0.1,1.83,0.16,2.69,0.16
		c2.37,0,4.56-0.4,6.65-1.2c0.79,3.32,0.71,6.1,0.7,6.3l-0.03,0.79l0.63,0.03l-0.16,0.63l0.78,0.19c1.2,0.3,2.1,2,2.1,3.96
		c0,2.09-1.05,3.88-2.33,4l-1.13,0.1l-0.29,1.1c-1.1,4.21-3.41,7.85-6.5,10.25l-0.72,0.56l0.66,5.67c0.07,0.58,0.26,1.14,0.55,1.63
		L100,73.23l-8.91-9.23c0.29-0.5,0.48-1.05,0.55-1.64l0.66-5.67l-0.72-0.56c-3.09-2.4-5.4-6.04-6.51-10.25l-0.29-1.09l-1.13-0.11
		c-1.3-0.12-2.32-1.87-2.32-4C81.33,38.72,82.19,37.07,83.38,36.73z M100,16.78c4.5,0,8.09,1.36,10.65,4.06
		c1.36,1.43,2.32,3.11,3.01,4.81c-2.4,0.95-4.98,1.28-8,0.95c-2.74-0.3-5.08-1.44-7.56-2.65c-0.7-0.34-1.4-0.69-2.13-1.02
		c-2.74-1.25-5.2-1.64-7.36-1.26c0.23-0.28,0.46-0.56,0.71-0.82C91.9,18.14,95.5,16.78,100,16.78z"/>
</g>
</svg>
