<?xml version="1.0" encoding="utf-8"?>
<!-- Generator: Adobe Illustrator 23.0.1, SVG Export Plug-In . SVG Version: 6.00 Build 0)  -->
<svg version="1.1" id="Capa_1" xmlns="http://www.w3.org/2000/svg" xmlns:xlink="http://www.w3.org/1999/xlink" x="0px" y="0px"
	 viewBox="0 0 200 200" style="enable-background:new 0 0 200 200;" xml:space="preserve">
<style type="text/css">
	.st0{fill:#136380;}
	.st1{fill:#00AFB7;}
	.st2{fill:none;stroke:#344154;stroke-width:3;stroke-linecap:round;stroke-miterlimit:10;}
	.st3{fill:#FF6D3B;}
	.st4{fill:url(#SVGID_1_);}
	.st5{fill:url(#SVGID_2_);}
	.st6{fill:url(#SVGID_3_);}
	.st7{fill:url(#SVGID_4_);}
	.st8{fill:url(#SVGID_5_);}
	.st9{opacity:0.5;fill:url(#SVGID_6_);}
	.st10{fill:url(#SVGID_7_);}
	.st11{fill:#FFFFFF;}
	.st12{clip-path:url(#SVGID_9_);fill:#FFFFFF;}
	.st13{fill-rule:evenodd;clip-rule:evenodd;fill:#FFFFFF;}
	.st14{fill-rule:evenodd;clip-rule:evenodd;fill:#064627;}
	.st15{fill-rule:evenodd;clip-rule:evenodd;fill:#70AC54;}
	.st16{fill-rule:evenodd;clip-rule:evenodd;fill:#1F1A17;}
	.st17{fill:#666666;}
	.st18{fill:#CCCCCC;}
</style>
<g>
	<g>
		<g>
			<g>
				<path class="st18" d="M167.11,74.07c-4.44,0-8.14,1.48-11.1,3.73c0-10.39-8.18-18.52-18.52-18.52c-4.45,0-8.9,1.48-12.62,4.41
					c-2.93-7.38-9.62-11.82-17.04-11.82c-4.42,0-8.14,1.48-11.1,3.68V18.52C96.73,8.14,88.6,0,78.22,0C67.87,0,59.7,8.14,59.7,18.52
					v65.93C44.91,71.1,28.59,60.76,18.21,71.1c-14.79,14.82,16.31,43.73,40,87.41C75.25,188.9,98.98,200,122.66,200
					c34.83,0,62.97-28.14,62.97-62.97V92.58C185.62,82.21,177.49,74.07,167.11,74.07L167.11,74.07z M178.21,108.9"/>
			</g>
		</g>
	</g>
</g>
</svg>
