<?xml version="1.0" encoding="utf-8"?>
<!-- Generator: Adobe Illustrator 23.0.1, SVG Export Plug-In . SVG Version: 6.00 Build 0)  -->
<svg version="1.1" id="Capa_1" xmlns="http://www.w3.org/2000/svg" xmlns:xlink="http://www.w3.org/1999/xlink" x="0px" y="0px"
	 viewBox="0 0 200 200" style="enable-background:new 0 0 200 200;" xml:space="preserve">
<style type="text/css">
	.st0{fill:#136380;}
	.st1{fill:#00AFB7;}
	.st2{fill:none;stroke:#344154;stroke-width:3;stroke-linecap:round;stroke-miterlimit:10;}
	.st3{fill:#FF6D3B;}
	.st4{fill:url(#SVGID_1_);}
	.st5{fill:url(#SVGID_2_);}
	.st6{fill:url(#SVGID_3_);}
	.st7{fill:url(#SVGID_4_);}
	.st8{fill:url(#SVGID_5_);}
	.st9{opacity:0.5;fill:url(#SVGID_6_);}
	.st10{fill:url(#SVGID_7_);}
	.st11{fill:#FFFFFF;}
	.st12{clip-path:url(#SVGID_9_);fill:#FFFFFF;}
	.st13{fill-rule:evenodd;clip-rule:evenodd;fill:#FFFFFF;}
	.st14{fill-rule:evenodd;clip-rule:evenodd;fill:#064627;}
	.st15{fill-rule:evenodd;clip-rule:evenodd;fill:#70AC54;}
	.st16{fill-rule:evenodd;clip-rule:evenodd;fill:#1F1A17;}
	.st17{fill:#666666;}
	.st18{fill:#CCCCCC;}
</style>
<g>
	<g>
		<g>
			<path class="st17" d="M58.44,77.43v-7.75c-7.72-6.46-12.89-16.13-12.89-27.1c0-19.37,16.13-35.5,35.47-35.5
				c19.37,0,35.5,16.13,35.5,35.5c0,8.38-3.24,16.76-8.41,22.56c2.58,0,4.53,0.66,7.12,1.29c5.16-7.09,7.72-15.47,7.72-24.51
				C122.95,18.71,104.27,0,81.03,0C57.81,0,39.09,18.71,39.09,41.93C39.09,56.76,46.84,69.68,58.44,77.43L58.44,77.43z M58.44,77.43
				"/>
			<g>
				<path class="st17" d="M110.07,41.93c0-16.13-12.91-29.01-29.04-29.01S52.01,25.8,52.01,41.93c0,7.09,2.58,13.55,6.43,18.08
					V41.93c0-12.25,10.33-22.59,22.59-22.59c12.25,0,22.58,10.34,22.58,22.59v18.08C107.49,55.47,110.07,49.01,110.07,41.93
					L110.07,41.93z M110.07,41.93"/>
				<path class="st18" d="M158.45,90.31c-3.87,0-7.09,1.29-9.67,3.25c0-9.05-7.12-16.13-16.13-16.13c-3.88,0-7.75,1.29-10.99,3.84
					c-2.56-6.43-8.38-10.3-14.84-10.3c-3.85,0-7.09,1.29-9.67,3.21V41.93c0-9.04-7.09-16.13-16.13-16.13
					c-9.02,0-16.13,7.09-16.13,16.13v57.43C52.01,87.73,37.8,78.72,28.76,87.73c-12.89,12.91,14.21,38.09,34.84,76.13
					C78.44,190.33,99.11,200,119.74,200c30.34,0,54.84-24.51,54.84-54.84v-38.72C174.58,97.4,167.49,90.31,158.45,90.31
					L158.45,90.31z M168.12,120.65"/>
			</g>
		</g>
	</g>
</g>
</svg>
