<?xml version="1.0" encoding="utf-8"?>
<!-- Generator: Adobe Illustrator 23.0.1, SVG Export Plug-In . SVG Version: 6.00 Build 0)  -->
<svg version="1.1" id="Capa_1" xmlns="http://www.w3.org/2000/svg" xmlns:xlink="http://www.w3.org/1999/xlink" x="0px" y="0px"
	 viewBox="0 0 200 200" style="enable-background:new 0 0 200 200;" xml:space="preserve">
<style type="text/css">
	.st0{fill:#FFFFFF;}
	.st1{fill:#FFFFFF;stroke:#344154;stroke-width:3;stroke-linecap:round;stroke-miterlimit:10;}
	.st2{fill:url(#SVGID_1_);}
	.st3{fill:url(#SVGID_2_);}
	.st4{fill:url(#SVGID_3_);}
	.st5{fill:url(#SVGID_4_);}
	.st6{fill:url(#SVGID_5_);}
	.st7{opacity:0.5;fill:url(#SVGID_6_);}
	.st8{fill:url(#SVGID_7_);}
	.st9{clip-path:url(#SVGID_9_);fill:#FFFFFF;}
	.st10{fill-rule:evenodd;clip-rule:evenodd;fill:#FFFFFF;}
	.st11{fill-rule:evenodd;clip-rule:evenodd;fill:#064627;}
	.st12{fill-rule:evenodd;clip-rule:evenodd;fill:#70AC54;}
	.st13{fill-rule:evenodd;clip-rule:evenodd;fill:#1F1A17;}
</style>
<g>
	<g>
		<path class="st0" d="M100,138.74c-3.14,0-6.27-1.17-8.66-3.51l-3.68-3.6c-0.86-0.84-0.87-2.22-0.03-3.08
			c0.84-0.86,2.22-0.87,3.08-0.03l3.68,3.6c3.1,3.03,8.13,3.03,11.22,0l3.68-3.6c0.86-0.84,2.24-0.83,3.08,0.03
			c0.84,0.86,0.83,2.24-0.03,3.08l-3.67,3.6C106.27,137.57,103.14,138.74,100,138.74z"/>
	</g>
	<g>
		<path class="st0" d="M100,200l-20.06-20.21l12.38-45.43c0.32-1.16,1.51-1.85,2.67-1.53c1.16,0.32,1.84,1.51,1.53,2.67
			l-11.72,43.01L100,193.82l15.19-15.31l-11.72-43.01c-0.32-1.16,0.37-2.36,1.53-2.67c1.16-0.31,2.36,0.37,2.67,1.53l12.38,45.44
			L100,200z"/>
	</g>
	<g>
		<path class="st0" d="M100,200l-20.06-20.21l12.38-45.43c0.32-1.16,1.51-1.85,2.67-1.53c1.16,0.32,1.84,1.51,1.53,2.67
			l-11.72,43.01L100,193.82l15.19-15.31l-11.72-43.01c-0.32-1.16,0.37-2.36,1.53-2.67c1.16-0.31,2.36,0.37,2.67,1.53l12.38,45.44
			L100,200z"/>
	</g>
	<g>
		<g>
			<path class="st0" d="M129.59,180.91c-1.01,0-1.92-0.71-2.13-1.74c-0.24-1.18,0.51-2.33,1.69-2.57l40.45-8.38l-5.2-26.05
				c-1.15-5.73-4.26-10.94-8.77-14.66c-2.86-2.35-5.69-3.85-8.41-4.45l-24.2-7.02c-0.74-0.21-1.44-0.54-2.08-0.98
				c-1.8-1.21-2.97-3.14-3.22-5.29l-1.25-10.74l0.97-0.75c6.35-4.93,11.08-12.39,13.34-21.01l0.39-1.48l1.53-0.14
				c3.15-0.28,5.61-4.24,5.61-9.02c0-4.45-2.1-8.2-4.98-8.92c-1.17-0.29-1.88-1.48-1.58-2.64c0.29-1.17,1.47-1.87,2.64-1.58
				c4.87,1.22,8.28,6.63,8.28,13.15c0,6.44-3.36,11.75-8.04,13.07c-2.5,8.55-7.26,16.01-13.55,21.24l0.97,8.33
				c0.1,0.89,0.59,1.68,1.33,2.18c0.27,0.18,0.55,0.32,0.85,0.4l24.07,6.99c3.25,0.71,6.7,2.51,10.1,5.3
				c5.28,4.36,8.93,10.46,10.27,17.17l6.05,30.3l-44.69,9.26C129.88,180.89,129.73,180.91,129.59,180.91z"/>
		</g>
		<g>
			<path class="st0" d="M65.94,179.98c-0.15,0-0.3-0.01-0.44-0.05l-40.21-8.33l6.05-30.3c1.33-6.69,4.98-12.79,10.27-17.17
				c3.4-2.8,6.87-4.61,10.32-5.37l23.84-6.93c0.31-0.09,0.59-0.22,0.86-0.4c0.74-0.5,1.22-1.3,1.33-2.18l0.96-8.33
				c-6.28-5.23-11.04-12.69-13.55-21.24c-4.66-1.33-8.01-6.64-8.01-13.07c0-6.35,3.29-11.73,8-13.07c1.15-0.33,2.36,0.34,2.69,1.5
				c0.33,1.16-0.34,2.36-1.5,2.69c-2.8,0.8-4.84,4.54-4.84,8.88c0,4.77,2.46,8.73,5.59,9.02l1.52,0.14l0.39,1.48
				c2.27,8.62,7.01,16.09,13.35,21.02l0.97,0.75l-1.24,10.74c-0.25,2.16-1.42,4.08-3.22,5.3c-0.65,0.44-1.35,0.76-2.08,0.97
				L53,122.99c-2.91,0.65-5.77,2.15-8.62,4.51c-4.52,3.74-7.64,8.94-8.77,14.66l-5.2,26.06l35.98,7.45c1.18,0.24,1.93,1.4,1.69,2.57
				C67.86,179.27,66.95,179.98,65.94,179.98z"/>
		</g>
	</g>
	<g>
		<path class="st0" d="M65.95,57.82c-1.16,0-2.12-0.91-2.17-2.08c-0.02-0.35-0.35-8.68,2.66-17.9c0.37-1.14,1.61-1.77,2.75-1.4
			c1.14,0.37,1.77,1.6,1.4,2.74c-2.75,8.44-2.45,16.28-2.45,16.36c0.05,1.2-0.88,2.22-2.08,2.27
			C66.01,57.82,65.98,57.82,65.95,57.82z"/>
	</g>
	<g>
		<path class="st0" d="M133.85,57.76c-0.04,0-0.07,0-0.11,0c-1.2-0.06-2.13-1.08-2.07-2.28c0-0.08,0.34-7.94-2.39-16.39
			c-0.37-1.14,0.26-2.37,1.4-2.74c1.15-0.36,2.37,0.26,2.74,1.4c2.99,9.24,2.61,17.6,2.59,17.95
			C135.96,56.86,135,57.76,133.85,57.76z"/>
	</g>
	<g>
		<path class="st0" d="M115.97,44.21c-1.7,0-3.45-0.1-5.26-0.3c-6.38-0.7-11.7-3.29-16.85-5.79c-1.36-0.66-2.73-1.33-4.15-1.97
			c-5.32-2.43-9.82-3.01-13.35-1.73c-2.62,0.95-4.82,2.84-5.9,5.06c-0.53,1.08-1.83,1.53-2.91,1c-1.08-0.53-1.53-1.83-1-2.91
			c1.58-3.25,4.62-5.89,8.33-7.24c4.64-1.69,10.24-1.07,16.65,1.86c1.44,0.66,2.85,1.34,4.24,2.02c5.03,2.45,9.79,4.76,15.42,5.38
			c7.35,0.82,13.45-0.18,19.18-3.1c1.07-0.55,2.38-0.12,2.93,0.95c0.55,1.07,0.12,2.38-0.95,2.93
			C127.26,42.95,121.96,44.21,115.97,44.21z"/>
	</g>
	<g>
		<path class="st0" d="M100,127.03c-0.52,0-1.04-0.19-1.45-0.56l-19.63-17.57c-0.9-0.8-0.97-2.18-0.17-3.08
			c0.8-0.89,2.18-0.97,3.08-0.17L100,121.93l18.17-16.27c0.89-0.81,2.27-0.73,3.08,0.17c0.8,0.9,0.73,2.27-0.17,3.08l-19.62,17.57
			C101.04,126.85,100.52,127.03,100,127.03z"/>
	</g>
	<g>
		<path class="st0" d="M131.35,156.7c-1.03,0-1.94-0.73-2.14-1.78c-0.22-1.18,0.56-2.32,1.74-2.54l22.21-4.18
			c1.18-0.24,2.32,0.55,2.54,1.74c0.22,1.18-0.56,2.32-1.74,2.54l-22.21,4.18C131.62,156.69,131.48,156.7,131.35,156.7z"/>
	</g>
	<g>
		<path class="st0" d="M67.89,42.75c-1.2,0-2.18-0.98-2.18-2.18V12.68C65.71,5.69,71.4,0,78.4,0h42.46
			c6.99,0,12.68,5.69,12.68,12.68v25.73c0,1.2-0.97,2.18-2.18,2.18s-2.18-0.98-2.18-2.18V12.68c0-4.59-3.74-8.33-8.33-8.33H78.4
			c-4.59,0-8.33,3.74-8.33,8.33v27.88C70.07,41.77,69.09,42.75,67.89,42.75z"/>
	</g>
	<g>
		<g>
			<path class="st0" d="M99.62,28.55c-1.2,0-2.18-0.98-2.18-2.18V11.66c0-1.2,0.97-2.18,2.18-2.18s2.18,0.98,2.18,2.18v14.71
				C101.8,27.57,100.82,28.55,99.62,28.55z"/>
		</g>
		<g>
			<path class="st0" d="M106.98,21.19H92.27c-1.2,0-2.18-0.98-2.18-2.18c0-1.2,0.97-2.18,2.18-2.18h14.71c1.2,0,2.18,0.98,2.18,2.18
				C109.16,20.22,108.18,21.19,106.98,21.19z"/>
		</g>
	</g>
	<g>
		<path class="st0" d="M91.49,176.36l8.51,9.29l8.51-9.29l-4.06-15.33c-3.66,2.22-7.31,3.71-10.13,4.65L91.49,176.36z"/>
	</g>
</g>
</svg>
