<?xml version="1.0" encoding="utf-8"?>
<!-- Generator: Adobe Illustrator 23.0.1, SVG Export Plug-In . SVG Version: 6.00 Build 0)  -->
<svg version="1.1" id="Capa_1" xmlns="http://www.w3.org/2000/svg" xmlns:xlink="http://www.w3.org/1999/xlink" x="0px" y="0px"
	 viewBox="0 0 200 200" style="enable-background:new 0 0 200 200;" xml:space="preserve">
<style type="text/css">
	.st0{fill:#FFFFFF;}
	.st1{fill:#FFFFFF;stroke:#344154;stroke-width:3;stroke-linecap:round;stroke-miterlimit:10;}
	.st2{fill:url(#SVGID_1_);}
	.st3{fill:url(#SVGID_2_);}
	.st4{fill:url(#SVGID_3_);}
	.st5{fill:url(#SVGID_4_);}
	.st6{fill:url(#SVGID_5_);}
	.st7{opacity:0.5;fill:url(#SVGID_6_);}
	.st8{fill:url(#SVGID_7_);}
	.st9{clip-path:url(#SVGID_9_);fill:#FFFFFF;}
	.st10{fill-rule:evenodd;clip-rule:evenodd;fill:#FFFFFF;}
	.st11{fill-rule:evenodd;clip-rule:evenodd;fill:#064627;}
	.st12{fill-rule:evenodd;clip-rule:evenodd;fill:#70AC54;}
	.st13{fill-rule:evenodd;clip-rule:evenodd;fill:#1F1A17;}
</style>
<g>
	<g>
		<path class="st0" d="M100,153.38c-3.47,0-6.93-1.29-9.57-3.88l-4.06-3.98c-0.95-0.93-0.97-2.45-0.04-3.41
			c0.93-0.95,2.45-0.96,3.4-0.04l4.06,3.98c3.42,3.35,8.99,3.35,12.41,0l4.06-3.98c0.95-0.93,2.47-0.91,3.4,0.04
			c0.93,0.95,0.91,2.48-0.04,3.41l-4.06,3.98C106.93,152.09,103.47,153.38,100,153.38z"/>
	</g>
	<g>
		<g>
			<path class="st0" d="M132.71,200c-1.12,0-2.12-0.78-2.36-1.92c-0.27-1.3,0.57-2.58,1.87-2.85l44.72-9.26l-5.75-28.8
				c-1.27-6.33-4.71-12.09-9.69-16.21c-3.16-2.6-6.29-4.26-9.3-4.92l-26.76-7.76c-0.82-0.24-1.59-0.6-2.3-1.08
				c-1.98-1.33-3.28-3.47-3.56-5.85l-1.38-11.87l1.07-0.83c7.01-5.45,12.25-13.7,14.75-23.23l0.43-1.64l1.69-0.15
				c3.48-0.31,6.2-4.69,6.2-9.97c0-4.92-2.32-9.07-5.51-9.87c-1.29-0.32-2.07-1.63-1.75-2.92c0.32-1.29,1.63-2.07,2.92-1.75
				c5.39,1.35,9.15,7.33,9.15,14.54c0,7.12-3.72,12.99-8.88,14.45c-2.77,9.45-8.03,17.7-14.98,23.48l1.07,9.2
				c0.11,0.98,0.65,1.86,1.47,2.41c0.3,0.2,0.61,0.35,0.94,0.45l26.61,7.72c3.6,0.79,7.41,2.77,11.17,5.86
				c5.84,4.83,9.87,11.57,11.35,18.98l6.69,33.5l-49.4,10.23C133.04,199.98,132.87,200,132.71,200z"/>
		</g>
		<g>
			<path class="st0" d="M62.34,198.98c-0.16,0-0.33-0.02-0.49-0.05l-44.46-9.21l6.69-33.49c1.47-7.4,5.5-14.14,11.36-18.98
				c3.76-3.1,7.6-5.09,11.41-5.94l26.36-7.66c0.34-0.1,0.66-0.25,0.95-0.44c0.82-0.55,1.35-1.43,1.47-2.42l1.06-9.2
				c-6.94-5.78-12.2-14.03-14.98-23.48c-5.15-1.47-8.86-7.34-8.86-14.45c0-7.02,3.64-12.96,8.85-14.45
				c1.28-0.37,2.61,0.38,2.98,1.66c0.37,1.28-0.38,2.61-1.65,2.98c-3.1,0.88-5.35,5.01-5.35,9.82c0,5.27,2.72,9.65,6.18,9.97
				l1.68,0.15l0.43,1.63c2.51,9.53,7.75,17.78,14.76,23.24l1.07,0.83l-1.37,11.87c-0.28,2.38-1.57,4.51-3.56,5.85
				c-0.71,0.48-1.49,0.84-2.3,1.08l-26.5,7.69c-3.22,0.71-6.37,2.38-9.53,4.98c-5,4.13-8.44,9.89-9.7,16.21l-5.75,28.81l39.77,8.24
				c1.3,0.27,2.14,1.54,1.87,2.85C64.46,198.19,63.46,198.98,62.34,198.98z"/>
		</g>
	</g>
	<g>
		<path class="st0" d="M62.35,63.93c-1.28,0-2.35-1.01-2.4-2.3c-0.02-0.39-0.39-9.6,2.94-19.79c0.41-1.27,1.78-1.96,3.04-1.54
			c1.26,0.41,1.96,1.77,1.54,3.03c-3.04,9.33-2.71,18-2.71,18.09c0.06,1.33-0.97,2.45-2.3,2.51C62.43,63.93,62.39,63.93,62.35,63.93
			z"/>
	</g>
	<g>
		<path class="st0" d="M137.42,63.86c-0.04,0-0.08,0-0.12,0c-1.33-0.06-2.35-1.19-2.29-2.52c0-0.09,0.38-8.78-2.64-18.12
			c-0.41-1.27,0.29-2.62,1.55-3.03c1.27-0.4,2.62,0.29,3.03,1.55c3.3,10.21,2.89,19.45,2.87,19.84
			C139.76,62.86,138.7,63.86,137.42,63.86z"/>
	</g>
	<g>
		<path class="st0" d="M117.65,48.88c-1.87,0-3.81-0.11-5.82-0.33c-7.06-0.78-12.94-3.64-18.63-6.41c-1.5-0.73-3.02-1.47-4.58-2.18
			c-5.89-2.69-10.85-3.32-14.76-1.91c-2.89,1.05-5.33,3.14-6.53,5.59c-0.58,1.2-2.03,1.69-3.22,1.11c-1.2-0.58-1.69-2.02-1.11-3.22
			c1.75-3.6,5.11-6.51,9.21-8c5.13-1.87,11.32-1.18,18.4,2.05c1.6,0.73,3.15,1.48,4.69,2.23c5.56,2.71,10.82,5.26,17.05,5.95
			c8.12,0.9,14.86-0.19,21.21-3.43c1.18-0.6,2.64-0.13,3.24,1.05c0.6,1.19,0.13,2.63-1.05,3.24
			C130.13,47.49,124.27,48.88,117.65,48.88z"/>
	</g>
	<g>
		<path class="st0" d="M100,140.44c-0.57,0-1.15-0.21-1.61-0.61L76.7,120.4c-0.99-0.89-1.07-2.41-0.19-3.4
			c0.89-0.99,2.41-1.08,3.4-0.19L100,134.8l20.09-17.99c0.99-0.89,2.51-0.8,3.4,0.19c0.89,0.99,0.8,2.51-0.19,3.4l-21.7,19.43
			C101.15,140.24,100.57,140.44,100,140.44z"/>
	</g>
	<g>
		<path class="st0" d="M134.66,173.24c-1.14,0-2.15-0.81-2.36-1.96c-0.25-1.31,0.61-2.57,1.92-2.81l24.55-4.62
			c1.3-0.27,2.56,0.61,2.81,1.92c0.25,1.31-0.61,2.57-1.92,2.81l-24.55,4.62C134.95,173.22,134.8,173.24,134.66,173.24z"/>
	</g>
	<g>
		<path class="st0" d="M64.5,47.26c-1.33,0-2.41-1.08-2.41-2.41V14.02C62.09,6.29,68.38,0,76.11,0h46.94
			c7.73,0,14.02,6.29,14.02,14.02v28.45c0,1.33-1.08,2.41-2.41,2.41s-2.41-1.08-2.41-2.41V14.02c0-5.08-4.13-9.21-9.21-9.21H76.11
			c-5.08,0-9.21,4.13-9.21,9.21v30.83C66.91,46.18,65.83,47.26,64.5,47.26z"/>
	</g>
	<g>
		<g>
			<path class="st0" d="M99.58,31.56c-1.33,0-2.41-1.08-2.41-2.41V12.89c0-1.33,1.08-2.41,2.41-2.41c1.33,0,2.41,1.08,2.41,2.41
				v16.27C101.99,30.49,100.91,31.56,99.58,31.56z"/>
		</g>
		<g>
			<path class="st0" d="M107.71,23.43H91.45c-1.33,0-2.41-1.08-2.41-2.41c0-1.33,1.08-2.41,2.41-2.41h16.26
				c1.33,0,2.41,1.08,2.41,2.41C110.12,22.35,109.04,23.43,107.71,23.43z"/>
		</g>
	</g>
</g>
</svg>
