<?xml version="1.0" encoding="utf-8"?>
<!-- Generator: Adobe Illustrator 24.1.1, SVG Export Plug-In . SVG Version: 6.00 Build 0)  -->
<svg version="1.1" xmlns="http://www.w3.org/2000/svg" xmlns:xlink="http://www.w3.org/1999/xlink" x="0px" y="0px"
	 viewBox="0 0 500 439.32" style="enable-background:new 0 0 500 439.32;" xml:space="preserve">
<style type="text/css">
	.st0{fill:#FFFFFF;}
	.st1{fill:#00AFB7;}
	.st2{fill:#093833;}
	.st3{fill:#36B6E9;}
	.st4{fill:#282828;}
	.st5{fill-rule:evenodd;clip-rule:evenodd;fill:#00AFB7;}
	.st6{fill:none;stroke:#13B7AB;stroke-miterlimit:10;}
	.st7{fill-rule:evenodd;clip-rule:evenodd;fill:none;stroke:#114477;stroke-miterlimit:10;}
	.st8{fill-rule:evenodd;clip-rule:evenodd;fill:none;stroke:#13B7AB;stroke-miterlimit:10;}
	.st9{fill:#336699;}
	.st10{fill:#114477;}
	.st11{clip-path:url(#SVGID_6_);}
	.st12{fill:none;stroke:#FFFFFF;stroke-width:2;stroke-miterlimit:10;}
	.st13{fill:#0A443E;}
	.st14{clip-path:url(#SVGID_16_);fill:#0A443E;}
	.st15{fill-rule:evenodd;clip-rule:evenodd;fill:#0A443E;}
	.st16{fill-rule:evenodd;clip-rule:evenodd;fill:#064627;}
	.st17{fill-rule:evenodd;clip-rule:evenodd;fill:#70AC54;}
	.st18{fill-rule:evenodd;clip-rule:evenodd;fill:#1F1A17;}
	.st19{fill:#136380;}
	.st20{fill:none;stroke:#344154;stroke-width:3;stroke-linecap:round;stroke-miterlimit:10;}
	.st21{fill:#FF6D3B;}
	.st22{fill:none;stroke:#344154;stroke-width:1.5;stroke-miterlimit:10;}
	.st23{opacity:0.75;}
	.st24{fill:none;stroke:#00AFB7;stroke-width:3;stroke-miterlimit:10;}
	.st25{fill:#10C626;}
	.st26{fill:#00CC33;}
</style>
<g id="guias">
</g>
<g id="Capa_2">
	<g>
		<path class="st19" d="M323.6,351.48c0,16.12-1.06,31,0.62,45.58c0.54,4.67,7.66,10.4,12.96,12.27
			c8.54,3.02,15.35,6.17,15.19,16.25c-0.13,8.63-6.78,13.64-18.21,13.66c-56.15,0.1-112.29,0.1-168.44,0
			c-11.37-0.02-17.97-5.09-18.11-13.77c-0.15-10.13,6.25-14.43,15.4-15.68c9.32-1.28,13.56-6.74,13.53-15.95
			c-0.04-13.65-0.01-27.31-0.01-42.35c-5.17,0-9.14,0-13.11,0c-47.6,0.01-95.19,0.09-142.79,0.01
			c-16.12-0.03-20.61-4.57-20.61-20.42C-0.01,227.71,0,124.34,0.02,20.98C0.02,4.2,4,0.1,21.29,0.1
			c142.04-0.06,284.08-0.02,426.12-0.01c11.53,0,23.06-0.22,34.58,0.05c13.13,0.31,17.95,5.29,17.96,18.56
			c0.06,104.85,0.06,209.7-0.01,314.55c-0.01,13.01-5.15,18.15-18.31,18.19c-49.08,0.12-98.16,0.05-147.25,0.04
			C331.44,351.48,328.49,351.48,323.6,351.48z M486.22,337.66c0-108.75,0-216.56,0-324.63c-157.84,0-314.89,0-472.36,0
			c0,108.51,0,216.3,0,324.63C171.42,337.66,328.17,337.66,486.22,337.66z M194.16,352.17c0,19.7,0,38.1,0,56.78
			c37.4,0,75.11,0,111.38,0c0-19.3,0-37.71,0-56.78C268.13,352.17,232.17,352.17,194.16,352.17z"/>
		<path class="st1" d="M264.9,285.32c-14.5,0-28.99-0.15-43.49-0.46c-22.41-0.47-36.73-15.69-36.48-38.77
			c0.14-13.41-4.96-20.63-17.6-24.92c-23.35-7.95-40.56-32.06-40.91-57.33c-0.39-28.12-0.26-56.77-0.13-84.46l0.01-2.4
			c0.04-8.95,1.09-10,10.2-10.16c3.64-0.06,7.29-0.09,10.94-0.09c4.46,0,8.91,0.03,13.37,0.09c6.04,0.07,7.3,2.2,7.58,6.37
			c0.19,2.7-0.76,3.79-1.06,4.15c-1.22,1.4-3.65,2.29-6.83,2.51c-1.3,0.09-2.6,0.12-3.97,0.12l-8.8-0.09h-8.07v8.07
			c0,8.36-0.09,16.54-0.2,24.6c-0.21,18.4-0.43,35.78,0.5,53.42c1.38,26.29,24.1,46.88,51.74,46.88l1.37-0.02
			c27.51-0.69,48.91-21.67,49.78-48.8c0.56-17.34,0.43-34.25,0.3-52.16c-0.06-7.72-0.12-15.5-0.12-23.34v-7.72l-7.71-0.35
			c-1.89-0.09-3.68-0.14-5.4-0.19c-3.29-0.09-6.27-0.17-9.24-0.51c-5.77-0.66-6.43-3.69-6.32-6.57c0.17-4.38,2.02-6.21,6.38-6.3
			c4.84-0.1,9.68-0.14,14.52-0.14c4.75,0,9.48,0.04,14.23,0.1c4.9,0.06,6.9,1.99,6.9,6.65c0.01,7.42,0.08,14.86,0.14,22.29
			c0.23,25.47,0.47,51.79-1.8,77.26c-2.06,23.13-16.39,40.31-40.33,48.37c-19.01,6.41-17.25,20.88-16.31,28.65
			c1.67,13.77,11.06,21.71,25.75,21.78c7.45,0.03,49.14,0.02,49.14,0.02l17.98,0.05c4.86,0,9.71-0.03,14.57-0.14
			c16.66-0.39,25.34-9.03,25.81-25.66c0.08-2.99,0.04-5.98,0-8.97c-0.05-3.63-0.1-7.24,0.11-10.84
			c0.73-11.93,1.72-28.27-17.96-39.62c-11.77-6.78-14.22-25.2-9.13-38.15c5.56-14.16,18.78-23.31,33.64-23.31
			c0.7,0,1.4,0.02,2.1,0.06c15.13,0.86,28.12,11.49,32.34,26.45c4.3,15.25-1.53,31.07-14.19,38.48
			c-10.4,6.08-14.54,13.83-13.84,25.91c0.57,9.76,0.34,19.89,0.11,29.68l-0.05,2.01c-0.49,22.03-14.77,36.57-36.38,37.04
			C293.7,285.17,279.3,285.32,264.9,285.32z M337.24,138.5c-5.6,0-11.18,2.44-15.3,6.68c-4.25,4.36-6.59,10.22-6.44,16.07
			c0.35,12.99,8.28,21.26,21.22,22.13c0.52,0.03,1.03,0.05,1.54,0.05c12.56,0,22.12-9.88,22.22-22.98l-0.03-0.81
			c-1.11-11.85-8.99-19.7-21.07-21.01C338.65,138.54,337.95,138.5,337.24,138.5z"/>
	</g>
</g>
</svg>
