<svg version="1.1" id="Capa_1" xmlns="http://www.w3.org/2000/svg" xmlns:xlink="http://www.w3.org/1999/xlink" x="0px" y="0px"
	 viewBox="0 0 200 200" style="enable-background:new 0 0 200 200;" xml:space="preserve">
<style type="text/css">
	.st0{fill:#FFFFFF;stroke:#344154;stroke-width:3;stroke-linecap:round;stroke-miterlimit:10;}
	.st1{fill:#FFFFFF;}
	.st2{fill:url(#SVGID_1_);}
	.st3{fill:url(#SVGID_2_);}
	.st4{fill:url(#SVGID_3_);}
	.st5{fill:url(#SVGID_4_);}
	.st6{fill:url(#SVGID_5_);}
	.st7{opacity:0.5;fill:url(#SVGID_6_);}
	.st8{fill:url(#SVGID_7_);}
	.st9{clip-path:url(#SVGID_9_);fill:#FFFFFF;}
	.st10{fill-rule:evenodd;clip-rule:evenodd;fill:#FFFFFF;}
	.st11{fill-rule:evenodd;clip-rule:evenodd;fill:#064627;}
	.st12{fill-rule:evenodd;clip-rule:evenodd;fill:#70AC54;}
	.st13{fill-rule:evenodd;clip-rule:evenodd;fill:#1F1A17;}
</style>
<g >
	<path fill="#00AFB7" d="M185.2,0H14.82C6.63,0,0,6.44,0,14.34V185.7c0,7.87,6.63,14.3,14.82,14.3h170.37c8.19,0,14.81-6.43,14.81-14.3
		V14.34C200,6.44,193.38,0,185.2,0L185.2,0z M60.65,167.41H30.44V77.13h30.21V167.41z M45.53,64.82h-0.2
		c-10.14,0-16.7-6.99-16.7-15.62c0-8.87,6.76-15.62,17.09-15.62c10.34,0,16.7,6.74,16.89,15.62C62.62,57.83,56.07,64.82,45.53,64.82
		L45.53,64.82z M169.56,167.41h-30.15v-48.28c0-12.13-4.43-20.47-15.37-20.47c-8.39,0-13.3,5.62-15.46,11.07
		c-0.79,1.85-1,4.56-1,7.27v50.42H77.36c0,0,0.38-81.83,0-90.28h30.22v12.8C111.55,83.79,118.73,75,134.77,75
		c19.9,0,34.79,12.91,34.79,40.64V167.41z M107.4,90.23c0.03-0.09,0.07-0.18,0.18-0.28v0.28H107.4z M107.4,90.23"/>
</g>
</svg>
