<?xml version="1.0" encoding="utf-8"?>
<!-- Generator: Adobe Illustrator 23.0.1, SVG Export Plug-In . SVG Version: 6.00 Build 0)  -->
<svg version="1.1" id="Capa_1" xmlns="http://www.w3.org/2000/svg" xmlns:xlink="http://www.w3.org/1999/xlink" x="0px" y="0px"
	 viewBox="0 0 200 200" style="enable-background:new 0 0 200 200;" xml:space="preserve">
<style type="text/css">
	.st0{fill:#136380;}
	.st1{fill:#00AFB7;}
	.st2{fill:none;stroke:#344154;stroke-width:3;stroke-linecap:round;stroke-miterlimit:10;}
	.st3{fill:#FF6D3B;}
	.st4{fill:url(#SVGID_1_);}
	.st5{fill:url(#SVGID_2_);}
	.st6{fill:url(#SVGID_3_);}
	.st7{fill:url(#SVGID_4_);}
	.st8{fill:url(#SVGID_5_);}
	.st9{opacity:0.5;fill:url(#SVGID_6_);}
	.st10{fill:url(#SVGID_7_);}
	.st11{fill:#FFFFFF;}
	.st12{clip-path:url(#SVGID_9_);fill:#FFFFFF;}
	.st13{fill-rule:evenodd;clip-rule:evenodd;fill:#FFFFFF;}
	.st14{fill-rule:evenodd;clip-rule:evenodd;fill:#064627;}
	.st15{fill-rule:evenodd;clip-rule:evenodd;fill:#70AC54;}
	.st16{fill-rule:evenodd;clip-rule:evenodd;fill:#1F1A17;}
	.st17{fill:#666666;}
	.st18{fill:#CCCCCC;}
</style>
<g>
	<g>
		<g>
			<path class="st11" d="M199.91,154.08c0.42,3.04-0.57,5.68-2.97,7.92l-28.16,26.15c-1.27,1.32-2.93,2.44-4.97,3.37
				c-2.05,0.92-4.06,1.52-6.03,1.78c-0.14,0-0.57,0.03-1.27,0.1c-0.7,0.07-1.62,0.1-2.75,0.1c-2.68,0-7.02-0.43-13.02-1.29
				c-6-0.86-13.34-2.97-22.02-6.34c-8.68-3.37-18.53-8.42-29.54-15.15c-11.01-6.73-22.73-15.98-35.15-27.73
				c-9.88-9.11-18.07-17.83-24.56-26.15c-6.49-8.32-11.72-16.01-15.67-23.08C9.84,86.7,6.88,80.29,4.91,74.55
				c-1.98-5.74-3.32-10.7-4.02-14.86c-0.71-4.16-0.99-7.43-0.85-9.81c0.14-2.38,0.21-3.7,0.21-3.96c0.28-1.85,0.92-3.73,1.91-5.65
				c0.99-1.92,2.19-3.47,3.6-4.65L33.91,9.28c1.98-1.85,4.23-2.77,6.78-2.77c1.83,0,3.46,0.49,4.87,1.48
				c1.41,0.99,2.61,2.21,3.6,3.67l22.66,40.21c1.27,2.11,1.62,4.42,1.06,6.93c-0.56,2.51-1.76,4.62-3.6,6.34L58.9,74.84
				c-0.28,0.27-0.53,0.69-0.74,1.29c-0.21,0.59-0.32,1.09-0.32,1.49c0.56,2.77,1.83,5.94,3.81,9.51c1.69,3.17,4.31,7.03,7.83,11.59
				c3.53,4.55,8.54,9.8,15.03,15.75c6.35,6.07,12,10.8,16.94,14.16c4.94,3.37,9.07,5.84,12.39,7.43c3.32,1.58,5.86,2.54,7.62,2.87
				l2.64,0.49c0.28,0,0.74-0.1,1.38-0.3c0.63-0.2,1.09-0.43,1.38-0.69l12.07-11.49c2.54-2.11,5.51-3.17,8.89-3.17
				c2.4,0,4.31,0.4,5.72,1.19h0.21l40.86,22.58C197.58,149.26,199.34,151.43,199.91,154.08L199.91,154.08z M199.91,154.08"/>
		</g>
	</g>
</g>
</svg>
