<svg version="1.1" id="Vrstva_1" xmlns="http://www.w3.org/2000/svg" xmlns:xlink="http://www.w3.org/1999/xlink" x="0px" y="0px"
	 width="200px" height="200px" viewBox="0 0 200 200" enable-background="new 0 0 200 200" xml:space="preserve">
<g fill="#fff">
	<path  d="M163.391,80.551c3.369,8.496,5.236,17.737,5.236,27.417c0,41.177-33.497,74.674-74.671,74.674
		s-74.677-33.497-74.677-74.674s33.503-74.677,74.677-74.677c6.618,0,13.033,0.882,19.143,2.498l13.825-13.816
		c-10.238-3.931-21.344-6.104-32.968-6.104c-50.86,0-92.105,41.239-92.105,92.1c0,50.859,41.245,92.094,92.105,92.094
		c50.86,0,92.094-41.234,92.094-92.094c0-14.592-3.401-28.37-9.44-40.633L163.391,80.551z"/>
	<path  d="M93.956,68.141c3.527,0,6.929,0.524,10.167,1.441l9.271-9.943c-5.974-2.539-12.547-3.942-19.438-3.942
		c-27.491,0-49.784,22.288-49.784,49.779c0,27.488,22.293,49.784,49.784,49.784c27.485,0,49.779-22.296,49.779-49.784
		c0-7.838-1.856-15.226-5.089-21.819l-9.31,9.984c1.25,3.721,1.955,7.696,1.955,11.835c0,20.584-16.752,37.338-37.336,37.338
		c-20.59,0-37.341-16.754-37.341-37.338C56.615,84.889,73.366,68.141,93.956,68.141z"/>
	<path  d="M123.888,42.981v22.228L96.583,93.322c-0.852-0.186-1.726-0.29-2.626-0.29
		c-6.88,0-12.449,5.572-12.449,12.446c0,6.869,5.569,12.446,12.449,12.446c6.869,0,12.443-5.577,12.443-12.446
		c0-1.312-0.257-2.558-0.639-3.748l27.496-28.302h21.087l42.904-42.908l-20.333-2.031l10.517-10.825L178.51,8.99l-9.801,10.09
		l-1.911-19.017L123.888,42.981z"/>
</g>
</svg>
