<?xml version="1.0" encoding="utf-8"?>
<!-- Generator: Adobe Illustrator 23.0.1, SVG Export Plug-In . SVG Version: 6.00 Build 0)  -->
<svg version="1.1" id="Capa_1" xmlns="http://www.w3.org/2000/svg" xmlns:xlink="http://www.w3.org/1999/xlink" x="0px" y="0px"
	 viewBox="0 0 200 200" style="enable-background:new 0 0 200 200;" xml:space="preserve">
<style type="text/css">
	.st0{fill:#FFFFFF;}
	.st1{fill:#FFFFFF;stroke:#344154;stroke-width:3;stroke-linecap:round;stroke-miterlimit:10;}
	.st2{fill:url(#SVGID_1_);}
	.st3{fill:url(#SVGID_2_);}
	.st4{fill:url(#SVGID_3_);}
	.st5{fill:url(#SVGID_4_);}
	.st6{fill:url(#SVGID_5_);}
	.st7{opacity:0.5;fill:url(#SVGID_6_);}
	.st8{fill:url(#SVGID_7_);}
	.st9{clip-path:url(#SVGID_9_);fill:#FFFFFF;}
	.st10{fill-rule:evenodd;clip-rule:evenodd;fill:#FFFFFF;}
	.st11{fill-rule:evenodd;clip-rule:evenodd;fill:#064627;}
	.st12{fill-rule:evenodd;clip-rule:evenodd;fill:#70AC54;}
	.st13{fill-rule:evenodd;clip-rule:evenodd;fill:#1F1A17;}
</style>
<g>
	<g>
		<path class="st0" d="M24.9,115.67c-3.11-19.78,20.66-35.54,38.26-18.54c0,0-9.3-21.46-30.53-20.07
			c-11.31,0.74-21.47,7.4-26.68,17.46c-3.36,6.49-5.32,15.37-1.72,26.46c1.3,4.01,3.22,7.79,5.61,11.24
			c0.92,1.33,1.91,2.63,2.97,3.86c4.68,5.44,13.57,14.17,22.46,21.66c0,0,22.14,18.12,27.41,30.12c0-15.3-6.54-30.9-16.48-42.37
			C38.7,136.81,26.89,128.3,24.9,115.67z"/>
	</g>
	<g id="XMLID_6107_">
		<g id="XMLID_6108_">
			<g id="XMLID_6109_">
				<path class="st0" d="M62.66,193.51l-2.07-4.71c-5-11.36-26.55-29.09-26.77-29.27c-8.42-7.09-17.55-15.89-22.75-21.94
					c-1.06-1.23-2.11-2.59-3.12-4.05c-2.58-3.72-4.57-7.71-5.91-11.84c-3.26-10.05-2.63-19.55,1.87-28.23
					c5.56-10.74,16.51-17.9,28.57-18.69c16.78-1.1,26.69,11.18,30.7,17.64c4.07-6.41,14.06-18.59,30.88-17.32
					c12.06,0.92,22.93,8.19,28.38,18.99c4.4,8.73,4.94,18.23,1.58,28.24c-0.99,2.96-2.33,5.85-3.96,8.6
					c-0.65,1.09-2.06,1.45-3.15,0.8c-1.09-0.65-1.45-2.06-0.8-3.15c1.47-2.47,2.66-5.07,3.55-7.71c2.95-8.8,2.51-17.11-1.33-24.71
					c-4.72-9.37-14.16-15.68-24.62-16.48c-19.33-1.51-28.09,17.58-28.46,18.4l-2.13,4.75l-2.07-4.78
					c-0.36-0.81-8.93-19.99-28.27-18.69C22.32,80.05,12.82,86.26,8,95.58c-3.91,7.55-4.44,15.86-1.58,24.7
					c1.2,3.7,2.99,7.29,5.31,10.64c0.91,1.32,1.86,2.56,2.82,3.67c4.98,5.79,14.11,14.59,22.2,21.4
					c0.81,0.66,18.47,15.2,25.96,27.11c4.3-6.68,11.88-14.2,17.98-19.73c0.94-0.85,2.4-0.78,3.25,0.16
					c0.85,0.94,0.78,2.39-0.16,3.25c-9.87,8.94-16.61,16.77-19,22.04L62.66,193.51z"/>
			</g>
		</g>
	</g>
	<g>
		<path class="st0" d="M88.78,150.59c-7.86,0-14.25-6.39-14.25-14.25s6.39-14.25,14.25-14.25s14.25,6.39,14.25,14.25
			S96.63,150.59,88.78,150.59z M88.78,126.69c-5.32,0-9.65,4.33-9.65,9.65s4.33,9.65,9.65,9.65s9.65-4.33,9.65-9.65
			S94.1,126.69,88.78,126.69z"/>
	</g>
	<g>
		<path class="st0" d="M66.13,137c-1.27,0-2.3-1.03-2.3-2.3c0-12.85,10.45-23.3,23.3-23.3c1.27,0,2.3,1.03,2.3,2.3
			s-1.03,2.3-2.3,2.3c-10.31,0-18.7,8.39-18.7,18.7C68.43,135.97,67.4,137,66.13,137z"/>
	</g>
	<g>
		<path class="st0" d="M130.01,164.81c-6.67,0-13.27-2.1-19.04-6.26l-6.16-4.43c-1.03-0.74-1.26-2.18-0.52-3.21
			c0.74-1.03,2.18-1.26,3.21-0.52l6.16,4.43c8.75,6.29,19.71,7.11,29.3,2.2c9.6-4.92,15.32-14.29,15.32-25.07V74.37
			c0-1.27,1.03-2.3,2.3-2.3s2.3,1.03,2.3,2.3v57.58c0,12.54-6.66,23.44-17.82,29.16C140.22,163.59,135.1,164.81,130.01,164.81z"/>
	</g>
	<g>
		<path class="st0" d="M160.58,76.67c-10.56,0-19.21-3.45-25.72-10.24c-13.63-14.24-14.05-39.67-13.6-49.95
			c0.18-4.1,2.98-7.56,6.95-8.61l4.42-1.16c3.54-0.94,7.19,1.19,8.13,4.73c0.93,3.51-1.06,7.07-4.55,8.1l-1.61,0.48
			c-1.21,0.36-2.5-0.34-2.86-1.55c-0.36-1.22,0.34-2.5,1.55-2.86l1.61-0.48c1.08-0.32,1.7-1.42,1.41-2.51
			c-0.29-1.1-1.42-1.75-2.52-1.47l-4.42,1.16c-2.02,0.53-3.44,2.29-3.53,4.37c-0.43,9.68-0.07,33.61,12.33,46.56
			c5.61,5.86,13.14,8.83,22.4,8.83c9.26,0,16.79-2.97,22.4-8.83c12.4-12.96,12.75-36.88,12.33-46.56c-0.09-2.08-1.51-3.83-3.53-4.36
			l-4.42-1.16c-1.1-0.28-2.23,0.37-2.52,1.47c-0.29,1.09,0.33,2.19,1.41,2.51l1.61,0.48c1.22,0.36,1.91,1.64,1.55,2.86
			c-0.36,1.22-1.65,1.91-2.86,1.55l-1.61-0.48c-3.48-1.03-5.48-4.59-4.55-8.1c0.94-3.54,4.58-5.67,8.14-4.73l4.42,1.16
			c3.98,1.05,6.77,4.5,6.95,8.61c0.45,10.28,0.03,35.71-13.6,49.95C179.79,73.23,171.14,76.67,160.58,76.67z"/>
	</g>
</g>
</svg>
