<?xml version="1.0" encoding="utf-8"?>
<!-- Generator: Adobe Illustrator 23.0.1, SVG Export Plug-In . SVG Version: 6.00 Build 0)  -->
<svg version="1.1" id="Capa_1" xmlns="http://www.w3.org/2000/svg" xmlns:xlink="http://www.w3.org/1999/xlink" x="0px" y="0px"
	 viewBox="0 0 200 200" style="enable-background:new 0 0 200 200;" xml:space="preserve">
<style type="text/css">
	.st0{fill:#136380;}
	.st1{fill:#00AFB7;}
	.st2{fill:none;stroke:#344154;stroke-width:3;stroke-linecap:round;stroke-miterlimit:10;}
	.st3{fill:#FF6D3B;}
	.st4{fill:url(#SVGID_1_);}
	.st5{fill:url(#SVGID_2_);}
	.st6{fill:url(#SVGID_3_);}
	.st7{fill:url(#SVGID_4_);}
	.st8{fill:url(#SVGID_5_);}
	.st9{opacity:0.5;fill:url(#SVGID_6_);}
	.st10{fill:url(#SVGID_7_);}
	.st11{fill:#FFFFFF;}
	.st12{clip-path:url(#SVGID_9_);fill:#FFFFFF;}
	.st13{fill-rule:evenodd;clip-rule:evenodd;fill:#FFFFFF;}
	.st14{fill-rule:evenodd;clip-rule:evenodd;fill:#064627;}
	.st15{fill-rule:evenodd;clip-rule:evenodd;fill:#70AC54;}
	.st16{fill-rule:evenodd;clip-rule:evenodd;fill:#1F1A17;}
	.st17{fill:#666666;}
	.st18{fill:#CCCCCC;}
	.st19{fill:none;stroke:#136380;stroke-width:5;stroke-miterlimit:10;}
</style>
<g>
	<path class="st1" d="M50.33,95.85c-1.75-6.89-3.43-13.81-5.29-20.68c-1.57-5.8-3.21-11.59-5.12-17.28
		c-0.82-2.43-1.92-5.59-5.04-5.48c-3.04,0.12-4.02,3.26-4.82,5.74c-2.05,6.29-3.9,12.66-5.69,19.03c-0.72,2.56-2.05,3.56-4.8,3.42
		c-4.69-0.24-9.4,0.01-14.1-0.15c-1.03-0.04-2.59-0.67-2.95-1.47c-2.97-6.45-4.11-13.15-1.81-20.1c0.74-2.23,1.56-4.43,2.45-6.6
		c8.62-21.06,35.29-26.92,51.85-11.4c0.82,0.76,1.62,1.54,2.71,2.57c1.02-0.89,1.98-1.74,2.96-2.58
		c15.01-12.79,35.98-11.3,47.39,3.38c4.33,5.57,6.42,12.01,7.12,18.94c0.09,0.93-0.07,2.18-0.64,2.83
		c-3.02,3.46-5.95,7.09-9.44,10.02c-2.32,1.95-5.47,2.99-8.37,4.15c-1.98,0.79-3.5,0.07-4.07-2.27c-1.52-6.24-3.16-12.44-4.71-18.67
		c-1.34-5.38-3.92-7.14-9.34-5.79c-0.86,0.22-1.61,2.04-1.89,3.24c-1.16,4.96-2.04,9.98-3.18,14.94c-0.41,1.77-1.14,3.49-1.92,5.15
		c-1.33,2.83-3.52,4.25-6.78,4.34c-9.03,0.27-9.03,0.34-11.65,8.88c-0.59,1.93-1.24,3.85-1.86,5.77
		C51.01,95.79,50.67,95.82,50.33,95.85z"/>
	<path class="st19" d="M167.51,96.47c0.28,5.18,0.53,9.71,0.78,14.44c-1.13,0.08-2.02,0.19-2.91,0.19
		c-13.38,0.04-26.76-0.01-40.15,0.15c-2.74,0.03-3.58-0.82-3.43-3.49c0.2-3.54,0.05-7.1,0.05-11.58c-2.58,1.9-4.6,3.19-6.38,4.75
		c-3.23,2.82-6.07,6.14-9.53,8.62c-3.16,2.26-6.9,3.74-10.45,5.43c-0.54,0.25-1.66,0.01-2.11-0.43c-2.75-2.63-3.49-7.68-1.1-10.71
		c7.32-9.32,14.73-18.6,24.41-25.67c5.29-3.87,11.25-6.43,17.81-6.68c7.73-0.29,15.51-0.43,23.2,0.2
		c8.1,0.67,14.44,5.36,19.86,11.16c6.83,7.32,13.53,14.76,20.26,22.17c2.39,2.63,2.26,4.32-0.41,6.73
		c-5.47,4.94-8.34,4.73-13.45-0.56c-4.17-4.32-8.55-8.44-12.91-12.58C170.2,97.82,169.04,97.38,167.51,96.47z"/>
	<path class="st1" d="M5.79,88.05c6.35,0,12.05,0,17.74,0c5.22,0,8.03-2.04,9.51-7.16c0.7-2.41,1.12-4.91,1.87-8.27
		c2,7.74,3.64,14.65,5.59,21.46c1.43,4.99,3.15,9.91,4.99,14.76c0.86,2.26,2.16,4.41,3.58,6.38c0.64,0.89,2.38,1.94,3.06,1.64
		c1.49-0.65,3.36-1.9,3.79-3.29c2.11-6.91,3.84-13.94,5.61-20.95c0.82-3.24,2.55-4.92,6.07-4.67c1.92,0.14,3.88-0.4,5.8-0.27
		c3.15,0.23,4.61-1.33,5.32-4.15c0.7-2.75,1.56-5.45,2.52-8.74c3.05,5.19,5.91,10.06,9.03,15.39c-1.14,1.36-2.72,3.32-4.39,5.21
		c-5.5,6.25-7.02,13.24-3.75,21c1.04,2.47,0.64,4.16-1.52,5.74c-5.36,3.91-10.59,7.98-15.94,11.89c-3.16,2.31-6.7,2.36-10.2,0.9
		c-2.63-1.1-5.29-2.25-7.68-3.77C31.92,121.72,19.47,109.77,9.7,95.1C8.31,93.02,7.26,90.72,5.79,88.05z"/>
	<path class="st19" d="M164.93,42.83c0,11.59-9.28,21-20.7,20.99c-10.89-0.01-20.94-10.28-21-21.45
		c-0.05-10.58,10.94-19.94,23.41-19.94C157.01,22.43,164.93,31.27,164.93,42.83z"/>
	<path class="st19" d="M137.45,138.54c-2.36,2.01-4.91,3.89-7.1,6.12c-5.96,6.08-5.86,6.33,0,12.26c2.22,2.24,4.44,4.54,6.28,7.09
		c1.28,1.76,2.16,3.92,2.76,6.04c0.75,2.6-0.3,5.19-2.54,6.33c-1.64,0.83-4.33,0.96-5.93,0.16c-2.66-1.33-5.02-3.46-7.18-5.59
		c-5.08-5.01-9.98-10.21-14.95-15.34c-7.92-8.19-8.13-13.89-0.42-22.22c2.96-3.2,6.39-6.01,9.8-8.75c0.75-0.61,2.6-0.69,3.45-0.18
		c2.08,1.23,3.96,2.86,5.76,4.5C130.47,131.76,133.43,134.7,137.45,138.54z"/>
	<path class="st19" d="M151.34,137.57c5.17-4.62,9.99-9,14.95-13.23c0.61-0.52,2.29-0.63,2.91-0.17c3.81,2.87,7.85,5.6,11.08,9.06
		c4.86,5.22,5.29,11.68,1.63,17.82c-1.76,2.95-3.99,5.7-6.37,8.19c-5.01,5.24-10.23,10.28-15.43,15.35
		c-3.51,3.42-5.74,3.78-8.53,1.59c-3.68-2.89-4.78-6.55-2.01-10.13c3.15-4.08,7.09-7.56,10.73-11.25c1.06-1.07,2.26-2,4.3-3.78
		c-2.61-2.22-5.07-4.03-7.2-6.18C155.29,142.69,153.51,140.2,151.34,137.57z"/>
</g>
</svg>
