<?xml version="1.0" encoding="utf-8"?>
<!-- Generator: Adobe Illustrator 23.0.1, SVG Export Plug-In . SVG Version: 6.00 Build 0)  -->
<svg version="1.1" id="Capa_1" xmlns="http://www.w3.org/2000/svg" xmlns:xlink="http://www.w3.org/1999/xlink" x="0px" y="0px"
	 viewBox="0 0 200 200" style="enable-background:new 0 0 200 200;" xml:space="preserve">
<style type="text/css">
	.st0{fill:#FFFFFF;stroke:#344154;stroke-width:3;stroke-linecap:round;stroke-miterlimit:10;}
	.st1{fill:#FFFFFF;}
	.st2{fill:url(#SVGID_1_);}
	.st3{fill:url(#SVGID_2_);}
	.st4{fill:url(#SVGID_3_);}
	.st5{fill:url(#SVGID_4_);}
	.st6{fill:url(#SVGID_5_);}
	.st7{opacity:0.5;fill:url(#SVGID_6_);}
	.st8{fill:url(#SVGID_7_);}
	.st9{clip-path:url(#SVGID_9_);fill:#FFFFFF;}
	.st10{fill-rule:evenodd;clip-rule:evenodd;fill:#FFFFFF;}
	.st11{fill-rule:evenodd;clip-rule:evenodd;fill:#064627;}
	.st12{fill-rule:evenodd;clip-rule:evenodd;fill:#70AC54;}
	.st13{fill-rule:evenodd;clip-rule:evenodd;fill:#1F1A17;}
</style>
<g>
	<g>
		<path class="st1" d="M49.58,95.85c-1.75-6.89-3.43-13.81-5.29-20.68c-1.57-5.8-3.21-11.59-5.12-17.28
			c-0.82-2.43-1.92-5.59-5.04-5.48c-3.04,0.12-4.02,3.26-4.82,5.74c-2.05,6.29-3.9,12.66-5.69,19.03c-0.72,2.56-2.05,3.56-4.8,3.42
			c-4.69-0.24-9.4,0.01-14.1-0.15c-1.03-0.04-2.59-0.67-2.95-1.47c-2.97-6.45-4.11-13.15-1.81-20.1c0.74-2.23,1.56-4.43,2.45-6.6
			c8.62-21.06,35.29-26.92,51.85-11.4c0.82,0.76,1.62,1.54,2.71,2.57c1.02-0.89,1.98-1.74,2.96-2.58
			c15.01-12.79,35.98-11.3,47.39,3.38c4.33,5.57,6.42,12.01,7.12,18.94c0.09,0.93-0.07,2.18-0.64,2.83
			c-3.02,3.46-5.95,7.09-9.44,10.02c-2.32,1.95-5.47,2.99-8.37,4.15c-1.98,0.79-3.5,0.07-4.07-2.27
			c-1.52-6.24-3.16-12.44-4.71-18.67c-1.34-5.38-3.92-7.14-9.34-5.79c-0.86,0.22-1.61,2.04-1.89,3.24
			c-1.16,4.96-2.04,9.98-3.18,14.94c-0.41,1.77-1.14,3.49-1.92,5.15c-1.33,2.83-3.52,4.25-6.78,4.34
			c-9.03,0.27-9.03,0.34-11.65,8.88c-0.59,1.93-1.24,3.85-1.86,5.77C50.26,95.8,49.92,95.83,49.58,95.85z"/>
	</g>
	<g>
		<path class="st1" d="M190.01,117.81c-2.77,0-5.47-1.62-8.62-4.88c-3.8-3.93-7.85-7.78-11.78-11.5l-0.09-0.08l0.64,11.9l-2.46,0.17
			c-0.36,0.02-0.7,0.05-1.02,0.08c-0.7,0.06-1.36,0.12-2.05,0.12c-3.95,0.01-7.89,0.01-11.84,0.02c-9.27,0.01-18.86,0.02-28.29,0.13
			c-1.48,0.01-3.33-0.14-4.66-1.52c-1.32-1.38-1.38-3.29-1.3-4.61c0.12-2.1,0.11-4.21,0.08-6.59c-0.83,0.6-1.58,1.18-2.28,1.79
			c-1.16,1.02-2.27,2.1-3.44,3.24c-1.95,1.91-3.97,3.88-6.29,5.53c-2.66,1.91-5.64,3.26-8.51,4.58c-0.78,0.36-1.56,0.71-2.33,1.08
			c-1.59,0.76-3.83,0.16-4.91-0.88c-3.84-3.66-4.45-10.1-1.34-14.06c6.88-8.75,14.67-18.67,24.9-26.15
			c6.16-4.51,12.62-6.92,19.2-7.16c7.49-0.28,15.52-0.45,23.5,0.21c7.64,0.63,14.46,4.42,21.48,11.94
			c5.47,5.86,10.94,11.9,16.23,17.73l4.05,4.46c1.06,1.17,2.45,2.97,2.34,5.21c-0.11,2.23-1.62,3.87-2.93,5.05
			C195.22,116.4,192.59,117.81,190.01,117.81z M164.01,91.94l4.03,2.39c0.49,0.29,0.94,0.53,1.35,0.75c0.94,0.5,1.83,0.97,2.62,1.72
			l1.05,1c3.96,3.76,8.06,7.64,11.93,11.66c4.24,4.39,5.54,4.45,9.98,0.44c1.25-1.12,1.28-1.57,1.28-1.59c0-0.02,0.01-0.44-1.05-1.6
			l-4.05-4.46c-5.28-5.82-10.74-11.84-16.18-17.68c-6.12-6.56-11.91-9.85-18.23-10.37c-7.71-0.64-15.57-0.47-22.9-0.19
			c-5.56,0.21-11.09,2.3-16.43,6.2c-9.67,7.07-17.24,16.7-23.92,25.2c-1.45,1.84-1.12,5.2,0.63,7.12c0.64-0.3,1.29-0.6,1.94-0.89
			c2.78-1.27,5.4-2.47,7.67-4.09c2-1.43,3.8-3.19,5.7-5.05c1.17-1.14,2.37-2.32,3.64-3.42c1.29-1.13,2.64-2.09,4.2-3.2
			c0.73-0.52,1.51-1.07,2.34-1.69l3.98-2.94v4.95c0,1.4,0.01,2.71,0.03,3.96c0.03,2.82,0.06,5.25-0.08,7.76
			c-0.02,0.38-0.01,0.64,0,0.8c0.17,0.03,0.46,0.05,0.9,0.05c9.45-0.11,19.06-0.12,28.34-0.13c3.94,0,7.88-0.01,11.83-0.02
			c0.09,0,0.19,0,0.28-0.01L164.01,91.94z"/>
	</g>
	<g>
		<path class="st1" d="M5.04,88.06c6.35,0,12.05,0,17.74,0c5.22,0,8.03-2.04,9.51-7.16c0.7-2.41,1.12-4.91,1.87-8.27
			c2,7.74,3.64,14.65,5.59,21.46c1.43,4.99,3.15,9.91,4.99,14.76c0.86,2.26,2.16,4.41,3.58,6.38c0.64,0.89,2.38,1.94,3.06,1.64
			c1.49-0.65,3.36-1.9,3.79-3.29c2.11-6.91,3.84-13.94,5.61-20.95c0.82-3.24,2.55-4.92,6.07-4.67c1.92,0.14,3.88-0.4,5.8-0.27
			c3.15,0.23,4.61-1.33,5.32-4.15c0.7-2.75,1.56-5.45,2.52-8.74c3.05,5.19,5.91,10.06,9.03,15.39c-1.14,1.36-2.72,3.32-4.39,5.21
			c-5.5,6.25-7.02,13.24-3.75,21c1.04,2.47,0.64,4.16-1.52,5.74c-5.36,3.91-10.59,7.98-15.94,11.89c-3.16,2.31-6.7,2.36-10.2,0.9
			c-2.63-1.1-5.29-2.25-7.68-3.77c-14.87-9.43-27.32-21.38-37.09-36.05C7.56,93.03,6.51,90.73,5.04,88.06z"/>
	</g>
	<g>
		<path class="st1" d="M143.51,66.33c-0.01,0-0.01,0-0.02,0c-12.24-0.01-23.44-11.42-23.49-23.94c-0.02-5.17,2.23-10.29,6.34-14.42
			c5.08-5.1,12.21-8.03,19.56-8.03c0,0,0,0,0,0c5.73,0,11.02,2.38,14.89,6.7c3.8,4.24,5.9,10,5.9,16.21c0,6.27-2.41,12.16-6.79,16.6
			C155.52,63.88,149.7,66.33,143.51,66.33z M145.9,24.94C145.9,24.94,145.9,24.94,145.9,24.94c-5.95,0-11.94,2.45-16.02,6.56
			c-3.17,3.18-4.9,7.04-4.88,10.87c0.04,9.74,9.03,18.95,18.5,18.96c0.01,0,0.01,0,0.02,0c4.84,0,9.4-1.92,12.83-5.4
			c3.45-3.5,5.34-8.14,5.34-13.09c0-4.97-1.64-9.54-4.62-12.87C154.15,26.73,150.19,24.94,145.9,24.94z"/>
	</g>
	<g>
		<path class="st1" d="M132.86,179.58c-1.38,0-2.74-0.26-3.8-0.8c-2.98-1.48-5.52-3.78-7.82-6.05c-3.76-3.71-7.47-7.56-11.05-11.3
			c-1.31-1.37-2.62-2.73-3.94-4.09c-8.9-9.2-9.03-16.4-0.46-25.66c2.99-3.23,6.33-5.99,10.06-9c1.54-1.24,4.54-1.43,6.29-0.39
			c2.37,1.41,4.43,3.21,6.17,4.8c2.15,1.95,4.22,3.95,6.62,6.27c1.09,1.05,2.24,2.16,3.5,3.37l2,1.91l-2.1,1.8
			c-0.75,0.64-1.52,1.27-2.29,1.9c-1.66,1.36-3.24,2.64-4.64,4.07c-1.38,1.41-3.69,3.76-3.72,4.42c0.04,0.62,2.16,2.76,3.71,4.33
			c2.24,2.26,4.58,4.69,6.53,7.38c1.3,1.8,2.36,4.1,3.14,6.81c1.08,3.76-0.49,7.57-3.81,9.25
			C135.96,179.26,134.39,179.58,132.86,179.58z M118.87,126.68c-3.53,2.85-6.68,5.46-9.42,8.41c-6.75,7.29-6.66,11.5,0.38,18.78
			c1.32,1.36,2.64,2.73,3.95,4.1c3.56,3.71,7.24,7.54,10.95,11.2c2,1.97,4.18,3.96,6.53,5.13c0.84,0.42,2.71,0.34,3.69-0.15
			c1.17-0.59,1.68-1.97,1.27-3.41c-0.62-2.16-1.42-3.93-2.38-5.26c-1.74-2.4-3.84-4.59-6.03-6.8c-6.89-6.97-6.89-8.74-0.01-15.76
			c1.6-1.64,3.36-3.07,5.06-4.45c0.03-0.02,0.05-0.04,0.07-0.06c-0.51-0.49-1.01-0.97-1.49-1.44c-2.37-2.29-4.42-4.27-6.51-6.17
			c-1.54-1.4-3.34-2.99-5.28-4.15C119.47,126.6,119.08,126.62,118.87,126.68z"/>
	</g>
	<g>
		<path class="st1" d="M154.12,180.06c-1.49,0-3.11-0.54-4.84-1.9c-4.98-3.91-5.91-9.13-2.45-13.62c2.4-3.11,5.22-5.87,7.95-8.53
			c1-0.98,2-1.95,2.98-2.95c0.66-0.67,1.36-1.28,2.2-2c-0.03-0.03-0.07-0.05-0.1-0.08c-1.77-1.44-3.44-2.81-4.99-4.38
			c-1.56-1.58-2.9-3.27-4.31-5.06c-0.61-0.77-1.24-1.57-1.9-2.37l-1.53-1.85l1.79-1.6c1.21-1.08,2.41-2.15,3.59-3.21
			c3.9-3.5,7.59-6.8,11.4-10.05c1.51-1.29,4.5-1.42,6.03-0.27c0.71,0.54,1.44,1.07,2.16,1.61c3.18,2.35,6.47,4.77,9.24,7.75
			c5.56,5.98,6.27,13.56,1.95,20.81c-1.71,2.86-3.96,5.77-6.71,8.64c-4.43,4.64-9.1,9.18-13.6,13.57l-1.88,1.84
			C159.21,178.24,156.87,180.06,154.12,180.06z M154.03,137.86c0.15,0.19,0.31,0.39,0.46,0.58c1.33,1.68,2.59,3.27,3.96,4.65
			c1.36,1.38,2.93,2.66,4.59,4.02c0.79,0.65,1.61,1.31,2.44,2.02l2.21,1.88l-2.19,1.91c-0.73,0.64-1.35,1.17-1.9,1.63
			c-0.96,0.82-1.66,1.41-2.26,2.02c-1,1.02-2.03,2.02-3.05,3.02c-2.73,2.66-5.3,5.18-7.49,8.01c-0.64,0.83-2.59,3.36,1.58,6.64
			c1.31,1.03,2.1,1.65,5.24-1.41l1.89-1.84c4.48-4.36,9.1-8.87,13.48-13.45c2.49-2.6,4.51-5.21,6.03-7.75
			c3.15-5.28,2.68-10.55-1.31-14.84c-2.46-2.64-5.42-4.82-8.55-7.13c-0.64-0.47-1.28-0.95-1.92-1.42c-0.08,0-0.17,0.01-0.25,0.02
			c-3.7,3.16-7.31,6.4-11.13,9.81C155.25,136.77,154.64,137.31,154.03,137.86z M167.37,126.4L167.37,126.4L167.37,126.4z"/>
	</g>
</g>
</svg>
