<?xml version="1.0" encoding="utf-8"?>
<!-- Generator: Adobe Illustrator 24.1.1, SVG Export Plug-In . SVG Version: 6.00 Build 0)  -->
<svg version="1.1" xmlns="http://www.w3.org/2000/svg" xmlns:xlink="http://www.w3.org/1999/xlink" x="0px" y="0px"
	 viewBox="0 0 500 445.7" style="enable-background:new 0 0 500 445.7;" xml:space="preserve">
<style type="text/css">
	.st0{fill:#FFFFFF;}
	.st1{fill:#00AFB7;}
	.st2{fill:#093833;}
	.st3{fill:#36B6E9;}
	.st4{fill:#282828;}
	.st5{fill-rule:evenodd;clip-rule:evenodd;fill:#00AFB7;}
	.st6{fill:none;stroke:#13B7AB;stroke-miterlimit:10;}
	.st7{fill-rule:evenodd;clip-rule:evenodd;fill:none;stroke:#114477;stroke-miterlimit:10;}
	.st8{fill-rule:evenodd;clip-rule:evenodd;fill:none;stroke:#13B7AB;stroke-miterlimit:10;}
	.st9{fill:#336699;}
	.st10{fill:#114477;}
	.st11{clip-path:url(#SVGID_6_);}
	.st12{fill:none;stroke:#FFFFFF;stroke-width:2;stroke-miterlimit:10;}
	.st13{fill:#0A443E;}
	.st14{clip-path:url(#SVGID_16_);fill:#0A443E;}
	.st15{fill-rule:evenodd;clip-rule:evenodd;fill:#0A443E;}
	.st16{fill-rule:evenodd;clip-rule:evenodd;fill:#064627;}
	.st17{fill-rule:evenodd;clip-rule:evenodd;fill:#70AC54;}
	.st18{fill-rule:evenodd;clip-rule:evenodd;fill:#1F1A17;}
	.st19{fill:#136380;}
	.st20{fill:none;stroke:#344154;stroke-width:3;stroke-linecap:round;stroke-miterlimit:10;}
	.st21{fill:#FF6D3B;}
	.st22{fill:none;stroke:#344154;stroke-width:1.5;stroke-miterlimit:10;}
	.st23{opacity:0.75;}
	.st24{fill:none;stroke:#00AFB7;stroke-width:3;stroke-miterlimit:10;}
	.st25{fill:#10C626;}
	.st26{fill:#00CC33;}
</style>
<g id="guias">
</g>
<g id="Capa_2">
	<g>
		<g>
			<path class="st0" d="M50.73,153.33c-1.22,0-2.47-0.25-3.66-0.78C18.49,139.61,0,111.08,0,79.85C0,35.83,35.83,0,79.85,0
				c31.23,0,59.76,18.49,72.68,47.07c2.02,4.47,0.04,9.72-4.44,11.75c-4.45,2.04-9.72,0.04-11.73-4.44
				c-10.06-22.25-32.24-36.64-56.51-36.64c-34.25,0-62.1,27.86-62.1,62.1c0,24.27,14.39,46.45,36.64,56.51
				c4.45,2.02,6.44,7.28,4.44,11.75C57.33,151.37,54.1,153.33,50.73,153.33z"/>
		</g>
		<g>
			<g>
				<g>
					<path d="M494.41,335.47c3.04-2.67,5.04-6.51,5.27-10.85c6.57-113.55-91.94-217.13-92.82-219.16
						c-20.17-22.95-58.23-21.31-74.36,7.32c-19.91-20.19-54.3-18.83-70.95,6.65c-24.76-16.84-56.09-6-66.58,19.48L123.5,57.58
						c-40-45.5-109.45,14.32-68.84,60.52l0,0l115.79,131.71c-5.66,15.76-20.12,68.6,19.92,114.14
						c50.2,57.11,164.87,80.47,169.73,81.45c4.95,0.97,9.83-0.49,13.37-3.6L494.41,335.47z M54.66,118.1"/>
				</g>
			</g>
			<path class="st0" d="M366.2,414.75c-1.11-0.22-109.19-22.3-152.37-71.43c-19.8-22.53-20.81-47.74-18.3-64.98l41.41,47.11
				c5.69,6.48,15.57,7.11,22.05,1.42c6.48-5.69,7.11-15.57,1.42-22.05L78.12,97.47c-13.34-15.18,8.92-34,21.89-19.24L233.79,230.4
				c5.46,6.21,14.87,7.1,21.38,1.98c6.45-5.03,7.89-14.43,3.16-21.23l-32.51-46.61c-11.26-14.92,10.71-31.1,21.8-16.17l30.75,41.17
				c5.18,6.9,14.95,8.32,21.87,3.18c6.57-5.27,8.33-14.92,3.18-21.88l-17.76-23.77c-2.68-15.03,15.51-22.99,25.35-11.8l27.03,30.74
				c5.69,6.47,15.57,7.11,22.05,1.42c6.47-5.69,7.11-15.57,1.42-22.05c-13.16-14.97,8.73-34.24,21.9-19.25
				c0.87,2,89.91,96.47,85.1,196.75"/>
		</g>
	</g>
</g>
</svg>
