<?xml version="1.0" encoding="utf-8"?>
<!-- Generator: Adobe Illustrator 23.0.1, SVG Export Plug-In . SVG Version: 6.00 Build 0)  -->
<svg version="1.1" id="Capa_1" xmlns="http://www.w3.org/2000/svg" xmlns:xlink="http://www.w3.org/1999/xlink" x="0px" y="0px"
	 viewBox="0 0 120.09 192.58" style="enable-background:new 0 0 120.09 192.58;" xml:space="preserve">
<style type="text/css">
	.st0{fill:#136380;}
	.st1{fill:#00AFB7;}
	.st2{fill:none;stroke:#344154;stroke-width:3;stroke-linecap:round;stroke-miterlimit:10;}
	.st3{fill:#FF6D3B;}
	.st4{fill:url(#SVGID_1_);}
	.st5{fill:url(#SVGID_2_);}
	.st6{fill:url(#SVGID_3_);}
	.st7{fill:url(#SVGID_4_);}
	.st8{fill:url(#SVGID_5_);}
	.st9{opacity:0.5;fill:url(#SVGID_6_);}
	.st10{fill:url(#SVGID_7_);}
</style>
<g>
	<g>
		<path class="st0" d="M75.71,181.73c-1.52-0.62-3.27,0.13-3.87,1.66c-0.78,1.93-2.73,3.23-4.87,3.23H53.12
			c-2.14,0-4.09-1.3-4.87-3.23c-0.46-1.16-1.59-1.87-2.77-1.87c-0.37,0-0.74,0.07-1.1,0.21c-0.74,0.3-1.32,0.86-1.63,1.59
			c-0.31,0.73-0.32,1.54-0.03,2.28c1.7,4.23,5.78,6.97,10.39,6.97h13.86c4.62,0,8.7-2.74,10.39-6.97c0.3-0.74,0.29-1.55-0.03-2.28
			C77.03,182.6,76.45,182.03,75.71,181.73z"/>
	</g>
	<g>
		<path class="st0" d="M111.17,149.51l-1.02-0.59l0.91-0.74c0.83-0.67,1.59-1.42,2.27-2.21c3.44-3.99,4.96-9.27,4.18-14.48
			c-1.31-8.7-5.01-16.83-10.71-23.5c-4.27-5.01-9.44-9-15.37-11.86l-1-0.48l0.76-0.81c7.46-7.95,11.56-18.32,11.56-29.19
			c0-19.01-12.78-35.91-31.07-41.11l-1.21-0.34l0.81-0.96c2.39-2.85,3.65-6.34,3.65-10.07C74.95,5.91,69.04,0,61.77,0
			c-2.92,0-5.65,0.94-7.69,2.66c-2.22,1.87-3.45,4.51-3.45,7.41c0,1.64,1.34,2.98,2.98,2.98c1.64,0,2.98-1.34,2.98-2.98
			c0-1.13,0.46-2.13,1.33-2.86c0.96-0.81,2.33-1.25,3.84-1.25c3.98,0,7.21,3.24,7.21,7.21c0,2.6-1.02,5.06-2.86,6.9
			c-1.85,1.84-4.3,2.86-6.9,2.86l-0.21,0.01c-23.01,0.57-41.69,19.73-41.69,42.71c0,10.87,4.1,21.24,11.56,29.19l0.76,0.81l-1,0.48
			c-5.92,2.86-11.1,6.85-15.37,11.86c-5.7,6.68-9.4,14.8-10.71,23.5c-0.78,5.21,0.74,10.49,4.18,14.49
			c0.68,0.79,1.44,1.53,2.27,2.21l0.91,0.74l-1.02,0.59c-4.48,2.6-7.61,7-8.59,12.08c-0.98,5.09,0.28,10.36,3.48,14.44l8.12,10.38
			c3.01,3.84,7.75,6.14,12.68,6.14c2.8,0,5.56-0.74,7.97-2.13c6.88-3.97,9.83-12.53,6.86-19.89l-4.93-12.22
			c-0.31-0.76-0.68-1.52-1.11-2.25l-0.71-1.22h29.23c1.64,0,2.98-1.34,2.98-2.98s-1.34-2.98-2.98-2.98H26.1v-8.81
			c0-1.48,1.2-2.68,2.68-2.68h62.53c1.48,0,2.68,1.2,2.68,2.68v9l-0.42,0.23c-3.62,1.99-6.46,5.18-8,9.01l-4.93,12.22
			c-2.97,7.37-0.02,15.92,6.86,19.89c2.41,1.39,5.17,2.13,7.98,2.13c4.94,0,9.68-2.29,12.68-6.14l8.12-10.38
			c3.2-4.09,4.46-9.35,3.48-14.44C118.78,156.51,115.64,152.11,111.17,149.51z M23.28,65.65c0-20.27,16.49-36.76,36.76-36.76
			S96.8,45.38,96.8,65.65s-16.49,36.76-36.76,36.76S23.28,85.92,23.28,65.65z M28.99,160.54l4.93,12.22
			c1.86,4.63,0.01,10.01-4.31,12.51c-1.57,0.91-3.3,1.34-5.02,1.34c-3.03,0-6.01-1.35-7.97-3.86L8.5,172.37
			c-2.13-2.73-2.98-6.24-2.32-9.64s2.76-6.34,5.76-8.07c2.99-1.72,6.59-2.08,9.87-0.95C25.08,154.83,27.7,157.32,28.99,160.54z
			 M91.34,123.84c-1.64,0-2.98,1.34-2.98,2.98v4.61h-56.6v-4.61c0-1.64-1.34-2.98-2.98-2.98s-2.98,1.34-2.98,2.98v5.12l-0.49,0.21
			c-3.14,1.38-5.17,4.49-5.17,7.91v6.25l-0.89-0.09c-3.11-0.31-5.94-1.79-7.98-4.15c-2.31-2.68-3.33-6.22-2.8-9.71
			c2.19-14.57,12.08-26.91,25.82-32.2l0.41-0.16l0.36,0.26c7.32,5.3,15.96,8.09,24.99,8.09s17.67-2.8,24.99-8.09l0.36-0.26
			l0.41,0.16c13.73,5.29,23.63,17.62,25.82,32.2c0.53,3.49-0.49,7.03-2.8,9.71c-2.04,2.37-4.87,3.84-7.98,4.15l-0.89,0.09v-6.25
			c0-3.41-2.02-6.52-5.15-7.9l-0.48-0.21v-5.13C94.32,125.18,92.98,123.84,91.34,123.84z M111.59,172.37l-8.12,10.38
			c-1.97,2.51-4.95,3.86-7.97,3.86c-1.72,0-3.45-0.44-5.01-1.34c-4.33-2.5-6.18-7.87-4.31-12.51l4.93-12.23
			c1.29-3.21,3.91-5.7,7.19-6.83c3.25-1.12,6.9-0.77,9.87,0.95c3,1.73,5.1,4.67,5.76,8.07
			C114.57,166.13,113.72,169.64,111.59,172.37z"/>
	</g>
	<path class="st1" d="M79.69,154.54c0.71-0.71,1.11-1.68,1.11-2.68s-0.41-1.98-1.11-2.68c-0.71-0.71-1.68-1.11-2.68-1.11
		c-1,0-1.98,0.41-2.68,1.11s-1.11,1.68-1.11,2.68c0,1,0.41,1.98,1.11,2.68c0.71,0.71,1.68,1.11,2.68,1.11
		C78,155.65,78.98,155.25,79.69,154.54z"/>
	<g>
		<path class="st0" d="M60.04,82.42c-2.24,0-4.34-1-5.76-2.75c-0.5-0.62-1.21-1-2-1.09c-0.79-0.1-1.57,0.15-2.19,0.65
			c-1.27,1.04-1.47,2.92-0.44,4.19c2.55,3.15,6.34,4.95,10.38,4.95c4.05,0,7.83-1.8,10.38-4.95c1.03-1.28,0.84-3.16-0.44-4.19
			c-0.62-0.51-1.42-0.74-2.19-0.65c-0.79,0.08-1.5,0.47-2,1.09"/>
	</g>
	<g>
		<path class="st0" d="M49.88,63.54c-3.13-3.13-8.21-3.12-11.33,0c-1.16,1.16-1.16,3.06,0,4.22c1.16,1.16,3.05,1.16,4.21,0
			c0.4-0.4,0.92-0.6,1.45-0.6s1.05,0.2,1.45,0.6c1.12,1.12,3.09,1.12,4.22,0C51.04,66.6,51.04,64.71,49.88,63.54z"/>
	</g>
	<g>
		<path class="st0" d="M81.53,62.62c-1.56-1.2-3.61-1.8-5.66-1.8c-2.05,0-4.1,0.6-5.67,1.8c-1.16,0.89-1.16,2.34,0,3.23
			c1.12,0.86,3.09,0.86,4.22,0c0.8-0.61,2.1-0.61,2.9,0c1.17,0.9,3.05,0.89,4.22,0C82.69,64.95,82.69,63.51,81.53,62.62z"/>
	</g>
</g>
</svg>
