<?xml version="1.0" encoding="utf-8"?>
<!-- Generator: Adobe Illustrator 23.0.1, SVG Export Plug-In . SVG Version: 6.00 Build 0)  -->
<svg version="1.1" id="Capa_1" xmlns="http://www.w3.org/2000/svg" xmlns:xlink="http://www.w3.org/1999/xlink" x="0px" y="0px"
	 viewBox="0 0 200 200" style="enable-background:new 0 0 200 200;" xml:space="preserve">
<style type="text/css">
	.st0{fill:#136380;}
	.st1{fill:#00AFB7;}
	.st2{fill:none;stroke:#344154;stroke-width:3;stroke-linecap:round;stroke-miterlimit:10;}
	.st3{fill:#FF6D3B;}
	.st4{fill:url(#SVGID_1_);}
	.st5{fill:url(#SVGID_2_);}
	.st6{fill:url(#SVGID_3_);}
	.st7{fill:url(#SVGID_4_);}
	.st8{fill:url(#SVGID_5_);}
	.st9{opacity:0.5;fill:url(#SVGID_6_);}
	.st10{fill:url(#SVGID_7_);}
	.st11{fill:#FFFFFF;}
	.st12{clip-path:url(#SVGID_9_);fill:#FFFFFF;}
	.st13{fill-rule:evenodd;clip-rule:evenodd;fill:#FFFFFF;}
	.st14{fill-rule:evenodd;clip-rule:evenodd;fill:#064627;}
	.st15{fill-rule:evenodd;clip-rule:evenodd;fill:#70AC54;}
	.st16{fill-rule:evenodd;clip-rule:evenodd;fill:#1F1A17;}
</style>
<g>
	<g>
		<path class="st0" d="M116.27,188.6c-1.58-0.64-3.39,0.14-4.02,1.72c-0.8,2.01-2.83,3.36-5.05,3.36H92.8
			c-2.22,0-4.25-1.35-5.05-3.36c-0.48-1.2-1.65-1.94-2.88-1.94c-0.38,0-0.77,0.07-1.14,0.22c-0.77,0.31-1.37,0.9-1.69,1.66
			c-0.33,0.76-0.34,1.6-0.03,2.37c1.76,4.4,6,7.24,10.79,7.24h14.39c4.8,0,9.03-2.84,10.79-7.24c0.31-0.77,0.3-1.61-0.03-2.37
			C117.64,189.5,117.04,188.91,116.27,188.6z"/>
	</g>
	<g>
		<path class="st0" d="M153.09,155.14l-1.06-0.61l0.95-0.77c0.86-0.7,1.66-1.47,2.36-2.29c3.57-4.15,5.15-9.63,4.34-15.04
			c-1.36-9.04-5.2-17.47-11.12-24.41c-4.43-5.2-9.8-9.34-15.96-12.31l-1.04-0.5l0.79-0.84c7.74-8.26,12.01-19.03,12.01-30.31
			c0-19.74-13.27-37.3-32.26-42.69L110.85,25l0.84-1c2.48-2.96,3.79-6.58,3.79-10.46c0-7.54-6.14-13.68-13.68-13.68
			c-3.04,0-5.87,0.98-7.98,2.76c-2.31,1.95-3.58,4.68-3.58,7.7c0,1.71,1.39,3.09,3.09,3.09c1.71,0,3.09-1.39,3.09-3.09
			c0-1.18,0.48-2.21,1.38-2.97c1-0.84,2.41-1.3,3.99-1.3c4.13,0,7.49,3.36,7.49,7.49c0,2.71-1.06,5.25-2.97,7.17
			c-1.92,1.91-4.46,2.97-7.17,2.97l-0.22,0.01c-23.89,0.59-43.3,20.49-43.3,44.36c0,11.29,4.26,22.05,12.01,30.31l0.79,0.84
			l-1.04,0.5c-6.15,2.97-11.52,7.11-15.96,12.31c-5.92,6.93-9.76,15.37-11.12,24.4c-0.81,5.41,0.77,10.89,4.34,15.04
			c0.71,0.82,1.5,1.59,2.36,2.29l0.95,0.77l-1.06,0.61c-4.65,2.7-7.9,7.27-8.92,12.55c-1.02,5.29,0.29,10.76,3.61,15l8.44,10.78
			c3.12,3.99,8.05,6.37,13.17,6.37c2.91,0,5.77-0.77,8.28-2.21c7.15-4.13,10.21-13.01,7.13-20.66l-5.12-12.69
			c-0.32-0.79-0.71-1.58-1.15-2.34l-0.73-1.27h30.36c1.71,0,3.09-1.39,3.09-3.09s-1.39-3.09-3.09-3.09H64.74v-9.15
			c0-1.53,1.25-2.78,2.78-2.78h64.94c1.53,0,2.78,1.25,2.78,2.78v9.35l-0.44,0.24c-3.76,2.06-6.71,5.38-8.31,9.36l-5.12,12.69
			c-3.08,7.65-0.02,16.53,7.12,20.66c2.51,1.45,5.37,2.21,8.28,2.21c5.13,0,10.05-2.38,13.17-6.37l8.44-10.78
			c3.32-4.24,4.64-9.71,3.61-15C161,162.41,157.74,157.84,153.09,155.14z M61.82,68.05C61.82,47,78.95,29.87,100,29.87
			S138.18,47,138.18,68.05s-17.13,38.18-38.18,38.18S61.82,89.1,61.82,68.05z M67.75,166.59l5.12,12.69
			c1.94,4.81,0.01,10.39-4.48,12.99c-1.63,0.94-3.43,1.39-5.21,1.39c-3.14,0-6.24-1.4-8.28-4.01l-8.44-10.78
			c-2.21-2.83-3.09-6.48-2.41-10.01c0.69-3.53,2.87-6.59,5.98-8.39c3.11-1.79,6.84-2.16,10.25-0.98
			C63.69,160.66,66.41,163.25,67.75,166.59z M132.5,128.48c-1.71,0-3.09,1.39-3.09,3.09v4.78H70.62v-4.78
			c0-1.71-1.39-3.09-3.09-3.09s-3.09,1.39-3.09,3.09v5.32l-0.5,0.22c-3.27,1.44-5.37,4.66-5.37,8.22v6.5l-0.93-0.09
			c-3.23-0.32-6.17-1.85-8.28-4.31c-2.4-2.78-3.45-6.46-2.91-10.08c2.27-15.14,12.55-27.95,26.81-33.44l0.43-0.16l0.37,0.27
			c7.6,5.5,16.58,8.41,25.95,8.41s18.35-2.91,25.95-8.41l0.37-0.27l0.43,0.16c14.26,5.49,24.54,18.3,26.81,33.44
			c0.55,3.63-0.51,7.3-2.91,10.08c-2.11,2.46-5.06,3.99-8.28,4.31l-0.93,0.09v-6.5c0-3.54-2.1-6.77-5.35-8.21l-0.5-0.22v-5.33
			C135.59,129.87,134.2,128.48,132.5,128.48z M153.53,178.87l-8.44,10.78c-2.04,2.61-5.14,4.01-8.28,4.01
			c-1.78,0-3.58-0.45-5.21-1.39c-4.49-2.6-6.42-8.18-4.48-12.99l5.12-12.7c1.34-3.34,4.06-5.92,7.47-7.09
			c3.37-1.17,7.16-0.8,10.25,0.98c3.11,1.8,5.29,4.85,5.98,8.39C156.63,172.39,155.75,176.04,153.53,178.87z"/>
	</g>
	<path class="st1" d="M120.4,160.36c0.73-0.73,1.15-1.75,1.15-2.78s-0.42-2.05-1.15-2.79c-0.73-0.73-1.75-1.15-2.79-1.15
		c-1.04,0-2.05,0.42-2.79,1.15c-0.73,0.73-1.15,1.75-1.15,2.79c0,1.04,0.42,2.05,1.15,2.78c0.73,0.74,1.75,1.15,2.79,1.15
		C118.65,161.51,119.67,161.09,120.4,160.36z"/>
	<g>
		<path class="st0" d="M100,85.46c-2.33,0-4.51-1.04-5.98-2.85c-0.52-0.64-1.26-1.04-2.08-1.13c-0.82-0.1-1.63,0.15-2.27,0.67
			c-1.32,1.08-1.53,3.03-0.46,4.35c2.65,3.27,6.58,5.14,10.78,5.14c4.2,0,8.14-1.87,10.78-5.14c1.07-1.33,0.87-3.28-0.46-4.35
			c-0.65-0.52-1.48-0.77-2.27-0.67c-0.82,0.09-1.56,0.49-2.08,1.13"/>
	</g>
	<g>
		<path class="st0" d="M89.45,65.86c-3.25-3.25-8.52-3.24-11.77,0c-1.2,1.21-1.2,3.17,0,4.38c1.21,1.21,3.17,1.21,4.37,0
			c0.42-0.42,0.96-0.62,1.51-0.62s1.09,0.21,1.51,0.62c1.17,1.17,3.21,1.16,4.38,0C90.65,69.03,90.65,67.06,89.45,65.86z"/>
	</g>
	<g>
		<path class="st0" d="M122.32,64.89c-1.62-1.24-3.75-1.86-5.88-1.86c-2.13,0-4.26,0.62-5.89,1.86c-1.2,0.92-1.2,2.43,0,3.35
			c1.17,0.89,3.21,0.89,4.38,0c0.83-0.63,2.18-0.64,3.01,0c1.21,0.93,3.17,0.93,4.38,0C123.52,67.32,123.52,65.82,122.32,64.89z"/>
	</g>
</g>
</svg>
