<?xml version="1.0" encoding="utf-8"?>
<!-- Generator: Adobe Illustrator 23.0.0, SVG Export Plug-In . SVG Version: 6.00 Build 0)  -->
<svg version="1.1" xmlns="http://www.w3.org/2000/svg" xmlns:xlink="http://www.w3.org/1999/xlink" x="0px" y="0px"
	 viewBox="0 0 200 200" style="enable-background:new 0 0 200 200;" xml:space="preserve">
<style type="text/css">
	.st0{fill:#306c88;}
</style>
<g id="_x31_0n3">
	<g>
		<g>
			<path class="st0" d="M24.47,52.35c0-3.13,1.1-5.49,3.29-7.08c2.19-1.59,4.94-2.38,8.24-2.38c2.9,0,5.8,0.75,8.69,2.25v5.7
				c-2.49-1.64-5.16-2.46-8-2.46c-1.78,0-3.29,0.31-4.53,0.92c-1.24,0.62-1.86,1.59-1.86,2.91c0,1.07,0.56,1.91,1.69,2.52
				c1.13,0.61,2.49,1.12,4.09,1.54c1.6,0.42,3.21,0.94,4.83,1.57c1.62,0.63,2.99,1.72,4.12,3.28c1.13,1.55,1.69,3.56,1.69,6.02
				c0,2.6-1.08,4.72-3.24,6.36c-2.16,1.64-4.8,2.46-7.91,2.46c-4.1,0-7.66-0.9-10.67-2.71v-5.88c2.78,2.07,5.89,3.1,9.32,3.1
				c4.45,0,6.67-1.24,6.67-3.72c0-1.12-0.4-2.05-1.21-2.79c-0.81-0.74-1.82-1.29-3.05-1.64c-1.23-0.35-2.55-0.77-3.95-1.25
				c-1.4-0.48-2.72-1.01-3.95-1.57c-1.23-0.57-2.25-1.45-3.05-2.66C24.87,55.63,24.47,54.13,24.47,52.35z"/>
			<path class="st0" d="M50.03,75.59l12.85-32.33h6.39l12.85,32.33h-6.25l-2.96-7.81H59.24l-2.96,7.81H50.03z M61.22,62.55h9.66
				l-4.8-12.69L61.22,62.55z"/>
			<path class="st0" d="M87.47,75.59V43.26h5.82V70.1h15.55v5.49H87.47z"/>
			<path class="st0" d="M114.07,61.91V43.26h5.82v19.15c0,2.84,0.62,4.92,1.85,6.25c1.23,1.33,3.19,1.99,5.87,1.99
				c2.68,0,4.64-0.66,5.88-1.99c1.24-1.32,1.86-3.41,1.86-6.25V43.26h5.82v18.65c0,4.46-1.19,7.92-3.56,10.38
				c-2.37,2.45-5.71,3.68-10.01,3.68c-4.3,0-7.63-1.23-9.99-3.68C115.25,69.84,114.07,66.38,114.07,61.91z"/>
			<path class="st0" d="M149.1,75.59V43.26h11.16c5.01,0,8.8,1.37,11.39,4.12c2.59,2.75,3.88,6.77,3.88,12.07
				c0,5.27-1.29,9.28-3.87,12.02c-2.58,2.75-6.38,4.12-11.4,4.12H149.1z M154.92,70.36h5.32c3.36,0,5.78-0.85,7.25-2.56
				c1.48-1.7,2.21-4.49,2.21-8.35c0-3.9-0.74-6.7-2.21-8.4c-1.48-1.7-3.89-2.56-7.25-2.56h-5.32V70.36z"/>
		</g>
		<g>
			<path class="st0" d="M15.14,142.79V88h9.87v23.18L45.71,88h13.24l-22.1,24.07l24.39,30.73H48.92l-18.41-23.75l-5.5,6.02v17.73
				H15.14z"/>
			<path class="st0" d="M70.26,156.47v-54.79h9.87v54.79H70.26z"/>
			<path class="st0" d="M94.32,142.79V88h18.91c8.49,0,14.92,2.33,19.31,6.98c4.39,4.65,6.58,11.47,6.58,20.46
				c0,8.93-2.19,15.72-6.56,20.38c-4.38,4.65-10.82,6.98-19.33,6.98H94.32z M104.19,133.93h9.03c5.7,0,9.79-1.44,12.29-4.33
				c2.5-2.89,3.75-7.61,3.75-14.16c0-6.61-1.25-11.35-3.75-14.24c-2.5-2.89-6.6-4.33-12.29-4.33h-9.03V133.93z"/>
			<path class="st0" d="M147.15,117.08c0-5.31,1.86-9.31,5.58-12c3.72-2.69,8.37-4.04,13.96-4.04c4.92,0,9.83,1.27,14.72,3.82v9.66
				c-4.23-2.78-8.74-4.17-13.56-4.17c-3.02,0-5.58,0.52-7.68,1.56c-2.1,1.04-3.15,2.69-3.15,4.93c0,1.82,0.96,3.24,2.87,4.27
				c1.91,1.03,4.22,1.9,6.94,2.61c2.71,0.71,5.44,1.6,8.18,2.67c2.74,1.07,5.07,2.92,6.98,5.56c1.91,2.63,2.87,6.04,2.87,10.21
				c0,4.4-1.83,8-5.5,10.78c-3.66,2.78-8.13,4.18-13.4,4.18c-6.95,0-12.98-1.53-18.09-4.59v-9.97c4.71,3.5,9.97,5.25,15.8,5.25
				c7.54,0,11.31-2.1,11.31-6.3c0-1.9-0.68-3.48-2.05-4.73c-1.36-1.26-3.09-2.19-5.18-2.79c-2.09-0.6-4.32-1.31-6.7-2.13
				c-2.38-0.82-4.61-1.7-6.7-2.67c-2.09-0.96-3.81-2.47-5.17-4.51C147.83,122.64,147.15,120.1,147.15,117.08z"/>
		</g>
	</g>
</g>
<g id="Capa_2">
</g>
<g id="Capa_3">
</g>
<g id="Capa_4">
</g>
</svg>
