<?xml version="1.0" encoding="utf-8"?>
<!-- Generator: Adobe Illustrator 23.0.1, SVG Export Plug-In . SVG Version: 6.00 Build 0)  -->
<svg version="1.1" id="Capa_1" xmlns="http://www.w3.org/2000/svg" xmlns:xlink="http://www.w3.org/1999/xlink" x="0px" y="0px"
	 viewBox="0 0 75.78 167.32" style="enable-background:new 0 0 75.78 167.32;" xml:space="preserve">
<style type="text/css">
	.st0{fill:#136380;}
	.st1{fill:#00AFB7;}
	.st2{fill:none;stroke:#344154;stroke-width:3;stroke-linecap:round;stroke-miterlimit:10;}
	.st3{fill:#FF6D3B;}
	.st4{fill:url(#SVGID_1_);}
	.st5{fill:url(#SVGID_2_);}
	.st6{fill:url(#SVGID_3_);}
	.st7{fill:url(#SVGID_4_);}
	.st8{fill:url(#SVGID_5_);}
	.st9{opacity:0.5;fill:url(#SVGID_6_);}
	.st10{fill:url(#SVGID_7_);}
	.st11{fill:#FFFFFF;}
</style>
<g>
	<g>
		<g>
			<path class="st11" d="M37.89,167.32c-0.59,0-1.17-0.2-1.66-0.59l-24.79-20.06c-1.13-0.92-1.31-2.57-0.39-3.7
				c0.91-1.13,2.57-1.31,3.7-0.39l23.14,18.72l23.14-18.72c1.13-0.92,2.79-0.74,3.7,0.39c0.92,1.13,0.74,2.79-0.39,3.7l-24.79,20.06
				C39.06,167.13,38.48,167.32,37.89,167.32z"/>
		</g>
	</g>
	<g>
		<path class="st11" d="M37.89,121.1C17,121.1,0,104.1,0,83.21V37.89C0,17,17,0,37.89,0c20.89,0,37.89,17,37.89,37.89v45.32
			C75.78,104.1,58.78,121.1,37.89,121.1z M37.89,5.27C19.9,5.27,5.27,19.9,5.27,37.89v45.32c0,17.99,14.63,32.62,32.62,32.62
			c17.99,0,32.62-14.63,32.62-32.62V37.89C70.51,19.9,55.88,5.27,37.89,5.27z"/>
	</g>
	<g>
		<path class="st11" d="M37.89,45.9L37.89,45.9c-2.88,0-5.22-2.34-5.22-5.22V28.2c0-2.88,2.34-5.22,5.22-5.22l0,0
			c2.88,0,5.22,2.34,5.22,5.22v12.49C43.11,43.57,40.77,45.9,37.89,45.9z"/>
	</g>
</g>
</svg>
