<?xml version="1.0" encoding="utf-8"?>
<!-- Generator: Adobe Illustrator 23.0.1, SVG Export Plug-In . SVG Version: 6.00 Build 0)  -->
<svg version="1.1" id="Capa_1" xmlns="http://www.w3.org/2000/svg" xmlns:xlink="http://www.w3.org/1999/xlink" x="0px" y="0px"
	 viewBox="0 0 200 200" style="enable-background:new 0 0 200 200;" xml:space="preserve">
<style type="text/css">
	.st0{fill:#136380;}
	.st1{fill:#00AFB7;}
	.st2{fill:none;stroke:#344154;stroke-width:3;stroke-linecap:round;stroke-miterlimit:10;}
	.st3{fill:#FF6D3B;}
	.st4{fill:url(#SVGID_1_);}
	.st5{fill:url(#SVGID_2_);}
	.st6{fill:url(#SVGID_3_);}
	.st7{fill:url(#SVGID_4_);}
	.st8{fill:url(#SVGID_5_);}
	.st9{opacity:0.5;fill:url(#SVGID_6_);}
	.st10{fill:url(#SVGID_7_);}
	.st11{fill:#FFFFFF;}
	.st12{clip-path:url(#SVGID_9_);fill:#FFFFFF;}
	.st13{fill-rule:evenodd;clip-rule:evenodd;fill:#FFFFFF;}
	.st14{fill-rule:evenodd;clip-rule:evenodd;fill:#064627;}
	.st15{fill-rule:evenodd;clip-rule:evenodd;fill:#70AC54;}
	.st16{fill-rule:evenodd;clip-rule:evenodd;fill:#1F1A17;}
	.st17{fill:#666666;}
	.st18{fill:#CCCCCC;}
</style>
<g id="Element_6_">
	<path class="st11" d="M143.69,61.55l0.07-0.41l0.41,0.04c0.13,0.01,0.27,0.03,0.4,0.06c0.13,0.02,0.26,0.05,0.38,0.05
		c3.09,0,5.52-1.7,6.87-4.78c2.71-6.22,0.54-17.61-3.87-20.32c-1.32-0.82-2.88-0.89-4.26-0.24l-0.5,0.24l-0.12-0.53
		C138.05,13.99,121.14,0,100,0C78.89,0,61.99,13.96,56.95,35.57l-0.12,0.51l-0.48-0.21c-1.34-0.57-2.83-0.46-4.09,0.31
		c-4.41,2.71-6.58,14.11-3.87,20.32c1.35,3.08,3.79,4.78,6.87,4.78c0.08,0,0.15-0.02,0.24-0.03c0.12-0.02,0.23-0.04,0.35-0.05
		l0.4-0.02l0.06,0.4c1.99,12.97,7.27,22.2,16.13,28.21c0.07,0.05,0.14,0.1,0.21,0.14c-1.27-2.75-2.15-5.7-2.58-8.79
		c-3.67-3.96-6.21-8.79-7.77-14.76c-3.04-2.79-6.19-8.08-7.33-10.09c-1.12-0.11-1.63-0.9-1.98-1.66
		c-1.85-4.03-0.24-11.42,1.27-13.59l0.3-0.43l0.37,0.36c0.17,0.17,0.39,0.31,0.67,0.44l0.29,0.13l-0.04,0.32
		c-0.25,2.08-0.4,4.19-0.44,6.25l5.11,6.42c-0.11-1.81-0.17-3.59-0.17-5.42l0.02-0.34l0.19-0.21l0.83-0.54
		c4.57-2.94,15.28-9.83,18.28-19.37c0.08-0.26,0.16-0.46,0.22-0.6l0.17-0.38l0.39,0.14c0.46,0.17,1.12,0.5,1.59,0.74
		c1.88,0.96,4.67,2.4,7.35,0.93c1.81-0.98,3.04-2.95,3.87-6.21l0.19-0.73L94,23.09c5.11,4.91,11.49,10.25,11.55,10.3
		c0.76,0.63,1.82,0.76,2.69,0.33c0.89-0.43,1.43-1.34,1.4-2.31l-0.39-11.91l16.63,13.19c0.34,0.27,0.74,0.44,1.16,0.5
		c0.1,0.02,10.25,1.8,12.19,14.26c0.05,0.3,0.15,0.6,0.32,0.88l0.06,0.1l0.01,0.36c0.01,0.11,0.01,0.22,0.01,0.34
		c0,1.65-0.04,3.3-0.13,4.91l5.05-6.34c-0.06-1.99-0.2-3.96-0.43-5.86l-0.04-0.36l0.35-0.11c0.34-0.11,0.62-0.25,0.85-0.43
		l0.36-0.28l0.27,0.37c1.55,2.18,3.1,9.69,1.29,13.61c-0.36,0.78-0.89,1.57-2.06,1.65c-0.66,1.36-3.49,6.88-7.56,10.53
		c-1.57,5.78-4.1,10.48-7.71,14.38c-0.4,3.03-1.24,5.96-2.46,8.7c0.01-0.01,0.03-0.02,0.04-0.03
		C136.39,83.83,141.7,74.57,143.69,61.55z M136.21,32.32c-2.38-1.92-5.16-3.34-7.62-3.89l-0.18-0.09l-20.28-16.08
		c-0.76-0.6-1.79-0.7-2.66-0.27c-0.86,0.43-1.39,1.34-1.36,2.3l0.38,11.61l-0.77-0.68c-3.29-2.9-7.72-6.93-10.08-9.65
		c-0.64-0.73-1.65-1.04-2.63-0.74c-0.94,0.3-1.62,1.13-1.72,2.12c-0.53,5.14-1.4,7.09-1.87,7.8l0.13,0.28l-0.56,0.11
		c-0.51,0.1-1.25-0.25-2.2-0.77l-0.42-0.22c-1.89-0.96-3.99-2.03-6.21-1.08c-1.47,0.62-2.55,2-3.21,4.1
		c-1.52,4.86-5.89,9.68-13.33,14.76l-0.82,0.56l0.13-0.99C63.93,19.66,79.64,4.98,100,4.98c17.39,0,31.19,10.04,36.9,26.86
		l0.49,1.44L136.21,32.32z"/>
	<g>
		<path class="st11" d="M145.81,97.13c-8.65-3.41-12.64-4.98-19.23-5.5c-0.88,1.69-1.91,3.29-3.08,4.79
			c0.06,0.01,0.12,0.02,0.18,0.02c7.47,0.27,10.41,1.42,20.15,5.25c30.68,13.95,45.29,37.39,46.04,73.77l0.01,0.45h-37.01v4.98
			h39.52c1.37,0,2.49-1.12,2.49-2.49C194.87,138.74,178.82,112.15,145.81,97.13z"/>
		<path class="st11" d="M55.42,96.64l-1.39,0.54c-32.9,14.98-48.91,41.55-48.91,81.22c0,1.37,1.12,2.49,2.49,2.49h73.15v-4.98H51.91
			v-23.81c0-1.37-1.12-2.49-2.49-2.49c-1.37,0-2.49,1.12-2.49,2.49v23.81H10.12l0.01-0.45c0.74-36.38,15.31-59.79,45.83-73.69
			l1.27-0.5c5.77-2.25,11.7-4.56,19.25-4.7c0.09,0,0.17-0.01,0.26-0.03c-1.17-1.46-2.23-3.03-3.13-4.69
			C66.67,92.43,61.05,94.45,55.42,96.64z"/>
	</g>
	<g>
		<path class="st11" d="M61.19,56.06c-0.03-0.05-0.09-0.08-0.13-0.13l0.32,0.41C61.32,56.24,61.25,56.16,61.19,56.06z"/>
		<path class="st11" d="M61.04,56.61l-0.33-0.42l0.7-0.54l0.01,0.02c0.03,0.02,0.09,0.07,0.14,0.15l0.08,0.11
			c0.04,0.05,0.08,0.11,0.12,0.17L61.04,56.61z"/>
	</g>
	<g>
		<path class="st11" d="M107.34,106.65c-0.07,0.02-0.14,0.04-0.21,0.06C107.2,106.69,107.27,106.67,107.34,106.65z"/>
		<polygon class="st11" points="107.29,107.12 107.01,106.29 107.24,106.22 107.44,107.08 		"/>
	</g>
	<g>
		<path class="st11" d="M110.23,105.73c-0.18,0.07-0.35,0.14-0.52,0.2C109.88,105.87,110.05,105.79,110.23,105.73z"/>
		<path class="st11" d="M109.85,106.35l-0.3-0.83c0.09-0.03,0.19-0.07,0.28-0.11l0.24-0.09l0.31,0.83l-0.22,0.09
			C110.06,106.27,109.96,106.31,109.85,106.35z"/>
	</g>
	<path class="st11" d="M152.27,175.47v-25.1c0-12.92-10.51-23.44-23.44-23.44h-0.19c-4.35-7.9-8.38-11.97-12.54-12.68
		c-0.42-0.29-0.9-0.51-1.45-0.54c-4.06-0.24-7.34-2.18-9.77-5.76c-0.15-0.22-0.26-0.47-0.4-0.7c0.09-0.01,0.18-0.04,0.27-0.05
		c0.8-0.13,1.6-0.29,2.38-0.48c0.07-0.02,0.14-0.04,0.21-0.06c0.8-0.21,1.59-0.45,2.37-0.72c0.18-0.06,0.35-0.14,0.52-0.2
		c0.63-0.24,1.26-0.49,1.87-0.77c10.43-4.83,17.62-15.76,17.62-27.97c0-1.01-0.05-2.01-0.15-3c-0.12-1.05-0.28-2.09-0.5-3.11
		c0.01,0,0.02-0.01,0.04-0.01c1.49-0.4,3.18-1.09,4.95-2.14c1.03-0.61,2.09-1.32,3.17-2.24c-0.01,0.03-0.02,0.05-0.03,0.08
		c4.31-3.81,7.22-9.76,7.67-10.72c-0.02,0-0.04,0.01-0.06,0.01c0.16-2.16,0.25-4.4,0.25-6.73c0-0.44-0.04-0.86-0.05-1.29l-6.03,7.57
		c-0.55,0.77-2.32,3.16-2.32,3.16c-3.52,4.54-7.04,6.13-9.23,6.69c-0.04,0.01-0.08,0.03-0.12,0.04
		c-4.57-10.78-15.09-18.34-27.32-18.34c-12.08,0-22.49,7.39-27.14,17.96c-0.04-0.01-0.08-0.03-0.12-0.04
		c-2.62-0.84-7.08-2.86-10.49-7.34c-0.29-0.38-0.58-0.78-0.86-1.2l-0.32-0.41c0,0,0,0,0,0v0l-6.09-7.66c0,0.29-0.03,0.57-0.03,0.85
		c0,2.31,0.09,4.51,0.25,6.64c1.07,1.92,4.36,7.54,7.51,10.38c0.3,0.23,0.59,0.4,0.89,0.61c2.73,1.89,5.36,3.06,7.35,3.7
		c0.03,0.01,0.06,0.02,0.09,0.03c-0.5,2.19-0.78,4.46-0.78,6.81c0,1.18,0.09,2.34,0.23,3.49c1.76,13.74,12.86,25.11,26.61,26.63
		c0.06,0.01,0.11,0.02,0.17,0.02c0.26,0.02,0.51,0.08,0.77,0.09c0.59,1.3,1.24,2.56,2.01,3.7c2.04,3.02,4.66,5.15,7.63,6.55
		c-1.7,1.97-3.06,4.4-4.22,6.43c-0.59,1.04-1.34,2.34-1.86,3.04c-11.42,1.57-20.27,11.28-20.27,23.12v25.1h-0.11v5.86h0.61
		C84.03,191.98,93.47,200,104.76,200h24.07c11.29,0,20.73-8.02,22.94-18.67h0.65v-5.86H152.27z M76.1,77.29
		c0-13.5,10.72-24.48,23.9-24.48c13.18,0,23.9,10.98,23.9,24.48c0,12.76-9.58,23.25-21.76,24.37c-0.12-0.46-0.26-0.92-0.36-1.4
		c8.65-0.92,15.43-8.3,15.43-17.35c0-9.67-7.72-17.53-17.22-17.53s-17.22,7.86-17.22,17.53c0,8.17,5.55,15,12.99,16.93
		c0.08,0.52,0.13,1.05,0.24,1.55C84.73,99.45,76.1,89.4,76.1,77.29z M97.22,81.99c-1.25,3.76-1.88,7.68-1.93,11.51
		c-3.91-1.85-6.65-5.88-6.65-10.59c0-6.44,5.1-11.67,11.36-11.67c6.26,0,11.36,5.23,11.36,11.67c0,6.02-4.48,10.93-10.18,11.55
		c-0.04-3.53,0.46-7.18,1.6-10.62c0.51-1.54-0.32-3.19-1.86-3.71C99.38,79.63,97.73,80.46,97.22,81.99z M114.77,119.95
		c0,0,0.01,0,0.02,0c0.7,0.01,3.1,0.59,7.09,6.98h-13.23C110.26,124.09,112.65,119.95,114.77,119.95z M146.42,176.56
		c0,9.7-7.89,17.58-17.58,17.58h-24.07c-9.7,0-17.58-7.89-17.58-17.58v-26.19c0-8.83,6.57-16.09,15.06-17.32
		c0.14,0.02,0.27,0.12,0.41,0.12c0.41,0,0.82-0.08,1.21-0.26c0.01-0.01,0.02-0.02,0.03-0.02c0.29-0.01,0.57-0.09,0.87-0.09h24.07
		c9.7,0,17.58,7.89,17.58,17.58V176.56z"/>
</g>
</svg>
