<?xml version="1.0" encoding="utf-8"?>
<!-- Generator: Adobe Illustrator 23.0.1, SVG Export Plug-In . SVG Version: 6.00 Build 0)  -->
<svg version="1.1" id="Capa_1" xmlns="http://www.w3.org/2000/svg" xmlns:xlink="http://www.w3.org/1999/xlink" x="0px" y="0px"
	 viewBox="0 0 200 200" style="enable-background:new 0 0 200 200;" xml:space="preserve">
<style type="text/css">
	.st0{fill:#136380;}
	.st1{fill:#00AFB7;}
	.st2{fill:none;stroke:#344154;stroke-width:3;stroke-linecap:round;stroke-miterlimit:10;}
	.st3{fill:#FF6D3B;}
	.st4{fill:url(#SVGID_1_);}
	.st5{fill:url(#SVGID_2_);}
	.st6{fill:url(#SVGID_3_);}
	.st7{fill:url(#SVGID_4_);}
	.st8{fill:url(#SVGID_5_);}
	.st9{opacity:0.5;fill:url(#SVGID_6_);}
	.st10{fill:url(#SVGID_7_);}
	.st11{fill:#FFFFFF;}
	.st12{clip-path:url(#SVGID_9_);fill:#FFFFFF;}
	.st13{fill-rule:evenodd;clip-rule:evenodd;fill:#FFFFFF;}
	.st14{fill-rule:evenodd;clip-rule:evenodd;fill:#064627;}
	.st15{fill-rule:evenodd;clip-rule:evenodd;fill:#70AC54;}
	.st16{fill-rule:evenodd;clip-rule:evenodd;fill:#1F1A17;}
</style>
<g>
	<path class="st0" d="M187.79,129.06h-4.26c2.39-2.28,4.06-5.22,4.79-8.52c0.97-4.39,0.17-8.89-2.24-12.68
		c-2.42-3.79-6.16-6.41-10.55-7.38c-4.39-0.97-8.89-0.17-12.68,2.24c-3.79,2.42-6.41,6.16-7.38,10.55
		c-0.97,4.39-0.17,8.89,2.24,12.68c0.74,1.15,1.61,2.18,2.57,3.11h-12.61c1.17-1.71,1.8-3.74,1.81-5.9l0.01-7.2
		c0.01-6.07-4.87-11.02-10.87-11.03H88.06h-0.03h-2.32l0,0.13c-6.87,0.61-12.02,3.97-15.01,9.87H21.49c-4.88,0-8.85,3.97-8.85,8.85
		v5.28h-0.44C5.48,129.06,0,134.54,0,141.27v21.2v4.67v29.8h13.32c4.92,0,8.92-4,8.92-8.92v-20.88h155.53v20.88
		c0,4.92,4,8.92,8.92,8.92H200v-29.8v-4.67v-21.2C200,134.54,194.52,129.06,187.79,129.06z M160.03,114.29
		c0.7-3.17,2.59-5.88,5.33-7.62c1.98-1.26,4.22-1.91,6.51-1.91c0.88,0,1.76,0.1,2.65,0.29c3.17,0.7,5.88,2.59,7.62,5.33
		c3.6,5.65,1.94,13.18-3.71,16.78c-5.65,3.6-13.18,1.94-16.78-3.71C159.91,120.71,159.33,117.46,160.03,114.29z M17.32,123.78
		c0-2.3,1.87-4.18,4.18-4.18h52.25l0.6-1.43c2.15-5.09,5.88-7.87,11.39-8.46l0.08,19.34H17.32V123.78z M17.57,188.02
		c0,2.34-1.9,4.25-4.25,4.25H4.67v-25.13h12.9V188.02z M195.33,192.27h-8.65c-2.34,0-4.25-1.9-4.25-4.25v-20.88h12.9V192.27z
		 M177.76,162.47H22.24H4.67v-21.2c0-4.16,3.38-7.54,7.54-7.54h0.44h2.33h70.84h4.67h18.62c0.13,3.5,1.45,6.93,3.77,9.7
		c3.02,3.6,7.43,5.78,12.11,5.97l20.24,0.84c0.03,0,0.07,0,0.1,0c1.25,0,2.28-0.98,2.33-2.24c0.05-1.29-0.95-2.38-2.24-2.43
		l-20.24-0.84c-3.37-0.14-6.55-1.71-8.72-4.3c-2.1-2.5-3.02-5.6-2.6-8.73l0.36-2.65H90.48L90.4,109.6h48.22
		c3.36,0,6.2,2.92,6.2,6.36l-0.01,7.2c0,1.62-0.63,3.11-1.78,4.2c-1.16,1.1-2.73,1.7-4.42,1.7h-0.01h-10.81
		c-1.29,0-2.33,1.05-2.33,2.33c0,1.29,1.05,2.33,2.33,2.33h10.81h0.02h33.23c0.03,0,0.06,0,0.08,0c0.02,0,0.04,0,0.06,0h15.8
		c4.16,0,7.54,3.38,7.54,7.54v21.2H177.76z"/>
	<path class="st0" d="M111.38,38.96c3.3,0,6.64-0.91,9.63-2.81c8.35-5.33,10.8-16.45,5.48-24.79c-5.32-8.34-16.44-10.81-24.79-5.48
		c-4.04,2.58-6.84,6.58-7.87,11.26c-1.03,4.68-0.18,9.49,2.4,13.53C99.64,36.03,105.45,38.96,111.38,38.96z M98.38,18.14
		c0.76-3.46,2.83-6.42,5.83-8.33c2.21-1.41,4.68-2.08,7.12-2.08c4.39,0,8.69,2.17,11.22,6.13c1.91,2.99,2.54,6.55,1.77,10.01
		c-0.77,3.46-2.84,6.42-5.83,8.33c-6.18,3.94-14.4,2.12-18.34-4.05C98.24,25.16,97.61,21.61,98.38,18.14z"/>
	<path class="st0" d="M78.32,95.73c0.35,0.93,1.24,1.51,2.18,1.51c0.27,0,0.55-0.05,0.82-0.15c1.21-0.45,1.82-1.8,1.36-3.01
		l-3.65-9.67c-1.33-3.53-0.78-7.45,1.47-10.47l10.73-14.39V94.9c0,1.29,1.05,2.33,2.33,2.33s2.33-1.05,2.33-2.33v-39.6
		c0-3.51,2.85-6.36,6.36-6.36h18.16c3.51,0,6.36,2.85,6.36,6.36v39.6c0,1.29,1.05,2.33,2.33,2.33c1.29,0,2.33-1.05,2.33-2.33V59.54
		l10.73,14.39c2.25,3.03,2.81,6.94,1.47,10.47l-3.65,9.67c-0.46,1.21,0.15,2.55,1.36,3.01c0.27,0.1,0.55,0.15,0.82,0.15
		c0.94,0,1.83-0.58,2.18-1.51l3.65-9.67c1.9-5.03,1.11-10.6-2.1-14.91l-16.16-21.68c-1.95-3.12-5.41-5.2-9.35-5.2h-18.16
		c-3.94,0-7.4,2.08-9.35,5.2L76.77,71.14c-3.21,4.31-3.99,9.88-2.1,14.91L78.32,95.73z"/>
	<path class="st1" d="M97.43,116.61l0.02,5.45h12.62h1.48h10.68c0,0,1.16-2.98,3.94-5.45H97.43z"/>
	<polygon class="st1" points="103.64,83.15 111.35,89.23 119.06,83.15 119.06,76.41 119.06,56.67 103.64,56.67 103.64,76.41 	"/>
</g>
</svg>
