<?xml version="1.0" encoding="utf-8"?>
<!-- Generator: Adobe Illustrator 23.0.1, SVG Export Plug-In . SVG Version: 6.00 Build 0)  -->
<svg version="1.1" id="Capa_1" xmlns="http://www.w3.org/2000/svg" xmlns:xlink="http://www.w3.org/1999/xlink" x="0px" y="0px"
	 viewBox="0 0 200 200" style="enable-background:new 0 0 200 200;" xml:space="preserve">
<style type="text/css">
	.st0{fill:#136380;}
	.st1{fill:#00AFB7;}
	.st2{fill:none;stroke:#344154;stroke-width:3;stroke-linecap:round;stroke-miterlimit:10;}
	.st3{fill:#FF6D3B;}
	.st4{fill:url(#SVGID_1_);}
	.st5{fill:url(#SVGID_2_);}
	.st6{fill:url(#SVGID_3_);}
	.st7{fill:url(#SVGID_4_);}
	.st8{fill:url(#SVGID_5_);}
	.st9{opacity:0.5;fill:url(#SVGID_6_);}
	.st10{fill:url(#SVGID_7_);}
	.st11{fill:#FFFFFF;}
	.st12{clip-path:url(#SVGID_9_);fill:#FFFFFF;}
	.st13{fill-rule:evenodd;clip-rule:evenodd;fill:#FFFFFF;}
	.st14{fill-rule:evenodd;clip-rule:evenodd;fill:#064627;}
	.st15{fill-rule:evenodd;clip-rule:evenodd;fill:#70AC54;}
	.st16{fill-rule:evenodd;clip-rule:evenodd;fill:#1F1A17;}
	.st17{fill:#666666;}
	.st18{fill:#CCCCCC;}
	.st19{fill:none;stroke:#136380;stroke-width:5;stroke-miterlimit:10;}
	.st20{fill:#00247D;}
	.st21{fill:#EEEEEE;}
	.st22{fill:#CF1B2B;}
	.st23{fill:#D80027;}
	.st24{fill:#6DA544;}
	.st25{fill:#FFDA44;}
	.st26{fill:#F0F0F0;}
	.st27{fill:#0052B4;}
	.st28{fill:#F5F5F5;}
	.st29{fill:#FF4B55;}
	.st30{fill:#41479B;}
</style>
<g>
	<rect class="st28" width="199.82" height="200"/>
	<g>
		<rect class="st29" width="200" height="15.38"/>
		<rect y="61.54" class="st29" width="200" height="15.38"/>
		<rect y="30.77" class="st29" width="200" height="15.38"/>
		<rect y="92.31" class="st29" width="200" height="15.38"/>
		<rect y="153.84" class="st29" width="200" height="15.38"/>
		<rect y="184.61" class="st29" width="200" height="15.38"/>
		<rect y="123.08" class="st29" width="200" height="15.38"/>
	</g>
	<rect class="st30" width="107.59" height="107.69"/>
	<g>
		<path class="st28" d="M13.76,8.05l0.83,2.49l2.62,0.02c0.34,0,0.48,0.44,0.21,0.64l-2.11,1.56l0.79,2.5
			c0.1,0.32-0.27,0.59-0.54,0.39l-2.13-1.53l-2.13,1.53c-0.28,0.2-0.64-0.07-0.54-0.39l0.79-2.5l-2.11-1.56
			c-0.27-0.2-0.13-0.63,0.21-0.64l2.62-0.02l0.83-2.49C13.19,7.72,13.65,7.72,13.76,8.05z"/>
		<path class="st28" d="M13.76,28.8l0.83,2.49l2.62,0.02c0.34,0,0.48,0.44,0.21,0.64l-2.11,1.56l0.79,2.5
			c0.1,0.32-0.27,0.59-0.54,0.39l-2.13-1.53l-2.13,1.53c-0.28,0.2-0.64-0.07-0.54-0.39l0.79-2.5l-2.11-1.56
			c-0.27-0.2-0.13-0.63,0.21-0.64l2.62-0.02l0.83-2.49C13.19,28.48,13.65,28.48,13.76,28.8z"/>
		<path class="st28" d="M13.76,51.82l0.83,2.49l2.62,0.02c0.34,0,0.48,0.44,0.21,0.64l-2.11,1.56l0.79,2.5
			c0.1,0.32-0.27,0.59-0.54,0.39l-2.13-1.53l-2.13,1.53c-0.28,0.2-0.64-0.07-0.54-0.39l0.79-2.5l-2.11-1.56
			c-0.27-0.2-0.13-0.64,0.21-0.64l2.62-0.02l0.83-2.49C13.19,51.5,13.65,51.5,13.76,51.82z"/>
		<path class="st28" d="M13.76,72.97l0.83,2.49l2.62,0.02c0.34,0,0.48,0.44,0.21,0.64l-2.11,1.56l0.79,2.5
			c0.1,0.32-0.27,0.59-0.54,0.39l-2.13-1.53l-2.13,1.53c-0.28,0.2-0.64-0.07-0.54-0.39l0.79-2.5l-2.11-1.56
			c-0.27-0.2-0.13-0.63,0.21-0.64l2.62-0.02l0.83-2.49C13.19,72.65,13.65,72.65,13.76,72.97z"/>
		<path class="st28" d="M13.76,92.22l0.83,2.49l2.62,0.02c0.34,0,0.48,0.44,0.21,0.64l-2.11,1.56l0.79,2.5
			c0.1,0.32-0.27,0.59-0.54,0.39l-2.13-1.53l-2.13,1.53c-0.28,0.2-0.64-0.07-0.54-0.39l0.79-2.5l-2.11-1.56
			c-0.27-0.2-0.13-0.64,0.21-0.64l2.62-0.02l0.83-2.49C13.19,91.9,13.65,91.9,13.76,92.22z"/>
		<path class="st28" d="M23.85,17.88l0.83,2.49l2.62,0.02c0.34,0,0.48,0.44,0.21,0.64l-2.11,1.56l0.79,2.5
			c0.1,0.32-0.27,0.59-0.54,0.39l-2.13-1.53l-2.13,1.53c-0.28,0.2-0.64-0.07-0.54-0.39l0.79-2.5l-2.11-1.56
			c-0.27-0.2-0.13-0.63,0.21-0.64l2.62-0.02l0.83-2.49C23.29,17.55,23.74,17.55,23.85,17.88z"/>
		<path class="st28" d="M23.85,40.9l0.83,2.49l2.62,0.02c0.34,0,0.48,0.44,0.21,0.64L25.4,45.6l0.79,2.5
			c0.1,0.32-0.27,0.59-0.54,0.39l-2.13-1.53l-2.13,1.53c-0.28,0.2-0.64-0.07-0.54-0.39l0.79-2.5l-2.11-1.56
			c-0.27-0.2-0.13-0.63,0.21-0.64l2.62-0.02l0.83-2.49C23.29,40.57,23.74,40.57,23.85,40.9z"/>
		<path class="st28" d="M23.85,62.77l0.83,2.49l2.62,0.02c0.34,0,0.48,0.44,0.21,0.64l-2.11,1.56l0.79,2.5
			c0.1,0.32-0.27,0.59-0.54,0.39l-2.13-1.53l-2.13,1.53c-0.28,0.2-0.64-0.07-0.54-0.39l0.79-2.5l-2.11-1.56
			c-0.27-0.2-0.13-0.63,0.21-0.64l2.62-0.02l0.83-2.49C23.29,62.45,23.74,62.45,23.85,62.77z"/>
		<path class="st28" d="M23.85,82.41l0.83,2.49l2.62,0.02c0.34,0,0.48,0.44,0.21,0.64l-2.11,1.56l0.79,2.5
			c0.1,0.32-0.27,0.59-0.54,0.39l-2.13-1.53l-2.13,1.53c-0.28,0.2-0.64-0.07-0.54-0.39l0.79-2.5l-2.11-1.56
			c-0.27-0.2-0.13-0.63,0.21-0.64l2.62-0.02l0.83-2.49C23.29,82.09,23.74,82.09,23.85,82.41z"/>
		<path class="st28" d="M33.94,8.05l0.83,2.49l2.62,0.02c0.34,0,0.48,0.44,0.21,0.64l-2.11,1.56l0.79,2.5
			c0.1,0.32-0.27,0.59-0.54,0.39l-2.13-1.53l-2.13,1.53c-0.28,0.2-0.64-0.07-0.54-0.39l0.79-2.5l-2.11-1.56
			c-0.27-0.2-0.13-0.63,0.21-0.64l2.62-0.02l0.83-2.49C33.38,7.72,33.84,7.72,33.94,8.05z"/>
		<path class="st28" d="M33.94,28.8l0.83,2.49l2.62,0.02c0.34,0,0.48,0.44,0.21,0.64l-2.11,1.56l0.79,2.5
			c0.1,0.32-0.27,0.59-0.54,0.39l-2.13-1.53l-2.13,1.53c-0.28,0.2-0.64-0.07-0.54-0.39l0.79-2.5l-2.11-1.56
			c-0.27-0.2-0.13-0.63,0.21-0.64l2.62-0.02l0.83-2.49C33.38,28.48,33.84,28.48,33.94,28.8z"/>
		<path class="st28" d="M33.94,51.82l0.83,2.49l2.62,0.02c0.34,0,0.48,0.44,0.21,0.64l-2.11,1.56l0.79,2.5
			c0.1,0.32-0.27,0.59-0.54,0.39l-2.13-1.53l-2.13,1.53c-0.28,0.2-0.64-0.07-0.54-0.39l0.79-2.5l-2.11-1.56
			c-0.27-0.2-0.13-0.64,0.21-0.64l2.62-0.02l0.83-2.49C33.38,51.5,33.84,51.5,33.94,51.82z"/>
		<path class="st28" d="M33.94,72.97l0.83,2.49l2.62,0.02c0.34,0,0.48,0.44,0.21,0.64l-2.11,1.56l0.79,2.5
			c0.1,0.32-0.27,0.59-0.54,0.39l-2.13-1.53l-2.13,1.53c-0.28,0.2-0.64-0.07-0.54-0.39l0.79-2.5l-2.11-1.56
			c-0.27-0.2-0.13-0.63,0.21-0.64l2.62-0.02l0.83-2.49C33.38,72.65,33.84,72.65,33.94,72.97z"/>
		<path class="st28" d="M33.94,92.22l0.83,2.49l2.62,0.02c0.34,0,0.48,0.44,0.21,0.64l-2.11,1.56l0.79,2.5
			c0.1,0.32-0.27,0.59-0.54,0.39l-2.13-1.53l-2.13,1.53c-0.28,0.2-0.64-0.07-0.54-0.39l0.79-2.5l-2.11-1.56
			c-0.27-0.2-0.13-0.64,0.21-0.64l2.62-0.02l0.83-2.49C33.38,91.9,33.84,91.9,33.94,92.22z"/>
		<path class="st28" d="M44.04,17.88l0.83,2.49l2.62,0.02c0.34,0,0.48,0.44,0.21,0.64l-2.11,1.56l0.79,2.5
			c0.1,0.32-0.27,0.59-0.54,0.39l-2.13-1.53l-2.13,1.53c-0.28,0.2-0.64-0.07-0.54-0.39l0.79-2.5l-2.11-1.56
			c-0.27-0.2-0.13-0.63,0.21-0.64l2.62-0.02l0.83-2.49C43.48,17.55,43.93,17.55,44.04,17.88z"/>
		<path class="st28" d="M44.04,40.9l0.83,2.49l2.62,0.02c0.34,0,0.48,0.44,0.21,0.64l-2.11,1.56l0.79,2.5
			c0.1,0.32-0.27,0.59-0.54,0.39l-2.13-1.53l-2.13,1.53c-0.28,0.2-0.64-0.07-0.54-0.39l0.79-2.5l-2.11-1.56
			c-0.27-0.2-0.13-0.63,0.21-0.64l2.62-0.02l0.83-2.49C43.48,40.57,43.93,40.57,44.04,40.9z"/>
		<path class="st28" d="M44.04,62.77l0.83,2.49l2.62,0.02c0.34,0,0.48,0.44,0.21,0.64l-2.11,1.56l0.79,2.5
			c0.1,0.32-0.27,0.59-0.54,0.39l-2.13-1.53l-2.13,1.53c-0.28,0.2-0.64-0.07-0.54-0.39l0.79-2.5l-2.11-1.56
			c-0.27-0.2-0.13-0.63,0.21-0.64l2.62-0.02l0.83-2.49C43.48,62.45,43.93,62.45,44.04,62.77z"/>
		<path class="st28" d="M44.04,82.41l0.83,2.49l2.62,0.02c0.34,0,0.48,0.44,0.21,0.64l-2.11,1.56l0.79,2.5
			c0.1,0.32-0.27,0.59-0.54,0.39l-2.13-1.53l-2.13,1.53c-0.28,0.2-0.64-0.07-0.54-0.39l0.79-2.5l-2.11-1.56
			c-0.27-0.2-0.13-0.63,0.21-0.64l2.62-0.02l0.83-2.49C43.48,82.09,43.93,82.09,44.04,82.41z"/>
		<path class="st28" d="M54.13,8.05l0.83,2.49l2.62,0.02c0.34,0,0.48,0.44,0.21,0.64l-2.11,1.56l0.79,2.5
			c0.1,0.32-0.27,0.59-0.54,0.39l-2.13-1.53l-2.13,1.53c-0.28,0.2-0.64-0.07-0.54-0.39l0.79-2.5l-2.11-1.56
			c-0.27-0.2-0.13-0.63,0.21-0.64l2.62-0.02l0.83-2.49C53.57,7.72,54.02,7.72,54.13,8.05z"/>
		<path class="st28" d="M54.13,28.8l0.83,2.49l2.62,0.02c0.34,0,0.48,0.44,0.21,0.64l-2.11,1.56l0.79,2.5
			c0.1,0.32-0.27,0.59-0.54,0.39l-2.13-1.53l-2.13,1.53c-0.28,0.2-0.64-0.07-0.54-0.39l0.79-2.5l-2.11-1.56
			c-0.27-0.2-0.13-0.63,0.21-0.64l2.62-0.02l0.83-2.49C53.57,28.48,54.02,28.48,54.13,28.8z"/>
		<path class="st28" d="M54.13,51.82l0.83,2.49l2.62,0.02c0.34,0,0.48,0.44,0.21,0.64l-2.11,1.56l0.79,2.5
			c0.1,0.32-0.27,0.59-0.54,0.39L53.8,57.9l-2.13,1.53c-0.28,0.2-0.64-0.07-0.54-0.39l0.79-2.5l-2.11-1.56
			c-0.27-0.2-0.13-0.64,0.21-0.64l2.62-0.02l0.83-2.49C53.57,51.5,54.02,51.5,54.13,51.82z"/>
		<path class="st28" d="M54.13,72.97l0.83,2.49l2.62,0.02c0.34,0,0.48,0.44,0.21,0.64l-2.11,1.56l0.79,2.5
			c0.1,0.32-0.27,0.59-0.54,0.39l-2.13-1.53l-2.13,1.53c-0.28,0.2-0.64-0.07-0.54-0.39l0.79-2.5l-2.11-1.56
			c-0.27-0.2-0.13-0.63,0.21-0.64l2.62-0.02l0.83-2.49C53.57,72.65,54.02,72.65,54.13,72.97z"/>
		<path class="st28" d="M54.13,92.22l0.83,2.49l2.62,0.02c0.34,0,0.48,0.44,0.21,0.64l-2.11,1.56l0.79,2.5
			c0.1,0.32-0.27,0.59-0.54,0.39l-2.13-1.53l-2.13,1.53c-0.28,0.2-0.64-0.07-0.54-0.39l0.79-2.5l-2.11-1.56
			c-0.27-0.2-0.13-0.64,0.21-0.64l2.62-0.02l0.83-2.49C53.57,91.9,54.02,91.9,54.13,92.22z"/>
		<path class="st28" d="M64.22,17.88l0.83,2.49l2.62,0.02c0.34,0,0.48,0.44,0.21,0.64l-2.11,1.56l0.79,2.5
			c0.1,0.32-0.27,0.59-0.54,0.39l-2.13-1.53l-2.13,1.53c-0.28,0.2-0.64-0.07-0.54-0.39l0.79-2.5l-2.11-1.56
			c-0.27-0.2-0.13-0.63,0.21-0.64l2.62-0.02l0.83-2.49C63.66,17.55,64.12,17.55,64.22,17.88z"/>
		<path class="st28" d="M64.22,40.9l0.83,2.49l2.62,0.02c0.34,0,0.48,0.44,0.21,0.64l-2.11,1.56l0.79,2.5
			c0.1,0.32-0.27,0.59-0.54,0.39l-2.13-1.53l-2.13,1.53c-0.28,0.2-0.64-0.07-0.54-0.39l0.79-2.5l-2.11-1.56
			c-0.27-0.2-0.13-0.63,0.21-0.64l2.62-0.02l0.83-2.49C63.66,40.57,64.12,40.57,64.22,40.9z"/>
		<path class="st28" d="M64.22,62.77l0.83,2.49l2.62,0.02c0.34,0,0.48,0.44,0.21,0.64l-2.11,1.56l0.79,2.5
			c0.1,0.32-0.27,0.59-0.54,0.39l-2.13-1.53l-2.13,1.53c-0.28,0.2-0.64-0.07-0.54-0.39l0.79-2.5l-2.11-1.56
			c-0.27-0.2-0.13-0.63,0.21-0.64l2.62-0.02l0.83-2.49C63.66,62.45,64.12,62.45,64.22,62.77z"/>
		<path class="st28" d="M64.22,82.41l0.83,2.49l2.62,0.02c0.34,0,0.48,0.44,0.21,0.64l-2.11,1.56l0.79,2.5
			c0.1,0.32-0.27,0.59-0.54,0.39l-2.13-1.53l-2.13,1.53c-0.28,0.2-0.64-0.07-0.54-0.39l0.79-2.5l-2.11-1.56
			c-0.27-0.2-0.13-0.63,0.21-0.64l2.62-0.02l0.83-2.49C63.66,82.09,64.12,82.09,64.22,82.41z"/>
		<path class="st28" d="M74.32,8.05l0.83,2.49l2.62,0.02c0.34,0,0.48,0.44,0.21,0.64l-2.11,1.56l0.79,2.5
			c0.1,0.32-0.27,0.59-0.54,0.39l-2.13-1.53l-2.13,1.53c-0.28,0.2-0.64-0.07-0.54-0.39l0.79-2.5l-2.11-1.56
			c-0.27-0.2-0.13-0.63,0.21-0.64l2.62-0.02l0.83-2.49C73.76,7.72,74.21,7.72,74.32,8.05z"/>
		<path class="st28" d="M74.32,28.8l0.83,2.49l2.62,0.02c0.34,0,0.48,0.44,0.21,0.64l-2.11,1.56l0.79,2.5
			c0.1,0.32-0.27,0.59-0.54,0.39l-2.13-1.53l-2.13,1.53c-0.28,0.2-0.64-0.07-0.54-0.39l0.79-2.5l-2.11-1.56
			c-0.27-0.2-0.13-0.63,0.21-0.64l2.62-0.02l0.83-2.49C73.76,28.48,74.21,28.48,74.32,28.8z"/>
		<path class="st28" d="M74.32,51.82l0.83,2.49l2.62,0.02c0.34,0,0.48,0.44,0.21,0.64l-2.11,1.56l0.79,2.5
			c0.1,0.32-0.27,0.59-0.54,0.39l-2.13-1.53l-2.13,1.53c-0.28,0.2-0.64-0.07-0.54-0.39l0.79-2.5l-2.11-1.56
			c-0.27-0.2-0.13-0.64,0.21-0.64l2.62-0.02l0.83-2.49C73.76,51.5,74.21,51.5,74.32,51.82z"/>
		<path class="st28" d="M74.32,72.97l0.83,2.49l2.62,0.02c0.34,0,0.48,0.44,0.21,0.64l-2.11,1.56l0.79,2.5
			c0.1,0.32-0.27,0.59-0.54,0.39l-2.13-1.53l-2.13,1.53c-0.28,0.2-0.64-0.07-0.54-0.39l0.79-2.5l-2.11-1.56
			c-0.27-0.2-0.13-0.63,0.21-0.64l2.62-0.02l0.83-2.49C73.76,72.65,74.21,72.65,74.32,72.97z"/>
		<path class="st28" d="M74.32,92.22l0.83,2.49l2.62,0.02c0.34,0,0.48,0.44,0.21,0.64l-2.11,1.56l0.79,2.5
			c0.1,0.32-0.27,0.59-0.54,0.39l-2.13-1.53l-2.13,1.53c-0.28,0.2-0.64-0.07-0.54-0.39l0.79-2.5l-2.11-1.56
			c-0.27-0.2-0.13-0.64,0.21-0.64l2.62-0.02l0.83-2.49C73.76,91.9,74.21,91.9,74.32,92.22z"/>
		<path class="st28" d="M84.41,17.88l0.83,2.49l2.62,0.02c0.34,0,0.48,0.44,0.21,0.64l-2.11,1.56l0.79,2.5
			c0.1,0.32-0.27,0.59-0.54,0.39l-2.13-1.53l-2.13,1.53c-0.28,0.2-0.64-0.07-0.54-0.39l0.79-2.5l-2.11-1.56
			c-0.27-0.2-0.13-0.63,0.21-0.64l2.62-0.02l0.83-2.49C83.85,17.55,84.3,17.55,84.41,17.88z"/>
		<path class="st28" d="M84.41,40.9l0.83,2.49l2.62,0.02c0.34,0,0.48,0.44,0.21,0.64l-2.11,1.56l0.79,2.5
			c0.1,0.32-0.27,0.59-0.54,0.39l-2.13-1.53l-2.13,1.53c-0.28,0.2-0.64-0.07-0.54-0.39l0.79-2.5l-2.11-1.56
			c-0.27-0.2-0.13-0.63,0.21-0.64l2.62-0.02l0.83-2.49C83.85,40.57,84.3,40.57,84.41,40.9z"/>
		<path class="st28" d="M84.41,62.77l0.83,2.49l2.62,0.02c0.34,0,0.48,0.44,0.21,0.64l-2.11,1.56l0.79,2.5
			c0.1,0.32-0.27,0.59-0.54,0.39l-2.13-1.53l-2.13,1.53c-0.28,0.2-0.64-0.07-0.54-0.39l0.79-2.5l-2.11-1.56
			c-0.27-0.2-0.13-0.63,0.21-0.64l2.62-0.02l0.83-2.49C83.85,62.45,84.3,62.45,84.41,62.77z"/>
		<path class="st28" d="M84.41,82.41l0.83,2.49l2.62,0.02c0.34,0,0.48,0.44,0.21,0.64l-2.11,1.56l0.79,2.5
			c0.1,0.32-0.27,0.59-0.54,0.39l-2.13-1.53l-2.13,1.53c-0.28,0.2-0.64-0.07-0.54-0.39l0.79-2.5l-2.11-1.56
			c-0.27-0.2-0.13-0.63,0.21-0.64l2.62-0.02l0.83-2.49C83.85,82.09,84.3,82.09,84.41,82.41z"/>
		<path class="st28" d="M94.51,8.05l0.83,2.49l2.62,0.02c0.34,0,0.48,0.44,0.21,0.64l-2.11,1.56l0.79,2.5
			c0.1,0.32-0.27,0.59-0.54,0.39l-2.13-1.53l-2.13,1.53c-0.28,0.2-0.64-0.07-0.54-0.39l0.79-2.5l-2.11-1.56
			c-0.27-0.2-0.13-0.63,0.21-0.64l2.62-0.02l0.83-2.49C93.94,7.72,94.4,7.72,94.51,8.05z"/>
		<path class="st28" d="M94.51,28.8l0.83,2.49l2.62,0.02c0.34,0,0.48,0.44,0.21,0.64l-2.11,1.56l0.79,2.5
			c0.1,0.32-0.27,0.59-0.54,0.39l-2.13-1.53l-2.13,1.53c-0.28,0.2-0.64-0.07-0.54-0.39l0.79-2.5l-2.11-1.56
			c-0.27-0.2-0.13-0.63,0.21-0.64l2.62-0.02l0.83-2.49C93.94,28.48,94.4,28.48,94.51,28.8z"/>
		<path class="st28" d="M94.51,51.82l0.83,2.49l2.62,0.02c0.34,0,0.48,0.44,0.21,0.64l-2.11,1.56l0.79,2.5
			c0.1,0.32-0.27,0.59-0.54,0.39l-2.13-1.53l-2.13,1.53c-0.28,0.2-0.64-0.07-0.54-0.39l0.79-2.5l-2.11-1.56
			c-0.27-0.2-0.13-0.64,0.21-0.64l2.62-0.02l0.83-2.49C93.94,51.5,94.4,51.5,94.51,51.82z"/>
		<path class="st28" d="M94.51,72.97l0.83,2.49l2.62,0.02c0.34,0,0.48,0.44,0.21,0.64l-2.11,1.56l0.79,2.5
			c0.1,0.32-0.27,0.59-0.54,0.39l-2.13-1.53l-2.13,1.53c-0.28,0.2-0.64-0.07-0.54-0.39l0.79-2.5l-2.11-1.56
			c-0.27-0.2-0.13-0.63,0.21-0.64l2.62-0.02l0.83-2.49C93.94,72.65,94.4,72.65,94.51,72.97z"/>
		<path class="st28" d="M94.51,92.22l0.83,2.49l2.62,0.02c0.34,0,0.48,0.44,0.21,0.64l-2.11,1.56l0.79,2.5
			c0.1,0.32-0.27,0.59-0.54,0.39l-2.13-1.53l-2.13,1.53c-0.28,0.2-0.64-0.07-0.54-0.39l0.79-2.5l-2.11-1.56
			c-0.27-0.2-0.13-0.64,0.21-0.64l2.62-0.02l0.83-2.49C93.94,91.9,94.4,91.9,94.51,92.22z"/>
	</g>
</g>
</svg>
