<svg version="1.1" id="Vrstva_1" xmlns="http://www.w3.org/2000/svg" xmlns:xlink="http://www.w3.org/1999/xlink" x="0px" y="0px"
	 width="200px" height="200px" viewBox="0 0 200 200" enable-background="new 0 0 200 200" xml:space="preserve">
<path fill="#fff" d="M199.956,105.557l-27.479-64.232c0.547-1.453,0.858-3.015,0.858-4.657c0-7.368-5.977-13.332-13.337-13.332
	c-4.46,0-8.395,2.191-10.812,5.557h-30.754c-3.037-7.188-10.154-12.226-18.436-12.226c-8.287,0-15.395,5.038-18.432,12.226H50.817
	c-2.422-3.366-6.366-5.557-10.821-5.557c-7.36,0-13.327,5.964-13.327,13.332c0,1.643,0.312,3.205,0.854,4.657L0.049,105.557H0
	c0,20.858,17.914,37.778,40.001,37.778c22.097,0,39.996-16.92,39.996-37.778h-0.039L53.815,44.444h27.756
	c1.526,3.617,4.095,6.688,7.317,8.852v98.927H48.893v8.89c0,12.22,9.997,22.221,22.223,22.221h57.774
	c12.226,0,22.223-10.001,22.223-22.221v-8.89h-40.001V53.292c3.223-2.164,5.791-5.233,7.317-8.847h27.751l-26.177,61.112l0,0v0.005
	l-0.015,0.029l0.015,0.005c0.024,20.844,17.924,37.739,40.001,37.739c22.097,0,39.996-16.92,39.996-37.778H199.956z M12.133,105.557
	l24.008-56.126c1.224,0.368,2.515,0.565,3.855,0.565c1.346,0,2.637-0.205,3.86-0.573l24.013,56.133H12.133z M132.087,105.557
	l24.052-56.133c1.219,0.368,2.515,0.573,3.86,0.573s2.637-0.205,3.86-0.573l24.013,56.133H132.087z"/>
</svg>
