<svg version="1.1" id="Vrstva_1" xmlns="http://www.w3.org/2000/svg" xmlns:xlink="http://www.w3.org/1999/xlink" x="0px" y="0px"
	 width="200px" height="200px" viewBox="0 0 200 200" enable-background="new 0 0 200 200" xml:space="preserve">
<path fill="#00aeb6" d="M183.341,75.246C183.341,33.686,149.694,0,108.178,0S33.025,33.686,33.025,75.246
	c0,2.775,0.157,5.52,0.438,8.215c-5.551,11.287-15.807,31.37-15.979,31.735c-0.527,1.191-0.825,2.507-0.825,3.896
	c0,5.264,4.272,9.541,9.521,9.541h9.556l-0.057,27.197c0,7.321,5.933,13.264,13.248,13.264l27.475-0.01L85.597,200l89.493-27.213
	l-13.536-44.607C175.006,114.586,183.341,95.9,183.341,75.246z M123.792,123.798H92.814v-16.669h30.978V123.798z M124.581,95.231
	H92.025c-3.582-10.397-18.225-12.917-18.225-33.158c0-17.23,15.107-33.503,34.518-33.503c19.417,0,34.52,16.272,34.52,33.503
	C142.838,82.314,128.163,84.834,124.581,95.231z"/>
</svg>
