<?xml version="1.0" encoding="utf-8"?>
<!-- Generator: Adobe Illustrator 24.1.1, SVG Export Plug-In . SVG Version: 6.00 Build 0)  -->
<svg version="1.1" xmlns="http://www.w3.org/2000/svg" xmlns:xlink="http://www.w3.org/1999/xlink" x="0px" y="0px"
	 viewBox="0 0 500 500" style="enable-background:new 0 0 500 500;" xml:space="preserve">
<style type="text/css">
	.st0{fill:#FFFFFF;}
	.st1{fill:#00AFB7;}
	.st2{fill:#093833;}
	.st3{fill:#36B6E9;}
	.st4{fill:#282828;}
	.st5{fill-rule:evenodd;clip-rule:evenodd;fill:#00AFB7;}
	.st6{fill:none;stroke:#13B7AB;stroke-miterlimit:10;}
	.st7{fill-rule:evenodd;clip-rule:evenodd;fill:none;stroke:#114477;stroke-miterlimit:10;}
	.st8{fill-rule:evenodd;clip-rule:evenodd;fill:none;stroke:#13B7AB;stroke-miterlimit:10;}
	.st9{fill:#336699;}
	.st10{fill:#114477;}
	.st11{clip-path:url(#SVGID_6_);}
	.st12{fill:none;stroke:#FFFFFF;stroke-width:2;stroke-miterlimit:10;}
	.st13{fill:#0A443E;}
	.st14{clip-path:url(#SVGID_16_);fill:#0A443E;}
	.st15{fill-rule:evenodd;clip-rule:evenodd;fill:#0A443E;}
	.st16{fill-rule:evenodd;clip-rule:evenodd;fill:#064627;}
	.st17{fill-rule:evenodd;clip-rule:evenodd;fill:#70AC54;}
	.st18{fill-rule:evenodd;clip-rule:evenodd;fill:#1F1A17;}
	.st19{fill:#136380;}
	.st20{fill:none;stroke:#344154;stroke-width:3;stroke-linecap:round;stroke-miterlimit:10;}
	.st21{fill:#FF6D3B;}
	.st22{fill:none;stroke:#344154;stroke-width:1.5;stroke-miterlimit:10;}
	.st23{opacity:0.75;}
	.st24{fill:none;stroke:#00AFB7;stroke-width:3;stroke-miterlimit:10;}
	.st25{fill:#10C626;}
	.st26{fill:#00CC33;}
</style>
<g id="guias">
</g>
<g id="Capa_2">
	<g>
		<path class="st2" d="M179.69,144.17c-3.61,0-9.44,1.35-14.43,6.76c-4.94,5.34-18.96,18.34-18.96,44.77
			c0,26.45,19.39,51.96,22.15,55.54c2.68,3.61,37.45,59.6,92.46,81.12c31.89,12.48,45.32,15.31,52.88,15.31
			c5.51,0,7.92-1.5,12.1-1.88c9.9-0.88,32.02-13.03,36.55-25.55c4.51-12.53,4.51-23.32,3.13-25.55c-1.38-2.23-4.96-3.61-10.35-6.29
			c-5.41-2.63-32.07-15.66-37-17.46c-2.15-0.78-4.06-1.4-5.81-1.4c-2.3,0-4.36,1.05-6.39,4.08c-3.61,5.39-14,17.46-17.14,21.07
			c-1.78,2.05-3.61,3.08-5.81,3.08c-1.65,0-3.58-0.58-5.89-1.75c-5.46-2.63-22.9-8.34-43.56-26.6
			c-16.08-14.25-26.96-31.84-30.14-37.23c-3.16-5.34-0.33-8.27,2.4-10.92c2.43-2.48,5.39-6.31,8.14-9.44
			c2.71-3.13,3.61-5.36,5.39-8.94s0.9-6.74-0.48-9.42c-1.33-2.68-12.15-29.11-16.71-39.88c-3.36-8.02-6.74-9.04-9.54-9.04
			c-0.95,0-1.85,0.13-2.66,0.13C186.93,144.65,183.35,144.17,179.69,144.17L179.69,144.17z"/>
		<path class="st2" d="M25.05,500c-6.61,0-13.1-2.61-17.89-7.52c-6.61-6.76-8.87-16.63-5.84-25.58l36.2-106.87
			c-19.24-35.4-29.34-75.2-29.34-115.81C8.19,109.55,118.49,0,254.07,0C389.67,0,500,109.55,500,244.23
			c0,134.65-110.33,244.18-245.93,244.18c-37.9,0-75.38-8.72-109.07-25.25L32.64,498.82C30.14,499.63,27.58,500,25.05,500z
			 M147.3,411.09c4.18,0,8.34,1.05,12.05,3.08c28.76,15.81,61.5,24.15,94.67,24.15c108,0,195.83-87.08,195.83-194.07
			c0-107.02-87.86-194.12-195.83-194.12c-107.95,0-195.78,87.1-195.78,194.12c0,35.42,9.67,70.04,27.98,100.11
			c3.86,6.34,4.71,14.08,2.33,21.09L64.61,436.1l75.08-23.82C142.22,411.47,144.77,411.09,147.3,411.09z"/>
	</g>
</g>
</svg>
