<?xml version="1.0" encoding="utf-8"?>
<!-- Generator: Adobe Illustrator 23.0.1, SVG Export Plug-In . SVG Version: 6.00 Build 0)  -->
<svg version="1.1" id="Capa_1" xmlns="http://www.w3.org/2000/svg" xmlns:xlink="http://www.w3.org/1999/xlink" x="0px" y="0px"
	 viewBox="0 0 200 200" style="enable-background:new 0 0 200 200;" xml:space="preserve">
<style type="text/css">
	.st0{fill:#FFFFFF;stroke:#344154;stroke-width:3;stroke-linecap:round;stroke-miterlimit:10;}
	.st1{fill:#FFFFFF;}
	.st2{fill:url(#SVGID_1_);}
	.st3{fill:url(#SVGID_2_);}
	.st4{fill:url(#SVGID_3_);}
	.st5{fill:url(#SVGID_4_);}
	.st6{fill:url(#SVGID_5_);}
	.st7{opacity:0.5;fill:url(#SVGID_6_);}
	.st8{fill:url(#SVGID_7_);}
	.st9{clip-path:url(#SVGID_9_);fill:#FFFFFF;}
	.st10{fill-rule:evenodd;clip-rule:evenodd;fill:#FFFFFF;}
	.st11{fill-rule:evenodd;clip-rule:evenodd;fill:#064627;}
	.st12{fill-rule:evenodd;clip-rule:evenodd;fill:#70AC54;}
	.st13{fill-rule:evenodd;clip-rule:evenodd;fill:#1F1A17;}
</style>
<g>
	<polygon class="st1" points="17.14,82.38 24.13,82.38 20.63,73.49 	"/>
	<path class="st1" d="M103.81,74.76c-0.63-0.32-1.59-0.32-2.54-0.32h-6.35v5.08h6.35c0.95,0,1.9,0,2.54-0.32
		c0.63-0.32,0.95-1.27,0.95-2.22C105.08,75.71,104.44,75.08,103.81,74.76z"/>
	<path class="st1" d="M171.75,65.24v3.81l-1.9-3.81h-14.92v3.81l-1.9-3.81H132.7c-3.49,0-6.35,0.63-8.89,1.9v-1.9h-14.29v1.9
		c-1.59-1.27-3.49-1.9-6.03-1.9H52.38l-3.49,7.94l-3.49-7.94H29.21v3.81l-1.9-3.81H13.65L7.3,80.16L0,96.67h7.3h8.89l1.9-5.08h4.44
		l1.9,5.08h18.41v-3.81l1.59,3.81h9.21l1.59-3.81v3.81h44.13v-8.25H100c0.63,0,0.63,0,0.63,0.95v6.98h22.86v-1.9
		c1.9,0.95,4.76,1.9,8.57,1.9h9.52l1.9-5.08h4.44l1.9,5.08h18.41v-4.76l2.86,4.76h14.92V65.24H171.75L171.75,65.24z M64.44,91.9
		h-5.4V74.44L51.43,91.9h-4.76l-7.62-17.46V91.9H28.25l-2.22-4.76H15.24l-1.9,5.08H7.3l9.52-22.54h7.94l8.89,21.27V69.68h8.57
		l6.98,15.24l6.35-15.24h8.89V91.9z M86.03,74.44H73.65v4.13h12.06v4.44H73.65v4.44h12.38v4.76H68.25V69.68h17.78V74.44z
		 M109.84,83.65c0.63,1.27,0.95,2.22,0.95,4.13v4.44h-5.4v-2.86c0-1.27,0-3.17-0.95-4.44c-0.95-0.95-1.9-0.95-3.81-0.95h-5.71v8.25
		h-5.4V69.68h12.06c2.86,0,4.76,0,6.35,0.95s2.54,2.54,2.54,5.08c0,3.49-2.22,5.4-3.81,6.03C108.25,82.06,109.21,83.02,109.84,83.65
		z M119.37,91.9h-5.4V69.37h5.4V91.9z M181.9,91.9h-7.62l-10.16-16.83V91.9h-10.79l-1.9-4.76h-11.11l-1.9,5.08h-6.03
		c-2.54,0-5.71-0.63-7.62-2.54c-1.9-1.9-2.86-4.44-2.86-8.57c0-3.17,0.63-6.35,2.86-8.89c1.59-1.9,4.44-2.54,7.94-2.54h5.08v4.76
		h-5.08c-1.9,0-2.86,0.32-4.13,1.27c-0.95,0.95-1.59,2.86-1.59,5.08c0,2.54,0.32,4.13,1.59,5.4c0.95,0.95,2.22,1.27,3.81,1.27h2.22
		L141.9,70h7.94l8.89,21.27V70h7.94l9.21,15.56V70h5.4v21.9L181.9,91.9L181.9,91.9z"/>
	<g>
		<polygon class="st1" points="142.22,82.38 149.52,82.38 146.03,73.49 		"/>
		<polygon class="st1" points="88.25,128.1 88.25,110 80,118.89 		"/>
	</g>
	<polygon class="st1" points="54.29,112.22 54.29,116.35 66.03,116.35 66.03,120.79 54.29,120.79 54.29,125.56 67.3,125.56 
		73.33,118.89 67.62,112.22 	"/>
	<path id="SVGCleanerId_0" class="st1" d="M100.32,112.22h-6.67v5.71h6.98c1.9,0,3.17-0.95,3.17-2.86
		C103.49,113.17,102.22,112.22,100.32,112.22z"/>
	<path class="st1" d="M198.41,117.62v-14.29h-3.81h-9.52c-2.86,0-5.08,0.63-6.67,1.9v-1.9h-14.6c-2.22,0-5.08,0.63-6.35,1.9v-1.9
		h-25.71v1.9c-1.9-1.59-5.4-1.9-6.98-1.9h-17.14v1.9c-1.59-1.59-5.4-1.9-7.3-1.9H81.27l-4.44,4.76l-4.13-4.76H44.13v31.11h27.94
		l4.44-4.76l4.13,4.76h17.14v-7.3H100c2.22,0,5.08,0,7.3-0.95v8.57h14.29v-8.25h0.63c0.95,0,0.95,0,0.95,0.95v7.3h43.17
		c2.86,0,5.71-0.63,7.3-1.9v1.9h13.65c2.86,0,5.71-0.32,7.62-1.59l0,0c3.17-1.9,5.08-5.4,5.08-9.52
		C200,121.43,199.37,119.21,198.41,117.62z M100,122.7h-6.35v7.62H83.49l-6.35-7.3l-6.67,7.3H49.52v-22.54h21.27l6.35,7.3l6.67-7.3
		h16.83c4.13,0,8.89,1.27,8.89,7.3C109.21,121.43,104.76,122.7,100,122.7z M131.75,121.43c0.63,0.95,0.95,2.22,0.95,4.13V130h-5.4
		v-2.86c0-1.27,0-3.49-0.95-4.44c-0.63-0.95-1.9-0.95-3.81-0.95h-5.71V130h-5.4v-22.54h12.06c2.54,0,4.76,0,6.35,0.95
		s2.86,2.54,2.86,5.08c0,3.49-2.22,5.4-3.81,6.03C130.48,120.16,131.43,120.79,131.75,121.43z M153.65,112.22h-12.38v4.13h12.06
		v4.44h-12.06v4.44h12.38V130h-17.78v-22.54h17.78V112.22z M166.98,130h-10.16v-4.76h10.16c0.95,0,1.59,0,2.22-0.63
		c0.32-0.32,0.63-0.95,0.63-1.59c0-0.63-0.32-1.27-0.63-1.59c-0.32-0.32-0.95-0.63-1.9-0.63c-5.08-0.32-11.11,0-11.11-6.98
		c0-3.17,1.9-6.67,7.62-6.67h10.48v5.4h-9.84c-0.95,0-1.59,0-2.22,0.32c-0.63,0.32-0.63,0.95-0.63,1.59c0,0.95,0.63,1.27,1.27,1.59
		c0.63,0.32,1.27,0.32,1.9,0.32h2.86c2.86,0,4.76,0.63,6.03,1.9c0.95,0.95,1.59,2.54,1.59,4.76C175.24,127.78,172.38,130,166.98,130
		z M194.29,127.78c-1.27,1.27-3.49,2.22-6.67,2.22h-10.16v-4.76h10.16c0.95,0,1.59,0,2.22-0.63c0.32-0.32,0.63-0.95,0.63-1.59
		c0-0.63-0.32-1.27-0.63-1.59c-0.32-0.32-0.95-0.63-1.9-0.63c-5.08-0.32-11.11,0-11.11-6.98c0-3.17,1.9-6.67,7.62-6.67h10.48v5.4
		h-9.52c-0.95,0-1.59,0-2.22,0.32c-0.63,0.32-0.63,0.95-0.63,1.59c0,0.95,0.32,1.27,1.27,1.59c0.63,0.32,1.27,0.32,1.9,0.32h2.86
		c2.86,0,4.76,0.63,6.03,1.9c0.32,0,0.32,0.32,0.32,0.32c0.95,1.27,1.27,2.86,1.27,4.44C196.19,124.92,195.56,126.51,194.29,127.78z
		"/>
	<path id="SVGCleanerId_1" class="st1" d="M126.03,112.86c-0.63-0.32-1.59-0.32-2.54-0.32h-6.35v5.08h6.35c0.95,0,1.9,0,2.54-0.32
		c0.63-0.32,0.95-1.27,0.95-2.22C127.3,113.81,126.67,113.17,126.03,112.86z"/>
	<g>
		<path class="st1" d="M103.81,74.76c-0.63-0.32-1.59-0.32-2.54-0.32h-6.35v5.08h6.35c0.95,0,1.9,0,2.54-0.32
			c0.63-0.32,0.95-1.27,0.95-2.22C105.08,75.71,104.44,75.08,103.81,74.76z"/>
		<polygon class="st1" points="142.22,82.38 149.52,82.38 146.03,73.49 		"/>
		<polygon class="st1" points="88.25,128.1 88.25,110 80,118.89 		"/>
	</g>
	<g>
		<path id="SVGCleanerId_0_1_" class="st1" d="M100.32,112.22h-6.67v5.71h6.98c1.9,0,3.17-0.95,3.17-2.86
			C103.49,113.17,102.22,112.22,100.32,112.22z"/>
	</g>
	<g>
		<path id="SVGCleanerId_1_1_" class="st1" d="M126.03,112.86c-0.63-0.32-1.59-0.32-2.54-0.32h-6.35v5.08h6.35
			c0.95,0,1.9,0,2.54-0.32c0.63-0.32,0.95-1.27,0.95-2.22C127.3,113.81,126.67,113.17,126.03,112.86z"/>
	</g>
	<g>
		<polygon class="st1" points="98.1,129.37 93.65,124.6 93.65,130 83.17,130 76.83,122.7 69.84,130 48.89,130 48.89,107.78 
			70.16,107.78 76.83,115.08 80,111.27 72.06,103.33 44.13,103.33 44.13,134.44 72.06,134.44 76.83,129.68 80.95,134.44 
			98.1,134.44 		"/>
		<polygon class="st1" points="65.08,96.35 60.95,91.9 59.05,91.9 59.05,90 54.29,85.24 51.11,91.9 46.67,91.9 39.05,74.44 
			39.05,91.9 28.25,91.9 26.03,87.14 15.24,87.14 13.02,91.9 7.3,91.9 16.83,69.68 24.76,69.68 33.65,90.95 33.65,69.68 
			38.41,69.68 33.97,65.24 29.21,65.24 29.21,69.05 27.62,65.24 13.65,65.24 7.3,80.16 0,96.35 7.3,96.35 16.51,96.35 18.41,91.59 
			22.86,91.59 25.08,96.35 42.86,96.35 42.86,92.54 44.44,96.35 53.65,96.35 55.24,92.54 55.24,96.35 		"/>
		<polygon class="st1" points="50.48,81.75 45.4,76.67 49.21,84.92 		"/>
	</g>
	<g>
		<path class="st1" d="M194.92,132.86c2.86-1.9,4.76-5.08,5.08-8.57l-4.44-4.44c0.32,0.95,0.63,1.9,0.63,3.17
			c0,1.9-0.63,3.49-1.9,4.76c-1.27,1.27-3.49,2.22-6.67,2.22h-10.16v-4.76h10.16c0.95,0,1.59,0,2.22-0.63
			c0.32-0.32,0.63-0.95,0.63-1.59c0-0.63-0.32-1.27-0.63-1.59c-0.32-0.32-0.95-0.63-1.9-0.63c-5.08-0.32-11.11,0-11.11-6.98
			c0-3.17,1.9-6.03,6.67-6.67l-3.49-3.49c-0.63,0.32-0.95,0.63-1.27,0.63v-1.9h-14.6c-2.22,0-5.08,0.63-6.35,1.9v-1.9h-26.03v1.9
			c-1.9-1.59-5.4-1.9-6.98-1.9h-17.14v1.9c-1.59-1.59-5.4-1.9-7.3-1.9H81.27l-4.44,4.76l-4.13-4.76h-3.49l9.52,9.52l4.76-5.08h16.83
			c4.13,0,8.89,1.27,8.89,7.3c0,6.35-4.44,7.62-9.21,7.62h-6.35v4.76l4.76,4.76v-4.76H100c2.22,0,5.08,0,7.3-0.95v8.57h14.29v-8.25
			h0.63c0.95,0,0.95,0,0.95,0.95v7.3h43.17c2.86,0,5.71-0.63,7.3-1.9v1.9h13.65C189.84,134.44,192.7,134.13,194.92,132.86
			L194.92,132.86z M131.75,121.43c0.63,0.95,0.95,2.22,0.95,4.13V130h-5.4v-2.86c0-1.27,0-3.49-0.95-4.44
			c-0.63-0.95-1.9-0.95-3.81-0.95h-5.71V130h-5.4v-22.54h12.06c2.54,0,4.76,0,6.35,0.95s2.86,2.54,2.86,5.08
			c0,3.49-2.22,5.4-3.81,6.03C130.48,120.16,131.43,120.79,131.75,121.43z M153.65,112.22h-12.38v4.13h12.06v4.44h-12.06v4.44h12.38
			V130h-17.78v-22.54h17.78V112.22z M166.98,130h-10.16v-4.76h10.16c0.95,0,1.59,0,2.22-0.63c0.32-0.32,0.63-0.95,0.63-1.59
			c0-0.63-0.32-1.27-0.63-1.59c-0.32-0.32-0.95-0.63-1.9-0.63c-5.08-0.32-11.11,0-11.11-6.98c0-3.17,1.9-6.67,7.62-6.67h10.48v5.4
			h-9.84c-0.95,0-1.59,0-2.22,0.32c-0.63,0.32-0.63,0.95-0.63,1.59c0,0.95,0.63,1.27,1.27,1.59c0.63,0.32,1.27,0.32,1.9,0.32h2.86
			c2.86,0,4.76,0.63,6.03,1.9c0.95,0.95,1.59,2.54,1.59,4.76C175.24,127.78,172.38,130,166.98,130z"/>
		<path class="st1" d="M182.22,114.44c0,0.95,0.32,1.27,1.27,1.59c0.63,0.32,1.27,0.32,1.9,0.32h2.86c1.9,0,3.17,0.32,4.44,0.95
			l-4.76-4.76h-2.86c-0.95,0-1.59,0-2.22,0.32C182.54,113.17,182.22,113.81,182.22,114.44z"/>
		<polygon class="st1" points="171.11,95.4 171.75,96.35 172.06,96.35 		"/>
		<polygon class="st1" points="153.65,77.94 159.05,90.95 159.05,83.33 		"/>
		<path class="st1" d="M99.37,88.41H100c0.63,0,0.63,0,0.63,0.95v6.98h22.86v-1.9c1.9,0.95,4.76,1.9,8.57,1.9h9.52l1.9-5.08h4.44
			l1.9,5.08h18.41v-3.17l-4.44-4.44v3.49h-10.79l-1.59-5.08h-11.11l-1.9,5.08h-6.03c-2.54,0-5.71-0.63-7.62-2.54
			c-1.9-1.9-2.86-4.44-2.86-8.57c0-3.17,0.63-6.35,2.86-8.89c1.59-1.9,4.44-2.54,7.94-2.54h5.08v4.76h-5.08
			c-1.9,0-2.86,0.32-4.13,1.27c-0.95,0.95-1.59,2.86-1.59,5.08c0,2.54,0.32,4.13,1.59,5.4c0.95,0.95,2.22,1.27,3.81,1.27h2.22
			L141.9,70h3.17l-4.44-4.44h-8.25c-3.49,0-6.35,0.63-8.89,1.9v-1.9h-13.97v1.9c-1.59-1.27-3.49-1.9-6.03-1.9H52.38l-3.49,7.94
			l-3.49-7.94H31.43L35.87,70h6.35l5.4,11.75l1.9,1.9l5.71-13.97h8.89v22.54h-5.4V74.76l-5.4,12.7l9.21,9.21h36.51L99.37,88.41z
			 M113.97,69.68h5.4v22.54h-5.4V69.68z M86.03,74.44H73.65v4.13h12.06v4.44H73.65v4.44h12.38v4.76H68.25V69.68h17.78V74.44z
			 M94.92,91.9h-5.4V69.37h12.06c2.86,0,4.76,0,6.35,0.95s2.54,2.54,2.54,5.08c0,3.49-2.22,5.4-3.81,6.03
			c1.27,0.32,2.22,1.27,2.54,1.9c0.63,1.27,0.95,2.22,0.95,4.13v4.44h-5.4v-2.86c0-1.27,0-3.17-0.95-4.44
			c-0.32-0.63-1.27-0.63-3.17-0.63h-5.71L94.92,91.9L94.92,91.9z"/>
	</g>
</g>
</svg>
