<?xml version="1.0" encoding="utf-8"?>
<!-- Generator: Adobe Illustrator 23.0.1, SVG Export Plug-In . SVG Version: 6.00 Build 0)  -->
<svg version="1.1" id="Capa_1" xmlns="http://www.w3.org/2000/svg" xmlns:xlink="http://www.w3.org/1999/xlink" x="0px" y="0px"
	 viewBox="0 0 200 200" style="enable-background:new 0 0 200 200;" xml:space="preserve">
<style type="text/css">
	.st0{fill:#FFFFFF;stroke:#344154;stroke-width:3;stroke-linecap:round;stroke-miterlimit:10;}
	.st1{fill:#FFFFFF;}
	.st2{fill:url(#SVGID_1_);}
	.st3{fill:url(#SVGID_2_);}
	.st4{fill:url(#SVGID_3_);}
	.st5{fill:url(#SVGID_4_);}
	.st6{fill:url(#SVGID_5_);}
	.st7{opacity:0.5;fill:url(#SVGID_6_);}
	.st8{fill:url(#SVGID_7_);}
	.st9{clip-path:url(#SVGID_9_);fill:#FFFFFF;}
	.st10{fill-rule:evenodd;clip-rule:evenodd;fill:#FFFFFF;}
	.st11{fill-rule:evenodd;clip-rule:evenodd;fill:#064627;}
	.st12{fill-rule:evenodd;clip-rule:evenodd;fill:#70AC54;}
	.st13{fill-rule:evenodd;clip-rule:evenodd;fill:#1F1A17;}
</style>
<g>
	<g>
		<path class="st1" d="M66.31,70.92c0.02,9.88,6.19,18.31,14.89,21.66V49.26C72.5,52.61,66.33,61.04,66.31,70.92z"/>
		<path class="st1" d="M97.82,49.26v43.32c8.71-3.35,14.89-11.77,14.9-21.66C112.71,61.04,106.53,52.6,97.82,49.26z"/>
		<path class="st1" d="M108.25,31H89.43C67.3,30.99,49.08,47.49,49.08,71.34c0,21.83,18.22,39.76,40.34,39.65h18.82
			c21.87,0.11,41.83-17.83,41.83-39.65C150.07,47.48,130.11,30.99,108.25,31z M89.52,107.54c-20.22-0.01-36.61-16.39-36.61-36.61
			c0-20.22,16.39-36.61,36.61-36.62c20.22,0,36.62,16.4,36.62,36.62S109.74,107.53,89.52,107.54z"/>
	</g>
	<g>
		<path class="st1" d="M8.18,138.29c0,3.26,2.33,3.63,4.4,3.63c9.14,0,12.13-6.89,12.13-13.19c0-7.91-5.07-13.62-13.23-13.62
			c-1.74,0-2.53,0.13-3.3,0.17L8.18,138.29L8.18,138.29z M4.04,118.45c0-3.8-1.98-3.56-3.88-3.59v-1.1
			c1.65,0.08,3.34,0.08,4.99,0.08c1.77,0,4.19-0.08,7.32-0.08c10.95,0,16.91,7.31,16.91,14.8c0,4.19-2.45,14.72-17.42,14.72
			c-2.16,0-4.15-0.08-6.13-0.08c-1.9,0-3.76,0.04-5.66,0.08v-1.1c2.53-0.26,3.76-0.34,3.88-3.22V118.45z"/>
		<path class="st1" d="M35.38,117.44c-1.1,0-2.07-1.01-2.07-2.12c0-1.06,1.01-2.03,2.07-2.03c1.1,0,2.08,0.89,2.08,2.03
			C37.45,116.47,36.52,117.44,35.38,117.44 M30.85,142.18h0.81c1.18,0,2.03,0,2.03-1.4v-11.46c0-1.86-0.63-2.12-2.2-2.95v-0.68
			c1.99-0.59,4.36-1.39,4.52-1.52c0.3-0.17,0.55-0.22,0.77-0.22c0.21,0,0.29,0.25,0.29,0.59v16.24c0,1.4,0.93,1.4,2.12,1.4h0.72v1.1
			c-1.44,0-2.92-0.08-4.44-0.08c-1.52,0-3.05,0.04-4.61,0.08L30.85,142.18L30.85,142.18L30.85,142.18z"/>
		<path class="st1" d="M43.92,129.57c0-1.56-0.47-1.98-2.45-2.79v-0.8c1.82-0.59,3.55-1.14,5.58-2.03c0.13,0,0.25,0.09,0.25,0.42
			v2.75c2.41-1.73,4.49-3.17,7.32-3.17c3.6,0,4.86,2.62,4.86,5.92v10.91c0,1.4,0.93,1.4,2.11,1.4h0.77v1.1
			c-1.49,0-2.96-0.08-4.48-0.08c-1.52,0-3.05,0.04-4.57,0.08v-1.1h0.76c1.18,0,2.03,0,2.03-1.4v-10.95c0-2.41-1.48-3.59-3.89-3.59
			c-1.35,0-3.51,1.09-4.91,2.03v12.51c0,1.4,0.93,1.4,2.12,1.4h0.76v1.1c-1.48,0-2.96-0.08-4.49-0.08c-1.52,0-3.04,0.04-4.56,0.08
			v-1.1h0.77c1.18,0,2.03,0,2.03-1.4L43.92,129.57L43.92,129.57z"/>
		<path class="st1" d="M73.06,130.25c1.06,0,1.18-0.55,1.18-1.05c0-2.16-1.31-3.89-3.68-3.89c-2.58,0-4.36,1.9-4.86,4.95H73.06z
			 M65.57,131.61c-0.08,0.38-0.08,1.01,0,2.45c0.25,4.02,2.84,7.32,6.21,7.32c2.33,0,4.15-1.27,5.71-2.83l0.59,0.59
			c-1.95,2.58-4.36,4.78-7.82,4.78c-6.73,0-8.08-6.51-8.08-9.22c0-8.29,5.58-10.74,8.54-10.74c3.43,0,7.11,2.16,7.15,6.64
			c0,0.25,0,0.51-0.03,0.77l-0.39,0.25L65.57,131.61L65.57,131.61z"/>
		<path class="st1" d="M78.85,142.18h1.14c1.18,0,2.03,0,2.03-1.4V128.9c0-1.31-1.57-1.57-2.2-1.9v-0.63
			c3.09-1.32,4.78-2.41,5.17-2.41c0.25,0,0.37,0.13,0.37,0.55v3.8h0.09c1.06-1.65,2.84-4.36,5.41-4.36c1.06,0,2.41,0.72,2.41,2.24
			c0,1.14-0.81,2.17-1.99,2.17c-1.32,0-1.32-1.03-2.79-1.03c-0.72,0-3.09,0.98-3.09,3.51v9.93c0,1.4,0.85,1.4,2.03,1.4h2.37v1.1
			c-2.33-0.04-4.1-0.08-5.92-0.08c-1.73,0-3.51,0.04-5.03,0.08L78.85,142.18L78.85,142.18z"/>
		<path class="st1" d="M95.14,137.4c0.55,2.79,2.24,5.16,5.33,5.16c2.49,0,3.42-1.52,3.42-3c0-4.99-9.22-3.38-9.22-10.19
			c0-2.37,1.91-5.41,6.56-5.41c1.35,0,3.17,0.38,4.82,1.23l0.29,4.3h-0.97c-0.42-2.66-1.91-4.18-4.61-4.18
			c-1.69,0-3.3,0.97-3.3,2.79c0,4.95,9.81,3.42,9.81,10.06c0,2.79-2.24,5.75-7.27,5.75c-1.69,0-3.68-0.59-5.15-1.44l-0.47-4.86
			L95.14,137.4z"/>
		<path class="st1" d="M145.46,121.41h-1.05c-0.81-4.94-4.32-6.93-9.05-6.93c-4.87,0-11.93,3.25-11.93,13.4
			c0,8.55,6.09,14.68,12.61,14.68c4.19,0,7.66-2.87,8.5-7.31l0.97,0.25l-0.97,6.18c-1.78,1.11-6.56,2.25-9.35,2.25
			c-9.89,0-16.15-6.39-16.15-15.9c0-8.67,7.74-14.89,16.03-14.89c3.42,0,6.72,1.11,9.98,2.25L145.46,121.41z"/>
		<path class="st1" d="M146.99,142.18h0.8c1.19,0,2.03,0,2.03-1.4v-23.55c0-2.75-0.63-2.84-2.24-3.3v-0.67
			c1.69-0.55,3.47-1.31,4.36-1.82c0.46-0.25,0.8-0.47,0.93-0.47c0.25,0,0.34,0.25,0.34,0.6v29.22c0,1.4,0.93,1.4,2.12,1.4h0.71v1.1
			c-1.43,0-2.91-0.08-4.44-0.08c-1.52,0-3.04,0.04-4.61,0.08L146.99,142.18L146.99,142.18z"/>
		<path class="st1" d="M174.14,140.95c0,0.77,0.46,0.8,1.18,0.8c0.51,0,1.14-0.04,1.69-0.04v0.89c-1.82,0.17-5.29,1.06-6.09,1.31
			l-0.21-0.13v-3.43c-2.53,2.07-4.48,3.55-7.49,3.55c-2.28,0-4.65-1.48-4.65-5.03v-10.82c0-1.1-0.16-2.16-2.53-2.37v-0.81
			c1.52-0.04,4.9-0.29,5.45-0.29c0.47,0,0.47,0.29,0.47,1.23v10.91c0,1.27,0,4.91,3.68,4.91c1.43,0,3.34-1.1,5.11-2.58v-11.38
			c0-0.84-2.03-1.3-3.55-1.73v-0.76c3.8-0.26,6.17-0.59,6.59-0.59c0.34,0,0.34,0.29,0.34,0.77L174.14,140.95L174.14,140.95
			L174.14,140.95z"/>
		<path class="st1" d="M182.55,138.5c0,1.6,1.52,4.32,4.36,4.32c4.53,0,6.43-4.45,6.43-8.21c0-4.57-3.47-8.37-6.76-8.37
			c-1.57,0-2.87,1.02-4.02,1.99V138.5z M182.55,127c1.69-1.44,3.98-3.05,6.3-3.05c4.91,0,7.86,4.28,7.86,8.88
			c0,5.54-4.06,11.08-10.11,11.08c-3.13,0-4.78-1.02-5.88-1.48l-1.27,0.97l-0.88-0.47c0.37-2.49,0.59-4.95,0.59-7.53v-18.18
			c0-2.75-0.64-2.84-2.25-3.3v-0.67c1.7-0.55,3.47-1.31,4.36-1.82c0.47-0.25,0.8-0.47,0.93-0.47c0.25,0,0.33,0.25,0.33,0.59V127z"/>
		<path class="st1" d="M0.1,167.87h0.32c0.83,0,1.7-0.12,1.7-1.31V154.5c0-1.2-0.87-1.31-1.7-1.31H0.1v-0.69
			c0.9,0,2.28,0.09,3.4,0.09c1.15,0,2.53-0.09,3.61-0.09v0.69H6.8c-0.83,0-1.7,0.12-1.7,1.31v12.06c0,1.2,0.87,1.31,1.7,1.31h0.32
			v0.69c-1.1,0-2.49-0.09-3.63-0.09c-1.13,0-2.49,0.09-3.38,0.09L0.1,167.87L0.1,167.87z"/>
		<path class="st1" d="M7.02,168.46v-0.49H6.8c-0.82,0-1.8-0.14-1.8-1.41V154.5c0-1.27,0.98-1.41,1.8-1.41h0.22v-0.5
			c-1.06,0-2.4,0.09-3.51,0.09c-1.1,0-2.41-0.09-3.31-0.09v0.5h0.22c0.82,0,1.8,0.14,1.8,1.41v12.06c0,1.27-0.98,1.41-1.8,1.41H0.2
			v0.49c0.89-0.01,2.19-0.1,3.29-0.1C4.6,168.37,5.93,168.45,7.02,168.46 M7.12,168.66c-1.12,0-2.49-0.09-3.63-0.09
			c-1.13,0-2.48,0.09-3.38,0.09H0v-0.1v-0.69v-0.1h0.1h0.32c0.84-0.02,1.6-0.09,1.6-1.22V154.5c0-1.13-0.77-1.2-1.6-1.21H0v-0.1
			v-0.79h0.1c0.9,0,2.28,0.09,3.4,0.09c1.15,0,2.52-0.09,3.61-0.09h0.1v0.1v0.79h-0.1H6.8c-0.84,0.02-1.6,0.08-1.6,1.21v12.06
			c0,1.13,0.77,1.19,1.6,1.22h0.42v0.1v0.78L7.12,168.66L7.12,168.66z"/>
		<path class="st1" d="M22.93,164.03l0.05-0.05v-8.63c0-1.88-1.31-2.16-2-2.16h-0.51v-0.69c1.08,0,2.14,0.09,3.22,0.09
			c0.94,0,1.89-0.09,2.83-0.09v0.69h-0.34c-0.97,0-2.05,0.19-2.05,2.92v10.47c0,0.81,0.02,1.61,0.14,2.32h-0.88l-11.85-13.21v9.48
			c0,2,0.39,2.69,2.16,2.69h0.39v0.69c-0.98,0-1.97-0.09-2.97-0.09c-1.03,0-2.09,0.09-3.13,0.09v-0.69h0.32
			c1.59,0,2.07-1.08,2.07-2.92v-9.69c0-1.28-1.06-2.07-2.09-2.07h-0.3v-0.69c0.87,0,1.77,0.09,2.65,0.09c0.69,0,1.36-0.09,2.05-0.09
			L22.93,164.03z"/>
		<path class="st1" d="M22.88,163.98L22.88,163.98l-0.02-0.03L22.88,163.98z M22.93,164.03l0.08-0.07L22.93,164.03z M23.39,168.8
			h0.76c-0.1-0.69-0.12-1.46-0.12-2.22v-10.47c0-2.76,1.15-3.02,2.15-3.02h0.24v-0.5c-0.91,0-1.82,0.09-2.73,0.09
			c-1.05,0-2.08-0.08-3.12-0.09l-0.01,0.5h0.41c0.71,0,2.1,0.31,2.1,2.26l-0.03,8.69L23,164.1l-0.08,0.08L12.69,152.6
			c-0.68,0-1.35,0.09-2.05,0.09c-0.84,0-1.7-0.08-2.54-0.09l0,0.5h0.2c1.08,0,2.19,0.82,2.19,2.17v9.69c0,1.84-0.51,3.01-2.17,3.03
			l-0.23-0.01v0.5c1-0.01,2.02-0.1,3.03-0.1c0.96,0,1.92,0.08,2.87,0.1v-0.49H13.7c-1.81-0.01-2.26-0.8-2.26-2.8v-9.74L23.39,168.8z
			 M24.26,169l-0.95-0.03l-11.68-13.02v9.23c0.03,2,0.33,2.57,2.06,2.59h0.49v0.1v0.78h-0.1c-0.99,0-1.99-0.09-2.97-0.09
			c-1.03,0-2.08,0.09-3.13,0.09h-0.1v-0.1v-0.78h0.1h0.33c1.52-0.01,1.95-0.99,1.97-2.82v-9.69c0-1.22-1.01-1.97-1.99-1.97h-0.4
			v-0.11v-0.78h0.1c0.88,0,1.78,0.09,2.64,0.09c0.69,0,1.35-0.09,2.13-0.06l10.11,11.39v-8.47c-0.01-1.83-1.23-2.05-1.91-2.07h-0.61
			v-0.11v-0.78h0.1c1.09,0,2.15,0.09,3.22,0.09c0.94,0,1.88-0.09,2.83-0.09h0.1v0.1v0.79h-0.1h-0.34c-0.95,0.03-1.93,0.11-1.95,2.82
			v10.47c0,0.8,0.02,1.61,0.14,2.31l0.03,0.11H24.26z"/>
		<path class="st1" d="M29.97,153.65c-1.73,0-1.8,0.41-2.14,2.09h-0.69c0.09-0.65,0.21-1.29,0.28-1.96
			c0.09-0.65,0.14-1.29,0.14-1.95h0.55c0.19,0.69,0.76,0.67,1.38,0.67h11.87c0.62,0,1.2-0.02,1.24-0.71l0.55,0.09
			c-0.09,0.62-0.18,1.24-0.25,1.86c-0.04,0.62-0.04,1.24-0.04,1.86l-0.69,0.25c-0.05-0.85-0.16-2.21-1.71-2.21h-3.77v12.24
			c0,1.77,0.8,1.98,1.91,1.98h0.44v0.69c-0.89,0-2.5-0.09-3.75-0.09c-1.38,0-2.99,0.09-3.89,0.09v-0.69h0.44
			c1.27,0,1.91-0.12,1.91-1.93v-12.29L29.97,153.65L29.97,153.65z"/>
		<path class="st1" d="M39.04,168.66c-0.9,0-2.51-0.09-3.75-0.09c-1.38,0-2.99,0.09-3.89,0.09h-0.1v-0.09v-0.79h0.1h0.44
			c1.27-0.03,1.78-0.05,1.8-1.83v-12.19h-3.67v-0.1v-0.1h3.87v12.39c0,1.85-0.74,2.03-2,2.04h-0.34v0.48
			c0.9-0.01,2.46-0.09,3.79-0.09c1.2,0,2.74,0.08,3.65,0.09v-0.48h-0.34c-1.11,0-2-0.27-2-2.08v-12.34h3.87
			c1.55,0,1.75,1.32,1.8,2.17l0.5-0.18c0-0.6,0-1.2,0.04-1.81c0.07-0.59,0.16-1.18,0.24-1.77l-0.35-0.06
			c-0.11,0.67-0.76,0.7-1.33,0.69H29.49h-0.12c-0.54,0-1.13-0.02-1.33-0.67h-0.38c0,0.63-0.05,1.25-0.14,1.86
			c-0.06,0.63-0.17,1.24-0.25,1.85h0.49c0.31-1.6,0.5-2.12,2.22-2.1v0.1v0.1c-1.71,0.03-1.67,0.32-2.05,2.02l-0.01,0.08h-0.08h-0.81
			l0.01-0.12c0.09-0.64,0.21-1.29,0.28-1.96c0.09-0.64,0.14-1.28,0.14-1.94v-0.1h0.1h0.63l0.01,0.07c0.16,0.59,0.58,0.59,1.17,0.6
			h0.12h11.87c0.64-0.01,1.11-0.02,1.15-0.62l0.01-0.11l0.11,0.02l0.65,0.1l-0.02,0.1c-0.09,0.61-0.18,1.23-0.25,1.86
			c-0.04,0.61-0.04,1.23-0.04,1.86v0.07l-0.06,0.03l-0.82,0.3l0-0.14c-0.06-0.86-0.15-2.11-1.6-2.11H36.8v12.14
			c0.02,1.74,0.71,1.86,1.8,1.88h0.54v0.1v0.78L39.04,168.66L39.04,168.66z"/>
		<path class="st1" d="M43.88,167.87h0.33c0.83,0,1.7-0.12,1.7-1.31V154.5c0-1.2-0.87-1.31-1.7-1.31h-0.33v-0.69
			c1.4,0,3.8,0.09,5.73,0.09c1.94,0,4.33-0.09,5.89-0.09c-0.04,0.99-0.02,2.51,0.05,3.52l-0.7,0.18c-0.11-1.49-0.38-2.69-2.8-2.69
			h-3.2v6.03h2.73c1.38,0,1.68-0.78,1.82-2.02h0.69c-0.05,0.9-0.07,1.8-0.07,2.69c0,0.87,0.03,1.75,0.07,2.62l-0.69,0.14
			c-0.14-1.38-0.21-2.28-1.8-2.28h-2.76v5.36c0,1.5,1.33,1.5,2.8,1.5c2.76,0,3.98-0.18,4.67-2.81l0.64,0.15
			c-0.3,1.23-0.57,2.44-0.78,3.67c-1.48,0-4.12-0.09-6.19-0.09c-2.08,0-4.81,0.09-6.13,0.09L43.88,167.87L43.88,167.87z"/>
		<path class="st1" d="M56.11,168.46c0.2-1.16,0.46-2.32,0.75-3.48l-0.45-0.12c-0.69,2.58-2.03,2.8-4.74,2.79
			c-1.45,0-2.9,0-2.91-1.6v-5.46h2.86c1.61-0.02,1.77,0.95,1.88,2.26l0.5-0.1c-0.04-0.85-0.06-1.69-0.06-2.54
			c0-0.86,0.02-1.73,0.06-2.59h-0.5c-0.13,1.2-0.5,2.04-1.91,2.03h-2.84v-6.23h3.3c2.4-0.02,2.79,1.22,2.89,2.66l0.5-0.13
			c-0.04-0.65-0.06-1.49-0.06-2.25c0-0.4,0.01-0.77,0.02-1.09c-1.56,0-3.89,0.09-5.79,0.09c-1.89,0-4.21-0.08-5.63-0.09v0.5h0.23
			c0.82,0,1.8,0.14,1.8,1.41v12.06c0,1.27-0.98,1.4-1.8,1.42h-0.23v0.48c1.34,0,4-0.09,6.02-0.09
			C52.04,168.37,54.63,168.45,56.11,168.46 M56.2,168.66c-1.48,0-4.12-0.09-6.19-0.09c-2.07,0-4.81,0.09-6.12,0.09h-0.1v-0.09v-0.69
			v-0.1h0.1h0.33c0.83-0.02,1.59-0.09,1.6-1.22V154.5c-0.01-1.12-0.77-1.2-1.6-1.21h-0.42v-0.1v-0.79h0.1c1.4,0,3.8,0.09,5.73,0.09
			c1.94,0,4.32-0.09,5.89-0.09h0.1l-0.01,0.1c-0.02,0.35-0.02,0.76-0.02,1.19c0,0.79,0.02,1.66,0.07,2.32v0.08l-0.07,0.02
			l-0.81,0.21l0-0.12c-0.14-1.5-0.34-2.58-2.7-2.6h-3.1v5.83h2.64c1.32-0.01,1.56-0.69,1.72-1.93l0.01-0.09h0.09h0.79v0.1
			c-0.04,0.9-0.07,1.8-0.07,2.69c0,0.87,0.03,1.75,0.07,2.62v0.08l-0.08,0.02l-0.8,0.16l-0.01-0.11c-0.16-1.4-0.17-2.18-1.7-2.19
			h-2.66v5.26c0,1.4,1.21,1.39,2.71,1.4c2.77-0.02,3.88-0.15,4.57-2.73l0.03-0.09l0.09,0.02l0.74,0.19l-0.02,0.1
			c-0.3,1.22-0.57,2.43-0.78,3.66l-0.02,0.08L56.2,168.66L56.2,168.66z"/>
		<path class="st1" d="M63.03,160.27h1.12c2.31,0,3.55-0.87,3.55-3.59c0-2.04-1.31-3.35-3.36-3.35c-0.69,0-0.98,0.07-1.31,0.09
			L63.03,160.27L63.03,160.27z M60.08,154.93c0-1.68-0.92-1.74-1.63-1.74h-0.42v-0.7c0.74,0,2.16,0.09,3.57,0.09
			c1.38,0,2.48-0.09,3.7-0.09c2.9,0,5.48,0.78,5.48,4.05c0,2.07-1.38,3.33-3.2,4.05l3.93,5.89c0.65,0.97,1.1,1.25,2.23,1.38v0.69
			c-0.76,0-1.5-0.09-2.25-0.09c-0.71,0-1.45,0.09-2.16,0.09c-1.77-2.32-3.3-4.81-4.79-7.46h-1.52v4.93c0,1.77,0.83,1.84,1.88,1.84
			h0.42v0.69c-1.31,0-2.64-0.09-3.96-0.09c-1.1,0-2.19,0.09-3.34,0.09v-0.69h0.42c0.85,0,1.63-0.39,1.63-1.24L60.08,154.93
			L60.08,154.93z"/>
		<path class="st1" d="M64.15,160.18c2.28-0.02,3.43-0.81,3.45-3.49c-0.01-2.01-1.26-3.25-3.26-3.26c-0.62,0-0.91,0.06-1.21,0.08
			v6.67H64.15L64.15,160.18z M63.03,160.37h-0.1v-7.04l0.08-0.01c0.32-0.02,0.63-0.08,1.32-0.08c2.09,0,3.46,1.36,3.46,3.46
			c-0.01,2.75-1.32,3.68-3.65,3.68L63.03,160.37L63.03,160.37z M63.03,161.01h1.58l0.03,0.05c1.5,2.64,3.02,5.13,4.71,7.41
			c0.7,0,1.44-0.1,2.16-0.1c0.73,0,1.45,0.08,2.16,0.09v-0.5c-1.08-0.13-1.59-0.46-2.22-1.41l-4.01-6l0.12-0.05
			c1.8-0.71,3.13-1.94,3.14-3.96c0-3.19-2.49-3.93-5.38-3.95c-1.21,0-2.31,0.09-3.7,0.09c-1.35,0-2.72-0.09-3.47-0.09v0.5h0.32
			c0.71,0,1.73,0.12,1.73,1.84v11.69c0,0.93-0.86,1.34-1.73,1.35h-0.32v0.48c1.11,0,2.16-0.09,3.24-0.09c1.29,0,2.58,0.09,3.86,0.09
			v-0.48h-0.32c-1.05,0-1.98-0.13-1.98-1.95V161L63.03,161.01L63.03,161.01z M73.75,168.66c-0.77,0-1.5-0.09-2.26-0.09
			c-0.7,0-1.44,0.09-2.24,0.05c-1.77-2.31-3.28-4.78-4.77-7.41h-1.36v4.82c0.03,1.73,0.72,1.72,1.78,1.75h0.52v0.1v0.78h-0.1
			c-1.32,0-2.65-0.09-3.96-0.09c-1.1,0-2.18,0.09-3.34,0.09h-0.1v-0.1v-0.78h0.1h0.42c0.83-0.01,1.53-0.37,1.53-1.15v-11.69
			c-0.02-1.63-0.82-1.63-1.53-1.65h-0.52v-0.1v-0.79h0.1c0.74,0,2.17,0.09,3.57,0.09c1.38,0,2.48-0.09,3.7-0.09
			c2.9,0.01,5.57,0.8,5.58,4.15c0,2.08-1.37,3.38-3.15,4.1l3.86,5.79c0.65,0.95,1.05,1.19,2.17,1.34l0.08,0.01v0.09v0.78H73.75z"/>
		<path class="st1" d="M89.37,164.03l0.04-0.05v-8.63c0-1.88-1.31-2.16-2-2.16h-0.51v-0.69c1.08,0,2.14,0.09,3.22,0.09
			c0.94,0,1.88-0.09,2.84-0.09v0.69h-0.35c-0.97,0-2.05,0.19-2.05,2.92v10.47c0,0.81,0.02,1.61,0.14,2.32h-0.88l-11.85-13.21v9.48
			c0,2,0.39,2.69,2.16,2.69h0.39v0.69c-0.98,0-1.98-0.09-2.96-0.09c-1.04,0-2.1,0.09-3.13,0.09v-0.69h0.32
			c1.59,0,2.08-1.08,2.08-2.92v-9.69c0-1.28-1.06-2.07-2.09-2.07h-0.3v-0.69c0.87,0,1.77,0.09,2.65,0.09c0.68,0,1.35-0.09,2.05-0.09
			L89.37,164.03z"/>
		<path class="st1" d="M89.32,163.98L89.32,163.98l-0.02-0.02L89.32,163.98z M89.37,164.03l0.07-0.07L89.37,164.03z M89.84,168.8
			h0.76c-0.1-0.68-0.12-1.46-0.12-2.22v-10.47c0-2.76,1.16-3.02,2.15-3.02h0.24v-0.5c-0.9,0-1.81,0.09-2.73,0.09
			c-1.05,0-2.08-0.08-3.13-0.09v0.5h0.41c0.7,0,2.1,0.31,2.1,2.26l-0.03,8.7l-0.05,0.05l-0.07,0.08L79.13,152.6
			c-0.68,0-1.35,0.09-2.04,0.09c-0.85,0-1.71-0.08-2.56-0.09v0.5h0.21c1.08,0,2.19,0.82,2.19,2.17v9.69c0,1.85-0.52,3.02-2.17,3.03
			l-0.23,0v0.49c1-0.01,2.03-0.09,3.03-0.09c0.97,0,1.92,0.08,2.87,0.09v-0.48h-0.29c-1.81,0-2.27-0.8-2.27-2.8v-9.73L89.84,168.8z
			 M90.71,169l-0.95-0.03l-11.68-13.02v9.22c0.03,2,0.33,2.58,2.07,2.6h0.48v0.1v0.78h-0.1c-0.99,0-1.98-0.09-2.97-0.09
			c-1.03,0-2.09,0.09-3.13,0.09h-0.11v-0.09v-0.79h0.11h0.32c1.52-0.01,1.96-0.99,1.97-2.83v-9.69c0-1.22-1.01-1.97-1.99-1.97h-0.4
			v-0.1v-0.79h0.11c0.87,0,1.77,0.09,2.65,0.09c0.68,0,1.34-0.09,2.12-0.06l10.11,11.39v-8.47c-0.01-1.83-1.23-2.05-1.9-2.06h-0.61
			v-0.1v-0.79h0.1c1.08,0,2.14,0.09,3.22,0.09c0.94,0,1.88-0.09,2.83-0.09h0.1v0.1v0.79h-0.1h-0.34c-0.95,0.02-1.93,0.11-1.95,2.82
			v10.47c0,0.8,0.02,1.6,0.14,2.31l0.01,0.11L90.71,169L90.71,169L90.71,169z"/>
		<path class="st1" d="M100.02,155.07h-0.05l-2.13,6.51h4.3L100.02,155.07z M96.67,165.27c-0.23,0.78-0.51,1.38-0.51,1.79
			c0,0.69,0.97,0.81,1.72,0.81h0.26v0.69c-0.93-0.05-1.86-0.09-2.79-0.09c-0.83,0-1.65,0.04-2.48,0.09v-0.69h0.14
			c0.9,0,1.66-0.53,2-1.5l3.68-10.56c0.3-0.86,0.72-2.01,0.85-2.85c0.73-0.26,1.66-0.71,2.09-0.99c0.07-0.02,0.12-0.05,0.19-0.05
			c0.06,0,0.11,0,0.16,0.07c0.07,0.19,0.14,0.4,0.21,0.57l4.23,12.04c0.28,0.8,0.56,1.66,0.85,2.35c0.28,0.64,0.77,0.92,1.53,0.92
			h0.13v0.69c-1.03-0.05-2.07-0.09-3.17-0.09c-1.13,0-2.28,0.04-3.45,0.09v-0.69h0.25c0.53,0,1.43-0.09,1.43-0.67
			c0-0.3-0.21-0.92-0.47-1.66l-0.9-2.67H97.4L96.67,165.27z"/>
		<path class="st1" d="M99.93,155.1l0.05-0.02L99.93,155.1z M97.98,161.49h4.03l-2.01-6.17L97.98,161.49z M97.7,161.69l2.2-6.71
			h0.07h0.05v0.1l-0.02,0.01l0.02-0.01v-0.1h0.08l2.18,6.71H97.7z M102.4,168.45c1.14-0.04,2.26-0.08,3.36-0.08
			c1.06,0,2.07,0.05,3.07,0.08v-0.48h-0.03c-0.78,0.01-1.33-0.31-1.61-0.98c-0.3-0.7-0.58-1.55-0.85-2.35l-4.24-12.04
			c-0.07-0.18-0.14-0.39-0.2-0.55c-0.02-0.02-0.01-0.02-0.03-0.02h-0.04c-0.05,0-0.08,0.02-0.14,0.03
			c-0.44,0.29-1.37,0.74-2.05,0.92c-0.14,0.87-0.56,2.02-0.85,2.87L95.1,166.4c-0.35,1-1.16,1.57-2.1,1.57h-0.03v0.48
			c0.78-0.04,1.58-0.08,2.38-0.08c0.89,0,1.8,0.05,2.67,0.08v-0.48h-0.14c-0.75-0.01-1.8-0.09-1.83-0.9c0-0.46,0.28-1.05,0.51-1.83
			l0.1,0.03l-0.1-0.03l0.76-2.46h5.37l0.93,2.74c0.25,0.74,0.47,1.35,0.47,1.69c-0.04,0.7-1.01,0.76-1.53,0.77h-0.16L102.4,168.45
			L102.4,168.45z M108.92,168.66c-1.04-0.04-2.07-0.09-3.17-0.09c-1.13,0-2.27,0.05-3.45,0.09l-0.11,0.01v-0.1v-0.8h0.11h0.25
			c0.53,0,1.32-0.12,1.32-0.56c0.01-0.26-0.2-0.9-0.45-1.63l-0.87-2.61h-5.08l-0.72,2.33c-0.23,0.78-0.51,1.4-0.5,1.77
			c0.01,0.56,0.87,0.7,1.63,0.7h0.35v0.11v0.79l-0.1-0.01c-0.92-0.04-1.86-0.09-2.78-0.09c-0.82,0-1.65,0.05-2.48,0.09l-0.1,0.01
			v-0.1v-0.8h0.1H93c0.86,0,1.58-0.49,1.91-1.42l3.68-10.56c0.3-0.85,0.72-2,0.92-2.92c0.72-0.25,1.64-0.71,2.09-0.98
			c0.06-0.03,0.13-0.06,0.23-0.06c0.05,0,0.17,0.02,0.25,0.13c0.07,0.19,0.14,0.4,0.21,0.58l4.24,12.03
			c0.27,0.81,0.54,1.66,0.85,2.34c0.27,0.61,0.69,0.85,1.43,0.86h0.23v0.11v0.79L108.92,168.66z"/>
		<path class="st1" d="M109.94,153.65c-1.72,0-1.8,0.41-2.14,2.09h-0.7c0.09-0.65,0.21-1.29,0.28-1.96
			c0.09-0.65,0.14-1.29,0.14-1.95h0.55c0.18,0.69,0.76,0.67,1.38,0.67h11.88c0.62,0,1.19-0.02,1.24-0.71l0.55,0.09
			c-0.09,0.62-0.18,1.24-0.25,1.86c-0.05,0.62-0.05,1.24-0.05,1.86l-0.69,0.25c-0.05-0.85-0.16-2.21-1.7-2.21h-3.78v12.24
			c0,1.77,0.81,1.98,1.91,1.98h0.44v0.69c-0.9,0-2.51-0.09-3.75-0.09c-1.38,0-2.99,0.09-3.88,0.09v-0.69h0.43
			c1.27,0,1.91-0.12,1.91-1.93v-12.29L109.94,153.65L109.94,153.65z"/>
		<path class="st1" d="M119.01,168.66c-0.9,0-2.51-0.09-3.75-0.09c-1.37,0-2.98,0.09-3.88,0.09h-0.1v-0.09v-0.79h0.1h0.43
			c1.27-0.03,1.78-0.05,1.81-1.83v-12.19h-3.67v-0.1v-0.1h3.87v12.39c0,1.85-0.75,2.03-2.01,2.03h-0.34v0.49
			c0.91-0.01,2.46-0.1,3.79-0.1c1.21,0,2.74,0.08,3.66,0.1l0-0.49h-0.33c-1.11-0.01-2.01-0.27-2.01-2.08v-12.34h3.87
			c1.55,0,1.75,1.32,1.79,2.17l0.5-0.18c0-0.6,0-1.2,0.05-1.8c0.07-0.59,0.15-1.18,0.24-1.77l-0.35-0.06
			c-0.11,0.67-0.76,0.7-1.33,0.69h-11.88h-0.12c-0.54,0-1.13-0.02-1.34-0.67h-0.37c-0.01,0.64-0.05,1.25-0.14,1.87
			c-0.06,0.63-0.17,1.25-0.26,1.85h0.49c0.3-1.6,0.5-2.13,2.22-2.1v0.1v0.1c-1.71,0.03-1.67,0.32-2.05,2.02l-0.02,0.08h-0.08h-0.81
			l0.01-0.11c0.1-0.65,0.21-1.29,0.28-1.96c0.09-0.64,0.14-1.28,0.14-1.94v-0.1h0.1h0.62l0.02,0.07c0.16,0.59,0.58,0.59,1.17,0.6
			c0.04,0,0.08,0,0.12,0h11.88c0.63-0.01,1.1-0.02,1.14-0.62v-0.11l0.11,0.02l0.65,0.1l-0.02,0.1c-0.1,0.61-0.18,1.23-0.25,1.86
			c-0.04,0.61-0.04,1.23-0.04,1.86v0.07l-0.07,0.03l-0.82,0.3l0-0.14c-0.06-0.86-0.15-2.11-1.6-2.11h-3.67v12.14
			c0.02,1.74,0.7,1.86,1.8,1.88h0.54v0.1v0.78L119.01,168.66L119.01,168.66L119.01,168.66z"/>
		<path class="st1" d="M123.97,167.87h0.32c0.83,0,1.7-0.12,1.7-1.31V154.5c0-1.2-0.87-1.31-1.7-1.31h-0.32v-0.69
			c0.9,0,2.28,0.09,3.4,0.09c1.15,0,2.53-0.09,3.62-0.09v0.69h-0.32c-0.83,0-1.71,0.12-1.71,1.31v12.06c0,1.2,0.87,1.31,1.71,1.31
			H131v0.69c-1.11,0-2.49-0.09-3.64-0.09c-1.13,0-2.48,0.09-3.38,0.09L123.97,167.87L123.97,167.87z"/>
		<path class="st1" d="M130.9,168.46v-0.49h-0.22c-0.82,0-1.8-0.14-1.8-1.41V154.5c0-1.27,0.98-1.41,1.8-1.41h0.22v-0.5
			c-1.06,0-2.4,0.09-3.51,0.09c-1.1,0-2.41-0.08-3.3-0.09v0.5h0.22c0.82,0,1.8,0.14,1.8,1.41v12.06c0,1.27-0.98,1.41-1.8,1.41h-0.22
			v0.49c0.89-0.01,2.19-0.09,3.28-0.09C128.47,168.37,129.81,168.45,130.9,168.46 M130.99,168.66c-1.11,0-2.49-0.09-3.63-0.09
			c-1.13,0-2.48,0.09-3.38,0.09h-0.1v-0.09v-0.69v-0.1h0.1h0.32c0.83-0.02,1.6-0.09,1.6-1.22V154.5c0-1.12-0.77-1.2-1.6-1.21h-0.42
			v-0.1v-0.79h0.1c0.9,0,2.28,0.09,3.4,0.09c1.15,0,2.53-0.09,3.61-0.09h0.1v0.1v0.79h-0.1h-0.32c-0.85,0.02-1.6,0.09-1.61,1.21
			v12.06c0.01,1.13,0.77,1.2,1.61,1.22h0.42v0.1v0.78H130.99z"/>
		<path class="st1" d="M140.52,167.89c4.47,0,5.24-3.94,5.24-7.29c0-3.36-1.81-7.44-5.63-7.44c-4.03,0-5.23,3.6-5.23,6.67
			C134.9,163.96,136.79,167.89,140.52,167.89 M140.17,152.15c4.91,0,8.82,3.04,8.82,7.94c0,5.29-3.8,8.81-8.7,8.81
			c-4.88,0-8.61-3.31-8.61-8.26C131.68,155.86,135.39,152.15,140.17,152.15"/>
		<path class="st1" d="M134.8,159.84c0.01-3.1,1.22-6.77,5.33-6.77c3.91,0,5.73,4.15,5.74,7.53c-0.01,3.36-0.8,7.39-5.35,7.39v-0.09
			v-0.1c4.37-0.01,5.14-3.84,5.14-7.19c0-3.33-1.8-7.33-5.53-7.33c-3.95,0-5.12,3.51-5.12,6.57c0,4.1,1.87,7.95,5.51,7.96v0.1v0.1
			C136.7,167.99,134.81,163.98,134.8,159.84 M131.58,160.64c0.01-4.84,3.75-8.58,8.59-8.59v0.1v0.1c-4.73,0-8.39,3.66-8.39,8.39
			c0.01,4.89,3.68,8.16,8.52,8.16c4.85,0,8.59-3.47,8.6-8.71c0-4.84-3.85-7.83-8.73-7.84v-0.1v-0.1c4.95,0,8.91,3.08,8.92,8.04
			c0,5.35-3.85,8.91-8.79,8.91C135.37,168.99,131.59,165.65,131.58,160.64"/>
		<path class="st1" d="M164.49,164.03l0.05-0.05v-8.63c0-1.88-1.32-2.16-2.01-2.16h-0.5v-0.69c1.08,0,2.14,0.09,3.22,0.09
			c0.95,0,1.89-0.09,2.84-0.09v0.69h-0.35c-0.96,0-2.05,0.19-2.05,2.92v10.47c0,0.81,0.02,1.61,0.14,2.32h-0.87l-11.85-13.21v9.48
			c0,2,0.39,2.69,2.17,2.69h0.39v0.69c-0.99,0-1.98-0.09-2.97-0.09c-1.04,0-2.1,0.09-3.14,0.09v-0.69h0.33
			c1.59,0,2.07-1.08,2.07-2.92v-9.69c0-1.28-1.06-2.07-2.1-2.07h-0.3v-0.69c0.88,0,1.77,0.09,2.65,0.09c0.69,0,1.36-0.09,2.05-0.09
			L164.49,164.03z"/>
		<path class="st1" d="M164.44,163.98L164.44,163.98l-0.02-0.02L164.44,163.98z M164.49,164.03l0.08-0.07L164.49,164.03z
			 M164.96,168.8h0.75c-0.1-0.69-0.12-1.46-0.12-2.22v-10.47c0-2.77,1.16-3.02,2.15-3.02h0.25v-0.5c-0.91,0-1.81,0.09-2.73,0.09
			c-1.05,0-2.08-0.08-3.12-0.09v0.5h0.41c0.71,0,2.1,0.32,2.1,2.26l-0.03,8.69l-0.05,0.05l-0.08,0.08l-10.24-11.57
			c-0.68,0-1.35,0.09-2.05,0.09c-0.85,0-1.71-0.08-2.55-0.09v0.5h0.2c1.08,0,2.2,0.82,2.2,2.17v9.69c0,1.84-0.51,3.01-2.17,3.03
			l-0.23,0v0.49c1-0.01,2.03-0.09,3.04-0.09c0.95,0,1.91,0.08,2.87,0.09v-0.48h-0.3c-1.8,0-2.26-0.8-2.26-2.8v-9.74L164.96,168.8z
			 M165.83,169l-0.95-0.03l-11.67-13.02v9.23c0.03,2,0.33,2.57,2.06,2.58h0.5v0.11v0.78h-0.1c-1,0-1.99-0.09-2.97-0.09
			c-1.04,0-2.09,0.09-3.14,0.09h-0.1v-0.1v-0.79h0.09h0.33c1.52,0,1.95-0.98,1.97-2.82v-9.69c0-1.22-1.01-1.97-2-1.97h-0.39v-0.1
			v-0.79h0.09c0.88,0,1.78,0.09,2.65,0.09c0.68,0,1.34-0.09,2.13-0.06l10.11,11.39v-8.47c0-1.83-1.23-2.05-1.9-2.07h-0.61v-0.1
			v-0.79h0.1c1.08,0,2.14,0.09,3.22,0.09c0.94,0,1.88-0.09,2.83-0.09h0.1v0.1v0.79h-0.1h-0.34c-0.95,0.03-1.92,0.11-1.95,2.82v10.47
			c0,0.8,0.02,1.61,0.13,2.31l0.02,0.11L165.83,169L165.83,169L165.83,169L165.83,169z"/>
		<path class="st1" d="M175.15,155.07h-0.05l-2.14,6.51h4.3L175.15,155.07z M171.78,165.27c-0.23,0.78-0.5,1.38-0.5,1.79
			c0,0.69,0.97,0.81,1.72,0.81h0.25v0.69c-0.92-0.05-1.86-0.09-2.78-0.09c-0.83,0-1.66,0.04-2.48,0.09v-0.69h0.13
			c0.9,0,1.66-0.53,2-1.5l3.68-10.56c0.3-0.86,0.72-2.01,0.85-2.85c0.74-0.26,1.66-0.71,2.1-0.99c0.06-0.02,0.11-0.05,0.18-0.05
			c0.07,0,0.12,0,0.16,0.07c0.08,0.19,0.14,0.4,0.21,0.57l4.23,12.04c0.28,0.8,0.55,1.66,0.85,2.35c0.28,0.64,0.76,0.92,1.52,0.92
			h0.14v0.69c-1.03-0.05-2.07-0.09-3.17-0.09c-1.13,0-2.28,0.04-3.46,0.09v-0.69h0.25c0.53,0,1.43-0.09,1.43-0.67
			c0-0.3-0.21-0.92-0.47-1.66l-0.89-2.67h-5.23L171.78,165.27z"/>
		<path class="st1" d="M175.05,155.1l0.05-0.02L175.05,155.1z M173.1,161.49h4.02l-2-6.16L173.1,161.49z M172.82,161.69l2.21-6.71
			h0.07h0.05v0.1l-0.03,0.01l0.03-0.01v-0.1h0.07l2.18,6.71H172.82z M177.52,168.45c1.14-0.05,2.26-0.09,3.35-0.09
			c1.07,0,2.07,0.05,3.07,0.08l0-0.48h-0.04c-0.78,0-1.32-0.31-1.61-0.98c-0.3-0.7-0.58-1.55-0.85-2.35l-4.24-12.04
			c-0.07-0.18-0.14-0.39-0.2-0.55c-0.02-0.03-0.02-0.03-0.03-0.03h-0.05c-0.05,0-0.07,0.02-0.13,0.03
			c-0.45,0.28-1.37,0.75-2.05,0.92c-0.14,0.87-0.56,2.02-0.86,2.87l-3.68,10.56c-0.35,1-1.15,1.57-2.09,1.57h-0.03v0.48
			c0.79-0.04,1.58-0.08,2.38-0.08c0.89,0,1.8,0.05,2.69,0.08v-0.48H173c-0.75-0.01-1.8-0.09-1.83-0.91c0-0.46,0.29-1.04,0.51-1.82
			l0.09,0.03l-0.09-0.03l0.76-2.46h5.36l0.92,2.74c0.25,0.74,0.46,1.35,0.46,1.69c-0.03,0.7-1,0.76-1.52,0.77h-0.15L177.52,168.45
			L177.52,168.45z M184.05,168.66c-1.04-0.04-2.07-0.09-3.17-0.09c-1.13,0-2.28,0.05-3.45,0.09l-0.1,0.01v-0.11v-0.78h0.1h0.25
			c0.53,0,1.32-0.13,1.33-0.57c0-0.26-0.2-0.89-0.46-1.63l-0.87-2.61h-5.08l-0.71,2.33c-0.23,0.79-0.51,1.4-0.5,1.76
			c0,0.57,0.86,0.71,1.63,0.71h0.35v0.1v0.79l-0.1-0.01c-0.92-0.04-1.86-0.09-2.78-0.09c-0.82,0-1.65,0.05-2.48,0.09l-0.1,0.01
			v-0.11v-0.78h0.1h0.13c0.85-0.01,1.57-0.5,1.91-1.43l3.68-10.56c0.3-0.85,0.71-2,0.91-2.92c0.73-0.25,1.65-0.71,2.1-0.98
			c0.05-0.03,0.12-0.05,0.21-0.05c0.06-0.01,0.18,0.01,0.25,0.13c0.07,0.18,0.14,0.39,0.21,0.58l4.23,12.03
			c0.27,0.81,0.55,1.66,0.85,2.34c0.27,0.61,0.68,0.85,1.42,0.86h0.24v0.1v0.79L184.05,168.66z"/>
		<path class="st1" d="M189.85,166.3c0,0.93,0.64,1.2,1.38,1.29c0.94,0.07,1.98,0.07,3.03-0.05c0.97-0.12,1.8-0.67,2.21-1.25
			c0.37-0.51,0.57-1.15,0.71-1.66h0.67c-0.25,1.31-0.57,2.6-0.85,3.91c-2.02,0-4.05-0.09-6.07-0.09c-2.03,0-4.05,0.09-6.08,0.09
			v-0.69h0.32c0.83,0,1.73-0.12,1.73-1.54V154.5c0-1.2-0.9-1.31-1.73-1.31h-0.32v-0.69c1.22,0,2.41,0.09,3.63,0.09
			c1.18,0,2.32-0.09,3.5-0.09v0.69h-0.58c-0.87,0-1.56,0.03-1.56,1.24L189.85,166.3L189.85,166.3L189.85,166.3z"/>
		<path class="st1" d="M196.92,168.46c0.26-1.25,0.57-2.47,0.82-3.71h-0.47c-0.14,0.5-0.35,1.12-0.72,1.62
			c-0.42,0.6-1.28,1.16-2.28,1.28c-0.6,0.06-1.2,0.09-1.77,0.09c-0.45,0-0.87-0.02-1.29-0.05c-0.75-0.08-1.47-0.4-1.47-1.39v-11.87
			c0-1.28,0.81-1.34,1.67-1.34h0.47v-0.5c-1.13,0-2.25,0.09-3.39,0.09c-1.19,0-2.36-0.09-3.54-0.09v0.5h0.22
			c0.82,0,1.83,0.14,1.83,1.41v11.83c0,1.49-1,1.64-1.83,1.64h-0.22v0.49c1.99,0,3.98-0.09,5.98-0.09
			C192.93,168.37,194.93,168.45,196.92,168.46 M197,168.66c-2.03,0-4.05-0.09-6.07-0.09c-2.03,0-4.05,0.09-6.08,0.09h-0.09v-0.1
			v-0.78h0.09h0.33c0.83-0.02,1.62-0.08,1.63-1.44V154.5c-0.01-1.12-0.79-1.2-1.63-1.21h-0.42v-0.1v-0.79h0.09
			c1.23,0,2.42,0.09,3.64,0.09c1.17,0,2.31-0.09,3.5-0.09h0.09v0.1v0.79h-0.09h-0.58c-0.89,0.02-1.45-0.02-1.47,1.14v11.87
			c0.01,0.86,0.57,1.09,1.29,1.19c0.4,0.03,0.83,0.05,1.27,0.05c0.57,0,1.15-0.03,1.75-0.09c0.93-0.11,1.75-0.65,2.14-1.2
			c0.35-0.49,0.55-1.13,0.69-1.62l0.02-0.08h0.08h0.79l-0.02,0.12c-0.26,1.32-0.58,2.6-0.86,3.91l-0.02,0.08L197,168.66L197,168.66
			L197,168.66z"/>
		<path class="st1" d="M197.19,154.27h0.29c0.31,0,0.46-0.23,0.46-0.62c0-0.39-0.23-0.52-0.48-0.52h-0.27L197.19,154.27
			L197.19,154.27z M196.37,155.55v-0.12c0.3-0.04,0.35-0.03,0.35-0.22v-1.79c0-0.25-0.03-0.34-0.34-0.32v-0.12h1.24
			c0.42,0,0.82,0.2,0.82,0.64c0,0.36-0.24,0.63-0.57,0.73l0.4,0.56c0.19,0.25,0.4,0.49,0.53,0.57v0.08h-0.48
			c-0.23,0-0.42-0.48-0.87-1.11h-0.27v0.8c0,0.16,0.05,0.15,0.36,0.19v0.12L196.37,155.55L196.37,155.55z M197.58,156.24
			c1.08,0,1.92-0.92,1.92-1.97c0-1.04-0.82-1.98-1.92-1.98c-1.09,0-1.92,0.94-1.92,1.98C195.65,155.31,196.49,156.24,197.58,156.24
			 M197.58,151.84c1.38,0,2.42,1.07,2.42,2.43c0,1.36-1.04,2.41-2.42,2.41c-1.38,0-2.43-1.05-2.43-2.41
			C195.15,152.91,196.19,151.84,197.58,151.84"/>
	</g>
</g>
</svg>
