<?xml version="1.0" encoding="utf-8"?>
<!-- Generator: Adobe Illustrator 23.0.1, SVG Export Plug-In . SVG Version: 6.00 Build 0)  -->
<svg version="1.1" id="Capa_1" xmlns="http://www.w3.org/2000/svg" xmlns:xlink="http://www.w3.org/1999/xlink" x="0px" y="0px"
	 viewBox="0 0 200 200" style="enable-background:new 0 0 200 200;" xml:space="preserve">
<style type="text/css">
	.st0{fill:#FFFFFF;stroke:#344154;stroke-width:3;stroke-linecap:round;stroke-miterlimit:10;}
	.st1{fill:#FFFFFF;}
	.st2{fill:url(#SVGID_1_);}
	.st3{fill:url(#SVGID_2_);}
	.st4{fill:url(#SVGID_3_);}
	.st5{fill:url(#SVGID_4_);}
	.st6{fill:url(#SVGID_5_);}
	.st7{opacity:0.5;fill:url(#SVGID_6_);}
	.st8{fill:url(#SVGID_7_);}
	.st9{clip-path:url(#SVGID_9_);fill:#FFFFFF;}
	.st10{fill-rule:evenodd;clip-rule:evenodd;fill:#FFFFFF;}
	.st11{fill-rule:evenodd;clip-rule:evenodd;fill:#064627;}
	.st12{fill-rule:evenodd;clip-rule:evenodd;fill:#70AC54;}
	.st13{fill-rule:evenodd;clip-rule:evenodd;fill:#1F1A17;}
</style>
<g>
	<path class="st1" d="M144.52,104.84c-1.94,1.29-2.58,3.55-0.32,4.19c1.94,0.64,4.84-0.65,5.16-2.58l0.32-2.26
		C148.71,104.19,146.45,103.55,144.52,104.84z"/>
	<path class="st1" d="M43.55,104.84c-1.94,1.29-2.58,3.55-0.32,4.19c1.94,0.64,4.52-0.65,5.16-2.58l0.32-2.26
		C47.74,104.19,45.48,103.55,43.55,104.84z"/>
	<path class="st1" d="M95.48,96.13c-2.58,0-4.19,1.29-4.84,3.87h7.42C98.39,97.74,97.74,96.13,95.48,96.13z"/>
	<path class="st1" d="M177.1,102.26c-0.97,3.23,0.97,5.48,2.9,5.48c2.26,0,3.55-1.61,4.84-4.19c0.65-1.94,0.32-4.52-0.32-5.48
		C182.58,95.48,178.39,97.42,177.1,102.26z"/>
	<path class="st1" d="M191.11,68.8c-0.01-0.01-0.01-0.02-0.02-0.02c-0.6-0.96-1.23-1.91-1.88-2.83
		c-6.71-9.71-16.35-17.27-27.69-21.5c-0.21-0.08-0.43-0.16-0.64-0.24c-0.78-0.28-1.56-0.55-2.36-0.8c-0.9-0.28-1.8-0.54-2.72-0.79
		c-0.63-0.16-1.26-0.31-1.9-0.46c-0.89-0.2-1.78-0.39-2.68-0.55c-0.42-0.08-0.84-0.16-1.26-0.23c-1.3-0.21-2.62-0.36-3.95-0.48
		c-0.34-0.03-0.69-0.05-1.04-0.08c-1.43-0.1-2.87-0.17-4.33-0.17c-14.19,0-27.1,4.84-37.42,13.23c7.74,7.42,13.55,16.77,16.77,27.42
		h-4.64c-3.23-9.22-8.35-17.5-15.36-24.19c0,0,0,0,0,0c-0.11-0.11-0.21-0.22-0.32-0.33c-7.1,6.77-12.26,15.16-15.48,24.52H80
		c3.23-10.65,9.03-20,16.77-27.42c-4.05-3.07-8.43-5.71-13.07-7.81c-5.26-2.46-10.93-4.08-16.92-4.86
		c-0.83-0.11-1.65-0.25-2.48-0.32c-0.27-0.02-0.55-0.02-0.82-0.04c-1.37-0.1-2.74-0.19-4.13-0.19c-0.06,0-0.11,0.01-0.17,0.01
		c-0.05,0-0.1-0.01-0.16-0.01C26.45,40.65,0,67.42,0,100c0,32.58,26.45,59.35,59.35,59.35c14.19,0,27.1-5.16,37.1-13.23
		c-7.74-7.42-13.55-16.77-16.77-27.42h4.84c3.23,9.36,8.39,17.74,15.48,24.52c7.1-6.77,12.58-15.16,15.48-24.52h4.84
		c-3.23,10.65-9.03,20-16.77,27.42c10.32,8.39,23.23,13.23,37.42,13.23c32.58,0,59.03-26.77,59.03-59.35
		C200,88.58,196.74,77.89,191.11,68.8z M26.77,113.87l3.55-18.71l-8.39,18.71h-5.48l-1.61-19.03l-3.87,19.03H5.16l5.16-26.45h9.35
		l1.29,16.13l7.1-16.13h10l-5.16,26.45H26.77z M52.9,114.19h-5.48l-0.65-1.29c-0.97,0.65-1.94,1.29-4.84,1.29
		c-2.9,0-6.77-2.26-6.13-6.77c1.61-9.35,12.26-7.74,13.87-7.74c0.97-3.23-1.61-2.9-3.55-2.9s-5.81,0.64-7.42,0.64l0.97-4.84
		c3.87-0.65,5.81-0.65,7.1-0.32c10,0,9.03,7.1,8.39,10L52.9,114.19z M72.26,107.42c-0.97,6.45-8.06,6.13-9.68,6.13
		c-2.26,0-4.19,0-7.1-0.65l0.97-4.52c2.9,0.97,6.77,0.65,7.74,0.65c1.94,0,2.26-2.58,0.65-3.23c-1.29-0.65-2.58-1.61-4.84-2.58
		c-1.29-0.65-2.9-2.26-1.94-6.45c0.97-5.16,8.06-5.16,9.03-5.16c0.65,0,2.9,0,5.81,0.97l-1.29,4.52c-1.61-0.32-4.52-0.32-5.48-0.65
		c-2.26,0.65-1.29,2.58,0,3.23c1.29,0.32,2.9,1.61,4.19,2.26C71.29,102.9,72.9,104.19,72.26,107.42z M82.26,112.9
		c-1.29,0.97-2.9,0.97-4.52,0.97c-1.29,0-5.81-0.97-4.84-6.77l4.52-20.65h5.81l-1.29,5.81h3.23l-0.97,4.52h-2.9l-1.61,8.71
		c-0.32,1.61,0,3.23,3.23,2.58L82.26,112.9z M101.94,112.9c-1.61,0.65-5.16,0.97-7.74,0.97c-10.32,0-10.32-9.68-10-10.97
		c0-1.29,1.29-10.97,10.97-10.97c10.32,0,8.71,8.71,8.06,12.26H90.65c-0.65,4.84,3.23,4.84,5.48,4.84c2.58,0,5.81-0.32,6.77-0.65
		L101.94,112.9z M111.29,104.19l-1.94,10h-6.13v-0.32l4.19-21.61h5.16l0.65,2.26c0.97-0.97,2.58-2.26,5.81-2.26l-1.61,5.81
		C116.13,98.06,113.23,97.74,111.29,104.19z M133.87,107.1l1.61,5.48c-1.94,0.97-3.87,1.29-7.1,1.29c-6.13,0-12.9-5.48-10-16.77
		c2.26-8.06,9.35-11.29,13.55-10.97c4.84,0.32,6.77,1.94,8.06,3.55l-3.87,3.87c-1.61-0.97-2.58-0.97-4.52-0.97
		c-1.94,0-6.45,1.94-7.1,7.1C123.55,106.13,127.74,109.03,133.87,107.1z M155.81,102.26l-2.26,11.94h-5.48l-0.65-1.29
		c-0.97,0.65-1.94,1.29-4.84,1.29c-2.9,0-6.77-2.26-6.13-6.77c1.61-9.35,12.26-7.74,13.87-7.74c0.65-3.23-1.61-2.9-3.55-2.9
		c-1.94,0-5.81,0.64-7.42,0.64l0.97-4.84c3.87-0.65,6.13-0.65,7.1-0.32C157.42,92.26,156.45,99.35,155.81,102.26z M164.52,103.87
		l-1.94,10h-6.13l4.19-21.94h5.16l0.65,2.26c0.97-0.97,2.58-2.26,5.81-2.26l-1.61,5.81C169.03,97.74,166.45,97.42,164.52,103.87z
		 M182.9,113.87l-0.65-1.61c-1.29,0.64-3.23,1.61-5.16,1.61c-4.19,0-8.06-5.81-6.13-12.58c2.9-10,8.06-9.36,11.29-9.36
		c2.58,0,3.23,1.61,4.52,2.58l1.61-8.39h6.13l-5.16,27.74H182.9z"/>
</g>
</svg>
