<?xml version="1.0" encoding="utf-8"?>
<!-- Generator: Adobe Illustrator 23.0.1, SVG Export Plug-In . SVG Version: 6.00 Build 0)  -->
<svg version="1.1" id="Capa_1" xmlns="http://www.w3.org/2000/svg" xmlns:xlink="http://www.w3.org/1999/xlink" x="0px" y="0px"
	 viewBox="0 0 200 200" style="enable-background:new 0 0 200 200;" xml:space="preserve">
<style type="text/css">
	.st0{fill:#FFFFFF;stroke:#344154;stroke-width:3;stroke-linecap:round;stroke-miterlimit:10;}
	.st1{fill:#FFFFFF;}
	.st2{fill:url(#SVGID_1_);}
	.st3{fill:url(#SVGID_2_);}
	.st4{fill:url(#SVGID_3_);}
	.st5{fill:url(#SVGID_4_);}
	.st6{fill:url(#SVGID_5_);}
	.st7{opacity:0.5;fill:url(#SVGID_6_);}
	.st8{fill:url(#SVGID_7_);}
	.st9{clip-path:url(#SVGID_9_);fill:#FFFFFF;}
	.st10{fill-rule:evenodd;clip-rule:evenodd;fill:#FFFFFF;}
	.st11{fill-rule:evenodd;clip-rule:evenodd;fill:#064627;}
	.st12{fill-rule:evenodd;clip-rule:evenodd;fill:#70AC54;}
	.st13{fill-rule:evenodd;clip-rule:evenodd;fill:#1F1A17;}
</style>
<g>
	<path class="st1" d="M80.07,70.23l-10.15,59.65h16.25l10.17-59.65H80.07z M80.07,70.23"/>
	<path class="st1" d="M56.3,70.29l-15.92,40.68l-1.69-6.14c-3.16-7.39-12.07-18.03-22.52-24.72l14.55,49.74l17.2-0.02l25.61-59.54
		H56.3z M56.3,70.29"/>
	<path class="st1" d="M32.49,74.59c-0.94-3.63-3.68-4.73-7.07-4.86H0.22L0,70.93c19.62,4.74,32.6,16.2,37.98,29.99L32.49,74.59z
		 M32.49,74.59"/>
	<path class="st1" d="M129.29,81.68c5.32-0.08,9.17,1.07,12.18,2.27l1.46,0.7l2.2-12.94c-3.22-1.2-8.25-2.5-14.55-2.5
		c-16.07,0-27.4,8.1-27.48,19.69c-0.11,8.58,8.06,13.35,14.24,16.21c6.34,2.94,8.45,4.79,8.43,7.4c-0.07,4-5.06,5.84-9.74,5.84
		c-6.51,0-9.95-0.9-15.31-3.14l-2.09-0.94l-2.29,13.35c3.81,1.66,10.83,3.09,18.12,3.18c17.1,0,28.2-8.02,28.31-20.38
		c0.07-6.8-4.26-11.96-13.65-16.21c-5.68-2.77-9.17-4.62-9.14-7.4C119.97,84.32,122.93,81.68,129.29,81.68L129.29,81.68z
		 M129.29,81.68"/>
	<path class="st1" d="M186.85,70.29h-12.57c-3.9,0-6.8,1.07-8.52,4.97l-24.13,54.66h17.08c0,0,2.79-7.36,3.42-8.95
		c1.85,0,18.45,0.02,20.82,0.02c0.48,2.07,1.98,8.93,1.98,8.93H200L186.85,70.29z M166.79,108.76c1.35-3.42,6.49-16.68,6.49-16.68
		c-0.09,0.17,1.33-3.45,2.16-5.69l1.11,5.14c0,0,3.12,14.24,3.77,17.23H166.79z M166.79,108.76"/>
</g>
</svg>
