<?xml version="1.0" encoding="utf-8"?>
<!-- Generator: Adobe Illustrator 23.0.1, SVG Export Plug-In . SVG Version: 6.00 Build 0)  -->
<svg version="1.1" id="Capa_1" xmlns="http://www.w3.org/2000/svg" xmlns:xlink="http://www.w3.org/1999/xlink" x="0px" y="0px"
	 viewBox="0 0 192.85 192.85" style="enable-background:new 0 0 192.85 192.85;" xml:space="preserve">
<style type="text/css">
	.st0{fill:#136380;}
	.st1{fill:#00AFB7;}
	.st2{fill:none;stroke:#344154;stroke-width:3;stroke-linecap:round;stroke-miterlimit:10;}
	.st3{fill:#FF6D3B;}
	.st4{fill:url(#SVGID_1_);}
	.st5{fill:url(#SVGID_2_);}
	.st6{fill:url(#SVGID_3_);}
	.st7{fill:url(#SVGID_4_);}
	.st8{fill:url(#SVGID_5_);}
	.st9{opacity:0.5;fill:url(#SVGID_6_);}
	.st10{fill:url(#SVGID_7_);}
</style>
<g>
	<g>
		<path class="st1" d="M56.76,145.01c-5.23,5.23-6.34,13.29-2.71,19.62c2.79,4.86,1.61,10.96-2.81,14.5
			c-1.94,1.55-4.42,2.41-6.99,2.41c-1.18,0-2.33-0.2-3.42-0.54c3.49-3.5,4.38-8.84,2.01-13.29c-3.43-6.44-2.89-15.54,2.51-20.6
			l38.07-28.74L56.76,145.01z"/>
	</g>
	<g>
		<path class="st0" d="M115.97,101.79l-7.04-7.04l2.39-10.05l-5.03,1.19c-3.11,0.74-6.43-0.2-8.68-2.46
			c-1.75-1.75-2.71-4.07-2.71-6.54s0.96-4.8,2.71-6.55l30.49-30.5c1.63-1.63,1.93-4.14,0.75-6.25c-5.39-9.67-3-21.74,5.69-28.7
			c8.23-6.59,20.15-6.53,28.32,0.15c5.12,4.18,8.07,10.13,8.32,16.61c6.48,0.25,12.43,3.2,16.61,8.32
			c6.68,8.18,6.74,20.09,0.14,28.32c-6.95,8.68-19.02,11.08-28.7,5.69c-2.11-1.18-4.62-0.87-6.25,0.75L115.97,101.79z M113.92,93.34
			l2.05,2.05l33.84-33.84c3.07-3.07,7.75-3.68,11.65-1.51c7.73,4.31,17.39,2.39,22.96-4.56c5.27-6.58,5.22-16.1-0.12-22.63l0,0
			c-3.76-4.61-9.32-7.02-15.25-6.63l-2.58,0.17l0.17-2.58c0.39-5.93-2.03-11.49-6.63-15.25c-6.53-5.34-16.05-5.39-22.63-0.12
			c-6.95,5.57-8.87,15.22-4.56,22.96c2.17,3.9,1.56,8.58-1.51,11.65l-30.5,30.5c-0.89,0.89-1.38,2.08-1.38,3.35
			c0,1.26,0.49,2.45,1.38,3.34c1.15,1.15,2.86,1.63,4.44,1.26l12.18-2.89L113.92,93.34z"/>
	</g>
	<g>
		<path class="st0" d="M44.25,192.85c-5.07,0-10.14-1.69-14.26-5.05c-5.12-4.18-8.07-10.13-8.32-16.61
			c-6.48-0.25-12.43-3.2-16.61-8.32c-6.68-8.18-6.74-20.09-0.15-28.32c6.96-8.69,19.03-11.08,28.7-5.69
			c2.11,1.18,4.62,0.87,6.25-0.76l37.04-37.04l5.26,5.25l14.74-3.5l-2.43,10.22c-0.66,2.79,0.18,5.79,2.22,7.82
			c2.82,2.82,2.82,7.41,0,10.23L64.75,153c-1.63,1.63-1.93,4.14-0.75,6.25c5.39,9.67,3,21.74-5.69,28.7
			C54.22,191.22,49.24,192.85,44.25,192.85z M26.38,166.46l-0.17,2.58c-0.39,5.93,2.03,11.49,6.63,15.25
			c6.54,5.34,16.05,5.39,22.63,0.12c6.95-5.57,8.87-15.23,4.56-22.96c-2.17-3.9-1.56-8.58,1.51-11.65l31.93-31.93
			c1.05-1.05,1.05-2.77,0-3.83c-3.13-3.13-4.44-7.76-3.42-12.07l0.73-3.07l-10.06,2.39l-3.84-3.84L43.05,131.3
			c-3.07,3.07-7.76,3.68-11.65,1.51c-7.74-4.31-17.39-2.39-22.96,4.56c-5.27,6.58-5.22,16.1,0.12,22.63
			c3.76,4.61,9.35,7.03,15.25,6.63L26.38,166.46z"/>
	</g>
	<g>
		<g>
			<path class="st0" d="M51.31,77.57H31.19c-1.25,0-2.26-1.01-2.26-2.26c0-1.25,1.01-2.26,2.26-2.26h20.11
				c1.25,0,2.26,1.01,2.26,2.26C53.57,76.55,52.56,77.57,51.31,77.57z"/>
		</g>
		<g>
			<path class="st0" d="M58.61,60.48c-0.58,0-1.16-0.22-1.6-0.66L43.16,45.97c-0.88-0.88-0.88-2.32,0-3.2c0.88-0.88,2.32-0.88,3.2,0
				l13.85,13.84c0.88,0.88,0.88,2.32,0,3.2C59.77,60.26,59.19,60.48,58.61,60.48z"/>
		</g>
		<g>
			<path class="st0" d="M76.23,52.19c-1.25,0-2.26-1.01-2.26-2.26V32.12c0-1.25,1.01-2.26,2.26-2.26c1.25,0,2.26,1.01,2.26,2.26
				v17.81C78.5,51.18,77.48,52.19,76.23,52.19z"/>
		</g>
	</g>
</g>
</svg>
