<?xml version="1.0" encoding="utf-8"?>
<!-- Generator: Adobe Illustrator 23.0.1, SVG Export Plug-In . SVG Version: 6.00 Build 0)  -->
<svg version="1.1" id="Capa_1" xmlns="http://www.w3.org/2000/svg" xmlns:xlink="http://www.w3.org/1999/xlink" x="0px" y="0px"
	 viewBox="0 0 204.02 176.22" style="enable-background:new 0 0 204.02 176.22;" xml:space="preserve">
<style type="text/css">
	.st0{fill:#136380;}
	.st1{fill:#00AFB7;}
	.st2{fill:none;stroke:#344154;stroke-width:3;stroke-linecap:round;stroke-miterlimit:10;}
	.st3{fill:#FF6D3B;}
	.st4{fill:url(#SVGID_1_);}
	.st5{fill:url(#SVGID_2_);}
	.st6{fill:url(#SVGID_3_);}
	.st7{fill:url(#SVGID_4_);}
	.st8{fill:url(#SVGID_5_);}
	.st9{opacity:0.5;fill:url(#SVGID_6_);}
	.st10{fill:url(#SVGID_7_);}
</style>
<g>
	<path class="st0" d="M95.47,139.34v-2.11l-0.54,0.2l-2.97-10.5c-3.25-11.48-11.32-20.95-22.15-25.98l-8.57-3.97
		c-4.63-2.15-8.09-6.2-9.48-11.11l-4.05-14.3l0.28-2.12c0.69-5.25-1.62-10.41-5.89-13.46l0.05-0.28c1.1-5.87-1.28-11.94-6.04-15.51
		c-0.79-8.29-7.73-11-7.82-11.04l-1.61-0.59l-2.91,8.99c-1.67-1.58-3.37-2.07-3.54-2.12l-1.49-0.38L5.72,75.02l-0.14,0.43L9.5,93.31
		c-5.04,0.19-8.12,3.17-8.49,3.55L0,97.93l0.94,1.13c0.1,0.12,10.3,12.38,17.22,24.4c5.38,9.36,14.12,16.13,23.98,18.59
		c0.63,0.15,1.26,0.3,1.92,0.44c5.22,1.07,9.72,4.2,12.64,8.69l-6.52,2.35l9.09,22.68l31.54-9.71l-0.97-3.15l-28.63,8.81L57.94,164
		l37.2-13.15l-0.17-0.47h0.5v-10.41l0.16-0.05L95.47,139.34z M44.73,139.26c-0.61-0.13-1.21-0.26-1.79-0.41
		c-8.99-2.24-16.98-8.45-21.92-17.03c-5.78-10.04-13.9-20.36-16.5-23.58c1.23-0.83,3.27-1.83,5.85-1.67
		c4.13,0.2,8.38,3.05,12.61,8.48c6.61,8.46,16.72,12.94,26.99,12.06c0.62-0.05,1.25-0.12,1.88-0.21l0.81-0.11l-0.44-3.28l-0.81,0.11
		c-0.58,0.08-1.15,0.15-1.72,0.19c-9.21,0.79-18.2-3.23-24.11-10.8c-4.09-5.24-8.33-8.36-12.64-9.37L9.01,75.61l11.81-36.25
		c0.57,0.4,1.21,1.02,1.76,1.91l-0.03,0.11l0.13,0.04c0.94,1.63,1.54,4.15,0.89,8.05l-5.73,25.21l-0.04,0.19l4.16,17l3.21-0.79
		l-3.98-16.23l5.61-24.73c0.68-4,0.23-6.93-0.67-9.08l2.57-7.92c2.25,1.53,5.58,5.24,3.58,13.12L27.02,73.6l-0.04,0.19l4.49,15.86
		l3.18-0.9l-4.27-15.11l5.11-26.69c0.21-0.83,0.36-1.61,0.47-2.37c2.5,2.85,3.66,6.74,2.94,10.54l-3.05,16.28l-0.04,0.19l4.64,16.13
		l3.17-0.91l-4.42-15.37l2.2-11.74c2.49,2.38,3.77,5.83,3.3,9.33l-0.37,2.8l4.24,14.96c1.66,5.84,5.76,10.65,11.27,13.2l8.57,3.97
		c9.96,4.62,17.38,13.32,20.36,23.88l3.03,10.72l-31.94,11.5C56.5,144.48,51.07,140.56,44.73,139.26z M92.17,148.39l-35.46,12.54
		l-2.18-5.45l37.64-13.55V148.39z"/>
	<path class="st0" d="M203,96.85c-0.36-0.37-3.45-3.38-8.48-3.55l3.91-17.86l-13.15-40.37l-1.52,0.38
		c-0.15,0.04-1.85,0.54-3.51,2.14l-2.92-9.01l-1.62,0.59c-0.08,0.03-7.07,2.77-7.83,11.06c-4.76,3.58-7.12,9.63-6.03,15.49
		l0.05,0.28c-4.27,3.04-6.58,8.21-5.89,13.46l0.28,2.12l-4.05,14.3c-1.4,4.91-4.85,8.96-9.48,11.11l-8.57,3.97
		c-10.83,5.02-18.9,14.49-22.15,25.98l-2.97,10.5l-0.55-0.2v2.12l-0.16,0.56l0.16,0.05v10.41h0.5l-0.17,0.47l37.2,13.15l-3.28,8.17
		l-28.63-8.81l-0.97,3.15l31.54,9.71l9.09-22.68l-6.52-2.35c2.91-4.49,7.42-7.62,12.64-8.69c0.65-0.14,1.29-0.28,1.92-0.44
		c9.85-2.46,18.59-9.23,23.98-18.59c6.92-12.02,17.12-24.28,17.22-24.41l0.94-1.13L203,96.85z M111.86,141.93l37.65,13.55
		l-2.19,5.45l-35.46-12.54V141.93z M112.21,138.55l3.03-10.72c2.99-10.56,10.41-19.26,20.36-23.88l8.57-3.97
		c5.5-2.55,9.61-7.36,11.27-13.2l4.19-14.79l0.05-0.16l-0.37-2.8c-0.46-3.5,0.82-6.94,3.3-9.33l2.2,11.74L160.4,86.8l3.17,0.91
		l4.64-16.12l-3.09-16.47c-0.71-3.8,0.44-7.69,2.94-10.54c0.11,0.73,0.25,1.48,0.45,2.27l5.14,26.79l-4.28,15.11l3.18,0.9
		l4.49-15.86l-5.31-27.65c-1.97-7.77,1.36-11.47,3.61-13.02l2.58,7.95c-0.9,2.17-1.35,5.11-0.67,9.13l5.6,24.65l-3.98,16.23
		l3.21,0.79l4.12-16.81l0.04-0.19l-5.76-25.31c-0.67-3.95-0.06-6.51,0.88-8.15l0.12-0.04l-0.03-0.09c0.55-0.9,1.18-1.52,1.75-1.92
		l11.81,36.25l-3.94,18.03c-4.31,1.01-8.55,4.14-12.64,9.37c-5.91,7.57-14.93,11.61-24.11,10.8c-0.56-0.05-1.14-0.11-1.72-0.19
		l-0.81-0.11l-0.44,3.28l0.81,0.11c0.64,0.08,1.27,0.16,1.88,0.21c10.3,0.92,20.38-3.59,27-12.06c4.22-5.41,8.45-8.26,12.58-8.47
		c2.63-0.12,4.63,0.83,5.87,1.67c-2.99,3.71-10.81,13.71-16.49,23.57c-4.94,8.59-12.93,14.79-21.92,17.04
		c-0.58,0.15-1.18,0.28-1.79,0.4c-6.34,1.31-11.77,5.22-15.13,10.79L112.21,138.55z"/>
	<path class="st1" d="M113.73,53.49l12.3,3.57c1.3,0.29,2.67,1.01,4.08,2.16c2.21,1.83,3.74,4.38,4.3,7.19l3.03,15.21l3.24-0.64
		l-3.03-15.21c-0.71-3.55-2.65-6.78-5.44-9.09c-1.8-1.48-3.62-2.43-5.36-2.81l-12.3-3.57c-0.1-0.03-0.2-0.08-0.29-0.14
		c-0.25-0.17-0.42-0.44-0.45-0.74l-0.46-3.97c3.11-2.66,5.5-6.42,6.79-10.66c2.51-0.88,4.22-3.72,4.22-7.11
		c0-2.99-1.35-5.55-3.38-6.71c-0.05-2.89-0.68-10.51-5.71-15.8C112.01,1.74,107.55,0,102.01,0c-5.53,0-10,1.74-13.28,5.17
		c-2.16,2.26-3.51,4.95-4.36,7.53l-0.3,0.63l0.08,0.04c-0.97,3.21-1.17,6.14-1.2,7.67c-1.98,1.19-3.28,3.73-3.28,6.65
		c0,3.39,1.7,6.23,4.2,7.11c1.3,4.24,3.69,8,6.8,10.66l-0.46,3.97c-0.03,0.3-0.2,0.57-0.45,0.74c-0.08,0.06-0.18,0.1-0.29,0.13
		l-12.15,3.54c-1.85,0.41-3.7,1.37-5.51,2.85c-2.8,2.31-4.74,5.54-5.44,9.09l-3.04,15.21l3.24,0.64l3.04-15.21
		c0.56-2.8,2.08-5.35,4.3-7.19c1.39-1.15,2.79-1.88,4.22-2.2l12.16-3.53l10.07,10.44v7.88h3.3v-7.88L113.73,53.49z M85.05,23.66
		l0.78-0.22l-0.17-0.6l0.61-0.03L86.25,22c-0.01-0.24-0.11-3.98,1.19-8.05c0.51-0.97,1.49-1.81,2.67-2.24
		c1.67-0.62,3.83-0.32,6.42,0.87c0.71,0.33,1.42,0.66,2.11,1c2.8,1.36,5.44,2.64,8.79,3.01c0.94,0.1,1.87,0.16,2.75,0.16
		c2.42,0,4.65-0.41,6.78-1.22c0.8,3.39,0.72,6.22,0.71,6.43l-0.03,0.81l0.65,0.03l-0.16,0.64l0.79,0.19
		c1.22,0.3,2.14,2.04,2.14,4.04c0,2.13-1.07,3.96-2.38,4.08l-1.16,0.1l-0.3,1.12c-1.12,4.3-3.48,8.01-6.63,10.46l-0.73,0.57
		l0.68,5.79c0.07,0.6,0.27,1.16,0.56,1.67l-9.09,9.42l-9.09-9.42c0.29-0.51,0.49-1.07,0.56-1.67l0.67-5.78l-0.74-0.57
		c-3.15-2.45-5.51-6.16-6.64-10.46l-0.3-1.11l-1.15-0.11c-1.33-0.12-2.37-1.91-2.37-4.08C82.97,25.69,83.85,24,85.05,23.66z
		 M102.01,3.3c4.59,0,8.25,1.39,10.87,4.14c1.39,1.46,2.37,3.17,3.07,4.91c-2.45,0.97-5.08,1.31-8.16,0.97
		c-2.8-0.31-5.18-1.47-7.71-2.7c-0.71-0.35-1.43-0.7-2.18-1.04c-2.79-1.28-5.3-1.68-7.51-1.29c0.23-0.29,0.47-0.57,0.72-0.84
		C93.75,4.7,97.42,3.3,102.01,3.3z"/>
</g>
</svg>
