<?xml version="1.0" encoding="utf-8"?>
<!-- Generator: Adobe Illustrator 23.0.1, SVG Export Plug-In . SVG Version: 6.00 Build 0)  -->
<svg version="1.1" id="Capa_1" xmlns="http://www.w3.org/2000/svg" xmlns:xlink="http://www.w3.org/1999/xlink" x="0px" y="0px"
	 viewBox="0 0 155.27 207.8" style="enable-background:new 0 0 155.27 207.8;" xml:space="preserve">
<style type="text/css">
	.st0{fill:#136380;}
	.st1{fill:#00AFB7;}
	.st2{fill:none;stroke:#344154;stroke-width:3;stroke-linecap:round;stroke-miterlimit:10;}
	.st3{fill:#FF6D3B;}
	.st4{fill:url(#SVGID_1_);}
	.st5{fill:url(#SVGID_2_);}
	.st6{fill:url(#SVGID_3_);}
	.st7{fill:url(#SVGID_4_);}
	.st8{fill:url(#SVGID_5_);}
	.st9{opacity:0.5;fill:url(#SVGID_6_);}
	.st10{fill:url(#SVGID_7_);}
</style>
<g>
	<g>
		<path class="st0" d="M77.63,144.15c-3.26,0-6.51-1.21-9-3.64l-3.82-3.74c-0.89-0.88-0.91-2.31-0.03-3.2
			c0.87-0.89,2.31-0.91,3.2-0.03l3.82,3.74c3.22,3.15,8.45,3.15,11.66,0l3.82-3.74c0.89-0.87,2.32-0.86,3.2,0.03
			c0.87,0.89,0.86,2.33-0.03,3.2l-3.82,3.74C84.15,142.93,80.89,144.15,77.63,144.15z"/>
	</g>
	<g>
		<path class="st0" d="M77.63,207.8l-20.84-21l12.86-47.21c0.33-1.21,1.57-1.92,2.78-1.59c1.21,0.33,1.92,1.57,1.59,2.78
			l-12.17,44.68l15.79,15.91l15.79-15.91l-12.17-44.69c-0.33-1.21,0.38-2.45,1.59-2.78c1.21-0.33,2.45,0.38,2.78,1.59l12.86,47.21
			L77.63,207.8z"/>
	</g>
	<g>
		<path class="st0" d="M77.63,207.8l-20.84-21l12.86-47.21c0.33-1.21,1.57-1.92,2.78-1.59c1.21,0.33,1.92,1.57,1.59,2.78
			l-12.17,44.68l15.79,15.91l15.79-15.91l-12.17-44.69c-0.33-1.21,0.38-2.45,1.59-2.78c1.21-0.33,2.45,0.38,2.78,1.59l12.86,47.21
			L77.63,207.8z"/>
	</g>
	<g>
		<g>
			<path class="st0" d="M108.38,187.97c-1.05,0-1.99-0.74-2.21-1.8c-0.25-1.22,0.53-2.42,1.76-2.68l42.03-8.71l-5.41-27.07
				c-1.19-5.95-4.43-11.36-9.11-15.24c-2.97-2.44-5.91-4-8.74-4.62l-25.15-7.3c-0.77-0.22-1.49-0.56-2.16-1.01
				c-1.87-1.25-3.09-3.26-3.35-5.5l-1.3-11.16l1.01-0.78c6.59-5.12,11.52-12.87,13.86-21.83l0.4-1.54l1.59-0.14
				c3.27-0.29,5.83-4.41,5.83-9.37c0-4.62-2.18-8.52-5.18-9.27c-1.21-0.31-1.95-1.53-1.64-2.75c0.3-1.21,1.53-1.95,2.75-1.64
				c5.06,1.27,8.6,6.89,8.6,13.66c0,6.69-3.49,12.21-8.35,13.58c-2.6,8.88-7.54,16.63-14.07,22.07l1.01,8.65
				c0.11,0.92,0.61,1.75,1.38,2.27c0.28,0.19,0.57,0.33,0.89,0.42l25,7.26c3.38,0.74,6.96,2.6,10.5,5.51
				c5.49,4.53,9.27,10.87,10.67,17.84l6.29,31.48l-46.43,9.62C108.68,187.95,108.53,187.97,108.38,187.97z"/>
		</g>
		<g>
			<path class="st0" d="M42.24,187c-0.15,0-0.31-0.01-0.46-0.05L0,178.3l6.29-31.48c1.38-6.96,5.17-13.29,10.67-17.84
				c3.53-2.91,7.14-4.79,10.73-5.58l24.77-7.2c0.32-0.09,0.62-0.23,0.89-0.42c0.77-0.52,1.27-1.35,1.38-2.27l1-8.65
				C49.2,99.44,44.26,91.69,41.65,82.8c-4.84-1.39-8.33-6.9-8.33-13.58c0-6.6,3.42-12.18,8.31-13.58c1.2-0.34,2.45,0.35,2.8,1.56
				c0.34,1.2-0.35,2.45-1.55,2.8c-2.91,0.83-5.03,4.71-5.03,9.23c0,4.96,2.55,9.07,5.81,9.37l1.58,0.14l0.4,1.53
				c2.36,8.96,7.29,16.71,13.87,21.84l1,0.78l-1.29,11.16c-0.26,2.24-1.48,4.24-3.35,5.5c-0.67,0.45-1.4,0.79-2.17,1.01l-24.91,7.23
				c-3.02,0.67-5.99,2.23-8.96,4.68c-4.7,3.88-7.94,9.29-9.12,15.23l-5.41,27.07l37.38,7.75c1.22,0.25,2.01,1.45,1.76,2.68
				C44.23,186.27,43.29,187,42.24,187z"/>
		</g>
	</g>
	<g>
		<path class="st0" d="M42.25,60.08c-1.2,0-2.2-0.95-2.26-2.16c-0.02-0.36-0.36-9.02,2.76-18.6c0.39-1.19,1.67-1.84,2.85-1.45
			c1.19,0.39,1.84,1.66,1.45,2.85c-2.86,8.77-2.55,16.92-2.54,17c0.05,1.25-0.91,2.3-2.16,2.36C42.32,60.08,42.29,60.08,42.25,60.08
			z"/>
	</g>
	<g>
		<path class="st0" d="M112.8,60.02c-0.04,0-0.08,0-0.11,0c-1.25-0.06-2.21-1.12-2.15-2.37c0-0.08,0.36-8.25-2.48-17.03
			c-0.38-1.19,0.27-2.47,1.46-2.85c1.19-0.38,2.47,0.27,2.85,1.46c3.1,9.6,2.71,18.28,2.69,18.65C115,59.08,114,60.02,112.8,60.02z"
			/>
	</g>
	<g>
		<path class="st0" d="M94.23,45.94c-1.76,0-3.58-0.1-5.47-0.31c-6.63-0.73-12.16-3.42-17.51-6.02c-1.41-0.69-2.84-1.38-4.31-2.05
			c-5.53-2.52-10.2-3.12-13.87-1.79c-2.72,0.99-5.01,2.95-6.13,5.25c-0.55,1.12-1.9,1.59-3.03,1.04c-1.12-0.55-1.59-1.9-1.04-3.03
			c1.65-3.38,4.8-6.12,8.65-7.52c4.82-1.75,10.64-1.11,17.3,1.93c1.5,0.69,2.96,1.4,4.41,2.1c5.23,2.54,10.17,4.94,16.02,5.59
			c7.63,0.85,13.97-0.18,19.93-3.22c1.11-0.57,2.48-0.13,3.04,0.99c0.57,1.11,0.12,2.48-0.99,3.04
			C105.95,44.63,100.45,45.94,94.23,45.94z"/>
	</g>
	<g>
		<path class="st0" d="M77.63,131.99c-0.54,0-1.08-0.19-1.51-0.58l-20.39-18.26c-0.93-0.83-1.01-2.26-0.18-3.2
			c0.83-0.93,2.27-1.01,3.2-0.18l18.88,16.91l18.88-16.91c0.93-0.84,2.36-0.76,3.2,0.18c0.83,0.93,0.75,2.36-0.18,3.2l-20.39,18.26
			C78.71,131.8,78.17,131.99,77.63,131.99z"/>
	</g>
	<g>
		<path class="st0" d="M110.2,162.81c-1.07,0-2.02-0.76-2.22-1.84c-0.23-1.23,0.58-2.41,1.81-2.64l23.08-4.34
			c1.23-0.25,2.41,0.58,2.64,1.8c0.23,1.23-0.58,2.41-1.81,2.64l-23.08,4.34C110.48,162.8,110.34,162.81,110.2,162.81z"/>
	</g>
	<g>
		<path class="st0" d="M44.27,44.41c-1.25,0-2.26-1.01-2.26-2.26V13.18C42.01,5.91,47.92,0,55.19,0H99.3
			c7.27,0,13.18,5.91,13.18,13.18v26.74c0,1.25-1.01,2.26-2.26,2.26s-2.26-1.01-2.26-2.26V13.18c0-4.77-3.88-8.65-8.65-8.65H55.19
			c-4.77,0-8.65,3.88-8.65,8.65v28.97C46.53,43.4,45.52,44.41,44.27,44.41z"/>
	</g>
	<g>
		<g>
			<path class="st0" d="M77.24,29.66c-1.25,0-2.26-1.01-2.26-2.26V12.11c0-1.25,1.01-2.26,2.26-2.26s2.26,1.01,2.26,2.26V27.4
				C79.5,28.65,78.49,29.66,77.24,29.66z"/>
		</g>
		<g>
			<path class="st0" d="M84.88,22.02H69.6c-1.25,0-2.26-1.01-2.26-2.26c0-1.25,1.01-2.26,2.26-2.26h15.29
				c1.25,0,2.26,1.01,2.26,2.26C87.15,21.01,86.13,22.02,84.88,22.02z"/>
		</g>
	</g>
	<g>
		<path class="st1" d="M68.79,183.24l8.84,9.65l8.84-9.65l-4.22-15.93c-3.8,2.31-7.6,3.85-10.52,4.84L68.79,183.24z"/>
	</g>
</g>
</svg>
