<?xml version="1.0" encoding="utf-8"?>
<!-- Generator: Adobe Illustrator 23.0.1, SVG Export Plug-In . SVG Version: 6.00 Build 0)  -->
<svg version="1.1" id="Capa_1" xmlns="http://www.w3.org/2000/svg" xmlns:xlink="http://www.w3.org/1999/xlink" x="0px" y="0px"
	 viewBox="0 0 212.84 199.02" style="enable-background:new 0 0 212.84 199.02;" xml:space="preserve">
<style type="text/css">
	.st0{fill:#136380;}
	.st1{fill:#00AFB7;}
	.st2{fill:none;stroke:#344154;stroke-width:3;stroke-linecap:round;stroke-miterlimit:10;}
	.st3{fill:#FF6D3B;}
	.st4{fill:url(#SVGID_1_);}
	.st5{fill:url(#SVGID_2_);}
	.st6{fill:url(#SVGID_3_);}
	.st7{fill:url(#SVGID_4_);}
	.st8{fill:url(#SVGID_5_);}
	.st9{opacity:0.5;fill:url(#SVGID_6_);}
	.st10{fill:url(#SVGID_7_);}
</style>
<g>
	<g>
		<path class="st1" d="M26.5,116.19c-3.31-21.05,21.99-37.82,40.72-19.73c0,0-9.9-22.84-32.49-21.36
			C22.7,75.9,11.88,82.98,6.34,93.69c-3.58,6.91-5.66,16.35-1.83,28.16c1.38,4.27,3.42,8.29,5.97,11.97
			c0.98,1.42,2.03,2.8,3.16,4.11c4.98,5.79,14.44,15.08,23.91,23.05c0,0,23.56,19.29,29.17,32.06c0-16.28-6.96-32.88-17.54-45.09
			C41.18,138.69,28.62,129.63,26.5,116.19z"/>
	</g>
	<g id="XMLID_6107_">
		<g id="XMLID_6108_">
			<g id="XMLID_6109_">
				<path class="st0" d="M66.69,199.02l-2.21-5.02c-5.32-12.09-28.25-30.96-28.48-31.14c-8.96-7.54-18.68-16.91-24.21-23.35
					c-1.13-1.31-2.25-2.76-3.32-4.31c-2.75-3.96-4.86-8.2-6.28-12.6c-3.47-10.7-2.8-20.81,1.99-30.04
					c5.92-11.43,17.57-19.05,30.41-19.89c17.85-1.17,28.41,11.9,32.67,18.77c4.33-6.83,14.96-19.78,32.86-18.43
					c12.83,0.98,24.41,8.72,30.2,20.21c4.69,9.29,5.25,19.4,1.68,30.06c-1.06,3.15-2.48,6.23-4.22,9.15
					c-0.69,1.16-2.19,1.54-3.35,0.85c-1.16-0.69-1.54-2.19-0.85-3.35c1.56-2.63,2.84-5.39,3.78-8.21
					c3.14-9.37,2.67-18.21-1.41-26.29c-5.03-9.97-15.07-16.69-26.2-17.53C79.17,76.28,69.84,96.6,69.46,97.46l-2.27,5.06l-2.21-5.08
					c-0.38-0.86-9.5-21.27-30.08-19.89c-11.14,0.73-21.25,7.34-26.38,17.26c-4.16,8.03-4.73,16.88-1.68,26.28
					c1.28,3.94,3.18,7.75,5.66,11.32c0.97,1.41,1.98,2.72,3,3.9c5.3,6.16,15.01,15.52,23.63,22.78c0.86,0.7,19.66,16.17,27.63,28.85
					c4.58-7.11,12.64-15.11,19.14-21c1.01-0.91,2.55-0.83,3.46,0.17c0.91,1,0.83,2.55-0.17,3.46c-10.5,9.52-17.68,17.85-20.22,23.46
					L66.69,199.02z"/>
			</g>
		</g>
	</g>
	<g>
		<path class="st0" d="M94.47,153.35c-8.36,0-15.16-6.8-15.16-15.16s6.8-15.16,15.16-15.16s15.16,6.8,15.16,15.16
			S102.83,153.35,94.47,153.35z M94.47,127.92c-5.66,0-10.27,4.61-10.27,10.27c0,5.66,4.61,10.27,10.27,10.27
			c5.66,0,10.27-4.61,10.27-10.27C104.74,132.53,100.14,127.92,94.47,127.92z"/>
	</g>
	<g>
		<path class="st0" d="M70.37,138.88c-1.35,0-2.45-1.1-2.45-2.45c0-13.67,11.12-24.8,24.8-24.8c1.35,0,2.45,1.1,2.45,2.45
			c0,1.35-1.1,2.45-2.45,2.45c-10.98,0-19.9,8.93-19.9,19.9C72.82,137.79,71.72,138.88,70.37,138.88z"/>
	</g>
	<g>
		<path class="st0" d="M138.35,168.49c-7.1,0-14.12-2.24-20.26-6.66l-6.56-4.71c-1.1-0.79-1.35-2.32-0.56-3.41
			c0.79-1.1,2.32-1.34,3.41-0.56l6.56,4.71c9.31,6.7,20.97,7.57,31.18,2.34c10.21-5.23,16.31-15.21,16.31-26.68V72.24
			c0-1.35,1.1-2.45,2.45-2.45c1.35,0,2.45,1.1,2.45,2.45v61.27c0,13.35-7.09,24.95-18.97,31.03
			C149.22,167.18,143.77,168.49,138.35,168.49z"/>
	</g>
	<g>
		<path class="st0" d="M170.88,74.69c-11.24,0-20.45-3.67-27.37-10.9c-14.5-15.15-14.95-42.22-14.47-53.15
			c0.19-4.37,3.17-8.05,7.4-9.16l4.71-1.24c3.77-1,7.65,1.27,8.66,5.03c0.99,3.74-1.13,7.52-4.84,8.62l-1.72,0.51
			c-1.29,0.38-2.66-0.36-3.04-1.65c-0.38-1.29,0.36-2.66,1.65-3.04l1.71-0.51c1.15-0.34,1.81-1.51,1.5-2.67
			c-0.31-1.17-1.52-1.86-2.68-1.56l-4.71,1.24c-2.15,0.57-3.66,2.43-3.76,4.65c-0.45,10.31-0.08,35.76,13.12,49.55
			c5.96,6.23,13.98,9.39,23.84,9.39c9.85,0,17.87-3.16,23.84-9.39c13.2-13.79,13.57-39.25,13.12-49.55
			c-0.1-2.21-1.61-4.08-3.76-4.64l-4.71-1.24c-1.17-0.3-2.37,0.39-2.68,1.56c-0.31,1.16,0.35,2.33,1.5,2.67l1.71,0.51
			c1.3,0.38,2.04,1.74,1.65,3.04c-0.38,1.3-1.75,2.04-3.04,1.65l-1.71-0.51c-3.71-1.1-5.83-4.88-4.84-8.62
			c1.01-3.77,4.88-6.03,8.66-5.04l4.71,1.24c4.23,1.11,7.21,4.79,7.4,9.16c0.48,10.94,0.03,38-14.47,53.15
			C191.33,71.02,182.12,74.69,170.88,74.69z"/>
	</g>
</g>
</svg>
