<?xml version="1.0" encoding="utf-8"?>
<!-- Generator: Adobe Illustrator 23.0.1, SVG Export Plug-In . SVG Version: 6.00 Build 0)  -->
<svg version="1.1" id="Capa_1" xmlns="http://www.w3.org/2000/svg" xmlns:xlink="http://www.w3.org/1999/xlink" x="0px" y="0px"
	 viewBox="0 0 186.82 181.1" style="enable-background:new 0 0 186.82 181.1;" xml:space="preserve">
<style type="text/css">
	.st0{fill:#136380;}
	.st1{fill:#00AFB7;}
	.st2{fill:none;stroke:#344154;stroke-width:3;stroke-linecap:round;stroke-miterlimit:10;}
	.st3{fill:#FF6D3B;}
	.st4{fill:url(#SVGID_1_);}
	.st5{fill:url(#SVGID_2_);}
	.st6{fill:url(#SVGID_3_);}
	.st7{fill:url(#SVGID_4_);}
	.st8{fill:url(#SVGID_5_);}
	.st9{opacity:0.5;fill:url(#SVGID_6_);}
	.st10{fill:url(#SVGID_7_);}
</style>
<g>
	<path class="st0" d="M175.42,117.7h-3.98c2.24-2.13,3.79-4.88,4.47-7.96c0.91-4.1,0.16-8.3-2.1-11.84
		c-2.26-3.54-5.76-5.99-9.86-6.89c-4.1-0.91-8.3-0.16-11.84,2.1c-3.54,2.26-5.99,5.76-6.89,9.85c-0.91,4.1-0.16,8.3,2.1,11.84
		c0.69,1.08,1.5,2.04,2.4,2.9h-11.78c1.09-1.6,1.69-3.5,1.69-5.51l0.01-6.73c0.01-5.67-4.55-10.3-10.15-10.3H82.26h-0.03h-2.16
		l0,0.12c-6.42,0.57-11.22,3.71-14.02,9.22H20.08c-4.56,0-8.26,3.71-8.26,8.26v4.93h-0.41C5.12,117.7,0,122.82,0,129.11v19.8v4.36
		v27.83h12.44c4.59,0,8.33-3.74,8.33-8.33v-19.51h145.28v19.51c0,4.59,3.74,8.33,8.33,8.33h12.44v-27.83v-4.36v-19.8
		C186.82,122.82,181.71,117.7,175.42,117.7z M149.49,103.9c0.65-2.96,2.42-5.49,4.98-7.12c1.85-1.18,3.94-1.79,6.08-1.79
		c0.82,0,1.65,0.09,2.47,0.27c2.96,0.65,5.49,2.42,7.12,4.98c3.37,5.28,1.81,12.31-3.46,15.68c-5.28,3.37-12.31,1.81-15.67-3.46
		C149.37,109.9,148.83,106.86,149.49,103.9z M16.18,112.77c0-2.15,1.75-3.9,3.9-3.9h48.81l0.56-1.33c2.01-4.76,5.5-7.35,10.64-7.9
		l0.07,18.07H16.18V112.77z M16.41,172.78c0,2.19-1.78,3.97-3.97,3.97H4.36v-23.47h12.05V172.78z M182.46,176.74h-8.08
		c-2.19,0-3.97-1.78-3.97-3.97v-19.51h12.05V176.74z M166.05,148.91H20.77H4.36v-19.8c0-3.89,3.16-7.04,7.04-7.04h0.41H14h66.18
		h4.37h17.39c0.12,3.27,1.35,6.48,3.52,9.06c2.82,3.36,6.94,5.39,11.31,5.58l18.9,0.79c0.03,0,0.06,0,0.09,0
		c1.16,0,2.13-0.92,2.18-2.09c0.05-1.2-0.89-2.22-2.09-2.27l-18.9-0.79c-3.15-0.13-6.12-1.6-8.15-4.02
		c-1.96-2.34-2.82-5.23-2.43-8.15l0.33-2.47H84.52l-0.07-18.18h45.05c3.14,0,5.79,2.72,5.79,5.94l-0.01,6.73
		c0,1.51-0.59,2.9-1.66,3.92c-1.08,1.03-2.55,1.59-4.13,1.59h-0.01h-10.1c-1.2,0-2.18,0.98-2.18,2.18s0.98,2.18,2.18,2.18h10.1h0.01
		h31.04c0.03,0,0.05,0,0.08,0c0.02,0,0.04,0,0.06,0h14.76c3.89,0,7.04,3.16,7.04,7.04v19.8H166.05z"/>
	<path class="st0" d="M104.04,33.53c3.08,0,6.2-0.85,8.99-2.63c7.8-4.97,10.09-15.36,5.12-23.16c-4.97-7.79-15.36-10.09-23.16-5.12
		c-3.78,2.41-6.39,6.15-7.36,10.52c-0.97,4.37-0.17,8.86,2.24,12.64C93.07,30.79,98.5,33.53,104.04,33.53z M91.9,14.09
		c0.71-3.24,2.65-6,5.44-7.78c2.06-1.32,4.37-1.94,6.65-1.94c4.1,0,8.12,2.02,10.48,5.73c1.78,2.79,2.37,6.11,1.66,9.35
		c-0.72,3.24-2.65,6-5.44,7.78c-5.77,3.68-13.45,1.98-17.13-3.79C91.77,20.65,91.18,17.33,91.9,14.09z"/>
	<path class="st0" d="M73.16,86.56c0.33,0.87,1.16,1.41,2.04,1.41c0.26,0,0.52-0.05,0.77-0.14c1.13-0.42,1.7-1.68,1.27-2.81
		l-3.41-9.04c-1.24-3.3-0.73-6.96,1.38-9.78l10.02-13.45v33.03c0,1.2,0.98,2.18,2.18,2.18c1.2,0,2.18-0.98,2.18-2.18V48.79
		c0-3.28,2.67-5.94,5.94-5.94h16.96c3.28,0,5.94,2.67,5.94,5.94v36.99c0,1.2,0.98,2.18,2.18,2.18s2.18-0.98,2.18-2.18V52.76
		l10.02,13.45c2.11,2.83,2.62,6.48,1.38,9.78l-3.41,9.03c-0.43,1.13,0.14,2.39,1.27,2.81c0.25,0.1,0.51,0.14,0.77,0.14
		c0.88,0,1.71-0.54,2.04-1.41l3.41-9.03c1.77-4.7,1.04-9.9-1.96-13.93l-15.09-20.25c-1.82-2.91-5.05-4.86-8.73-4.86H95.53
		c-3.68,0-6.91,1.95-8.73,4.86L71.71,63.6c-3,4.02-3.73,9.23-1.96,13.93L73.16,86.56z"/>
	<path class="st1" d="M91.01,106.07l0.02,5.09h11.79h1.38h9.98c0,0,1.09-2.78,3.68-5.09H91.01z"/>
	<polygon class="st1" points="96.81,74.81 104.01,80.49 111.21,74.81 111.21,68.52 111.21,50.07 96.81,50.07 96.81,68.52 	"/>
</g>
</svg>
