<?xml version="1.0" encoding="utf-8"?>
<!-- Generator: Adobe Illustrator 23.0.1, SVG Export Plug-In . SVG Version: 6.00 Build 0)  -->
<svg version="1.1" id="Capa_1" xmlns="http://www.w3.org/2000/svg" xmlns:xlink="http://www.w3.org/1999/xlink" x="0px" y="0px"
	 viewBox="0 0 1706.97 293.47" style="enable-background:new 0 0 1706.97 293.47;" xml:space="preserve">
<style type="text/css">
	.st0{fill:#FFFFFF;}
	.st1{fill:#35B7EA;}
	.st2{fill:#00B0B8;}
	.st3{fill:#126380;}
</style>
<g>
	<g>
		<path class="st0" d="M30.24,3.71h57.23c8.46,0,15.69,1.22,21.66,3.7c5.96,2.47,10.7,5.84,14.17,10.06
			c3.47,4.23,5.73,9.18,6.77,14.84c1.01,5.67,0.91,11.77-0.39,18.33c-1.21,6.06-3.21,11.46-5.96,16.15
			c-2.77,4.73-5.89,8.8-9.35,12.22c-3.47,3.44-7.15,6.3-11.04,8.62c-3.91,2.31-7.57,4.18-11.06,5.62l24.75,61.31H79.43L61.44,99
			H43.96l-10.99,55.56H0.41L30.24,3.71z M48.93,73.86h12.94c8.61,0,16.02-1.75,22.22-5.27c6.21-3.5,10.1-9.33,11.72-17.48
			c1.42-7.18,0.31-12.72-3.29-16.65c-3.61-3.9-9.66-5.87-18.11-5.87H57.88L48.93,73.86z"/>
		<path class="st0" d="M166.96,3.71h98.17l-5.02,25.36h-65.38l-6.82,34.49h59.14l-4.97,25.14h-59.14l-8.01,40.46h66.1l-5.02,25.39
			h-98.89L166.96,3.71z"/>
		<path class="st0" d="M340.14,1.07c9.72,0,18.16,0.95,25.29,2.86c7.12,1.91,13.33,4.39,18.64,7.41l-12.26,24.44
			c-5.91-3.2-11.75-5.62-17.47-7.31c-5.73-1.68-11.48-2.5-17.23-2.5c-7.66,0-13.91,1.51-18.75,4.53c-4.83,3.04-7.74,7.11-8.75,12.22
			c-1.04,5.28,0,9.28,3.13,11.98c3.15,2.72,8.53,5.36,16.17,7.89l13.46,4.55c11.18,3.99,19.45,9.66,24.78,17
			c5.33,7.36,6.94,16.36,4.82,27.07c-1.27,6.38-3.63,12.36-7.14,17.95c-3.5,5.6-8.05,10.45-13.66,14.61
			c-5.62,4.17-12.25,7.43-19.91,9.83c-7.65,2.39-16.27,3.59-25.86,3.59c-18.04,0-33.84-3.66-47.39-11.01l12.26-24.43
			c6.2,3.34,12.4,5.94,18.59,7.78c6.17,1.84,12.86,2.76,20.03,2.76c8.46,0,15.16-1.55,20.08-4.67s7.94-7.45,9.05-13.06
			c0.38-1.91,0.4-3.78,0.04-5.62c-0.36-1.83-1.33-3.6-2.91-5.27c-1.58-1.67-3.86-3.35-6.78-5.03c-2.94-1.69-6.89-3.31-11.85-4.91
			l-11.84-4.31c-5.21-1.91-9.88-4.15-13.99-6.71c-4.13-2.53-7.5-5.5-10.11-8.85c-2.61-3.36-4.38-7.3-5.31-11.85
			c-0.94-4.55-0.8-9.87,0.4-15.93c1.3-6.56,3.67-12.58,7.16-18.08s7.97-10.24,13.48-14.24c5.49-3.99,11.95-7.11,19.33-9.35
			C323.03,2.18,331.19,1.07,340.14,1.07z"/>
		<path class="st0" d="M419.12,3.71h52.93c8.77,0,16.51,1.03,23.21,3.09c6.69,2.09,12.16,5.12,16.4,9.1
			c4.24,3.99,7.16,8.84,8.74,14.5c1.59,5.67,1.67,12.17,0.21,19.52c-1.71,8.62-4.76,16.04-9.2,22.26
			c-4.42,6.24-9.79,11.38-16.11,15.45c-6.3,4.07-13.34,7.11-21.07,9.1c-7.74,1.99-15.75,3-24.06,3h-17.25l-10.84,54.83h-32.8
			L419.12,3.71z M437.9,74.57h13.41c4.15,0,8.17-0.35,12.08-1.07c3.88-0.73,7.4-1.99,10.57-3.83c3.15-1.83,5.81-4.24,7.99-7.18
			c2.18-2.96,3.71-6.67,4.6-11.15c1.55-7.82,0.05-13.55-4.48-17.25c-4.55-3.67-10.89-5.5-19.02-5.5h-16.06L437.9,74.57z"/>
		<path class="st0" d="M586,3.71l-29.83,150.85h-32.8L553.21,3.71H586z"/>
		<path class="st0" d="M619.28,3.71h57.23c8.46,0,15.69,1.22,21.66,3.7c5.96,2.47,10.7,5.84,14.17,10.06
			c3.47,4.23,5.73,9.18,6.77,14.84c1.01,5.67,0.91,11.77-0.39,18.33c-1.21,6.06-3.21,11.46-5.96,16.15
			c-2.77,4.73-5.89,8.8-9.35,12.22c-3.47,3.44-7.15,6.3-11.04,8.62c-3.91,2.31-7.57,4.18-11.06,5.62l24.75,61.31h-37.59L650.48,99
			H633l-10.99,55.56h-32.56L619.28,3.71z M637.97,73.86h12.94c8.61,0,16.02-1.75,22.22-5.27c6.21-3.5,10.1-9.33,11.72-17.48
			c1.42-7.18,0.31-12.72-3.29-16.65c-3.61-3.9-9.66-5.87-18.11-5.87h-16.52L637.97,73.86z"/>
		<path class="st0" d="M798.62,3.71h34l25.96,150.85h-34.73l-4.86-34.72h-53.63l-18.6,34.72h-34.26L798.62,3.71z M777.57,95.66
			h38.31l-2.98-20.13c-0.99-6.22-1.83-12.48-2.49-18.79c-0.66-6.3-1.26-12.66-1.75-19.04h-0.47c-2.97,6.08-6.1,12.26-9.41,18.56
			c-3.33,6.31-6.75,12.73-10.29,19.27L777.57,95.66z"/>
		<path class="st0" d="M907.59,3.71h57.23c8.46,0,15.69,1.22,21.66,3.7c5.96,2.47,10.7,5.84,14.17,10.06
			c3.47,4.23,5.73,9.18,6.77,14.84c1.01,5.67,0.91,11.77-0.39,18.33c-1.21,6.06-3.21,11.46-5.96,16.15
			c-2.77,4.73-5.89,8.8-9.35,12.22c-3.47,3.44-7.15,6.3-11.04,8.62c-3.91,2.31-7.57,4.18-11.06,5.62l24.75,61.31h-37.59L938.79,99
			h-17.48l-10.99,55.56h-32.56L907.59,3.71z M926.28,73.86h12.94c8.61,0,16.02-1.75,22.22-5.27c6.21-3.5,10.1-9.33,11.72-17.48
			c1.42-7.18,0.31-12.72-3.29-16.65c-3.61-3.9-9.66-5.87-18.11-5.87h-16.52L926.28,73.86z"/>
	</g>
	<g>
		<path class="st1" d="M1093.69,1.07c9.72,0,18.16,0.95,25.29,2.86c7.12,1.91,13.33,4.39,18.64,7.41l-12.26,24.44
			c-5.91-3.2-11.75-5.62-17.47-7.31c-5.73-1.68-11.48-2.5-17.23-2.5c-7.66,0-13.91,1.51-18.75,4.53c-4.83,3.04-7.74,7.11-8.75,12.22
			c-1.04,5.28,0,9.28,3.13,11.98c3.15,2.72,8.53,5.36,16.17,7.89l13.46,4.55c11.18,3.99,19.45,9.66,24.78,17
			c5.33,7.36,6.94,16.36,4.82,27.07c-1.27,6.38-3.63,12.36-7.14,17.95c-3.5,5.6-8.05,10.45-13.66,14.61
			c-5.62,4.17-12.25,7.43-19.91,9.83c-7.65,2.39-16.27,3.59-25.86,3.59c-18.04,0-33.84-3.66-47.39-11.01l12.26-24.43
			c6.2,3.34,12.4,5.94,18.59,7.78c6.17,1.84,12.86,2.76,20.03,2.76c8.46,0,15.16-1.55,20.08-4.67s7.94-7.45,9.05-13.06
			c0.38-1.91,0.4-3.78,0.04-5.62c-0.36-1.83-1.33-3.6-2.91-5.27c-1.58-1.67-3.86-3.35-6.78-5.03c-2.94-1.69-6.89-3.31-11.85-4.91
			l-11.84-4.31c-5.21-1.91-9.88-4.15-13.99-6.71c-4.13-2.53-7.5-5.5-10.11-8.85c-2.61-3.36-4.38-7.3-5.31-11.85
			c-0.94-4.55-0.8-9.87,0.4-15.93c1.3-6.56,3.67-12.58,7.16-18.08c3.49-5.5,7.97-10.24,13.47-14.24c5.49-3.99,11.95-7.11,19.33-9.35
			C1076.58,2.18,1084.74,1.07,1093.69,1.07z"/>
		<path class="st1" d="M1214.08,3.71h34l25.96,150.85h-34.73l-4.86-34.72h-53.63l-18.6,34.72h-34.26L1214.08,3.71z M1193.03,95.66
			h38.31l-2.98-20.13c-0.99-6.22-1.83-12.48-2.49-18.79c-0.66-6.3-1.26-12.66-1.75-19.04h-0.47c-2.97,6.08-6.1,12.26-9.41,18.56
			c-3.33,6.31-6.75,12.73-10.29,19.27L1193.03,95.66z"/>
		<path class="st1" d="M1323.03,3.71h32.8l-24.72,124.98h60.82l-5.12,25.87h-93.61L1323.03,3.71z"/>
		<path class="st1" d="M1429.81,3.71h32.82l-17.85,90.26c-2.46,12.44-1.82,21.91,1.93,28.37c3.75,6.46,10.88,9.7,21.43,9.7
			c10.37,0,18.52-3.28,24.45-9.82c5.91-6.54,9.91-15,11.96-25.39l18.41-93.13h32.82l-17.95,90.74
			c-4.17,21.07-12.52,36.8-25.02,47.18c-12.51,10.39-29.05,15.56-49.65,15.56c-19.8,0-34.34-5.17-43.61-15.56
			c-9.29-10.38-11.77-26.49-7.44-48.38L1429.81,3.71z"/>
		<path class="st1" d="M1641.26,3.71c11.65,0,21.98,1.51,30.96,4.55c8.97,3.02,16.29,7.57,21.95,13.64
			c5.66,6.06,9.48,13.61,11.45,22.61c1.97,9.03,1.77,19.53-0.6,31.49c-2.71,13.74-7.28,25.5-13.68,35.33
			c-6.41,9.82-14.1,17.95-23.03,24.43c-8.94,6.46-18.86,11.2-29.76,14.24c-10.9,3.04-22.1,4.55-33.6,4.55h-46.2l29.83-150.85
			H1641.26z M1596.57,129.17h11.26c6.7,0,13.38-0.84,20-2.5c6.64-1.69,12.76-4.55,18.35-8.62c5.6-4.07,10.51-9.5,14.72-16.28
			c4.23-6.79,7.35-15.38,9.39-25.75c3-15.16,0.99-26.76-6.02-34.83c-7.03-8.07-17.82-12.1-32.34-12.1h-15.57L1596.57,129.17z"/>
	</g>
	<g>
		<path class="st2" d="M869.72,174.93c2.18,0,4.08,0.21,5.67,0.66c1.56,0.44,2.94,1,4.09,1.71l-3.09,5.59
			c-1.31-0.72-2.56-1.29-3.83-1.67c-1.27-0.4-2.56-0.58-3.85-0.58c-1.71,0-3.15,0.36-4.28,1.04c-1.13,0.7-1.83,1.64-2.13,2.82
			c-0.3,1.19-0.13,2.11,0.54,2.74c0.68,0.62,1.86,1.23,3.55,1.81l2.97,1.04c2.46,0.91,4.24,2.21,5.35,3.89
			c1.09,1.71,1.33,3.76,0.71,6.22c-0.36,1.46-0.98,2.84-1.83,4.12c-0.87,1.29-1.95,2.4-3.28,3.34c-1.32,0.96-2.85,1.71-4.6,2.25
			c-1.75,0.55-3.71,0.84-5.86,0.84c-4.07,0-7.56-0.86-10.53-2.53l3.09-5.59c1.34,0.75,2.72,1.35,4.07,1.77
			c1.37,0.44,2.85,0.64,4.47,0.64c1.91,0,3.43-0.36,4.58-1.08c1.15-0.71,1.89-1.71,2.21-2.98c0.12-0.46,0.15-0.87,0.08-1.31
			c-0.05-0.42-0.24-0.81-0.57-1.21c-0.33-0.38-0.82-0.76-1.46-1.15c-0.64-0.38-1.5-0.76-2.6-1.12l-2.61-1
			c-1.14-0.43-2.16-0.95-3.05-1.53c-0.9-0.58-1.63-1.27-2.15-2.04c-0.55-0.76-0.91-1.67-1.05-2.7c-0.15-1.06-0.05-2.27,0.3-3.67
			c0.37-1.49,0.99-2.86,1.86-4.13c0.85-1.27,1.92-2.37,3.22-3.27c1.29-0.93,2.79-1.63,4.48-2.15
			C865.86,175.18,867.71,174.93,869.72,174.93z"/>
		<path class="st2" d="M887.46,175.53h22.08l-1.47,5.83h-14.69l-1.99,7.89h13.31l-1.45,5.79h-13.31l-2.34,9.28h14.87l-1.47,5.82
			h-22.25L887.46,175.53z"/>
		<path class="st2" d="M915.33,175.53h12.88c1.89,0,3.52,0.29,4.81,0.86c1.32,0.57,2.33,1.33,3.06,2.3c0.73,0.96,1.17,2.1,1.33,3.4
			c0.17,1.31,0.05,2.71-0.33,4.2c-0.35,1.39-0.87,2.64-1.57,3.72c-0.67,1.08-1.43,2.01-2.26,2.8c-0.82,0.8-1.69,1.43-2.6,1.99
			c-0.9,0.53-1.76,0.95-2.54,1.29l4.74,14.05h-8.46l-3.29-12.73h-3.94l-3.22,12.73h-7.33L915.33,175.53z M918.6,191.62h2.9
			c1.95,0,3.62-0.4,5.08-1.21c1.43-0.8,2.4-2.13,2.86-4c0.41-1.65,0.24-2.91-0.53-3.82c-0.74-0.89-2.09-1.34-3.99-1.34h-3.72
			L918.6,191.62z"/>
		<path class="st2" d="M950.25,175.53l1.2,17.69c0.02,0.58,0.06,1.29,0.11,2.11c0.05,0.81,0.09,1.67,0.12,2.55
			c0.03,0.87,0.05,1.75,0.06,2.62c0.01,0.89,0.01,1.69-0.03,2.37h0.16c0.64-1.38,1.47-2.99,2.47-4.8c1.02-1.81,1.95-3.46,2.78-4.91
			l10.15-17.64h7.6l-20.84,34.6h-8.03l-3.56-34.6H950.25z"/>
		<path class="st2" d="M986.24,175.53l-8.72,34.6h-7.39l8.72-34.6H986.24z"/>
		<path class="st2" d="M1003.08,204.92c1.66,0,3.08-0.15,4.3-0.43c1.23-0.3,2.32-0.7,3.27-1.22l0.14,5.49
			c-0.98,0.51-2.34,0.98-4.01,1.37c-1.68,0.4-3.65,0.61-5.91,0.61c-2.55,0-4.8-0.42-6.75-1.24c-1.95-0.83-3.5-2.02-4.67-3.57
			c-1.19-1.57-1.92-3.44-2.22-5.67c-0.3-2.21-0.1-4.71,0.6-7.5c0.68-2.7,1.71-5.15,3.12-7.35c1.39-2.19,3.06-4.08,4.97-5.63
			c1.91-1.55,4.08-2.76,6.48-3.6c2.42-0.85,4.95-1.27,7.64-1.27c2.3,0,4.16,0.21,5.53,0.66c1.38,0.44,2.47,0.91,3.28,1.42
			l-3.08,5.55c-0.81-0.51-1.72-0.95-2.78-1.29c-1.03-0.36-2.26-0.53-3.66-0.53c-1.48,0-2.92,0.22-4.32,0.66
			c-1.39,0.43-2.7,1.13-3.93,2.11c-1.22,0.96-2.29,2.21-3.23,3.72c-0.94,1.53-1.67,3.36-2.21,5.51c-0.53,2.09-0.72,3.9-0.57,5.43
			c0.17,1.51,0.58,2.78,1.3,3.76c0.7,0.98,1.63,1.71,2.77,2.23C1000.3,204.68,1001.6,204.92,1003.08,204.92z"/>
		<path class="st2" d="M1031.82,175.53l-8.72,34.6h-7.39l8.72-34.6H1031.82z"/>
		<path class="st2" d="M1054.8,174.93c2.4,0,4.54,0.4,6.38,1.22c1.85,0.79,3.3,1.96,4.4,3.47c1.08,1.53,1.78,3.4,2.06,5.63
			c0.27,2.23,0.06,4.78-0.66,7.64c-0.7,2.8-1.75,5.27-3.17,7.48c-1.43,2.19-3.07,4.06-4.98,5.59c-1.88,1.53-3.98,2.72-6.26,3.55
			c-2.26,0.82-4.61,1.24-7.01,1.24c-2.42,0-4.54-0.4-6.38-1.2c-1.85-0.77-3.34-1.92-4.41-3.46c-1.1-1.51-1.78-3.38-2.06-5.59
			c-0.31-2.21-0.08-4.75,0.64-7.61c0.7-2.78,1.76-5.27,3.18-7.48c1.42-2.23,3.08-4.1,4.97-5.67c1.91-1.55,4-2.74,6.28-3.58
			C1050.07,175.35,1052.39,174.93,1054.8,174.93z M1041.18,192.89c-0.52,2.06-0.73,3.84-0.62,5.37c0.1,1.51,0.43,2.78,1.01,3.77
			c0.57,1.02,1.33,1.76,2.32,2.25c0.95,0.52,2.07,0.76,3.33,0.76c1.21,0,2.44-0.24,3.66-0.76c1.21-0.49,2.36-1.23,3.39-2.25
			c1.05-0.99,1.99-2.26,2.85-3.77c0.85-1.53,1.53-3.31,2.05-5.37c0.54-2.11,0.76-3.96,0.66-5.49c-0.1-1.55-0.44-2.82-1-3.81
			c-0.58-1.02-1.35-1.76-2.33-2.23c-0.97-0.48-2.09-0.72-3.34-0.72c-1.27,0-2.5,0.26-3.7,0.78c-1.2,0.51-2.33,1.27-3.38,2.26
			c-1.03,1.02-2,2.29-2.85,3.82C1042.39,189.05,1041.7,190.84,1041.18,192.89z"/>
		<path class="st2" d="M1088.38,174.93c2.18,0,4.08,0.21,5.67,0.66c1.56,0.44,2.94,1,4.09,1.71l-3.09,5.59
			c-1.31-0.72-2.56-1.29-3.83-1.67c-1.27-0.4-2.56-0.58-3.85-0.58c-1.71,0-3.15,0.36-4.28,1.04c-1.13,0.7-1.83,1.64-2.13,2.82
			c-0.3,1.19-0.13,2.11,0.54,2.74c0.68,0.62,1.86,1.23,3.55,1.81l2.97,1.04c2.46,0.91,4.24,2.21,5.35,3.89
			c1.09,1.71,1.33,3.76,0.71,6.22c-0.36,1.46-0.98,2.84-1.83,4.12c-0.87,1.29-1.95,2.4-3.28,3.34c-1.32,0.96-2.84,1.71-4.6,2.25
			c-1.75,0.55-3.71,0.84-5.86,0.84c-4.07,0-7.56-0.86-10.53-2.53l3.09-5.59c1.34,0.75,2.72,1.35,4.07,1.77
			c1.37,0.44,2.85,0.64,4.47,0.64c1.91,0,3.43-0.36,4.58-1.08c1.15-0.71,1.89-1.71,2.21-2.98c0.12-0.46,0.15-0.87,0.08-1.31
			c-0.05-0.42-0.24-0.81-0.57-1.21c-0.33-0.38-0.82-0.76-1.46-1.15c-0.64-0.38-1.5-0.76-2.6-1.12l-2.61-1
			c-1.14-0.43-2.16-0.95-3.05-1.53c-0.9-0.58-1.63-1.27-2.15-2.04c-0.55-0.76-0.91-1.67-1.05-2.7c-0.15-1.06-0.05-2.27,0.3-3.67
			c0.37-1.49,0.99-2.86,1.86-4.13c0.85-1.27,1.92-2.37,3.22-3.27c1.29-0.93,2.79-1.63,4.48-2.15
			C1084.52,175.18,1086.37,174.93,1088.38,174.93z"/>
		<path class="st2" d="M1125.9,175.53l-8.72,34.6h-7.39l8.72-34.6H1125.9z"/>
		<path class="st2" d="M1133.38,175.53h6.72l7.1,18.24c0.48,1.25,0.9,2.46,1.26,3.64c0.38,1.19,0.61,2.11,0.74,2.78h0.1
			c0.39-2.38,0.89-4.75,1.49-7.12c0.58-2.36,1.19-4.75,1.8-7.16l2.61-10.38h6.84l-8.72,34.6h-6.74l-6.65-16.8
			c-0.27-0.73-0.56-1.49-0.8-2.28c-0.25-0.8-0.49-1.55-0.69-2.29c-0.2-0.72-0.39-1.39-0.55-2.01c-0.15-0.6-0.25-1.09-0.28-1.51
			h-0.12c-0.47,2.53-0.97,4.95-1.54,7.28c-0.57,2.33-1.15,4.71-1.75,7.12l-2.65,10.48h-6.9L1133.38,175.53z"/>
		<path class="st2" d="M1192.64,175.53l-1.49,5.93h-9.59l-7.23,28.66h-7.39l7.23-28.66h-9.37l1.49-5.93H1192.64z"/>
		<path class="st2" d="M1196.85,175.53h22.08l-1.47,5.83h-14.69l-1.99,7.89h13.31l-1.45,5.79h-13.31l-2.34,9.28h14.87l-1.47,5.82
			h-22.25L1196.85,175.53z"/>
		<path class="st2" d="M1240.86,174.93c2.12,0,3.96,0.18,5.51,0.56c1.57,0.35,2.92,0.85,4.11,1.47l-2.84,5.12
			c-1.11-0.62-2.28-1.07-3.55-1.37c-1.26-0.3-2.52-0.44-3.81-0.44c-1.48,0-2.92,0.23-4.37,0.72c-1.42,0.47-2.76,1.21-3.98,2.25
			c-1.23,1.02-2.34,2.32-3.31,3.93c-0.98,1.59-1.73,3.5-2.3,5.73c-1,4-0.92,7.06,0.29,9.2c1.2,2.15,3.42,3.22,6.65,3.22
			c1.85,0,3.3-0.17,4.34-0.55l2.03-8.07h-5.59l1.41-5.61h12.67l-4.41,17.53c-1.56,0.62-3.33,1.14-5.3,1.53
			c-1.97,0.4-4.16,0.61-6.56,0.61c-2.51,0-4.76-0.38-6.75-1.16c-1.99-0.77-3.57-1.91-4.78-3.44c-1.22-1.51-2.01-3.38-2.37-5.59
			c-0.36-2.21-0.16-4.77,0.57-7.67c0.73-2.89,1.83-5.47,3.31-7.71c1.48-2.25,3.21-4.14,5.15-5.63c1.96-1.5,4.14-2.65,6.5-3.44
			C1235.85,175.33,1238.31,174.93,1240.86,174.93z"/>
		<path class="st2" d="M1258.43,175.53h12.88c1.89,0,3.52,0.29,4.81,0.86c1.32,0.57,2.33,1.33,3.06,2.3c0.73,0.96,1.17,2.1,1.33,3.4
			c0.17,1.31,0.05,2.71-0.33,4.2c-0.35,1.39-0.87,2.64-1.57,3.72c-0.67,1.08-1.43,2.01-2.26,2.8c-0.82,0.8-1.69,1.43-2.6,1.99
			c-0.9,0.53-1.76,0.95-2.54,1.29l4.74,14.05h-8.46l-3.29-12.73h-3.94l-3.22,12.73h-7.33L1258.43,175.53z M1261.7,191.62h2.9
			c1.95,0,3.62-0.4,5.08-1.21c1.43-0.8,2.4-2.13,2.86-4c0.41-1.65,0.24-2.91-0.53-3.82c-0.74-0.89-2.09-1.34-3.99-1.34h-3.72
			L1261.7,191.62z"/>
		<path class="st2" d="M1298.79,175.53h7.66l3.83,34.6h-7.81l-0.64-7.95h-12.06l-4.64,7.95h-7.72L1298.79,175.53z M1292.83,196.63
			h8.61l-0.4-4.61c-0.15-1.44-0.25-2.87-0.32-4.32c-0.06-1.45-0.1-2.9-0.13-4.37h-0.12c-0.73,1.38-1.52,2.8-2.36,4.26
			c-0.83,1.43-1.69,2.9-2.57,4.42L1292.83,196.63z"/>
		<path class="st2" d="M1323.32,175.53h7.39l-7.22,28.67h13.68l-1.5,5.92h-21.07L1323.32,175.53z"/>
		<path class="st2" d="M1348.54,175.53h22.08l-1.47,5.83h-14.69l-1.99,7.89h13.31l-1.45,5.79h-13.31l-2.34,9.28h14.87l-1.47,5.82
			h-22.25L1348.54,175.53z"/>
		<path class="st2" d="M1387.52,174.93c2.18,0,4.08,0.21,5.67,0.66c1.56,0.44,2.94,1,4.09,1.71l-3.09,5.59
			c-1.31-0.72-2.56-1.29-3.83-1.67c-1.27-0.4-2.56-0.58-3.85-0.58c-1.71,0-3.15,0.36-4.28,1.04c-1.13,0.7-1.83,1.64-2.13,2.82
			c-0.3,1.19-0.13,2.11,0.54,2.74c0.68,0.62,1.86,1.23,3.55,1.81l2.97,1.04c2.46,0.91,4.24,2.21,5.35,3.89
			c1.09,1.71,1.33,3.76,0.71,6.22c-0.36,1.46-0.98,2.84-1.83,4.12c-0.87,1.29-1.95,2.4-3.28,3.34c-1.32,0.96-2.85,1.71-4.6,2.25
			c-1.75,0.55-3.71,0.84-5.86,0.84c-4.07,0-7.56-0.86-10.53-2.53l3.09-5.59c1.34,0.75,2.72,1.35,4.07,1.77
			c1.37,0.44,2.85,0.64,4.47,0.64c1.91,0,3.43-0.36,4.58-1.08c1.15-0.71,1.89-1.71,2.21-2.98c0.12-0.46,0.15-0.87,0.08-1.31
			c-0.05-0.42-0.24-0.81-0.57-1.21c-0.33-0.38-0.82-0.76-1.46-1.15c-0.64-0.38-1.5-0.76-2.6-1.12l-2.61-1
			c-1.14-0.43-2.16-0.95-3.05-1.53c-0.9-0.58-1.63-1.27-2.15-2.04c-0.55-0.76-0.91-1.67-1.05-2.7c-0.15-1.06-0.05-2.27,0.3-3.67
			c0.37-1.49,0.99-2.86,1.86-4.13c0.85-1.27,1.92-2.37,3.22-3.27c1.29-0.93,2.79-1.63,4.48-2.15
			C1383.66,175.18,1385.51,174.93,1387.52,174.93z"/>
		<path class="st2" d="M1417.66,175.53h22.08l-1.47,5.83h-14.69l-1.99,7.89h13.31l-1.45,5.79h-13.31l-2.34,9.28h14.87l-1.47,5.82
			h-22.25L1417.66,175.53z"/>
		<path class="st2" d="M1445.52,175.53h6.72l7.1,18.24c0.48,1.25,0.9,2.46,1.26,3.64c0.38,1.19,0.61,2.11,0.74,2.78h0.1
			c0.39-2.38,0.89-4.75,1.49-7.12c0.58-2.36,1.19-4.75,1.8-7.16l2.61-10.38h6.84l-8.72,34.6h-6.74l-6.65-16.8
			c-0.27-0.73-0.56-1.49-0.8-2.28c-0.25-0.8-0.49-1.55-0.69-2.29c-0.2-0.72-0.39-1.39-0.55-2.01c-0.15-0.6-0.25-1.09-0.28-1.51
			h-0.12c-0.47,2.53-0.97,4.95-1.54,7.28c-0.57,2.33-1.15,4.71-1.75,7.12l-2.65,10.48h-6.9L1445.52,175.53z"/>
		<path class="st2" d="M1505.14,174.93c2.18,0,4.08,0.21,5.67,0.66c1.56,0.44,2.94,1,4.09,1.71l-3.09,5.59
			c-1.31-0.72-2.56-1.29-3.83-1.67c-1.27-0.4-2.56-0.58-3.85-0.58c-1.71,0-3.15,0.36-4.28,1.04c-1.13,0.7-1.83,1.64-2.13,2.82
			c-0.3,1.19-0.13,2.11,0.54,2.74c0.68,0.62,1.86,1.23,3.55,1.81l2.97,1.04c2.46,0.91,4.24,2.21,5.35,3.89
			c1.09,1.71,1.33,3.76,0.71,6.22c-0.36,1.46-0.98,2.84-1.83,4.12c-0.87,1.29-1.95,2.4-3.28,3.34c-1.32,0.96-2.84,1.71-4.6,2.25
			c-1.75,0.55-3.71,0.84-5.86,0.84c-4.07,0-7.56-0.86-10.53-2.53l3.09-5.59c1.34,0.75,2.72,1.35,4.07,1.77
			c1.37,0.44,2.85,0.64,4.47,0.64c1.91,0,3.43-0.36,4.58-1.08c1.15-0.71,1.89-1.71,2.21-2.98c0.12-0.46,0.15-0.87,0.08-1.31
			c-0.05-0.42-0.24-0.81-0.57-1.21c-0.33-0.38-0.82-0.76-1.46-1.15c-0.64-0.38-1.5-0.76-2.6-1.12l-2.61-1
			c-1.14-0.43-2.16-0.95-3.05-1.53c-0.9-0.58-1.63-1.27-2.15-2.04c-0.55-0.76-0.91-1.67-1.05-2.7c-0.15-1.06-0.05-2.27,0.3-3.67
			c0.37-1.49,0.99-2.86,1.86-4.13c0.85-1.27,1.92-2.37,3.22-3.27c1.29-0.93,2.79-1.63,4.48-2.15
			C1501.28,175.18,1503.13,174.93,1505.14,174.93z"/>
		<path class="st2" d="M1532.22,175.53h7.66l3.83,34.6h-7.81l-0.64-7.95h-12.06l-4.64,7.95h-7.72L1532.22,175.53z M1526.26,196.63
			h8.61l-0.4-4.61c-0.15-1.44-0.25-2.87-0.32-4.32c-0.06-1.45-0.1-2.9-0.13-4.37h-0.12c-0.73,1.38-1.52,2.8-2.36,4.26
			c-0.83,1.43-1.69,2.9-2.57,4.42L1526.26,196.63z"/>
		<path class="st2" d="M1556.73,175.53h7.39l-7.22,28.67h13.68l-1.5,5.92h-21.07L1556.73,175.53z"/>
		<path class="st2" d="M1580.76,175.53h7.39l-5.21,20.71c-0.72,2.85-0.7,5.03,0.05,6.5c0.76,1.49,2.33,2.23,4.71,2.23
			c2.34,0,4.2-0.76,5.63-2.25c1.41-1.51,2.43-3.46,3.03-5.84l5.38-21.36h7.39l-5.24,20.81c-1.22,4.83-3.32,8.45-6.26,10.82
			c-2.95,2.38-6.74,3.58-11.38,3.58c-4.46,0-7.67-1.2-9.61-3.58c-1.96-2.38-2.31-6.08-1.04-11.09L1580.76,175.53z"/>
		<path class="st2" d="M1628.33,175.53c2.63,0,4.92,0.34,6.91,1.04c1.97,0.7,3.56,1.74,4.76,3.14c1.19,1.38,1.94,3.12,2.28,5.17
			c0.31,2.09,0.14,4.48-0.56,7.24c-0.79,3.14-1.98,5.85-3.56,8.09c-1.59,2.27-3.42,4.12-5.51,5.61c-2.1,1.48-4.39,2.57-6.89,3.27
			c-2.49,0.7-5.04,1.03-7.63,1.03h-10.39l8.72-34.6H1628.33z M1616.61,204.32h2.53c1.5,0,3.01-0.19,4.53-0.58
			c1.52-0.38,2.93-1.04,4.24-1.97c1.31-0.95,2.5-2.19,3.54-3.74c1.03-1.55,1.85-3.51,2.46-5.89c0.88-3.48,0.57-6.14-0.92-7.99
			c-1.46-1.85-3.84-2.78-7.11-2.78h-3.49L1616.61,204.32z"/>
	</g>
	<path class="st2" d="M829.14,194.23l-0.24-0.01c-63.79-1.79-122.42-2.77-179.25-2.97c-1.67,0.02-3.21,1.04-3.85,2.55l-30.66,70.69
		c1.08-37.52,1.71-75.29,2.33-112.04c0.83-49.28,1.69-100.23,3.61-150.31l0.01-0.05l-0.01,0c0-0.06,0-0.11,0.01-0.16
		c0.02-0.86-0.56-1.64-1.37-1.86c-0.48-0.13-0.98-0.06-1.41,0.18c-0.43,0.25-0.74,0.65-0.87,1.12l-0.04,0.16l-0.01,0l0,0.06
		l-63.04,219.66l-3.88-26.23c-0.38-2.35-2.42-4.11-4.76-4.11c-0.01,0-0.03,0-0.04,0l-13-0.07c-2.31-2.69-4.85-4.92-7.99-7.04
		c-2.97-1.96-7.7-4.32-13.33-4.45c-4.82-0.08-9.96,1.47-13.7,4.19c-3.15,2.06-5.63,4.59-7.73,7.03l-120.6-0.2
		c-9.96,0.03-19.91,0.05-29.87,0.06c-30.53,0.05-62.1,0.1-93.16,0.64c-24.85,0.37-50.12,0.67-74.56,0.96
		c-56.21,0.66-114.32,1.34-171.49,3L0,195.02v1.48l0.24,0.01c57.16,1.66,115.27,2.34,171.48,3c24.44,0.29,49.71,0.58,74.57,0.96
		c31.03,0.54,62.57,0.59,93.08,0.64c9.98,0.02,19.97,0.03,29.95,0.06l123.02-0.21c1.63-0.01,3.22-0.8,4.15-2.06
		c4.53-6.12,9.85-9.56,14.65-9.42c0.05,0,0.09,0,0.14,0c5.37,0,11.4,4.59,15.02,9.17l0.17,0.22c0.93,1.17,2.32,1.84,3.82,1.84
		c0.01,0,0.02,0,0.03,0l11.25-0.06l7.03,42.17c0.29,1.73,1.59,3.19,3.24,3.63c1.14,0.3,2.33,0.14,3.35-0.45
		c1.02-0.59,1.75-1.55,2.05-2.69l59.66-225.32c-1.46,44.91-3.71,90.24-5.89,134.24c-2.22,44.7-4.51,90.91-5.96,136.4
		c-0.06,1.93,1.09,3.73,2.85,4.48c0.59,0.25,1.21,0.37,1.81,0.37c1.82,0,3.56-1.07,4.31-2.85l38.46-91
		c55.97-0.53,113.72-1.8,176.45-3.9l0.24-0.01L829.14,194.23z"/>
</g>
<rect x="192.85" y="-116.32" class="st3" width="59.82" height="43.2"/>
<rect x="267.62" y="-116.32" class="st1" width="59.82" height="43.2"/>
<rect x="342.39" y="-116.32" class="st2" width="59.82" height="43.2"/>
</svg>
