<?xml version="1.0" encoding="utf-8"?>
<!-- Generator: Adobe Illustrator 23.0.1, SVG Export Plug-In . SVG Version: 6.00 Build 0)  -->
<svg version="1.1" id="Capa_1" xmlns="http://www.w3.org/2000/svg" xmlns:xlink="http://www.w3.org/1999/xlink" x="0px" y="0px"
	 viewBox="0 0 517.64 220.66" style="enable-background:new 0 0 517.64 220.66;" xml:space="preserve">
<style type="text/css">
	.st0{fill:#136380;}
	.st1{fill:#00AFB7;}
	.st2{fill:none;stroke:#344154;stroke-width:3;stroke-linecap:round;stroke-miterlimit:10;}
	.st3{fill:#FF6D3B;}
	.st4{fill:url(#SVGID_1_);}
	.st5{fill:url(#SVGID_2_);}
	.st6{fill:url(#SVGID_3_);}
	.st7{fill:url(#SVGID_4_);}
	.st8{fill:url(#SVGID_5_);}
	.st9{opacity:0.5;fill:url(#SVGID_6_);}
	.st10{fill:url(#SVGID_7_);}
	.st11{fill:#FFFFFF;}
	.st12{clip-path:url(#SVGID_9_);fill:#FFFFFF;}
	.st13{fill-rule:evenodd;clip-rule:evenodd;fill:#FFFFFF;}
	.st14{fill-rule:evenodd;clip-rule:evenodd;fill:#064627;}
	.st15{fill-rule:evenodd;clip-rule:evenodd;fill:#70AC54;}
	.st16{fill-rule:evenodd;clip-rule:evenodd;fill:#1F1A17;}
	.st17{fill:#666666;}
	.st18{fill:#CCCCCC;}
</style>
<g>
	<g>
		<path class="st11" d="M50.02,51.92c-5.77,0-11.22,0.76-16.36,2.28c-5.14,1.52-10.59,4.01-16.36,7.45L2.43,44.97
			c7.03-4.24,14.64-7.52,22.84-9.83c8.2-2.32,17.89-3.48,29.06-3.48c8.65,0,16.36,0.93,23.12,2.78c6.76,1.86,12.48,4.44,17.17,7.75
			c4.68,3.31,8.25,7.19,10.68,11.62c2.43,4.44,3.65,9.31,3.65,14.6c0,8.74-4.24,17.91-12.71,27.52c-8.47,9.6-20.64,19.9-36.5,30.89
			l-17.03,11.72h68.13v20.46H6.49L0,141.52l24.33-17.88c9.01-6.62,16.58-12.48,22.71-17.58c6.13-5.1,11.08-9.7,14.87-13.81
			c3.79-4.1,6.49-7.88,8.11-11.32c1.62-3.44,2.43-6.89,2.43-10.33c0-6.09-2.12-10.73-6.35-13.91C61.86,53.51,56.5,51.92,50.02,51.92
			z"/>
		<path class="st11" d="M188.71,33.84h41.63v75.89h24.87v20.46h-24.87v28.81h-34.33V130.2h-78.94v-16.89L188.71,33.84z
			 M181.41,79.34l-27.58,30.4h42.18V81.52l1.62-24.04h-0.54L181.41,79.34z"/>
	</g>
	<path class="st1" d="M232.24,220.66L346.32,0h26.22L258.47,220.66H232.24z"/>
	<path class="st11" d="M487.71,33.84v16.89L415.8,163.58l-31.09-9.73l68.4-100.93h-75.43V33.84H487.71z"/>
	<g>
		<g>
			<path class="st11" d="M97.42,192.58v-9.45h2.8v3.75h4.88v-3.75h2.8v9.45h-2.8v-4.08h-4.88v4.08H97.42z"/>
			<path class="st11" d="M116.54,182.96c0.91,0,1.76,0.11,2.53,0.33c0.78,0.22,1.44,0.54,2,0.95c0.56,0.42,1,0.93,1.32,1.54
				c0.32,0.61,0.48,1.3,0.48,2.08c0,0.76-0.16,1.44-0.49,2.04s-0.78,1.11-1.35,1.53c-0.57,0.42-1.25,0.74-2.03,0.97
				c-0.78,0.23-1.63,0.34-2.54,0.34c-0.91,0-1.76-0.11-2.53-0.32c-0.78-0.21-1.44-0.53-2-0.94c-0.56-0.42-1-0.92-1.32-1.53
				s-0.48-1.3-0.48-2.08c0-0.76,0.16-1.44,0.49-2.05c0.33-0.6,0.78-1.12,1.35-1.55c0.57-0.42,1.25-0.75,2.03-0.97
				C114.78,183.07,115.63,182.96,116.54,182.96z M113.09,187.87c0,0.56,0.09,1.05,0.28,1.46c0.18,0.42,0.43,0.76,0.75,1.04
				c0.31,0.27,0.68,0.48,1.09,0.61c0.42,0.14,0.86,0.2,1.34,0.2c0.46,0,0.9-0.07,1.32-0.2c0.42-0.13,0.77-0.34,1.07-0.61
				c0.3-0.27,0.54-0.62,0.71-1.04c0.18-0.41,0.27-0.9,0.27-1.46c0-0.58-0.09-1.08-0.28-1.5s-0.43-0.77-0.75-1.04
				c-0.31-0.27-0.68-0.48-1.09-0.61c-0.42-0.13-0.86-0.2-1.34-0.2c-0.48,0-0.92,0.07-1.33,0.21c-0.41,0.14-0.76,0.35-1.06,0.62
				c-0.3,0.28-0.54,0.62-0.71,1.04C113.18,186.82,113.09,187.31,113.09,187.87z"/>
			<path class="st11" d="M125.1,183.13h4.88c0.72,0,1.36,0.08,1.91,0.23c0.55,0.15,1.01,0.36,1.38,0.63s0.64,0.58,0.83,0.93
				c0.18,0.36,0.28,0.74,0.28,1.15c0,0.38-0.08,0.72-0.24,1.01s-0.35,0.55-0.59,0.77s-0.5,0.4-0.8,0.54
				c-0.29,0.15-0.58,0.26-0.85,0.35l3.14,3.84h-3.2l-2.47-3.48h-1.49v3.48h-2.78V183.13z M127.87,187.52h1.1
				c0.73,0,1.34-0.11,1.81-0.33c0.47-0.22,0.7-0.59,0.7-1.1c0-0.45-0.19-0.8-0.56-1.04c-0.38-0.25-0.92-0.37-1.64-0.37h-1.41V187.52
				z"/>
			<path class="st11" d="M140.38,183.13h2.9l4.76,9.45h-2.96l-1-2.17h-4.57l-1,2.17h-2.92L140.38,183.13z M140.14,188.89h3.27
				l-0.59-1.26c-0.19-0.39-0.37-0.78-0.53-1.18c-0.16-0.4-0.32-0.79-0.47-1.19h-0.04c-0.15,0.38-0.31,0.77-0.49,1.16
				c-0.18,0.4-0.36,0.8-0.55,1.21L140.14,188.89z"/>
			<path class="st11" d="M153.84,182.96c0.83,0,1.56,0.06,2.21,0.18c0.64,0.12,1.21,0.28,1.71,0.46l-0.63,1.53
				c-0.56-0.2-1.1-0.35-1.61-0.46c-0.52-0.1-1.02-0.16-1.51-0.16c-0.65,0-1.16,0.1-1.52,0.29s-0.54,0.45-0.54,0.77
				c0,0.33,0.16,0.58,0.47,0.75c0.31,0.17,0.82,0.33,1.51,0.5l1.22,0.28c1.02,0.25,1.82,0.61,2.4,1.06c0.58,0.46,0.87,1.03,0.87,1.7
				c0,0.4-0.1,0.77-0.31,1.13s-0.51,0.65-0.92,0.92c-0.41,0.26-0.92,0.46-1.53,0.61s-1.33,0.23-2.14,0.23
				c-1.54,0-2.95-0.23-4.23-0.69l0.63-1.53c0.58,0.21,1.16,0.37,1.71,0.49c0.56,0.11,1.14,0.17,1.75,0.17c0.72,0,1.27-0.1,1.63-0.29
				c0.37-0.19,0.55-0.47,0.55-0.82c0-0.12-0.03-0.24-0.09-0.35c-0.06-0.11-0.17-0.23-0.34-0.33s-0.38-0.21-0.66-0.31
				c-0.28-0.1-0.64-0.21-1.09-0.31l-1.08-0.27c-0.48-0.12-0.91-0.26-1.31-0.42c-0.4-0.16-0.73-0.35-1.01-0.56s-0.5-0.46-0.65-0.74
				c-0.16-0.29-0.23-0.62-0.23-1c0-0.41,0.1-0.79,0.31-1.13c0.21-0.34,0.51-0.64,0.91-0.89c0.4-0.25,0.9-0.44,1.49-0.58
				C152.4,183.03,153.07,182.96,153.84,182.96z"/>
		</g>
	</g>
	<g>
		<path class="st11" d="M353.43,183.13c0.99,0,1.9,0.1,2.71,0.29c0.82,0.19,1.52,0.48,2.1,0.85c0.58,0.38,1.04,0.85,1.36,1.42
			c0.32,0.56,0.48,1.22,0.48,1.97c0,0.86-0.19,1.6-0.57,2.21c-0.38,0.62-0.9,1.13-1.55,1.53c-0.65,0.41-1.42,0.7-2.3,0.89
			c-0.88,0.19-1.81,0.29-2.79,0.29h-3.94v-9.45H353.43z M351.73,190.99h0.96c0.57,0,1.13-0.05,1.66-0.16
			c0.54-0.1,1.01-0.29,1.42-0.54s0.74-0.59,0.98-1.02c0.24-0.42,0.37-0.96,0.37-1.61c0-0.95-0.37-1.68-1.1-2.18
			c-0.73-0.5-1.72-0.76-2.96-0.76h-1.33V190.99z"/>
		<path class="st11" d="M365.08,183.13v9.45h-2.8v-9.45H365.08z M364.88,182.15h-2.23l1.63-1.86h2.94L364.88,182.15z"/>
		<path class="st11" d="M371.55,183.13h2.9l4.76,9.45h-2.96l-1-2.17h-4.57l-1,2.17h-2.92L371.55,183.13z M371.31,188.89h3.27
			l-0.59-1.26c-0.19-0.39-0.37-0.78-0.53-1.18c-0.16-0.4-0.32-0.79-0.47-1.19h-0.04c-0.15,0.38-0.31,0.77-0.49,1.16
			c-0.18,0.4-0.36,0.8-0.55,1.21L371.31,188.89z"/>
		<path class="st11" d="M385,182.96c0.83,0,1.56,0.06,2.21,0.18c0.64,0.12,1.21,0.28,1.71,0.46l-0.63,1.53
			c-0.56-0.2-1.1-0.35-1.61-0.46c-0.52-0.1-1.02-0.16-1.51-0.16c-0.65,0-1.16,0.1-1.52,0.29s-0.54,0.45-0.54,0.77
			c0,0.33,0.16,0.58,0.47,0.75c0.31,0.17,0.82,0.33,1.51,0.5l1.22,0.28c1.02,0.25,1.82,0.61,2.4,1.06c0.58,0.46,0.87,1.03,0.87,1.7
			c0,0.4-0.1,0.77-0.31,1.13s-0.51,0.65-0.92,0.92c-0.41,0.26-0.92,0.46-1.53,0.61s-1.33,0.23-2.14,0.23
			c-1.54,0-2.95-0.23-4.23-0.69l0.63-1.53c0.58,0.21,1.16,0.37,1.71,0.49c0.56,0.11,1.14,0.17,1.75,0.17c0.72,0,1.27-0.1,1.63-0.29
			c0.37-0.19,0.55-0.47,0.55-0.82c0-0.12-0.03-0.24-0.09-0.35c-0.06-0.11-0.17-0.23-0.34-0.33s-0.38-0.21-0.66-0.31
			c-0.28-0.1-0.64-0.21-1.09-0.31l-1.08-0.27c-0.48-0.12-0.91-0.26-1.31-0.42c-0.4-0.16-0.73-0.35-1.01-0.56s-0.5-0.46-0.65-0.74
			c-0.16-0.29-0.23-0.62-0.23-1c0-0.41,0.1-0.79,0.31-1.13c0.21-0.34,0.51-0.64,0.91-0.89c0.4-0.25,0.9-0.44,1.49-0.58
			C383.57,183.03,384.24,182.96,385,182.96z"/>
		<path class="st11" d="M400.11,183.13h2.9l4.76,9.45h-2.96l-1-2.17h-4.57l-1,2.17h-2.92L400.11,183.13z M399.86,188.89h3.27
			l-0.59-1.26c-0.19-0.39-0.37-0.78-0.53-1.18c-0.16-0.4-0.32-0.79-0.47-1.19h-0.04c-0.15,0.38-0.31,0.77-0.49,1.16
			c-0.18,0.4-0.36,0.8-0.55,1.21L399.86,188.89z"/>
		<path class="st11" d="M414.09,183.13h2.8v7.83h5.18v1.62h-7.98V183.13z"/>
		<path class="st11" d="M427.28,183.13h2.9l4.76,9.45h-2.96l-1-2.17h-4.57l-1,2.17h-2.92L427.28,183.13z M427.03,188.89h3.27
			l-0.59-1.26c-0.19-0.39-0.37-0.78-0.53-1.18c-0.16-0.4-0.32-0.79-0.47-1.19h-0.04c-0.15,0.38-0.31,0.77-0.49,1.16
			c-0.18,0.4-0.36,0.8-0.55,1.21L427.03,188.89z"/>
		<path class="st11" d="M445.42,182.96c0.83,0,1.56,0.06,2.21,0.18c0.64,0.12,1.21,0.28,1.71,0.46l-0.63,1.53
			c-0.56-0.2-1.1-0.35-1.61-0.46c-0.52-0.1-1.02-0.16-1.51-0.16c-0.65,0-1.16,0.1-1.52,0.29s-0.54,0.45-0.54,0.77
			c0,0.33,0.16,0.58,0.47,0.75c0.31,0.17,0.82,0.33,1.51,0.5l1.22,0.28c1.02,0.25,1.82,0.61,2.4,1.06c0.58,0.46,0.87,1.03,0.87,1.7
			c0,0.4-0.1,0.77-0.31,1.13s-0.51,0.65-0.92,0.92c-0.41,0.26-0.92,0.46-1.53,0.61s-1.33,0.23-2.14,0.23
			c-1.54,0-2.95-0.23-4.23-0.69l0.63-1.53c0.58,0.21,1.16,0.37,1.71,0.49c0.56,0.11,1.14,0.17,1.75,0.17c0.72,0,1.27-0.1,1.63-0.29
			c0.37-0.19,0.55-0.47,0.55-0.82c0-0.12-0.03-0.24-0.09-0.35c-0.06-0.11-0.17-0.23-0.34-0.33s-0.38-0.21-0.66-0.31
			c-0.28-0.1-0.64-0.21-1.09-0.31l-1.08-0.27c-0.48-0.12-0.91-0.26-1.31-0.42c-0.4-0.16-0.73-0.35-1.01-0.56s-0.5-0.46-0.65-0.74
			c-0.16-0.29-0.23-0.62-0.23-1c0-0.41,0.1-0.79,0.31-1.13c0.21-0.34,0.51-0.64,0.91-0.89c0.4-0.25,0.9-0.44,1.49-0.58
			C443.98,183.03,444.66,182.96,445.42,182.96z"/>
		<path class="st11" d="M452.2,183.13h8.37v1.59h-5.57v2.16h5.04v1.58h-5.04v2.54h5.63v1.59h-8.43V183.13z"/>
		<path class="st11" d="M463.57,183.13h3.53l1.84,4.31c0.08,0.19,0.17,0.4,0.26,0.62c0.09,0.22,0.17,0.44,0.25,0.66
			c0.08,0.22,0.16,0.44,0.22,0.65c0.07,0.21,0.12,0.41,0.16,0.58h0.08c0.04-0.16,0.09-0.35,0.16-0.56c0.07-0.21,0.14-0.44,0.22-0.67
			c0.08-0.23,0.16-0.45,0.25-0.67c0.08-0.22,0.16-0.42,0.22-0.6l1.78-4.31h3.53l0.96,9.45h-2.63c-0.08-1.04-0.16-2.08-0.25-3.12
			c-0.08-1.04-0.14-2.09-0.16-3.15l-0.02-1.23h-0.06c-0.18,0.55-0.37,1.13-0.58,1.73c-0.21,0.6-0.41,1.13-0.6,1.57l-1.82,4.2h-2.16
			l-1.86-4.21c-0.23-0.54-0.45-1.11-0.65-1.71c-0.2-0.6-0.37-1.13-0.49-1.58h-0.06c0,0.36-0.01,0.74-0.02,1.13
			c-0.01,0.4-0.03,0.79-0.05,1.18s-0.04,0.77-0.06,1.15s-0.04,0.72-0.07,1.03l-0.25,3.02h-2.59L463.57,183.13z"/>
		<path class="st11" d="M483.39,183.13h2.9l4.76,9.45h-2.96l-1-2.17h-4.57l-1,2.17h-2.92L483.39,183.13z M483.14,188.89h3.27
			l-0.59-1.26c-0.19-0.39-0.37-0.78-0.53-1.18c-0.16-0.4-0.32-0.79-0.47-1.19h-0.04c-0.15,0.38-0.31,0.77-0.49,1.16
			c-0.18,0.4-0.36,0.8-0.55,1.21L483.14,188.89z"/>
		<path class="st11" d="M492.67,183.13h2.55l4.43,4.98c0.3,0.34,0.57,0.67,0.83,1c0.25,0.33,0.43,0.58,0.54,0.76h0.04
			c-0.08-0.65-0.12-1.3-0.12-1.94s0-1.3,0-1.96v-2.83h2.59v9.45h-2.55l-4.12-4.59c-0.18-0.2-0.35-0.41-0.52-0.62
			s-0.33-0.42-0.48-0.62c-0.15-0.2-0.28-0.38-0.4-0.55c-0.12-0.17-0.2-0.3-0.25-0.41h-0.04c0.07,0.69,0.11,1.35,0.11,1.99
			c0.01,0.64,0.01,1.28,0.01,1.94v2.87h-2.61V183.13z"/>
		<path class="st11" d="M509.98,183.13h2.9l4.76,9.45h-2.96l-1-2.17h-4.57l-1,2.17h-2.92L509.98,183.13z M509.74,188.89H513
			l-0.59-1.26c-0.19-0.39-0.37-0.78-0.53-1.18c-0.16-0.4-0.32-0.79-0.47-1.19h-0.04c-0.15,0.38-0.31,0.77-0.49,1.16
			c-0.18,0.4-0.36,0.8-0.55,1.21L509.74,188.89z"/>
	</g>
</g>
</svg>
