<?xml version="1.0" encoding="utf-8"?>
<!-- Generator: Adobe Illustrator 23.0.1, SVG Export Plug-In . SVG Version: 6.00 Build 0)  -->
<svg version="1.1" id="Capa_1" xmlns="http://www.w3.org/2000/svg" xmlns:xlink="http://www.w3.org/1999/xlink" x="0px" y="0px"
	 viewBox="0 0 195.5 45.34" style="enable-background:new 0 0 195.5 45.34;" xml:space="preserve">
<style type="text/css">
	.st0{fill:#136380;}
	.st1{fill:#00AFB7;}
	.st2{fill:none;stroke:#344154;stroke-width:3;stroke-linecap:round;stroke-miterlimit:10;}
	.st3{fill:#FF6D3B;}
	.st4{fill:url(#SVGID_1_);}
	.st5{fill:url(#SVGID_2_);}
	.st6{fill:url(#SVGID_3_);}
	.st7{fill:url(#SVGID_4_);}
	.st8{fill:url(#SVGID_5_);}
	.st9{opacity:0.5;fill:url(#SVGID_6_);}
	.st10{fill:url(#SVGID_7_);}
	.st11{fill:#FFFFFF;}
	.st12{clip-path:url(#SVGID_9_);fill:#FFFFFF;}
	.st13{fill-rule:evenodd;clip-rule:evenodd;fill:#FFFFFF;}
</style>
<g>
	<polygon class="st11" points="58.95,40.37 58.86,42.15 45.7,42.15 45.7,20.69 58.35,20.69 58.43,22.47 47.56,22.47 47.56,30.1 
		56.97,30.1 56.97,31.7 47.56,31.7 47.56,40.37 58.95,40.37 	"/>
	<path class="st11" d="M69.85,22.38H64.9v9.47h4.95c3.35,0,5.06-1.15,5.06-4.78C74.91,23.64,73.28,22.38,69.85,22.38L69.85,22.38z
		 M69.85,33.48H64.9v8.67h-1.89V20.69h6.84c4.86,0,6.98,1.89,6.98,6.38C76.83,31.39,74.77,33.48,69.85,33.48L69.85,33.48z"/>
	<path class="st11" d="M85.47,42.55c-2.46,0-4.46-0.66-6.09-1.66l0.34-1.77c1.66,1.09,3.49,1.66,5.75,1.66
		c3.4,0,5.15-1.66,5.15-4.43c0-5.75-11.01-3.23-11.01-10.3c0-3.23,2.06-5.69,6.67-5.69c2.09,0,3.98,0.43,5.49,1.15l-0.34,1.69
		c-1.63-0.69-3.2-1.09-5.06-1.09c-3.55,0-4.95,1.8-4.95,3.83c0,5.46,11.04,2.89,11.04,10.3C92.45,40.14,90.05,42.55,85.47,42.55
		L85.47,42.55z"/>
	<path class="st11" d="M98.17,40.86l0.54-3.47c0.89,0.5,1.81,0.89,2.76,1.17c0.94,0.27,1.95,0.41,3.02,0.41
		c1.31,0,2.28-0.25,2.9-0.75c0.62-0.5,0.93-1.21,0.93-2.12c0-0.66-0.25-1.19-0.75-1.58c-0.49-0.39-1.12-0.74-1.86-1.04
		c-0.74-0.3-1.55-0.59-2.43-0.89c-0.87-0.29-1.68-0.67-2.41-1.14c-0.73-0.47-1.35-1.07-1.84-1.8c-0.49-0.73-0.74-1.69-0.74-2.88
		c0-0.86,0.14-1.67,0.42-2.42c0.28-0.75,0.72-1.41,1.32-1.97c0.6-0.56,1.36-1.01,2.27-1.34c0.92-0.33,2.01-0.49,3.28-0.49
		c1.05,0,2.08,0.1,3.07,0.3c1,0.2,1.89,0.48,2.68,0.84l-0.51,3.34c-0.86-0.3-1.7-0.53-2.54-0.68c-0.83-0.15-1.67-0.23-2.51-0.23
		c-0.72,0-1.32,0.07-1.81,0.2c-0.49,0.13-0.88,0.31-1.17,0.54c-0.29,0.23-0.5,0.49-0.62,0.79c-0.12,0.3-0.18,0.61-0.18,0.94
		c0,0.64,0.25,1.15,0.74,1.52c0.5,0.37,1.12,0.7,1.86,1c0.74,0.29,1.55,0.59,2.43,0.87c0.88,0.29,1.68,0.67,2.41,1.14
		c0.73,0.47,1.34,1.08,1.84,1.82c0.49,0.74,0.74,1.71,0.74,2.91c0,2.04-0.65,3.65-1.97,4.83c-1.31,1.18-3.16,1.77-5.55,1.77
		c-1.21,0-2.35-0.14-3.42-0.43C100.02,41.73,99.05,41.34,98.17,40.86L98.17,40.86z"/>
	<path class="st11" d="M158.25,20.91l3.51-0.04v4.22h3.95v2.75h-3.95v9.4c0,0.75,0.19,1.29,0.57,1.61c0.38,0.32,0.93,0.49,1.64,0.49
		c0.23,0,0.48-0.02,0.74-0.05c0.27-0.04,0.48-0.08,0.62-0.14l0.23,2.64c-0.28,0.13-0.66,0.23-1.14,0.31
		c-0.48,0.08-0.98,0.12-1.5,0.12c-1.59,0-2.77-0.43-3.55-1.29c-0.79-0.86-1.18-2.07-1.18-3.64L158.25,20.91L158.25,20.91z"/>
	<path class="st11" d="M131.47,41.98V25.12l2.56-0.2l0.56,1.64c0.64-0.61,1.38-1.07,2.2-1.37c0.83-0.31,1.7-0.46,2.61-0.46
		c1.81,0,3.23,0.53,4.27,1.59c1.04,1.06,1.56,2.62,1.56,4.68v10.98h-3.57V31.04c0-1.07-0.28-1.84-0.83-2.32
		c-0.56-0.47-1.36-0.71-2.42-0.71c-0.64,0-1.28,0.14-1.91,0.41c-0.63,0.27-1.12,0.66-1.47,1.14v12.42H131.47L131.47,41.98z"/>
	<path class="st11" d="M149.65,41.98V25.15l3.57-0.19v17.02H149.65L149.65,41.98z M149.35,21.1c0-1.16,0.71-1.73,2.14-1.72
		c1.43,0,2.14,0.57,2.13,1.72c0,1.12-0.72,1.68-2.16,1.68c-0.7,0-1.23-0.12-1.58-0.37C149.52,22.17,149.35,21.73,149.35,21.1
		L149.35,21.1z"/>
	<path class="st11" d="M183.96,29.77c0-1.49,0.52-2.69,1.55-3.62c1.04-0.93,2.58-1.39,4.64-1.39c1.68,0,3.24,0.32,4.68,0.95
		l-0.31,2.98c-0.71-0.3-1.46-0.52-2.26-0.66c-0.79-0.14-1.51-0.21-2.16-0.21c-0.84,0-1.5,0.16-1.98,0.47
		c-0.48,0.32-0.72,0.76-0.72,1.33c0,0.49,0.2,0.87,0.6,1.16c0.4,0.29,0.9,0.53,1.5,0.74c0.6,0.21,1.25,0.42,1.96,0.63
		c0.7,0.22,1.36,0.51,1.95,0.88c0.6,0.37,1.09,0.85,1.49,1.45c0.4,0.6,0.6,1.39,0.6,2.36c0,0.82-0.12,1.57-0.35,2.24
		c-0.23,0.67-0.6,1.25-1.11,1.72c-0.51,0.47-1.15,0.84-1.93,1.11c-0.79,0.26-1.73,0.4-2.83,0.4c-1.02,0-1.97-0.1-2.86-0.3
		c-0.89-0.2-1.69-0.52-2.4-0.96l0.43-3.02c0.66,0.43,1.44,0.76,2.34,0.99c0.9,0.22,1.73,0.34,2.5,0.34c1.03,0,1.78-0.21,2.24-0.62
		c0.46-0.41,0.69-0.93,0.69-1.55c0-0.54-0.2-0.96-0.61-1.27c-0.4-0.3-0.91-0.57-1.53-0.79c-0.62-0.23-1.28-0.45-1.99-0.66
		c-0.7-0.22-1.37-0.51-1.99-0.88c-0.62-0.37-1.13-0.85-1.53-1.46C184.16,31.54,183.96,30.75,183.96,29.77L183.96,29.77z"/>
	<path class="st11" d="M127.54,28.4c-0.23-0.82-0.6-1.5-1.11-2.03c-0.51-0.53-1.18-0.93-1.99-1.19c-0.82-0.26-1.81-0.39-2.99-0.39
		c-2.1-0.01-3.99,0.35-5.66,1.07l0.32,2.93c0.79-0.33,1.54-0.57,2.26-0.72c0.71-0.15,1.53-0.23,2.45-0.23
		c1.27,0,2.17,0.22,2.71,0.67c0.54,0.45,0.81,1.21,0.81,2.28v6.19c0,0.29-0.09,0.58-0.28,0.87c-0.19,0.29-0.43,0.54-0.74,0.76
		c-0.31,0.21-0.66,0.39-1.06,0.52c-0.4,0.13-0.82,0.2-1.27,0.2c-0.84,0-1.52-0.19-2.04-0.59c-0.52-0.39-0.78-1.08-0.78-2.07
		c0-0.86,0.26-1.51,0.8-1.96c0.53-0.45,1.38-0.67,2.53-0.67c0.71,0,1.05,0.04,1.54,0.16l0.15,0v-2.4c-0.19-0.03-0.19-0.06-0.46-0.11
		c-0.59-0.1-1.21-0.16-1.87-0.16c-2,0-3.52,0.47-4.56,1.41c-1.03,0.94-1.55,2.2-1.55,3.79c0,1.87,0.48,3.25,1.44,4.15
		c0.96,0.89,2.23,1.34,3.82,1.34c1.01,0,1.93-0.18,2.75-0.56c0.82-0.37,1.49-0.89,2.01-1.55l0.09,0.03l0.32,1.8h2.72V31.34
		C127.88,30.2,127.77,29.22,127.54,28.4L127.54,28.4z"/>
	<path class="st11" d="M180.64,28.4c-0.23-0.82-0.6-1.5-1.11-2.03c-0.51-0.53-1.18-0.93-1.99-1.19c-0.81-0.26-1.81-0.39-2.99-0.39
		c-2.11-0.01-3.99,0.35-5.66,1.07l0.32,2.93c0.79-0.33,1.54-0.57,2.26-0.72c0.71-0.15,1.53-0.23,2.45-0.23
		c1.27,0,2.17,0.22,2.71,0.67c0.54,0.45,0.81,1.21,0.81,2.28v6.19c0,0.29-0.09,0.58-0.28,0.87c-0.19,0.29-0.43,0.54-0.74,0.76
		c-0.31,0.21-0.67,0.39-1.06,0.52c-0.4,0.13-0.82,0.2-1.27,0.2c-0.84,0-1.52-0.19-2.04-0.59c-0.52-0.39-0.79-1.08-0.79-2.07
		c0-0.86,0.27-1.51,0.8-1.96c0.53-0.45,1.37-0.67,2.53-0.67c0.71,0,1.05,0.04,1.54,0.16l0.15,0v-2.4c-0.19-0.03-0.19-0.06-0.46-0.11
		c-0.59-0.1-1.22-0.16-1.87-0.16c-2,0-3.52,0.47-4.55,1.41c-1.03,0.94-1.55,2.2-1.55,3.79c0,1.87,0.48,3.25,1.44,4.15
		c0.96,0.89,2.23,1.34,3.82,1.34c1.01,0,1.93-0.18,2.75-0.56c0.82-0.37,1.49-0.89,2.01-1.55l0.08,0.03l0.33,1.8h2.72V31.34
		C180.99,30.2,180.87,29.22,180.64,28.4L180.64,28.4z"/>
	<path class="st11" d="M4.61,30.39c-0.11,0.26-0.14,0.58-0.07,0.97c1.37,4.17,2.74,8.27,5.7,11.89c0.19,0.23,0.4,0.43,0.63,0.63
		c2.41,2.12,4,2.08,4.6-1.07c0.22-1.17,0.25-3.4,0.25-5.17c-0.54-0.34-1.08-0.68-1.59-1.02C12.14,35.27,6.62,31.69,4.61,30.39
		L4.61,30.39z"/>
	<path class="st11" d="M6.98,28.96c5.56-1.59,11.09-3.24,16.65-4.84c0.54-0.16,1.19-0.3,1.69-0.13c5.38,1.83,10.05,4.72,12.7,9.94
		c2.5,4.92,0.02,8.63-5.55,8.79c-3.78,0.11-7.21-1.05-10.44-2.88c-1.72-0.97-3.99-2.28-5.93-3.58c-2.46-1.66-10.27-6.7-10.27-6.7
		L6.98,28.96L6.98,28.96z"/>
	<path class="st11" d="M8.37,14.23c-1.14-1.69-2.57-3.75-3.59-4.71c-1.72-1.62-3.96-1.53-4.64,2c-0.06,0.32-0.12,0.65-0.13,0.98
		c-0.14,5.24,0.88,9.37,2.93,14.64c0.12,0.23,0.25,0.4,0.39,0.55c1-2.82,3.86-10.83,4.19-11.59C7.84,15.39,8.11,14.78,8.37,14.23
		L8.37,14.23z"/>
	<path class="st11" d="M5.58,27.72c5.81-1.74,10.78-3.12,16.6-4.85c0.56-0.17,1.23-0.41,1.57-0.84c3.72-4.67,6.22-9.86,5.61-15.98
		c-0.57-5.76-4.86-7.65-9.88-4.63c-3.41,2.05-5.78,5.01-7.6,8.45c-0.97,1.83-1.53,3.05-2.52,5.27c-0.41,0.92-4.54,12.57-4.54,12.57
		L5.58,27.72L5.58,27.72z"/>
</g>
</svg>
