<?xml version="1.0" encoding="utf-8"?>
<!-- Generator: Adobe Illustrator 23.0.1, SVG Export Plug-In . SVG Version: 6.00 Build 0)  -->
<svg version="1.1" id="Capa_1" xmlns="http://www.w3.org/2000/svg" xmlns:xlink="http://www.w3.org/1999/xlink" x="0px" y="0px"
	 viewBox="0 0 232.96 69.37" style="enable-background:new 0 0 232.96 69.37;" xml:space="preserve">
<style type="text/css">
	.st0{fill:#136380;}
	.st1{fill:#00AFB7;}
	.st2{fill:none;stroke:#344154;stroke-width:3;stroke-linecap:round;stroke-miterlimit:10;}
	.st3{fill:#FF6D3B;}
	.st4{fill:url(#SVGID_1_);}
	.st5{fill:url(#SVGID_2_);}
	.st6{fill:url(#SVGID_3_);}
	.st7{fill:url(#SVGID_4_);}
	.st8{fill:url(#SVGID_5_);}
	.st9{opacity:0.5;fill:url(#SVGID_6_);}
	.st10{fill:url(#SVGID_7_);}
	.st11{fill:#FFFFFF;}
	.st12{clip-path:url(#SVGID_9_);fill:#FFFFFF;}
	.st13{fill-rule:evenodd;clip-rule:evenodd;fill:#FFFFFF;}
</style>
<g>
	<path class="st11" d="M4.14,25.52h0.22l0.52,1.97c0.46,0.26,1.18,0.35,1.56,0.35c1.23,0,2.34-0.55,2.34-1.97
		c0-2.17-4.79-1.99-4.79-4.87c0-1.85,1.72-2.76,3.37-2.76c0.64,0,1.62,0.2,2.26,0.49l-0.09,2.1H9.36l-0.6-1.7
		c-0.52-0.2-1.03-0.29-1.55-0.29c-0.96,0-1.85,0.75-1.85,1.78c0,2.4,4.79,1.79,4.79,4.96c0,1.33-1,2.86-4.01,2.86
		c-0.73,0-1.39-0.09-2.26-0.43L4.14,25.52z"/>
	<path class="st11" d="M14.87,20.73c0-1.44-0.05-1.54-0.38-1.65l-1.29-0.43v-0.21c1.27,0.06,2.43,0.12,3.6,0.12
		c1.45,0,2.89-0.06,4.24-0.12C21.03,18.81,21,19.37,21,19.59c0,0.23,0.03,0.75,0.04,1.1h-0.21l-0.4-1.15
		c-0.15-0.43-0.28-0.43-2.04-0.43c-0.89,0-1.59,0.01-2.16,0.03c-0.03,0.54-0.08,1.1-0.08,1.74v1.88h1.59c1.85,0,2.02-0.03,2.16-0.37
		l0.4-1.09h0.21c-0.02,0.58-0.03,1.16-0.03,1.73c0,0.63,0.02,1.21,0.03,1.85h-0.21l-0.4-1.16c-0.14-0.34-0.31-0.37-2.16-0.37h-1.59
		v2.08c0,0.7,0.05,1.41,0.08,2.05c0.72,0.02,1.44,0.06,2.13,0.06c1.64,0,1.87-0.01,2.02-0.2c0.18-0.23,0.35-0.72,0.63-1.62h0.22
		c-0.03,0.44-0.09,0.9-0.09,1.35l0,1.16c-0.79-0.06-3.15-0.12-4.01-0.12c-1.35,0-2.82,0.06-3.92,0.12v-0.21l1.18-0.4
		c0.43-0.14,0.49-0.2,0.49-1.38V20.73z"/>
	<path class="st11" d="M31.48,24.85c0-0.24-0.06-0.34-0.75-0.6l-0.92-0.35v-0.21c0.73,0.03,1.47,0.12,2.2,0.12
		c0.69,0,1.36-0.09,2.04-0.12v0.21l-0.96,0.46c-0.27,0.14-0.32,0.29-0.32,0.61v2.36c0,0.15,0.02,0.41,0.03,0.69
		c-0.58,0.18-1.85,0.43-2.88,0.43c-3.49,0-5.63-2.04-5.63-4.91c0-3.51,3.27-5.28,5.99-5.28c0.84,0,1.51,0.08,2.17,0.22
		c-0.02,0.4-0.03,0.79-0.03,1.18c0,0.44,0.02,0.89,0.03,1.33h-0.22c-0.21-0.66-0.5-1.5-0.73-1.79c-0.15-0.2-1.07-0.34-1.67-0.34
		c-2.16,0-3.98,1.49-3.98,4.55c0,2.63,1.56,4.46,3.84,4.46c0.64,0,1.22-0.07,1.76-0.26c0.02-0.23,0.03-0.46,0.03-0.57V24.85z"/>
	<path class="st11" d="M47.65,18.65l-0.68,0.26c-0.4,0.17-0.61,0.31-0.63,0.63c-0.03,0.86,0,2.11-0.03,4.84
		c-0.03,2.97-1.48,4.07-3.77,4.07c-2.22,0-3.76-0.96-3.76-3.3v-4.3c0-1.29-0.05-1.59-0.47-1.76l-1.1-0.43v-0.21
		c0.75,0.06,1.47,0.12,2.19,0.12c0.81,0,1.61-0.06,2.42-0.12v0.21l-0.71,0.26c-0.84,0.32-0.96,0.38-0.99,0.92
		c-0.05,0.9-0.05,2.22-0.05,4.58c0,1.96,0.44,3.25,2.88,3.25c1.61,0,2.57-1,2.57-2.83c0-1.88-0.02-4.32-0.14-5.37
		c-0.03-0.27-0.26-0.4-0.67-0.54l-0.84-0.26v-0.21c0.66,0.06,1.32,0.12,1.99,0.12c0.58,0,1.18-0.06,1.79-0.12V18.65z"/>
	<path class="st11" d="M58.62,26.45l-2.11-3.16c1.41-0.23,2.51-0.96,2.51-2.51c0-1.53-1.32-2.35-3.34-2.35
		c-1.09,0-1.96,0.12-2.76,0.12c-0.83,0-1.55-0.06-2.11-0.12v0.21l1.29,0.43c0.34,0.11,0.38,0.21,0.38,1.65v5.54
		c0,1.18-0.06,1.24-0.49,1.38l-1.18,0.4v0.21c0.73-0.06,1.62-0.12,2.4-0.12c0.54,0,1.56,0.06,2.22,0.12v-0.21l-1.22-0.41
		c-0.4-0.12-0.44-0.48-0.44-2.46v-1.76h1.18c0.95,1.24,2.31,3.2,3.29,4.85c0.38-0.03,0.76-0.06,1.13-0.06
		c0.35,0,0.72,0.03,1.07,0.06v-0.21C59.58,27.89,59.51,27.78,58.62,26.45z M54.81,22.9h-1.04v-3.83c0.46,0,0.92-0.01,1.41-0.01
		c1.44,0,2.37,0.58,2.37,1.93C57.55,22.67,56.23,22.9,54.81,22.9z"/>
	<path class="st11" d="M67.99,18.25c-3.09,0-5.01,2.14-5.01,5.19c0,2.48,1.58,5,4.76,5c3.05,0,4.87-2.4,4.87-5.43
		C72.61,20.22,70.81,18.25,67.99,18.25z M67.9,27.94c-2.24,0-3.35-2.08-3.35-5.24c0-2.17,1.15-3.95,3.28-3.95
		c2.53,0,3.23,2.44,3.23,4.99C71.05,25.83,70.23,27.94,67.9,27.94z"/>
	<path class="st11" d="M76.26,25.52h0.21l0.52,1.97c0.46,0.26,1.18,0.35,1.56,0.35c1.22,0,2.34-0.55,2.34-1.97
		c0-2.17-4.79-1.99-4.79-4.87c0-1.85,1.71-2.76,3.37-2.76c0.64,0,1.62,0.2,2.26,0.49l-0.09,2.1h-0.17l-0.6-1.7
		c-0.52-0.2-1.03-0.29-1.55-0.29c-0.97,0-1.85,0.75-1.85,1.78c0,2.4,4.79,1.79,4.79,4.96c0,1.33-0.99,2.86-4.01,2.86
		c-0.73,0-1.39-0.09-2.27-0.43L76.26,25.52z"/>
	<path class="st11" d="M181.93,58.66h2.56c0,0,1.98-6.75,11.64-11.17C196.13,47.49,188.68,48.07,181.93,58.66z"/>
	<path class="st11" d="M207.3,42.6c0,0,5.82,9.54-7.33,15.94h2.56C202.53,58.55,217.19,51.8,207.3,42.6z"/>
	<path class="st11" d="M197.87,69.37c0,0,23.86-18.85,30.14-33.17c0,0,8.96-16.06-11.52-13.15c0,0,11.64-5.47,15.71,1.4
		c0,0,4.42,7.68-8.03,22.69C224.17,47.14,212.65,61.46,197.87,69.37z"/>
	<path class="st11" d="M211.84,12.46c0,0-2.56,4.77,4.77,11.99C216.61,24.45,211.95,16.31,211.84,12.46z"/>
	<path class="st11" d="M203.92,8.74l2.68,1.05c0,0,3.61-0.81,6.28,0.47C212.88,10.26,212.65,6.76,203.92,8.74z"/>
	<path class="st11" d="M200.2,5.13l3.14,0.82c0,0,5-1.51,9.66,0.58C213,6.53,209.16,2.11,200.2,5.13z"/>
	<path class="st11" d="M179.72,41.67c0,0,4.54-3.03,3.96-12.1C183.67,29.57,181.35,38.88,179.72,41.67z"/>
	<path class="st11" d="M190.77,24.45c-18.39,3.96-11.41,12.45-11.41,12.45C177.04,28.87,190.77,24.45,190.77,24.45z"/>
	<path class="st11" d="M202.88,26.66c-0.48-0.27-0.94-0.57-1.38-0.91c0.23-1.46,0.32-3.02,0.22-4.68c0,0-1.79-3.03-6.53-3.91
		c-1.91-4.06-2.78-7.73-2.78-7.73l-3.26-1.16c3.72-10.59,21.65-5.35,21.65-5.35c-3.14-3.84-11.87-2.79-11.87-2.79
		c-12.45,1.51-11.87,8.49-11.87,8.49c1.28,1.4,3.49,2.1,3.49,2.1c0.67,2.35,1.52,4.41,2.46,6.22c-2.98-0.09-6.84,0.64-11.76,2.97
		c0,0-18.07,7.6-6.82,21.76c-6.35,3.4-14.48,9.82-4,16.99c0,0-9.66-9.31,9.66-19.55c0,0-2.44,0.87-5.33,2.39
		c-1.28-1.89-7.63-12.57,7.07-20.19c0,0,6.1-3.41,12.3-2.4c2,3.24,4.22,5.47,5.94,6.89c-0.54,3.56-2.57,8.94-9.17,14.24
		c0,0-3.84-1.28-5.59-3.14c0,0,1.05,3.26,5.59,4.54c0,0,8.37-4.94,10.42-14.68c1.03,0.74,1.69,1.07,1.69,1.07
		c5.47-1.63,5.7-6.63,5.7-6.63C206.95,25.15,202.88,26.66,202.88,26.66z"/>
	<path class="st11" d="M196.38,19.49c1.28,0.46,2.53,1.16,3.7,2.16c0,0,0.25,1.12,0.11,2.97C198.69,23.17,197.43,21.35,196.38,19.49
		z"/>
	<path class="st11" d="M200.32,46.91c0,0-6.63-0.35-5-6.63c0,0,2.09-7.45,10.24-6.05c0,0,6.4,3.38,0.12,9.54
		c0,0,4.65-6.28-0.82-8.15c0,0-6.17-1.05-8.38,5.47C196.47,41.09,195.08,44.82,200.32,46.91z"/>
	<path class="st11" d="M71.72,37.37h1.29l4.67-3.08c0,0,1.81-1.17,0.8-2.16c-0.99-0.97-2.69,0.98-2.69,0.98L71.72,37.37z"/>
	<path class="st11" d="M10.83,48.21v-0.06c2.91-0.28,5.69-1.79,5.69-4.36c0-3.71-3.34-5.17-6.65-5.17c-1.76,0-4.12,0.25-5.35,0.25
		c-1.24,0-2.82-0.12-4.52-0.25v0.43l2.6,0.87c0.68,0.22,0.77,0.43,0.77,3.34v11.2c0,2.38-0.12,2.5-0.99,2.78L0,58.05v0.43
		c1.39-0.12,2.63-0.25,4.08-0.25c1.92,0,4.33,0.25,6.68,0.25c4.45,0,6.68-2.41,6.68-5.26C17.45,49.57,13.89,48.43,10.83,48.21z
		 M5.97,43.42c0-1.39,0.03-2.29,0.09-3.71c1.05-0.06,1.7-0.06,2.69-0.06c2.63,0,4.8,1.08,4.8,4.12c0,3.53-3.16,3.87-5.2,3.87H5.97
		V43.42z M8.42,57.46c-0.77,0-1.52-0.06-2.35-0.09C6,56.41,5.97,55.48,5.97,54.52v-5.88h2.2c3.47,0,6.31,1.11,6.31,4.49
		C14.48,56.78,11.42,57.46,8.42,57.46z"/>
	<path class="st11" d="M33.92,38.25c-6.25,0-10.12,4.33-10.12,10.49c0,5.01,3.19,10.12,9.62,10.12c6.16,0,9.84-4.86,9.84-10.99
		C43.27,42.24,39.62,38.25,33.92,38.25z M33.74,57.84c-4.52,0-6.78-4.21-6.78-10.58c0-4.39,2.32-7.98,6.62-7.98
		c5.1,0,6.53,4.92,6.53,10.09C40.11,53.56,38.44,57.84,33.74,57.84z"/>
	<path class="st11" d="M52.46,43.26c0-2.91-0.09-3.13-0.77-3.34l-2.6-0.87v-0.43c1.49,0.13,3,0.25,4.58,0.25
		c1.58,0,3.09-0.12,4.98-0.25v0.43l-2.82,0.87c-0.68,0.22-0.77,0.43-0.77,3.59v11.67v1.92h6c1.55,0,1.76-0.25,2.32-1.49l0.96-2.1
		h0.37l-0.25,4.98c-3-0.12-7.15-0.25-9-0.25c-2.11,0-4.24,0.13-6.38,0.25v-0.43l2.38-0.81c0.87-0.28,0.99-0.4,0.99-2.78V43.26z"/>
	<path class="st11" d="M69.16,58.05l2.38-0.81c0.77-0.28,0.87-0.4,0.9-2.78c0.03-1.86,0.09-3.75,0.09-5.6c0-1.86-0.06-3.75-0.09-5.6
		c-0.06-2.91-0.09-3.13-0.68-3.34l-2.6-0.87v-0.43c1.48,0.13,3,0.25,4.73,0.25c1.55,0,3.06-0.12,4.61-0.25v0.43l-2.6,0.87
		c-0.59,0.22-0.62,0.43-0.68,3.34c-0.03,1.86-0.09,3.75-0.09,5.6c0,1.86,0.06,3.75,0.09,5.6c0.03,2.38,0.13,2.5,0.9,2.78l2.38,0.81
		v0.43c-1.45-0.12-3.25-0.25-4.61-0.25c-1.55,0-3.34,0.13-4.73,0.25V58.05z"/>
	<path class="st11" d="M82.71,38.62c1.42,0.13,2.88,0.25,4.3,0.25c1.3,0,2.63-0.12,3.93-0.25v0.43l-1.08,0.31
		c-1.42,0.4-1.7,0.56-1.7,0.9c0,0.65,3.96,10.27,5.42,13.55c1.89-4.52,3.62-8.97,4.7-12.41c0.18-0.56,0.31-0.9,0.31-1.24
		c0-0.34-0.96-0.68-2.32-1.11v-0.43c1.17,0.13,2.35,0.25,3.53,0.25c0.96,0,1.89-0.12,2.82-0.25v0.43c-1.33,0.34-1.76,0.68-2.26,1.73
		c-1.95,4.24-4.39,10.34-7.24,18.07h-0.71c-2.01-5.63-5.17-13.43-7.12-17.92c-0.5-1.14-0.71-1.23-1.7-1.58l-0.87-0.31V38.62z"/>
	<path class="st11" d="M120.79,57.15c-2.63-6.28-5.42-12.72-7.89-19.15h-0.68c-2.23,5.57-5.57,12.69-8.26,19.03
		c-0.74,0.4-1.61,0.74-2.35,1.02v0.43c1.15-0.12,2.29-0.25,3.44-0.25c1.24,0,2.44,0.13,3.65,0.25v-0.43l-2.66-0.96
		c0.43-1.73,0.93-3.56,1.76-5.14c1.3-0.03,2.57-0.06,3.87-0.06c1.3,0,2.63,0.03,3.93,0.06c0.43,0.93,1.42,3.84,1.79,5.14
		c-0.93,0.37-2.26,0.77-3.03,0.96v0.43c1.39-0.12,2.75-0.25,4.15-0.25c1.64,0,3.25,0.13,4.89,0.25v-0.43L120.79,57.15z
		 M108.22,50.69l3.56-8.2l3.4,8.2H108.22z"/>
	<path class="st11" d="M141.31,54.83l-4.27-6.38c2.85-0.46,5.07-1.95,5.07-5.07c0-3.09-2.66-4.77-6.75-4.77
		c-2.2,0-3.96,0.25-5.57,0.25c-1.67,0-3.12-0.12-4.27-0.25v0.43l2.6,0.87c0.68,0.22,0.77,0.43,0.77,3.34v11.2
		c0,2.38-0.12,2.5-0.99,2.78l-2.38,0.81v0.43c1.48-0.12,3.28-0.25,4.86-0.25c1.08,0,3.16,0.13,4.49,0.25v-0.43l-2.48-0.84
		c-0.8-0.25-0.9-0.96-0.9-4.98v-3.56h2.38c1.92,2.51,4.67,6.47,6.65,9.81c0.77-0.06,1.55-0.12,2.29-0.12c0.71,0,1.46,0.06,2.17,0.12
		l0-0.43C143.26,57.74,143.1,57.53,141.31,54.83z M133.6,47.65h-2.1v-7.74c0.93,0,1.86-0.03,2.85-0.03c2.91,0,4.8,1.18,4.8,3.9
		C139.14,47.19,136.48,47.65,133.6,47.65z"/>
</g>
</svg>
