<?xml version="1.0" encoding="utf-8"?>
<!-- Generator: Adobe Illustrator 23.0.1, SVG Export Plug-In . SVG Version: 6.00 Build 0)  -->
<svg version="1.1" id="Capa_1" xmlns="http://www.w3.org/2000/svg" xmlns:xlink="http://www.w3.org/1999/xlink" x="0px" y="0px"
	 viewBox="0 0 442.33 82.27" style="enable-background:new 0 0 442.33 82.27;" xml:space="preserve">
<style type="text/css">
	.st0{fill:#136380;}
	.st1{fill:#00AFB7;}
	.st2{fill:none;stroke:#344154;stroke-width:3;stroke-linecap:round;stroke-miterlimit:10;}
	.st3{fill:#FF6D3B;}
	.st4{fill:url(#SVGID_1_);}
	.st5{fill:url(#SVGID_2_);}
	.st6{fill:url(#SVGID_3_);}
	.st7{fill:url(#SVGID_4_);}
	.st8{fill:url(#SVGID_5_);}
	.st9{opacity:0.5;fill:url(#SVGID_6_);}
	.st10{fill:url(#SVGID_7_);}
	.st11{fill:#FFFFFF;}
	.st12{clip-path:url(#SVGID_9_);fill:#FFFFFF;}
	.st13{fill-rule:evenodd;clip-rule:evenodd;fill:#FFFFFF;}
	.st14{fill-rule:evenodd;clip-rule:evenodd;fill:#064627;}
	.st15{fill-rule:evenodd;clip-rule:evenodd;fill:#70AC54;}
	.st16{fill-rule:evenodd;clip-rule:evenodd;fill:#1F1A17;}
</style>
<g>
	<path class="st14" d="M384.58,74.04c0.1-21.37,6.77-36.68,18.4-48.2c6.91-6.83,15.43,2.18,7.48,7.43
		C404.01,37.5,386.65,47.22,384.58,74.04"/>
	<path class="st14" d="M382.62,74.13c-1.68-18.43-3.49-33.88,3.54-46.89c4.18-7.7,11.66-1.82,7.48,3.22
		C388.26,36.95,381.01,51.1,382.62,74.13z"/>
	<path class="st14" d="M387.42,74.1c3.07-16.63,10.39-27.61,21.07-34.97c6.34-4.35,11.65,3.27,4.77,6.83
		C407.85,48.75,392.79,53.48,387.42,74.1z"/>
	<path class="st14" d="M402.12,19.17c0,2.23-1.8,4.02-4.04,4c-2.22,0-4.01-1.8-4.02-4.03c0-2.21,1.8-4.01,4.01-3.99
		C400.32,15.15,402.12,16.96,402.12,19.17z"/>
	<path class="st14" d="M422.63,21.25c0,2.23-1.79,4.02-3.99,4c-2.22,0-4.03-1.8-4.03-4.01c0-2.21,1.8-4,4-4
		C420.83,17.24,422.63,19.04,422.63,21.25z"/>
	<path class="st14" d="M426.8,37.61c0,2.23-1.79,4.02-4.01,4c-2.2,0-4.01-1.8-4.01-4.03c-0.01-2.21,1.79-4,4-4
		C425,33.61,426.8,35.41,426.8,37.61z"/>
	<path class="st15" d="M373.4,17.62C384.25,0.13,407.21-5.24,424.68,5.6c17.5,10.85,22.89,33.82,12.06,51.29
		c-8.4,13.53-24.03,19.8-38.79,16.94c12.83,1.59,26.01-4.19,33.28-15.89c9.9-16.02,4.98-37.09-11.05-47.02c-16-9.93-37.1-5-47,11.02
		c-3.82,6.15-5.45,13.04-5.1,19.78C367.12,33.62,368.79,25.12,373.4,17.62z"/>
	<path class="st14" d="M158.7,68.92l2.46-1.48c1.76,3.21,3.78,4.82,6.06,4.82c0.99,0,1.9-0.22,2.77-0.68
		c0.86-0.46,1.5-1.07,1.96-1.84c0.43-0.76,0.69-1.57,0.69-2.43c0-0.98-0.36-1.93-1.01-2.87c-0.95-1.3-2.57-2.86-5.02-4.68
		c-2.42-1.85-3.94-3.16-4.53-4c-1.05-1.36-1.54-2.85-1.54-4.46c0-1.25,0.3-2.42,0.91-3.46c0.59-1.05,1.44-1.88,2.55-2.48
		c1.1-0.6,2.3-0.89,3.61-0.89c1.37,0,2.65,0.34,3.85,1.02c1.19,0.68,2.47,1.94,3.78,3.73l-2.37,1.81c-1.09-1.44-2.03-2.39-2.79-2.86
		c-0.79-0.46-1.61-0.69-2.55-0.69c-1.15,0-2.14,0.36-2.85,1.08c-0.77,0.72-1.13,1.58-1.13,2.63l0.38,1.84l1.45,1.95
		c0.4,0.37,1.64,1.34,3.77,2.93c2.54,1.86,4.26,3.51,5.18,4.96c0.97,1.45,1.42,2.92,1.42,4.39c0,2.11-0.81,3.94-2.39,5.51
		c-1.61,1.56-3.57,2.34-5.86,2.34c-1.79,0-3.4-0.47-4.83-1.41C161.23,72.73,159.92,71.15,158.7,68.92z"/>
	<path class="st14" d="M181.12,52.79h2.77v10.06c0,2.47,0.12,4.16,0.4,5.08c0.4,1.32,1.17,2.37,2.28,3.13
		c1.12,0.76,2.46,1.15,4,1.15c1.57,0,2.87-0.38,3.95-1.12c1.1-0.75,1.84-1.74,2.26-2.95c0.27-0.83,0.41-2.59,0.41-5.29V52.79h2.82
		v10.58c0,2.98-0.32,5.23-1.03,6.74c-0.7,1.51-1.74,2.68-3.12,3.54c-1.41,0.85-3.18,1.28-5.27,1.28c-2.1,0-3.86-0.42-5.28-1.28
		c-1.41-0.86-2.48-2.04-3.16-3.57c-0.71-1.54-1.04-3.84-1.04-6.9V52.79z"/>
	<path class="st14" d="M225.43,55.55c-2.19-2.21-4.79-3.31-7.87-3.31c-1.76,0-3.35,0.37-4.76,1.12c-1.43,0.75-2.69,1.89-3.79,3.39
		v-3.96h-2.76v29.47h2.76V70.65c1.17,1.42,2.46,2.49,3.89,3.2c1.45,0.71,3.02,1.07,4.73,1.07c3.07,0,5.67-1.1,7.83-3.32
		c2.17-2.22,3.25-4.9,3.25-8.09C228.71,60.41,227.62,57.76,225.43,55.55z M224.71,67.96c-0.76,1.38-1.82,2.46-3.13,3.23
		c-1.3,0.76-2.71,1.16-4.19,1.16c-1.5,0-2.95-0.38-4.3-1.16c-1.37-0.75-2.42-1.79-3.15-3.09c-0.72-1.31-1.11-2.77-1.11-4.42
		c0-2.49,0.82-4.57,2.46-6.25c1.63-1.68,3.68-2.51,6.07-2.51c1.54,0,2.96,0.38,4.26,1.15c1.3,0.77,2.34,1.81,3.12,3.2
		c0.77,1.37,1.17,2.8,1.17,4.36C225.9,65.12,225.49,66.58,224.71,67.96z"/>
	<path class="st14" d="M249.72,70.25c-0.73,0.64-1.61,1.14-2.67,1.53c-1.03,0.39-2.1,0.57-3.21,0.57c-2.28,0-4.18-0.79-5.72-2.4
		c-1.58-1.62-2.37-3.67-2.43-6.16h19.47c-0.02-2.96-0.8-5.41-2.39-7.37c-2.19-2.79-5.14-4.18-8.81-4.18c-3.58,0-6.44,1.36-8.57,4.08
		c-1.69,2.15-2.53,4.59-2.53,7.33c0,2.89,1,5.51,2.98,7.81c1.99,2.3,4.74,3.46,8.26,3.46c1.59,0,3-0.24,4.28-0.74
		c1.25-0.47,2.39-1.18,3.39-2.11c1-0.92,1.89-2.15,2.67-3.66l-2.36-1.23C251.24,68.58,250.45,69.62,249.72,70.25z M238.51,56.93
		c1.51-1.36,3.34-2.04,5.47-2.04c1.28,0,2.5,0.28,3.67,0.81c1.17,0.53,2.09,1.25,2.83,2.14c0.7,0.88,1.25,2.05,1.6,3.55h-16.12
		C236.54,59.4,237.38,57.91,238.51,56.93z"/>
	<path class="st14" d="M259.28,52.79h2.84v3.14c0.84-1.24,1.73-2.16,2.67-2.77c0.93-0.6,1.91-0.92,2.91-0.92
		c0.75,0,1.59,0.24,2.46,0.75l-1.44,2.32l-1.47-0.36c-0.92,0-1.81,0.36-2.67,1.12c-0.86,0.77-1.5,1.95-1.97,3.54
		c-0.33,1.25-0.49,3.74-0.49,7.48v7.29h-2.85V52.79z"/>
	<path class="st14" d="M283.38,55.14l-1.79,1.84c-1.49-1.43-2.94-2.15-4.36-2.15c-0.89,0-1.68,0.28-2.33,0.88l-0.97,2.08l0.8,2
		c0.55,0.66,1.67,1.41,3.35,2.29c2.07,1.06,3.47,2.1,4.22,3.1c0.74,1,1.11,2.13,1.11,3.38c0,1.78-0.63,3.27-1.89,4.51
		c-1.23,1.23-2.78,1.84-4.66,1.84c-1.24,0-2.44-0.27-3.57-0.8c-1.14-0.54-2.07-1.3-2.81-2.25l1.74-1.99
		c1.44,1.6,2.93,2.39,4.52,2.39c1.12,0,2.07-0.35,2.83-1.08c0.78-0.7,1.18-1.53,1.18-2.5l-0.77-2.11c-0.52-0.62-1.7-1.38-3.5-2.31
		c-1.94-1-3.28-2-3.98-2.98c-0.7-0.97-1.05-2.09-1.05-3.36c0-1.63,0.56-2.99,1.67-4.08c1.13-1.08,2.54-1.62,4.25-1.62
		C279.35,52.24,281.37,53.21,283.38,55.14z"/>
	<path class="st14" d="M307.1,52.79v3.96c-1.08-1.5-2.35-2.64-3.79-3.39c-1.42-0.75-3.04-1.12-4.81-1.12c-3.06,0-5.68,1.1-7.86,3.31
		c-2.19,2.21-3.28,4.86-3.28,7.97c0,3.18,1.09,5.87,3.24,8.09c2.17,2.22,4.79,3.32,7.84,3.32c1.72,0,3.3-0.35,4.75-1.07
		c1.45-0.71,2.75-1.78,3.91-3.2v3.73h2.72V52.79H307.1z M306.15,68.09c-0.73,1.31-1.77,2.34-3.12,3.09
		c-1.38,0.78-2.8,1.16-4.32,1.16c-1.5,0-2.91-0.4-4.22-1.16c-1.32-0.78-2.36-1.85-3.13-3.23c-0.78-1.38-1.18-2.84-1.18-4.34
		c0-1.55,0.38-2.99,1.16-4.36c0.77-1.39,1.81-2.43,3.12-3.2c1.3-0.76,2.72-1.15,4.26-1.15c2.4,0,4.44,0.84,6.07,2.51
		c1.65,1.68,2.47,3.76,2.47,6.25C307.26,65.33,306.89,66.78,306.15,68.09z"/>
	<polygon class="st14" points="315.65,44.44 318.44,44.44 318.44,74.38 315.67,74.38 	"/>
	<path class="st14" d="M323.83,52.79h2.8l0.01,10.06c0,2.47,0.12,4.16,0.38,5.08c0.41,1.32,1.18,2.37,2.29,3.13
		c1.12,0.76,2.45,1.15,4.01,1.15c1.55,0,2.87-0.38,3.95-1.12c1.08-0.75,1.83-1.74,2.24-2.95c0.27-0.83,0.4-2.59,0.4-5.29V52.79h2.83
		v10.58c0,2.98-0.33,5.23-1.02,6.74c-0.71,1.51-1.74,2.68-3.14,3.54c-1.4,0.85-3.16,1.28-5.26,1.28c-2.12,0-3.86-0.42-5.29-1.28
		c-1.39-0.86-2.45-2.04-3.15-3.57c-0.69-1.54-1.06-3.84-1.06-6.9V52.79z"/>
	<path class="st14" d="M370.45,74.38l-0.01-29.93h-2.73v12.31c-1.07-1.5-2.34-2.62-3.77-3.4c-1.43-0.75-3.04-1.12-4.8-1.12
		c-3.07,0-5.7,1.1-7.89,3.31c-2.18,2.21-3.27,4.86-3.27,7.97c0,3.18,1.09,5.87,3.26,8.09c2.17,2.22,4.79,3.32,7.82,3.32
		c1.73,0,3.32-0.35,4.75-1.07c1.45-0.71,2.77-1.78,3.91-3.2v3.73H370.45z M366.79,68.09c-0.74,1.31-1.79,2.34-3.13,3.09
		c-1.37,0.78-2.81,1.16-4.32,1.16c-1.51,0-2.92-0.4-4.22-1.16c-1.33-0.78-2.36-1.85-3.14-3.23c-0.77-1.38-1.17-2.84-1.17-4.34
		c0-1.55,0.39-2.99,1.15-4.36c0.78-1.39,1.81-2.43,3.13-3.2c1.29-0.76,2.72-1.15,4.27-1.15c2.4,0,4.41,0.84,6.05,2.51
		c1.66,1.68,2.47,3.76,2.47,6.25C367.88,65.33,367.51,66.78,366.79,68.09z"/>
	<polygon class="st16" points="0,52.11 4.49,52.11 10.27,68.44 16.17,52.11 20.65,52.11 12.34,75.12 8.15,75.12 	"/>
	<rect x="23.86" y="52.11" class="st16" width="4.35" height="23.01"/>
	<path class="st16" d="M54.38,55.87l-3.09,3.06c-1.95-2.07-4.24-3.11-6.82-3.11c-2.28,0-4.19,0.76-5.7,2.25
		c-1.53,1.5-2.3,3.34-2.3,5.47c0,2.23,0.81,4.1,2.38,5.65c1.6,1.55,3.54,2.31,5.87,2.31c1.52,0,2.8-0.32,3.84-0.95
		c1.02-0.64,1.87-1.63,2.5-2.97h-6.64v-4.12h11.55c0.03,2.97-0.49,4.87-1.52,6.69c-1.04,1.79-2.39,3.17-4.06,4.12
		c-1.65,0.94-3.61,1.42-5.84,1.42c-2.37,0-4.52-0.51-6.39-1.55c-1.87-1.04-3.35-2.52-4.46-4.42c-1.1-1.94-1.63-4.01-1.63-6.22
		c0-3.05,1.03-5.69,3.03-7.94c2.39-2.69,5.49-4.01,9.33-4.01c1.99,0,3.87,0.35,5.61,1.1C51.52,53.27,52.96,54.35,54.38,55.87z"/>
	<rect x="59.74" y="52.11" class="st16" width="4.36" height="23.01"/>
	<polygon class="st16" points="69,52.11 73.38,52.11 73.38,70.94 79.77,70.94 79.77,75.12 69,75.12 	"/>
	<path class="st16" d="M94.57,52.11h-4.45l-8.88,23.01h4.54l1.89-4.75h9.39l1.79,4.75h4.58L94.57,52.11z M89.29,66.1l3.07-7.9
		l3.06,7.9H89.29z"/>
	<path class="st16" d="M123.46,57.39c-1.03-1.85-2.38-3.21-3.99-4.05c-1.64-0.83-4.12-1.23-7.48-1.23h-5.17v23.01h5.27
		c2.97,0,5.09-0.2,6.28-0.57c1.21-0.37,2.34-1.05,3.35-2.03c1.05-0.98,1.87-2.2,2.44-3.69c0.6-1.49,0.89-3.13,0.89-4.89
		C125.05,61.43,124.51,59.26,123.46,57.39z M119.77,67.84c-0.59,1.08-1.33,1.85-2.24,2.32c-0.87,0.46-2.34,0.67-4.32,0.67h-2.03
		v-14.5h1.49c2.7,0,4.69,0.6,5.91,1.82c1.37,1.34,2.05,3.24,2.05,5.67C120.61,65.42,120.36,66.75,119.77,67.84z"/>
	<path class="st16" d="M148.47,55.06c-2.34-2.36-5.11-3.52-8.38-3.52c-2.14,0-4.14,0.52-6.01,1.61c-1.86,1.07-3.33,2.54-4.38,4.38
		c-1.05,1.85-1.58,3.88-1.58,6.08c0,3.27,1.12,6.11,3.4,8.5c2.27,2.39,5.15,3.58,8.61,3.58c3.28,0,6.1-1.15,8.4-3.5
		c2.3-2.31,3.42-5.15,3.42-8.5C151.97,60.29,150.81,57.41,148.47,55.06z M145.4,69.21c-1.44,1.5-3.2,2.25-5.3,2.25
		c-1.82,0-3.45-0.57-4.88-1.73c-1.82-1.48-2.72-3.49-2.72-6.04c0-2.28,0.71-4.15,2.16-5.64c1.43-1.47,3.25-2.23,5.36-2.23
		c2.1,0,3.9,0.76,5.35,2.28c1.47,1.5,2.21,3.37,2.21,5.55C147.59,65.85,146.86,67.71,145.4,69.21z"/>
</g>
</svg>
